<svg width="53.000000" height="15.000000" viewBox="0 0 53 15" fill="none" xmlns="http://www.w3.org/2000/svg" xmlns:xlink="http://www.w3.org/1999/xlink">
	<desc>
			Created with Pixso.
	</desc>
	<defs/>
	<path id="Vector" d="M7.12 9.78C7.12 9.88 7.12 9.98 7.12 10.1C7.05 10.11 6.99 10.13 6.93 10.13C5.44 10.13 3.95 10.13 2.46 10.14C2.18 10.14 2.11 10.03 2.2 9.77C2.43 9.74 2.67 9.72 2.9 9.69C3.46 9.61 3.7 9.35 3.75 8.79C3.77 8.58 3.77 8.38 3.77 8.17C3.77 5.72 3.77 3.26 3.77 0.81C3.77 0.68 3.77 0.55 3.77 0.39C2.63 0.39 1.6 0.63 0.82 1.5C0.63 1.7 0.45 1.91 0.29 2.13C0.15 2.33 -0.02 2.42 -0.31 2.33C-0.28 2.19 -0.26 2.05 -0.23 1.91C-0.12 1.36 0.01 0.82 0.11 0.27C0.14 0.07 0.22 0 0.43 0C3.27 0 6.11 0 8.95 0C9.15 0 9.23 0.05 9.27 0.26C9.41 0.95 9.56 1.62 9.71 2.32C9.41 2.41 9.22 2.36 9.04 2.09C8.78 1.72 8.48 1.37 8.14 1.06C7.42 0.41 6.51 0.39 5.57 0.39C5.56 0.52 5.55 0.63 5.55 0.75C5.55 3.32 5.55 5.89 5.55 8.46C5.55 8.65 5.57 8.83 5.6 9.02C5.66 9.34 5.86 9.55 6.17 9.61C6.48 9.68 6.79 9.72 7.12 9.78Z" fill="#000000" fill-opacity="1.000000" fill-rule="nonzero"/>
	<path id="Vector" d="M47.85 13.61C47.85 13.8 47.85 13.94 47.85 14.11C47.72 14.12 47.61 14.13 47.49 14.13C32.39 14.13 17.29 14.13 2.19 14.13C1.94 14.13 1.77 14.1 1.84 13.8C1.85 13.73 1.95 13.65 2.03 13.62C2.11 13.58 2.2 13.61 2.29 13.61C17.32 13.61 32.35 13.61 47.39 13.61C47.54 13.61 47.67 13.61 47.85 13.61Z" fill="#000000" fill-opacity="1.000000" fill-rule="nonzero"/>
	<path id="Vector" d="M40.7 9.77C40.7 9.89 40.7 10 40.7 10.11C39.57 10.11 38.46 10.11 37.32 10.11C37.31 10.01 37.3 9.91 37.29 9.82C37.32 9.79 37.33 9.77 37.35 9.77C38.11 9.63 38.18 9.55 38.18 8.76C38.18 7.74 38.18 6.72 38.18 5.7C38.18 5.58 38.18 5.46 38.17 5.34C38.1 4.55 37.57 4.13 36.83 4.37C36.38 4.52 35.99 4.84 35.59 5.11C35.52 5.16 35.52 5.33 35.51 5.44C35.51 6.54 35.51 7.64 35.51 8.73C35.51 9.57 35.56 9.63 36.38 9.77C36.47 10.02 36.43 10.14 36.12 10.14C35.18 10.12 34.24 10.13 33.3 10.14C33.03 10.14 32.93 10.06 33.02 9.79C33.04 9.78 33.06 9.76 33.07 9.76C33.83 9.65 33.89 9.58 33.9 8.8C33.9 7.88 33.89 6.96 33.9 6.04C33.91 5.44 33.74 4.97 33.14 4.73C33.08 4.7 33.01 4.63 33.01 4.57C33 4.52 33.07 4.43 33.12 4.42C33.83 4.18 34.54 3.96 35.26 3.74C35.32 3.72 35.4 3.75 35.51 3.76C35.51 4.05 35.51 4.33 35.51 4.67C35.71 4.53 35.85 4.44 35.99 4.34C36.65 3.87 37.38 3.66 38.19 3.76C39.21 3.88 39.78 4.46 39.81 5.51C39.84 6.6 39.82 7.69 39.82 8.79C39.83 9.59 39.89 9.65 40.7 9.77Z" fill="#000000" fill-opacity="1.000000" fill-rule="nonzero"/>
	<path id="Vector" d="M25.79 7.05C25.79 5.19 27.19 3.74 29 3.72C30.8 3.71 32.2 5.12 32.21 6.96C32.22 8.84 30.83 10.3 29.02 10.31C27.15 10.32 25.8 8.95 25.79 7.05ZM30.54 7.21C30.52 7.21 30.5 7.2 30.48 7.2C30.45 6.85 30.44 6.5 30.39 6.15C30.32 5.61 30.2 5.07 29.87 4.62C29.38 3.94 28.48 3.95 28.01 4.63C27.9 4.79 27.79 4.97 27.74 5.16C27.42 6.48 27.44 7.78 27.99 9.04C28.21 9.54 28.56 9.95 29.16 9.92C29.75 9.89 30.06 9.44 30.2 8.94C30.37 8.38 30.43 7.79 30.54 7.21Z" fill="#000000" fill-opacity="1.000000" fill-rule="nonzero"/>
	<path id="Vector" d="M20.15 9.37C20.22 9.45 20.29 9.53 20.35 9.6C19.64 10.61 18.45 10.57 17.92 9.51C17.83 9.58 17.74 9.65 17.65 9.71C17.04 10.15 16.38 10.43 15.62 10.29C14.59 10.1 14.16 9.03 14.8 8.19C15.01 7.91 15.3 7.67 15.6 7.48C16.24 7.09 16.9 6.74 17.56 6.39C17.8 6.27 17.92 6.13 17.89 5.84C17.86 5.56 17.89 5.27 17.88 4.99C17.86 4.66 17.76 4.35 17.43 4.21C17.06 4.05 16.68 4.06 16.35 4.31C16.26 4.37 16.2 4.6 16.25 4.71C16.38 5.05 16.39 5.35 16.13 5.63C15.86 5.91 15.53 5.95 15.17 5.85C14.79 5.75 14.58 5.36 14.76 5.01C14.9 4.75 15.1 4.48 15.34 4.33C16.24 3.74 17.22 3.58 18.25 3.85C19.08 4.07 19.51 4.67 19.51 5.54C19.52 6.65 19.51 7.77 19.51 8.89C19.51 8.98 19.51 9.08 19.52 9.18C19.55 9.56 19.71 9.64 20.02 9.44C20.06 9.42 20.1 9.4 20.15 9.37ZM17.88 6.69C17.31 7.02 16.8 7.31 16.46 7.83C16.25 8.15 16.19 8.52 16.27 8.9C16.35 9.27 16.66 9.49 17.04 9.46C17.43 9.43 17.88 9.11 17.88 8.83C17.89 8.14 17.88 7.45 17.88 6.69Z" fill="#000000" fill-opacity="1.000000" fill-rule="nonzero"/>
	<path id="Vector" d="M10.56 0.51C10.56 0.35 10.56 0.21 10.56 0.04C22.51 0.04 34.45 0.04 46.41 0.04C46.41 0.2 46.41 0.34 46.41 0.51C34.46 0.51 22.52 0.51 10.56 0.51Z" fill="#000000" fill-opacity="1.000000" fill-rule="nonzero"/>
	<path id="Vector" d="M13.36 6.32C11.94 6.32 10.54 6.32 9.1 6.32C9.13 7.3 9.39 8.14 10.23 8.65C11.23 9.27 12.21 9.12 13.11 8.38C13.17 8.43 13.24 8.47 13.3 8.52C13.32 8.54 13.33 8.57 13.35 8.6C12.9 9.68 11.6 10.43 10.35 10.32C8.62 10.17 7.51 8.76 7.64 6.92C7.76 5.41 8.74 4.15 10.04 3.82C11.76 3.38 13.26 4.49 13.36 6.32ZM11.61 5.86C11.65 5.26 11.57 4.74 11.07 4.38C10.69 4.11 10.27 4.11 9.89 4.37C9.38 4.72 9.18 5.23 9.14 5.86C9.98 5.86 10.77 5.86 11.61 5.86Z" fill="#000000" fill-opacity="1.000000" fill-rule="nonzero"/>
	<path id="Vector" d="M47.26 6.31C45.77 6.31 44.36 6.31 42.97 6.31C42.8 7.05 43.27 8.11 43.97 8.61C44.84 9.23 45.81 9.16 46.93 8.38C47.01 8.44 47.09 8.51 47.2 8.59C46.63 9.66 45.76 10.23 44.58 10.32C42.95 10.43 41.6 9.24 41.48 7.58C41.39 6.36 41.74 5.29 42.66 4.45C43.94 3.29 46.02 3.55 46.82 5C47.03 5.38 47.11 5.84 47.26 6.31ZM45.45 5.85C45.46 5.24 45.37 4.7 44.85 4.36C44.49 4.12 44.09 4.12 43.72 4.36C43.21 4.7 43 5.22 42.96 5.85C43.8 5.85 44.6 5.85 45.45 5.85Z" fill="#000000" fill-opacity="1.000000" fill-rule="nonzero"/>
	<path id="Vector" d="M24.91 8.98C24.99 9.08 25.06 9.15 25.14 9.24C24.61 9.8 24.07 10.28 23.27 10.33C22.49 10.37 21.98 9.99 21.85 9.21C21.8 8.91 21.78 8.61 21.78 8.3C21.77 7.09 21.77 5.89 21.77 4.68C21.77 4.57 21.77 4.45 21.77 4.29C21.51 4.29 21.27 4.29 21.04 4.29C21.02 4.26 20.99 4.23 20.96 4.2C21.04 4.06 21.09 3.88 21.2 3.79C21.85 3.29 22.49 2.8 22.96 2.1C23.02 2.01 23.21 2 23.39 1.93C23.39 2.61 23.39 3.2 23.39 3.83C23.99 3.83 24.54 3.83 25.12 3.83C25.12 3.99 25.12 4.12 25.12 4.28C24.64 4.28 24.16 4.3 23.68 4.28C23.44 4.27 23.38 4.35 23.39 4.58C23.4 5.94 23.38 7.29 23.4 8.65C23.4 8.97 23.36 9.35 23.73 9.51C24.09 9.66 24.37 9.43 24.63 9.2C24.71 9.14 24.8 9.07 24.91 8.98Z" fill="#000000" fill-opacity="1.000000" fill-rule="nonzero"/>
	<path id="Vector" d="M49.96 4.44C48.78 4.45 47.83 3.51 47.82 2.32C47.81 1.13 48.76 0.16 49.93 0.16C51.11 0.15 52.06 1.1 52.06 2.28C52.07 3.48 51.14 4.44 49.96 4.44ZM48.22 2.29C48.22 3.33 48.96 4.12 49.93 4.13C50.9 4.13 51.67 3.33 51.67 2.32C51.68 1.29 50.92 0.49 49.96 0.48C48.98 0.47 48.22 1.26 48.22 2.29Z" fill="#000000" fill-opacity="1.000000" fill-rule="nonzero"/>
	<path id="Vector" d="M50.6 2.24C50.67 2.63 50.74 2.96 50.81 3.3C50.53 3.4 50.38 3.38 50.36 3.07C50.33 2.49 50.21 2.4 49.55 2.5C49.55 2.7 49.57 2.92 49.54 3.13C49.53 3.21 49.42 3.28 49.35 3.35C49.29 3.29 49.17 3.22 49.17 3.16C49.16 2.53 49.17 1.9 49.17 1.25C49.59 1.25 49.99 1.19 50.37 1.26C50.86 1.35 50.93 1.88 50.6 2.24ZM49.92 1.49C49.71 1.47 49.52 1.47 49.55 1.78C49.57 1.97 49.49 2.2 49.83 2.19C50.23 2.17 50.41 2.09 50.4 1.83C50.38 1.51 50.15 1.5 49.92 1.49Z" fill="#000000" fill-opacity="1.000000" fill-rule="nonzero"/>
</svg>
