<svg width="22.000000" height="69.000000" viewBox="0 0 22 69" fill="none" xmlns="http://www.w3.org/2000/svg" xmlns:xlink="http://www.w3.org/1999/xlink">
	<desc>
			Created with Pixso.
	</desc>
	<defs/>
	<path id="XMLID_1_" d="M9.86 5.11C11.21 6.39 12.4 7.49 13.57 8.6C17.58 12.43 20.13 17.24 21.01 23.27C21.66 27.69 20.85 31.63 18.25 34.95C15.65 38.26 12.81 41.32 10.07 44.47C8.69 46.05 7.18 47.48 5.88 49.13C3.58 52.05 3.39 54.22 4.88 57.68C6.65 61.8 9.85 64.59 14.54 66.02C13.99 68.47 12.3 68.51 10.88 68.03C9.08 67.43 7.27 66.52 5.8 65.23C4.15 63.78 2.62 61.95 1.49 59.95C-1.34 54.96 -1.03 50.57 2.46 46.02C4.49 43.37 6.89 41.09 9.08 38.6C11.12 36.29 13.13 33.96 15.07 31.55C16.56 29.71 17.04 27.49 16.86 25.02C16.58 21.26 15.38 18.01 13.28 15.2C12.84 14.61 12.38 14.05 11.89 13.54C9.71 11.22 7.51 8.94 5.12 6.42C5.82 11.67 6.49 16.57 7.11 21.47C7.12 21.57 6.76 21.75 6.44 21.99C6.17 21.68 5.74 21.41 5.61 20.99C4.12 16.27 2.48 11.6 1.29 6.77C0.38 3.06 1.54 0.94 4.86 0.2C7.71 -0.44 10.68 -0.44 13.59 -0.39C14.31 -0.38 15.31 0.8 15.55 1.68C15.7 2.21 14.76 3.58 14.08 3.93C12.89 4.57 11.53 4.68 9.86 5.11Z" fill="#000000" fill-opacity="1.000000" fill-rule="nonzero"/>
</svg>
