<svg width="296.000000" height="22.000000" viewBox="0 0 296 22" fill="none" xmlns="http://www.w3.org/2000/svg" xmlns:xlink="http://www.w3.org/1999/xlink">
	<desc>
			Created with Pixso.
	</desc>
	<defs>
		<clipPath id="clip155_26">
			<rect id="Frame" width="296.000000" height="22.000000" fill="white" fill-opacity="0"/>
		</clipPath>
	</defs>
	<rect id="Frame" width="296.000000" height="22.000000" fill="#FFFFFF" fill-opacity="0"/>
	<g clip-path="url(#clip155_26)">
		<path id="Vector" d="M15.3 21.3C16.25 20.38 16.43 18.78 15.3 17.87C13.43 16.39 11.57 14.9 9.7 13.42C11.45 13.42 13.21 13.42 14.96 13.42C21.78 13.42 28.61 13.42 35.44 13.42C45.55 13.42 55.68 13.42 65.8 13.42C78.14 13.42 90.49 13.42 102.83 13.42C116.31 13.42 129.78 13.42 143.26 13.42C156.95 13.42 170.65 13.42 184.34 13.42C197.03 13.42 209.7 13.42 222.39 13.42C233.14 13.42 243.9 13.42 254.65 13.42C262.38 13.42 270.12 13.42 277.85 13.42C280.82 13.42 283.8 13.46 286.77 13.44C285.54 14.54 284.31 15.63 283.07 16.73C282.68 17.07 282.29 17.42 281.9 17.77C280.89 18.66 280.82 20.31 281.9 21.19C282.99 22.08 284.67 22.14 285.75 21.19C288.51 18.74 291.28 16.28 294.04 13.83C294.43 13.49 294.82 13.13 295.22 12.79C296.23 11.89 296.29 10.26 295.22 9.37C291.71 6.48 288.21 3.59 284.72 0.7C283.68 -0.16 281.89 -0.29 280.87 0.7C279.9 1.64 279.76 3.2 280.87 4.13C282.71 5.65 284.55 7.17 286.4 8.69C284.83 8.69 283.27 8.69 281.7 8.69C274.88 8.69 268.06 8.69 261.22 8.69C251.11 8.69 240.99 8.69 230.87 8.69C218.53 8.69 206.18 8.69 193.84 8.69C180.36 8.69 166.89 8.69 153.41 8.69C139.72 8.69 126.02 8.69 112.33 8.69C99.64 8.69 86.97 8.69 74.28 8.69C63.53 8.69 52.77 8.69 42.02 8.69C34.29 8.69 26.55 8.69 18.82 8.69C15.59 8.69 12.36 8.65 9.13 8.68C10.34 7.56 11.56 6.44 12.77 5.32C13.15 4.97 13.54 4.62 13.92 4.26C14.91 3.35 15.02 1.73 13.92 0.84C12.85 -0.03 11.13 -0.13 10.07 0.84C7.36 3.32 4.65 5.82 1.94 8.32C1.55 8.67 1.17 9.03 0.79 9.39C-0.2 10.29 -0.33 11.93 0.79 12.81C4.35 15.64 7.9 18.47 11.46 21.3C12.52 22.14 14.27 22.3 15.3 21.3Z" fill="#000000" fill-opacity="1.000000" fill-rule="nonzero"/>
	</g>
</svg>
