<svg width="70.000000" height="22.000000" viewBox="0 0 70 22" fill="none" xmlns="http://www.w3.org/2000/svg" xmlns:xlink="http://www.w3.org/1999/xlink">
	<desc>
			Created with Pixso.
	</desc>
	<defs/>
	<path id="Vector" d="M68.47 9.44C64.83 6.43 61.22 3.43 57.59 0.42C56.55 -0.44 55.07 -0.6 54.05 0.42C53.16 1.31 53.01 3.09 54.05 3.96C55.96 5.54 57.87 7.14 59.78 8.71C54.47 8.71 49.16 8.71 43.85 8.71C34.23 8.71 24.6 8.71 14.98 8.71C12.95 8.71 10.91 8.71 8.88 8.71C10.87 7.06 12.85 5.42 14.84 3.77C15.88 2.91 15.73 1.14 14.84 0.23C13.81 -0.8 12.35 -0.62 11.3 0.23C7.67 3.25 4.05 6.25 0.42 9.26C-0.9 10.35 -0.29 12.37 0.93 13.18C4.9 15.86 8.86 18.52 12.83 21.18C13.95 21.93 15.6 21.4 16.25 20.28C16.96 19.05 16.48 17.62 15.35 16.87C13.79 15.81 12.22 14.77 10.66 13.72C15.9 13.72 21.15 13.72 26.39 13.72C36 13.72 45.64 13.72 55.26 13.72C56.34 13.72 57.42 13.72 58.49 13.72C56.83 14.83 55.18 15.95 53.52 17.05C52.4 17.8 51.91 19.26 52.62 20.48C53.27 21.59 54.91 22.13 56.04 21.38C60.01 18.7 63.97 16.04 67.94 13.38C69.18 12.55 69.78 10.54 68.47 9.44Z" fill="#000000" fill-opacity="1.000000" fill-rule="nonzero"/>
</svg>
