<svg width="79.000000" height="31.000000" viewBox="0 0 79 31" fill="none" xmlns="http://www.w3.org/2000/svg" xmlns:xlink="http://www.w3.org/1999/xlink">
	<desc>
			Created with Pixso.
	</desc>
	<defs/>
	<path id="XMLID_1_" d="M63.31 18.06C60.96 19.89 59.19 21.28 57.41 22.69C56.82 23.16 56.2 23.62 55.64 24.18C54.87 24.96 53.73 25.76 54.37 27.33C54.98 28.82 56.15 28.15 57.07 27.79C58.02 27.43 58.92 26.83 59.81 26.24C63.82 23.61 67.83 20.98 71.82 18.3C72.88 17.59 73.97 16.87 74.91 15.9C76.88 13.85 76.8 11.91 74.59 10.37C71.68 8.34 68.69 6.53 65.73 4.66C64.47 3.86 63.23 3.02 61.91 2.42C61.17 2.08 60.32 2.18 59.49 2.08C59.26 4.42 60.25 4.91 61.11 5.52C63.31 7.09 65.51 8.64 67.69 10.21C68.46 10.77 69.21 11.39 69.97 12.68C68.88 12.84 67.8 13.08 66.71 13.16C58.38 13.78 50.06 14.36 41.73 14.94C29.64 15.78 17.55 16.6 5.46 17.5C4.48 17.57 3.52 18.12 2.29 18.53C3.4 20.78 4.68 20.27 5.77 20.24C11.72 20.02 17.68 19.73 23.62 19.45C36.42 18.87 49.22 18.28 62 17.71C62.21 17.71 62.4 17.81 63.31 18.06Z" fill="#000000" fill-opacity="1.000000" fill-rule="nonzero"/>
	<path id="XMLID_1_" d="M57.41 22.69C56.82 23.16 56.2 23.62 55.64 24.18C54.87 24.96 53.73 25.76 54.37 27.33C54.98 28.82 56.15 28.15 57.07 27.79C58.02 27.43 58.92 26.83 59.81 26.24C63.82 23.61 67.83 20.98 71.82 18.3C72.88 17.59 73.97 16.87 74.91 15.9C76.88 13.85 76.8 11.91 74.59 10.37C71.68 8.34 68.69 6.53 65.73 4.66C64.47 3.86 63.23 3.02 61.91 2.42C61.17 2.08 60.32 2.18 59.49 2.08C59.26 4.42 60.25 4.91 61.11 5.52C63.31 7.09 65.51 8.64 67.69 10.21C68.46 10.77 69.21 11.39 69.97 12.68C68.88 12.84 67.8 13.08 66.71 13.16C58.38 13.78 50.06 14.36 41.73 14.94C29.64 15.78 17.55 16.6 5.46 17.5C4.48 17.57 3.52 18.12 2.29 18.53C3.4 20.78 4.68 20.27 5.77 20.24C11.72 20.02 17.68 19.73 23.62 19.45C36.42 18.87 49.22 18.28 62 17.71C62.21 17.71 62.4 17.81 63.31 18.06C60.96 19.89 59.19 21.28 57.41 22.69Z" stroke="#000000" stroke-opacity="1.000000" stroke-width="4.000000"/>
</svg>
