<svg width="23.000000" height="536.000000" viewBox="0 0 23 536" fill="none" xmlns="http://www.w3.org/2000/svg" xmlns:xlink="http://www.w3.org/1999/xlink">
	<desc>
			Created with Pixso.
	</desc>
	<defs>
		<clipPath id="clip155_77">
			<rect id="Frame" width="23.000000" height="536.000000" fill="white" fill-opacity="0"/>
		</clipPath>
	</defs>
	<rect id="Frame" width="23.000000" height="536.000000" fill="#FFFFFF" fill-opacity="0"/>
	<g clip-path="url(#clip155_77)">
		<path id="Vector" d="M21.45 518.33C20.32 517.65 18.92 518.09 18.24 519.18C16.72 521.6 15.21 524.01 13.7 526.43C13.7 522.12 13.7 517.8 13.7 513.48C13.7 500.87 13.7 488.26 13.7 475.64C13.7 456.87 13.7 438.09 13.7 419.32C13.7 396.57 13.7 373.82 13.7 351.07C13.7 325.99 13.7 300.9 13.7 275.82C13.7 250.67 13.7 225.52 13.7 200.37C13.7 176.75 13.7 153.15 13.7 129.54C13.7 109.72 13.7 89.91 13.7 70.08C13.7 55.74 13.7 41.39 13.7 27.04C13.7 21.29 13.78 15.51 13.73 9.75C15.34 11.88 16.97 14.02 18.58 16.15C19.36 17.17 20.61 17.71 21.8 17C22.79 16.42 23.41 14.77 22.64 13.75C19.45 9.54 16.24 5.34 13.05 1.13C11.98 -0.28 10.03 -0.52 9 1.13C6.23 5.57 3.46 9.99 0.7 14.41C0.02 15.49 0.47 17.03 1.54 17.66C2.67 18.34 4.07 17.9 4.75 16.81C6.17 14.55 7.59 12.28 9.01 10.02C9.01 13.32 9.01 16.63 9.01 19.94C9.01 32.55 9.01 45.16 9.01 57.78C9.01 76.55 9.01 95.33 9.01 114.1C9.01 136.85 9.01 159.59 9.01 182.35C9.01 207.43 9.01 232.52 9.01 257.6C9.01 282.75 9.01 307.9 9.01 333.05C9.01 356.67 9.01 380.27 9.01 403.88C9.01 423.7 9.01 443.51 9.01 463.33C9.01 477.68 9.01 492.03 9.01 506.38C9.01 512.88 8.9 519.4 9 525.9C7.46 523.88 5.93 521.86 4.4 519.84C3.62 518.82 2.37 518.28 1.18 518.99C0.19 519.57 -0.43 521.22 0.34 522.24C3.53 526.45 6.74 530.65 9.93 534.86C11 536.27 12.95 536.51 13.98 534.86C16.75 530.44 19.53 526.01 22.29 521.59C22.97 520.5 22.51 518.96 21.45 518.33Z" fill="#000000" fill-opacity="1.000000" fill-rule="nonzero"/>
	</g>
</svg>
