<svg width="170.000000" height="572.000000" viewBox="0 0 170 572" fill="none" xmlns="http://www.w3.org/2000/svg" xmlns:xlink="http://www.w3.org/1999/xlink">
	<desc>
			Created with Pixso.
	</desc>
	<defs>
		<clipPath id="clip1_314">
			<rect id="Frame" width="169.882187" height="571.712341" fill="white" fill-opacity="0"/>
		</clipPath>
	</defs>
	<rect id="Frame" width="169.882187" height="571.712341" fill="#FFFFFF" fill-opacity="0"/>
	<g clip-path="url(#clip1_314)">
		<path id="Vector" d="M70.76 496C63.86 497.75 56.55 498.05 49.59 496.34C41.82 494.45 35.36 489.78 28.9 485.67C23.57 482.29 18.17 478.91 13.36 474.92C10.13 472.23 7.15 469.17 5.48 465.46C0.69 454.85 3.97 442.8 9.6 433C10.44 431.55 11.45 430.21 12.52 428.9C15.61 425.12 19.02 421.55 22.38 417.98C28.06 411.94 33.83 405.99 39.69 400.11C45.86 393.9 53.01 388.49 59.85 382.87C58.95 382.66 58.06 382.45 57.16 382.23C58.3 388.82 59.43 395.41 60.56 402C61.13 405.29 61.69 408.59 62.26 411.88C62.56 413.59 63.76 413.91 65.34 414.73C66.98 415.6 68.63 416.45 70.28 417.31C83 423.95 95.73 430.59 108.45 437.21C109.17 437.59 110.13 438.3 110.97 438.38C111.79 438.47 112.65 438.02 113.4 437.77C115.38 437.12 117.37 436.47 119.36 435.82C123.33 434.51 127.31 433.21 131.28 431.91C130.62 431.32 129.97 430.73 129.31 430.15C124.87 447.77 117.9 464.85 108.49 480.83C99.21 496.56 87.64 511.17 74.15 524.23C68.51 529.7 62.53 534.88 56.26 539.78C54.7 540.99 56.99 543.02 58.54 541.81C70.89 532.14 82.08 521.35 91.91 509.61C105.14 493.82 115.76 476.36 123.46 457.88C127.13 449.09 130.1 440.08 132.41 430.92C132.66 429.94 131.65 428.75 130.43 429.16C123.88 431.31 117.31 433.46 110.76 435.6C111.17 435.65 111.59 435.7 112 435.75C96.25 427.53 80.52 419.32 64.77 411.11C65.02 411.4 65.27 411.68 65.5 411.98C63.75 401.81 62 391.65 60.25 381.48C60.05 380.34 58.37 380.19 57.56 380.84C51.16 386.1 44.35 391.13 38.55 396.93C33.23 402.26 27.98 407.65 22.79 413.09C18.66 417.42 14.54 421.77 10.69 426.3C9.35 427.88 8.03 429.49 6.99 431.24C1.24 440.97 -2.05 452.62 1.33 463.48C4.47 473.52 14.3 479.8 23.3 485.64C27.22 488.17 31.15 490.69 35.13 493.11C38.75 495.33 42.55 497.31 46.72 498.58C54.73 501.01 63.49 500.82 71.57 498.77C73.6 498.27 72.76 495.5 70.76 496Z" fill="#050505" fill-opacity="1.000000" fill-rule="nonzero"/>
		<path id="Vector" d="M49.78 553.1C50.49 550.87 47.95 549.3 46.49 547.88C45.94 547.34 45.18 546.65 45.63 545.89C46.24 544.89 47.85 544.31 49 543.99C51.87 543.19 54.96 543.53 57.03 545.6C58.64 547.22 59.43 549.41 59.94 551.49C60.98 555.83 60.97 560.73 57.75 564.4C55.74 566.69 52.42 569.03 48.99 568.84C47.63 568.77 45.84 568.23 44.95 567.24C44.15 566.32 45 565.51 45.75 564.83C47.14 563.57 50.37 562.04 49.83 559.88C49.2 557.44 44.93 557.95 43 558.11C43.46 558.35 43.92 558.59 44.39 558.82C43.92 558.08 42.92 556.67 43.75 555.89C44.2 555.46 45.2 555.4 45.79 555.3C47.24 555.03 48.89 554.74 49.63 553.43C50.54 551.78 47.77 550.32 46.86 551.99C46.75 552.17 46.73 552.15 46.2 552.29C45.73 552.41 45.25 552.47 44.79 552.57C43.76 552.77 42.74 553.01 41.89 553.58C39.32 555.26 40.3 558.2 41.62 560.28C41.88 560.68 42.46 561.04 43 560.99C43.45 560.95 47.14 560.94 47.09 561.02C47.01 561.15 46.57 560.05 46.72 560.15C46.64 560.11 46.8 560.18 46.62 560.24C46.18 560.4 45.56 561.14 45.18 561.44C43.13 563.01 40.55 565.11 41.65 567.79C42.89 570.83 47.57 572.05 50.81 571.61C54.67 571.09 58.11 568.71 60.42 565.99C64.18 561.57 64.3 555.83 63.01 550.6C61.61 544.95 57.41 539.95 50.27 540.82C47.2 541.18 42.41 542.88 42.26 546.19C42.18 547.65 43.17 548.87 44.23 549.9C44.65 550.31 46.85 551.87 46.69 552.33C46.11 554.12 49.21 554.87 49.78 553.1Z" fill="#050505" fill-opacity="1.000000" fill-rule="nonzero"/>
		<path id="Vector" d="M36.43 421.95C37.67 422.31 38.33 422.57 39.52 423.19C41.11 424.02 42.5 425.1 43.68 426.36C44.82 427.59 45.71 429.05 46.29 430.56C46.51 431.15 46.7 431.76 46.85 432.36C46.91 432.61 46.95 432.85 47 433.1C47.01 433.14 47.07 433.58 47.04 433.31C47 433.06 47.05 433.41 47.06 433.46C47.15 434.23 47.73 434.89 48.67 434.89C49.46 434.89 50.37 434.23 50.28 433.46C49.45 426.85 44.41 421.22 37.29 419.17C35.31 418.61 34.47 421.38 36.43 421.95Z" fill="#050505" fill-opacity="1.000000" fill-rule="nonzero"/>
		<path id="Vector" d="M76.03 449.73C81.76 445.48 90.01 445.6 95.96 449.56C96.65 450.03 97.74 449.66 98.16 449.04C98.64 448.32 98.28 447.54 97.58 447.08C94.57 445.07 90.86 443.87 87.12 443.65C82.24 443.35 77.5 444.94 73.77 447.69C72.18 448.88 74.46 450.9 76.03 449.73Z" fill="#050505" fill-opacity="1.000000" fill-rule="nonzero"/>
		<path id="Vector" d="M48.87 450.68C48.12 454.89 45.47 459.9 40.03 460.01C33.04 460.16 27.5 454.52 25.29 449.1C24.59 447.38 21.48 448.12 22.19 449.87C24.46 455.46 29.06 460.47 35.58 462.29C38 462.97 40.73 463.13 43.17 462.44C46.1 461.6 48.32 459.58 49.77 457.2C50.84 455.42 51.61 453.43 51.97 451.43C52.28 449.63 49.19 448.85 48.87 450.68Z" fill="#050505" fill-opacity="1.000000" fill-rule="nonzero"/>
		<path id="Vector" d="M47.5 457.31C47.01 462.32 48.85 467.33 52.43 471.19C57 476.1 64.38 477.82 71.11 475.77C73.35 475.08 75.48 474.1 77.35 472.8C78.97 471.66 76.68 469.64 75.07 470.77C75.63 470.37 74.76 470.95 74.6 471.05C74.19 471.3 73.76 471.53 73.32 471.75C71.98 472.43 70.56 472.95 69.05 473.32C65.1 474.27 60.97 473.71 57.59 471.61C52.57 468.47 50.18 462.61 50.69 457.31C50.89 455.48 47.67 455.49 47.5 457.31Z" fill="#050505" fill-opacity="1.000000" fill-rule="nonzero"/>
		<path id="Vector" d="M51.66 448.25C51.57 448.2 51.47 448.13 51.38 448.09C51.24 448.01 51.51 448.17 51.51 448.18C51.51 448.16 51.41 448.11 51.4 448.1C51.32 448.03 51.24 447.95 51.15 447.88C51.11 447.84 50.85 447.6 51.02 447.75C51.19 447.91 50.96 447.67 50.92 447.6C50.86 447.53 50.81 447.45 50.76 447.36C50.7 447.27 50.66 447.17 50.6 447.08C50.51 446.95 50.67 447.21 50.66 447.21C50.66 447.21 50.58 447.06 50.58 447.03C50.5 446.84 50.44 446.64 50.4 446.45C50.37 446.35 50.34 446.24 50.32 446.13C50.31 446.09 50.31 446.04 50.3 445.99C50.27 445.8 50.32 446.29 50.32 446.1C50.32 445.9 50.29 445.71 50.29 445.51C50.29 445.4 50.3 445.29 50.3 445.19C50.31 444.86 50.24 445.41 50.3 445.17C50.35 444.99 50.38 444.78 50.45 444.61C50.47 444.57 50.49 444.52 50.5 444.49C50.54 444.35 50.43 444.64 50.42 444.64C50.49 444.57 50.53 444.45 50.58 444.36C50.61 444.32 50.73 444.2 50.73 444.17C50.74 444.26 50.47 444.43 50.71 444.2C50.76 444.16 50.99 444.02 50.76 444.16C50.51 444.31 50.85 444.12 50.89 444.09C50.96 444.05 51.05 444.03 51.11 443.98C51.22 443.91 50.92 444.05 50.9 444.05C50.94 444.05 51.02 444.02 51.06 444C51.25 443.96 51.45 443.91 51.64 443.87C51.91 443.83 51.28 443.9 51.57 443.89C51.67 443.89 51.78 443.87 51.89 443.86C52.11 443.85 52.34 443.86 52.55 443.87C52.64 443.89 52.74 443.9 52.84 443.9C53.06 443.91 52.5 443.85 52.71 443.89C52.76 443.9 52.81 443.9 52.87 443.91C53.1 443.94 53.33 443.99 53.55 444.04C53.77 444.09 53.98 444.15 54.19 444.2C54.29 444.23 54.38 444.26 54.48 444.3C54.54 444.32 54.96 444.44 54.7 444.38C54.45 444.31 54.82 444.43 54.88 444.45C54.97 444.49 55.06 444.54 55.14 444.57C55.34 444.67 55.53 444.76 55.72 444.87C55.81 444.91 55.9 444.97 55.99 445.03C56.03 445.06 56.06 445.09 56.1 445.1C56.11 445.1 55.83 444.9 55.94 445C56.09 445.12 56.24 445.22 56.38 445.35C56.45 445.41 56.5 445.48 56.57 445.54C56.75 445.71 56.38 445.27 56.51 445.47C56.56 445.53 56.61 445.6 56.64 445.66C56.8 445.88 56.62 445.72 56.62 445.57C56.62 445.62 56.67 445.71 56.69 445.77C56.78 445.98 56.69 445.57 56.68 445.61C56.67 445.66 56.68 445.77 56.68 445.83C56.7 446.01 56.77 445.46 56.69 445.72C56.67 445.79 56.64 445.87 56.62 445.94C56.55 446.17 56.57 445.97 56.67 445.86C56.55 445.98 56.49 446.19 56.39 446.32C56.33 446.41 56.28 446.48 56.22 446.56C56.02 446.82 56.39 446.38 56.2 446.57C56.05 446.72 55.91 446.88 55.74 447.02C55.57 447.19 55.35 447.32 55.16 447.47C55.03 447.58 55.28 447.38 55.28 447.39C55.28 447.41 55.13 447.48 55.12 447.49C55 447.56 54.88 447.64 54.76 447.71C54.54 447.84 54.31 447.94 54.07 448.05C54.03 448.07 53.98 448.09 53.93 448.11C53.63 448.25 54.17 448.04 53.98 448.1C53.86 448.13 53.76 448.18 53.64 448.22C53.38 448.3 53.12 448.35 52.84 448.4C52.58 448.46 53.2 448.38 52.83 448.4C52.7 448.42 52.57 448.42 52.44 448.42C52.36 448.42 52.17 448.37 52.1 448.4C52.12 448.39 52.51 448.48 52.24 448.42C52.18 448.4 52.11 448.39 52.05 448.38C51.95 448.36 51.84 448.32 51.73 448.3C51.67 448.29 51.46 448.24 51.7 448.29C51.97 448.35 51.73 448.29 51.66 448.25C50.92 447.9 49.87 448.06 49.46 448.77C49.07 449.43 49.25 450.36 50.04 450.74C52.56 451.94 55.44 450.97 57.49 449.47C59.21 448.23 60.7 446.04 59.36 444.13C58.17 442.42 55.67 441.41 53.51 441.13C52.35 440.97 51.12 440.94 49.99 441.32C48.68 441.78 47.8 442.63 47.34 443.81C46.42 446.2 47.52 449.45 50.03 450.72C50.76 451.1 51.82 450.9 52.23 450.2C52.64 449.54 52.44 448.65 51.66 448.25Z" fill="#050505" fill-opacity="1.000000" fill-rule="nonzero"/>
		<path id="Vector" d="M93.72 468.86C103.03 472.28 112.34 475.7 121.65 479.13C122.98 479.61 124.3 480.1 125.64 480.6C127.55 481.29 128.39 478.53 126.49 477.83C117.18 474.41 107.87 470.99 98.56 467.56C97.23 467.07 95.91 466.59 94.57 466.09C92.66 465.39 91.83 468.17 93.72 468.86Z" fill="#050505" fill-opacity="1.000000" fill-rule="nonzero"/>
		<path id="Vector" d="M90.7 483.58C99.13 487.8 107.54 492.01 115.96 496.24C117.17 496.84 118.37 497.44 119.57 498.05C121.38 498.95 123 496.47 121.19 495.56C112.77 491.34 104.36 487.13 95.93 482.9C94.73 482.3 93.53 481.7 92.32 481.09C90.53 480.19 88.91 482.67 90.7 483.58Z" fill="#050505" fill-opacity="1.000000" fill-rule="nonzero"/>
		<path id="Vector" d="M24.13 435.79C18.12 432.24 12.11 428.71 6.1 425.16C5.26 424.66 4.42 424.16 3.58 423.67C3.76 424.34 3.93 425.01 4.11 425.69C4.35 425.37 4.59 425.05 4.82 424.73C4.15 424.91 3.47 425.09 2.8 425.26C8.81 428.81 14.82 432.35 20.83 435.9C21.67 436.4 22.51 436.89 23.35 437.39C23.17 436.72 22.99 436.04 22.82 435.37C22.58 435.69 22.34 436.01 22.11 436.32C20.97 437.86 23.54 439.33 24.66 437.82C24.9 437.5 25.14 437.18 25.37 436.86C25.85 436.21 25.47 435.2 24.84 434.83C18.83 431.28 12.82 427.75 6.81 424.2C5.97 423.7 5.13 423.2 4.29 422.71C3.54 422.27 2.74 422.6 2.27 423.24C2.03 423.56 1.79 423.88 1.56 424.2C1.08 424.85 1.46 425.85 2.09 426.22C8.1 429.77 14.11 433.31 20.12 436.86C20.96 437.35 21.8 437.85 22.64 438.35C24.28 439.32 25.78 436.76 24.13 435.79Z" fill="#1B1B1B" fill-opacity="1.000000" fill-rule="nonzero"/>
		<path id="Vector" d="M43.15 2.76C48.03 5.63 52.89 8.49 57.77 11.35C59.41 12.32 60.9 9.77 59.26 8.8C54.38 5.93 49.52 3.07 44.65 0.21C43 -0.76 41.51 1.79 43.15 2.76Z" fill="#1B1B1B" fill-opacity="1.000000" fill-rule="nonzero"/>
		<path id="Vector" d="M36.16 250.84C32.58 254.81 30.85 260.37 32.32 265.63C33.69 270.56 37.78 273.88 42.98 273.86C46.31 273.84 49.58 272.58 52.22 270.56C52.84 270.07 53.19 269.28 52.75 268.54C52.38 267.91 51.37 267.52 50.73 268C47.33 270.6 42.07 272.25 38.23 269.53C35.29 267.42 34.35 263.24 34.9 259.84C35.31 257.25 36.52 254.88 38.27 252.93C39.52 251.51 37.44 249.42 36.16 250.84Z" fill="#050505" fill-opacity="1.000000" fill-rule="nonzero"/>
		<path id="Vector" d="M58.57 11.87C64.18 14.64 69.79 17.42 75.38 20.19C78.19 21.57 80.99 22.96 83.79 24.34C85.11 24.99 86.41 25.63 87.72 26.28C89.01 26.92 89.88 27.6 91.31 26.99C102.69 22.17 113.87 16.91 125.13 11.87C124.35 11.33 123.56 10.8 122.78 10.25C117.83 30.96 111.46 51.38 103.66 71.36C101.6 76.62 99.45 81.87 97.2 87.07C96.45 88.8 99.55 89.54 100.3 87.84C108.63 68.53 115.66 48.77 121.29 28.71C122.93 22.84 124.46 16.94 125.88 11.02C126.17 9.77 124.79 8.83 123.52 9.4C112.15 14.49 100.78 19.56 89.41 24.65C89.96 24.65 90.49 24.65 91.04 24.65C80.75 19.56 70.48 14.49 60.2 9.4C58.38 8.49 56.76 10.97 58.57 11.87Z" fill="#050505" fill-opacity="1.000000" fill-rule="nonzero"/>
		<path id="Vector" d="M59.8 104.68C71.09 101.28 82.19 97.39 93.06 93.03C99.1 90.61 105.07 88.02 111.01 85.39C114.84 83.7 118.65 81.87 122.64 80.49C123.63 80.15 125.26 79.65 125.97 79.58C126.2 79.56 126.41 79.55 126.64 79.56C127.1 79.56 126.75 79.57 126.9 79.58C127.29 79.62 126.85 79.61 127.03 79.62C127.17 79.63 126.85 79.54 127.16 79.72C126.84 79.52 127.01 79.5 127.12 79.71C127.16 79.8 127.19 79.91 127.19 80.01C127.18 79.5 127.18 80.04 127.17 80.15C127.12 80.72 127.19 80.4 127.07 80.88C126.95 81.32 126.82 81.75 126.66 82.17C125.49 85.19 123.43 87.98 121.5 90.63C119.82 92.94 118.05 95.19 116.24 97.41C115.35 98.5 113.92 99.58 114.34 101.01C114.86 102.75 115.62 104.45 116.26 106.16C121.71 120.77 127.16 135.39 132.61 150C132.86 150.66 133.41 150.98 134.16 151.05C145.53 152.23 156.9 153.4 168.27 154.57C168 153.68 167.72 152.78 167.46 151.89C147.52 160.89 127.57 169.88 107.62 178.88C101.99 181.42 96.36 183.96 90.73 186.5C88.88 187.33 90.5 189.81 92.35 188.98C112.3 179.99 132.24 171 152.19 162C157.82 159.45 163.45 156.92 169.09 154.38C170.66 153.67 169.7 151.85 168.28 151.71C156.91 150.53 145.54 149.36 134.17 148.19C134.69 148.55 135.2 148.89 135.72 149.24C129.6 132.82 123.48 116.4 117.36 99.98C117.3 100.35 117.25 100.71 117.19 101.09C121.71 95.67 126.69 89.97 129.5 83.62C130.43 81.49 131.3 78.14 128.29 76.98C126.68 76.36 124.77 76.81 123.18 77.29C120.45 78.09 117.82 79.25 115.23 80.36C106.29 84.22 97.45 88.24 88.34 91.8C78.72 95.55 68.92 98.93 58.98 101.92C57.01 102.49 57.84 105.27 59.8 104.68Z" fill="#050505" fill-opacity="1.000000" fill-rule="nonzero"/>
		<path id="Vector" d="M71.67 196.97C79.76 189.93 87.84 182.89 95.93 175.86C95.03 175.4 94.15 174.93 93.25 174.47C91.46 182.79 89.67 191.1 87.88 199.42C87.67 200.34 87.47 201.27 87.28 202.19C87.08 203.15 86.55 204.37 86.63 205.35C86.69 206.13 87.38 206.67 87.89 207.25C88.68 208.15 89.46 209.04 90.25 209.94C93.21 213.3 96.16 216.66 99.12 220.03C104.96 226.7 110.79 233.37 116.63 240.05C119.49 243.32 122.35 246.61 125.2 249.89C126.61 251.5 128.01 253.12 129.42 254.73C130.05 255.46 130.64 256.23 131.33 256.93C132.25 257.88 133.6 258.34 134.85 258.93C144.19 263.38 153.53 267.82 162.87 272.26C162.87 271.44 162.87 270.61 162.87 269.78C134.28 284.33 105.68 298.91 77.11 313.51C70.06 317.1 63.01 320.71 55.96 324.32C54.16 325.24 55.78 327.72 57.58 326.8C84.86 312.86 112.15 298.92 139.47 285.01C147.81 280.76 156.15 276.51 164.49 272.26C165.51 271.74 165.56 270.29 164.49 269.78C158.33 266.85 152.17 263.91 146 260.98C143.01 259.56 140.03 258.14 137.03 256.71C135.4 255.93 134 255.35 132.85 254.01C131.76 252.77 130.68 251.51 129.59 250.27C121.06 240.46 112.52 230.68 103.95 220.89C99.1 215.36 94.25 209.83 89.39 204.31C89.53 204.77 89.66 205.24 89.8 205.7C91.99 195.54 94.18 185.38 96.36 175.2C96.65 173.84 94.88 172.75 93.67 173.81C85.58 180.85 77.5 187.88 69.41 194.91C67.91 196.23 70.18 198.26 71.67 196.97Z" fill="#050505" fill-opacity="1.000000" fill-rule="nonzero"/>
		<path id="Vector" d="M88.82 308.41C87.32 311.29 85.53 314.17 84.27 317.14C83.58 318.75 85.59 321.33 86.33 322.75C90.22 330.38 94.11 338 98 345.63C99.1 347.78 100.19 349.92 101.29 352.08C101.54 352.55 102.14 352.75 102.68 352.79C111.27 353.47 119.86 354.15 128.45 354.83C129.7 354.93 130.94 355.03 132.2 355.13C131.73 354.41 131.27 353.69 130.81 352.96C127.42 358.88 124.01 364.78 120.61 370.7C120.1 371.57 119.68 372.6 119.05 373.42C118.37 374.31 117.4 375.11 116.59 375.9C115.19 377.3 113.77 378.68 112.33 380.06C106.27 385.83 99.88 391.33 93.21 396.54C85.14 402.82 76.64 408.65 67.78 414.01C66.07 415.04 67.68 417.53 69.4 416.5C84.93 407.1 99.36 396.28 112.37 384.2C115.28 381.49 118.12 378.72 120.89 375.89C121.68 375.09 122.12 374.37 122.66 373.43C124.71 369.88 126.75 366.32 128.79 362.77C130.4 359.98 131.99 357.2 133.6 354.41C134.2 353.39 133.45 352.35 132.22 352.24C123.63 351.56 115.04 350.88 106.45 350.19C105.2 350.1 103.95 349.99 102.7 349.9C103.16 350.14 103.62 350.37 104.09 350.61C99.09 340.84 94.11 331.05 89.12 321.28C88.42 319.92 87.72 318.55 87.02 317.19C87.02 317.67 87.02 318.16 87.02 318.63C88.55 315.7 90.09 312.76 91.61 309.83C92.47 308.19 89.7 306.74 88.82 308.41Z" fill="#050505" fill-opacity="1.000000" fill-rule="nonzero"/>
		<path id="Vector" d="M92.1 368.57C92.04 372.19 89.56 375.53 85.7 376.77C81.79 378.02 77.36 376.93 74.73 374.06C72.18 371.25 71.88 367.18 73.95 364.08C76 361.02 80.13 359.29 84.08 359.97C88.72 360.76 92.03 364.37 92.1 368.57C92.12 370.41 95.34 370.41 95.31 368.57C95.24 363.73 91.91 359.42 86.84 357.7C81.78 355.98 75.78 357.42 72.37 361.15C68.93 364.91 68.37 370.3 71.18 374.5C73.99 378.68 79.45 380.81 84.79 379.95C90.88 378.97 95.22 374.01 95.31 368.56C95.34 366.71 92.12 366.71 92.1 368.57Z" fill="#050505" fill-opacity="1.000000" fill-rule="nonzero"/>
		<path id="Vector" d="M85.83 367.59C85.83 369.42 84.17 370.91 82.11 370.91C80.06 370.91 78.4 369.42 78.4 367.59C78.4 365.75 80.06 364.26 82.11 364.26C84.17 364.26 85.83 365.75 85.83 367.59Z" fill="#050505" fill-opacity="1.000000" fill-rule="evenodd"/>
		<path id="Vector" d="M84.23 367.59C84.23 367.68 84.22 367.78 84.22 367.86C84.21 368.12 84.22 367.76 84.24 367.75C84.18 367.8 84.16 368.1 84.13 368.19C84.1 368.25 84.02 368.39 84.03 368.44C84.03 368.4 84.21 368.13 84.08 368.33C83.98 368.49 83.89 368.63 83.78 368.78C83.61 369.03 83.98 368.62 83.83 368.73C83.77 368.78 83.72 368.84 83.66 368.9C83.62 368.94 83.57 368.98 83.52 369.02C83.5 369.04 83.48 369.05 83.45 369.08C83.32 369.17 83.36 369.15 83.55 369.02C83.42 369.05 83.25 369.2 83.14 369.25C83.08 369.28 83.03 369.3 82.97 369.34C82.71 369.48 83.32 369.24 82.94 369.35C82.79 369.4 82.62 369.44 82.47 369.47C82.21 369.52 82.39 369.4 82.55 369.47C82.5 369.44 82.35 369.48 82.29 369.48C82.11 369.49 81.95 369.48 81.77 369.47C81.55 369.46 82.19 369.54 81.84 369.48C81.75 369.46 81.65 369.44 81.55 369.42C81.45 369.4 81.36 369.36 81.26 369.34C81.06 369.28 81.31 369.28 81.37 369.38C81.32 369.31 81.04 369.23 80.94 369.17C80.87 369.14 80.81 369.09 80.74 369.05C80.55 368.96 81.04 369.29 80.8 369.09C80.73 369.03 80.47 368.73 80.4 368.72C80.51 368.75 80.59 368.97 80.47 368.81C80.42 368.73 80.36 368.66 80.32 368.59C80.28 368.54 80.25 368.5 80.22 368.44C80.21 368.41 80.19 368.39 80.17 368.36C80.1 368.21 80.12 368.25 80.22 368.46C80.23 368.36 80.1 368.15 80.07 368.04C80.06 367.98 80.04 367.92 80.02 367.86C79.95 367.57 80.04 368.2 80.02 367.84C80.01 367.69 80.01 367.56 80.02 367.42C80.03 367.28 80.14 367.1 80.01 367.44C80.03 367.39 80.03 367.33 80.04 367.27C80.08 367.13 80.14 366.98 80.19 366.84C80.29 366.55 80.01 367.13 80.17 366.86C80.22 366.79 80.27 366.71 80.32 366.64C80.36 366.58 80.4 366.52 80.45 366.46C80.59 366.26 80.54 366.49 80.4 366.51C80.47 366.5 80.67 366.25 80.73 366.2C80.78 366.16 81.01 366.05 80.79 366.14C80.55 366.25 80.81 366.13 80.86 366.1C80.97 366.04 81.33 365.92 81.37 365.84C81.36 365.86 80.99 365.95 81.26 365.88C81.36 365.86 81.45 365.82 81.55 365.8C81.61 365.79 81.68 365.76 81.74 365.75C81.78 365.74 82.1 365.72 81.82 365.73C81.52 365.75 81.87 365.73 81.91 365.73C82 365.73 82.09 365.73 82.17 365.73C82.26 365.73 82.35 365.74 82.43 365.74C82.78 365.75 82.1 365.67 82.41 365.74C82.6 365.79 82.79 365.84 82.99 365.88C83.31 365.98 82.75 365.75 82.92 365.86C83.01 365.92 83.12 365.95 83.21 366C83.27 366.04 83.32 366.06 83.38 366.1C83.44 366.13 83.49 366.17 83.53 366.19C83.33 366.05 83.31 366.04 83.44 366.13C83.56 366.24 83.66 366.33 83.78 366.44C84.02 366.65 83.58 366.17 83.77 366.42C83.82 366.49 83.88 366.56 83.92 366.63C83.97 366.7 84.02 366.78 84.07 366.85C84.22 367.09 83.96 366.56 84.05 366.83C84.11 367 84.16 367.17 84.22 367.34C84.27 367.52 84.14 367.36 84.21 367.22C84.17 367.29 84.23 367.5 84.23 367.59C84.24 368.33 84.97 369.05 85.84 369.02C86.7 368.98 87.46 368.39 87.45 367.59C87.41 365.55 86.01 363.81 83.89 363.1C81.91 362.44 79.45 363.02 78.1 364.49C76.67 366.05 76.36 368.25 77.55 370.02C78.73 371.79 80.99 372.61 83.21 372.25C85.68 371.86 87.41 369.78 87.45 367.6C87.46 366.85 86.7 366.13 85.84 366.17C84.95 366.19 84.24 366.78 84.23 367.59Z" fill="#050505" fill-opacity="1.000000" fill-rule="nonzero"/>
		<path id="Vector" d="M81.09 391.7C85.68 394.32 90.27 396.95 94.87 399.57C95.52 399.94 96.18 400.31 96.83 400.69C98.58 401.68 100.19 399.2 98.45 398.21C93.86 395.58 89.27 392.95 84.67 390.34C84.02 389.96 83.36 389.59 82.71 389.21C80.97 388.22 79.35 390.7 81.09 391.7Z" fill="#050505" fill-opacity="1.000000" fill-rule="nonzero"/>
		<path id="Vector" d="M76.58 400.18C79 403.72 81.42 407.24 83.84 410.78C84.18 411.29 84.54 411.8 84.88 412.31C85.96 413.88 88.74 412.44 87.65 410.86C85.23 407.33 82.81 403.8 80.39 400.26C80.04 399.76 79.69 399.25 79.35 398.74C78.27 397.15 75.49 398.6 76.58 400.18Z" fill="#050505" fill-opacity="1.000000" fill-rule="nonzero"/>
		<path id="Vector" d="M64.4 354.69C64.4 356.53 62.74 358.02 60.69 358.02C58.64 358.02 56.97 356.53 56.97 354.69C56.97 352.85 58.64 351.37 60.69 351.37C62.74 351.37 64.4 352.85 64.4 354.69Z" fill="#050505" fill-opacity="1.000000" fill-rule="evenodd"/>
		<path id="Vector" d="M62.81 354.69C62.81 354.79 62.79 354.88 62.79 354.96C62.78 355.22 62.79 354.87 62.82 354.86C62.76 354.9 62.74 355.2 62.7 355.29C62.68 355.35 62.59 355.5 62.61 355.54C62.61 355.51 62.78 355.23 62.65 355.44C62.56 355.59 62.46 355.73 62.36 355.89C62.18 356.13 62.56 355.72 62.4 355.84C62.34 355.89 62.3 355.94 62.24 356C62.19 356.04 62.14 356.09 62.1 356.12C62.07 356.15 62.05 356.16 62.03 356.18C61.9 356.28 61.93 356.25 62.12 356.12C61.99 356.16 61.82 356.3 61.72 356.36C61.66 356.38 61.6 356.41 61.54 356.44C61.28 356.58 61.9 356.35 61.52 356.45C61.36 356.5 61.2 356.55 61.04 356.57C60.78 356.62 60.96 356.5 61.13 356.57C61.08 356.55 60.93 356.58 60.87 356.58C60.69 356.6 60.52 356.58 60.35 356.57C60.12 356.56 60.76 356.64 60.42 356.58C60.32 356.56 60.23 356.55 60.12 356.52C60.03 356.5 59.93 356.47 59.84 356.44C59.64 356.38 59.88 356.38 59.94 356.49C59.9 356.42 59.61 356.34 59.52 356.28C59.45 356.24 59.39 356.19 59.32 356.16C59.13 356.06 59.61 356.39 59.38 356.19C59.3 356.13 59.04 355.84 58.97 355.83C59.08 355.85 59.16 356.07 59.04 355.91C59 355.84 58.94 355.77 58.89 355.7C58.85 355.65 58.82 355.6 58.8 355.54C58.78 355.52 58.76 355.5 58.75 355.46C58.68 355.32 58.69 355.35 58.8 355.57C58.81 355.46 58.68 355.26 58.64 355.14C58.63 355.08 58.62 355.02 58.59 354.96C58.52 354.68 58.62 355.31 58.59 354.94C58.58 354.8 58.58 354.67 58.59 354.53C58.61 354.38 58.71 354.21 58.58 354.55C58.61 354.49 58.61 354.43 58.62 354.37C58.65 354.23 58.71 354.09 58.76 353.95C58.87 353.65 58.58 354.23 58.75 353.97C58.8 353.9 58.84 353.82 58.89 353.74C58.94 353.69 58.97 353.63 59.02 353.57C59.16 353.37 59.11 353.59 58.97 353.61C59.04 353.6 59.25 353.35 59.3 353.31C59.35 353.26 59.59 353.15 59.36 353.25C59.13 353.35 59.39 353.24 59.43 353.2C59.54 353.14 59.91 353.02 59.94 352.94C59.93 352.96 59.56 353.06 59.84 352.99C59.93 352.96 60.03 352.93 60.12 352.9C60.18 352.89 60.25 352.87 60.31 352.86C60.36 352.85 60.68 352.82 60.39 352.83C60.1 352.86 60.44 352.83 60.49 352.83C60.57 352.83 60.66 352.83 60.75 352.83C60.83 352.83 60.93 352.85 61.01 352.85C61.35 352.86 60.68 352.77 60.98 352.85C61.17 352.89 61.36 352.94 61.56 352.99C61.88 353.08 61.33 352.86 61.49 352.96C61.59 353.02 61.69 353.06 61.79 353.11C61.85 353.14 61.9 353.16 61.95 353.2C62.01 353.24 62.06 353.27 62.11 353.29C61.91 353.15 61.88 353.14 62.01 353.24C62.13 353.34 62.24 353.44 62.36 353.54C62.59 353.76 62.16 353.27 62.34 353.52C62.39 353.59 62.45 353.66 62.5 353.73C62.55 353.8 62.59 353.89 62.64 353.96C62.79 354.19 62.53 353.66 62.63 353.93C62.69 354.1 62.74 354.28 62.79 354.44C62.84 354.62 62.71 354.47 62.78 354.32C62.75 354.38 62.81 354.61 62.81 354.69C62.82 355.44 63.54 356.16 64.42 356.12C65.28 356.09 66.04 355.5 66.02 354.69C65.99 352.66 64.58 350.92 62.46 350.21C60.49 349.54 58.03 350.12 56.68 351.59C55.25 353.15 54.94 355.35 56.12 357.13C57.3 358.89 59.56 359.72 61.79 359.35C64.25 358.96 65.99 356.88 66.02 354.7C66.04 353.96 65.28 353.24 64.42 353.27C63.53 353.28 62.82 353.89 62.81 354.69Z" fill="#050505" fill-opacity="1.000000" fill-rule="nonzero"/>
		<path id="Vector" d="M55.66 371.69C55.65 371.7 58.5 373.49 61.34 375.21C63 376.21 65.27 377.56 65.28 377.55C65.3 377.54 55.68 371.67 55.66 371.69Z" fill="#1B1B1B" fill-opacity="1.000000" fill-rule="nonzero"/>
		<path id="Vector" d="M54.52 372.71C54.67 372.88 55.02 373.05 55.22 373.18C55.55 373.4 55.9 373.61 56.23 373.82C57.35 374.52 58.48 375.22 59.6 375.9C60.68 376.55 61.75 377.21 62.83 377.86C63.47 378.23 64.11 378.73 64.84 378.96C65.44 379.15 66.17 378.86 66.53 378.45C66.94 377.97 66.96 377.37 66.66 376.85C66.39 376.4 65.66 376.06 65.18 375.77C64.42 375.3 63.65 374.83 62.89 374.37C61.14 373.29 59.38 372.22 57.61 371.16C56.99 370.78 56.43 370.34 55.66 370.28C54.82 370.21 54.02 370.99 54.05 371.72C54.1 372.56 54.76 373.08 55.66 373.15C55.39 373.08 55.12 373.02 54.86 372.95C55.2 373.09 55.53 373.34 55.85 373.53C56.61 373.99 57.36 374.45 58.12 374.9C59.82 375.93 61.52 376.97 63.22 378.01C63.52 378.19 63.81 378.38 64.1 378.55C64.18 378.61 64.27 378.66 64.36 378.72C64.38 378.73 64.4 378.76 64.43 378.77C64.32 378.71 64 378.46 63.89 378.28C64.5 377.58 65.1 376.87 65.7 376.18C66.3 376.37 66.1 376.34 65.92 376.22C65.79 376.15 65.67 376.08 65.54 376C65.14 375.76 64.75 375.53 64.34 375.29C63.3 374.66 62.26 374.03 61.22 373.41C60.13 372.74 59.04 372.07 57.96 371.4C57.61 371.18 57.27 370.97 56.94 370.76C56.83 370.69 56.72 370.63 56.62 370.56C56.36 370.39 56.74 370.62 56.8 370.69C56.28 370.09 55.07 370.17 54.52 370.69C53.89 371.3 53.97 372.07 54.52 372.71Z" fill="#050505" fill-opacity="1.000000" fill-rule="nonzero"/>
		<path id="Vector" d="M53.25 330.9C56.84 331.74 59.32 333.97 59.43 336.49C59.56 339.06 57.26 341.42 53.68 342.39L53.25 330.9Z" fill="#050505" fill-opacity="1.000000" fill-rule="nonzero"/>
		<path id="Vector" d="M56.11 330.46C58.97 331.4 61 333.88 61.06 336.61C61.11 339.52 59.11 341.96 56.17 343.08C55.36 343.39 55.2 344.44 55.59 345.05C56.07 345.78 56.99 345.86 57.79 345.57C61.79 344.05 64.46 340.29 64.26 336.4C64.05 332.4 61.13 329.05 56.96 327.69C56.15 327.43 55.2 327.99 54.99 328.7C54.74 329.49 55.29 330.2 56.11 330.46Z" fill="#050505" fill-opacity="1.000000" fill-rule="nonzero"/>
		<path id="Vector" d="M107.41 274.74C107.34 279.5 104.05 283.89 98.97 285.51C93.86 287.15 88.08 285.73 84.63 281.98C81.25 278.29 80.85 272.94 83.58 268.86C86.29 264.8 91.72 262.57 96.93 263.46C102.98 264.49 107.31 269.23 107.41 274.74C107.43 276.58 110.65 276.58 110.62 274.74C110.52 268.77 106.44 263.44 100.18 261.31C93.91 259.18 86.47 260.95 82.23 265.6C78 270.24 77.33 276.9 80.79 282.07C84.23 287.23 90.99 289.88 97.57 288.82C105.11 287.6 110.5 281.49 110.6 274.74C110.64 272.88 107.43 272.88 107.41 274.74Z" fill="#050505" fill-opacity="1.000000" fill-rule="nonzero"/>
		<path id="Vector" d="M93.27 273.16C93.27 274.89 91.7 276.29 89.77 276.29C87.84 276.29 86.27 274.89 86.27 273.16C86.27 271.44 87.84 270.04 89.77 270.04C91.7 270.04 93.27 271.44 93.27 273.16Z" fill="#050505" fill-opacity="1.000000" fill-rule="evenodd"/>
		<path id="Vector" d="M91.66 273.16C91.66 273.25 91.65 273.34 91.65 273.42C91.64 273.66 91.65 273.32 91.67 273.29C91.6 273.39 91.6 273.59 91.57 273.71C91.54 273.78 91.48 273.87 91.47 273.94C91.47 273.91 91.65 273.62 91.52 273.82C91.43 273.97 91.34 274.11 91.24 274.25C91.07 274.49 91.45 274.06 91.3 274.18C91.24 274.23 91.19 274.29 91.14 274.33C91.09 274.37 91.06 274.41 91.01 274.45C90.88 274.56 90.73 274.57 91.06 274.44C90.93 274.5 90.81 274.59 90.68 274.67C90.62 274.69 90.57 274.71 90.51 274.74C90.36 274.77 90.22 274.82 90.06 274.85C89.86 274.89 89.88 274.81 90.16 274.85C90.09 274.84 89.99 274.87 89.92 274.87C89.76 274.88 89.6 274.87 89.44 274.85C89.21 274.84 89.86 274.93 89.53 274.87C89.44 274.84 89.34 274.83 89.26 274.81C89.17 274.78 89.08 274.76 89 274.72C88.83 274.68 88.96 274.64 89.13 274.77C89.04 274.69 88.85 274.64 88.73 274.57C88.67 274.54 88.61 274.49 88.54 274.45C88.36 274.36 88.83 274.7 88.61 274.5C88.5 274.41 88.35 274.22 88.23 274.14C88.41 274.23 88.41 274.38 88.31 274.24C88.27 274.17 88.21 274.11 88.16 274.04C88.12 273.99 88.1 273.94 88.07 273.9C88.05 273.87 88.04 273.85 88.02 273.82C87.95 273.68 87.96 273.73 88.07 273.94C88.04 273.81 87.96 273.67 87.92 273.55C87.91 273.49 87.9 273.45 87.89 273.39C87.88 273.26 87.88 273.13 87.89 273C87.9 272.85 87.99 272.67 87.88 273.03C87.89 272.99 87.9 272.93 87.91 272.87C87.95 272.73 87.99 272.6 88.04 272.46C88.15 272.18 87.86 272.76 88.03 272.5C88.08 272.43 88.11 272.36 88.16 272.29C88.2 272.23 88.24 272.17 88.28 272.11C88.4 271.94 88.43 272.06 88.22 272.17C88.33 272.12 88.44 271.94 88.53 271.87C88.57 271.84 88.8 271.7 88.57 271.83C88.34 271.97 88.6 271.81 88.63 271.79C88.76 271.71 89.01 271.65 89.12 271.55C89.09 271.58 88.74 271.67 88.99 271.6C89.08 271.58 89.17 271.54 89.25 271.52C89.31 271.51 89.37 271.49 89.43 271.48C89.47 271.47 89.78 271.44 89.5 271.46C89.2 271.48 89.52 271.46 89.57 271.46C89.65 271.46 89.73 271.46 89.82 271.46C89.9 271.46 89.98 271.47 90.06 271.47C90.4 271.48 89.72 271.4 90.02 271.47C90.2 271.51 90.38 271.55 90.56 271.6C90.87 271.68 90.3 271.46 90.48 271.57C90.56 271.61 90.67 271.65 90.76 271.7C90.81 271.72 90.87 271.76 90.92 271.78C90.96 271.81 91.01 271.84 91.07 271.87C90.87 271.73 90.83 271.71 90.95 271.8C91.06 271.9 91.17 271.99 91.27 272.09C91.51 272.3 91.07 271.8 91.25 272.05C91.3 272.12 91.35 272.18 91.4 272.25C91.45 272.32 91.48 272.39 91.53 272.46C91.67 272.69 91.41 272.16 91.52 272.43C91.58 272.6 91.63 272.75 91.67 272.91C91.71 273.06 91.61 273.02 91.66 272.78C91.63 272.93 91.66 273.07 91.66 273.16C91.67 273.91 92.4 274.63 93.27 274.59C94.13 274.56 94.89 273.97 94.88 273.16C94.84 271.21 93.5 269.54 91.46 268.86C89.57 268.22 87.21 268.79 85.92 270.18C84.54 271.68 84.26 273.79 85.38 275.49C86.52 277.19 88.68 277.98 90.82 277.64C93.18 277.26 94.84 275.26 94.88 273.17C94.89 272.43 94.13 271.71 93.27 271.74C92.38 271.77 91.67 272.36 91.66 273.16Z" fill="#050505" fill-opacity="1.000000" fill-rule="nonzero"/>
		<path id="Vector" d="M96.76 256.62C101.59 256.68 106.64 258.75 109.75 262.32C111.55 264.4 112.66 266.92 113.06 269.51C113.21 270.45 113.25 271.41 113.22 272.36C113.21 272.68 113.18 273.01 113.16 273.33C113.14 273.59 113.06 274.04 113.14 273.57C113.02 274.33 113.35 275.1 114.26 275.33C115.01 275.52 116.12 275.09 116.24 274.32C116.76 271.02 116.27 267.58 114.83 264.5C112.52 259.58 107.76 255.9 102.03 254.45C100.32 254.01 98.52 253.76 96.75 253.74C94.7 253.72 94.7 256.59 96.76 256.62Z" fill="#050505" fill-opacity="1.000000" fill-rule="nonzero"/>
		<path id="Vector" d="M57.86 220.99C63.69 222.53 67.93 227.16 68.39 232.58C68.93 239.12 63.69 244.84 56.56 245.99C54.52 246.31 55.39 249.07 57.41 248.76C63.15 247.84 68.21 244.14 70.41 239.34C73.13 233.39 71.23 226.09 65.87 221.82C63.82 220.18 61.36 218.92 58.71 218.22C56.72 217.7 55.87 220.47 57.86 220.99Z" fill="#050505" fill-opacity="1.000000" fill-rule="nonzero"/>
		<path id="Vector" d="M63.09 232.61C63.09 234.71 61.43 236.42 59.38 236.42C57.32 236.42 55.66 234.71 55.66 232.61C55.66 230.5 57.32 228.8 59.38 228.8C61.43 228.8 63.09 230.5 63.09 232.61Z" fill="#050505" fill-opacity="1.000000" fill-rule="evenodd"/>
		<path id="Vector" d="M61.49 232.61C61.49 232.7 61.49 232.8 61.48 232.89C61.47 232.98 61.5 233.23 61.49 232.9C61.5 233.06 61.42 233.23 61.37 233.39C61.36 233.45 61.17 233.79 61.2 233.84C61.15 233.75 61.33 233.6 61.21 233.78C61.15 233.87 61.1 233.95 61.04 234.05C61 234.12 60.94 234.19 60.89 234.26C60.77 234.44 61.15 234.01 60.9 234.25C60.78 234.36 60.66 234.46 60.56 234.57C60.55 234.58 60.53 234.59 60.52 234.61C60.39 234.7 60.42 234.69 60.59 234.57C60.57 234.61 60.44 234.66 60.42 234.68C60.36 234.71 60.3 234.75 60.23 234.78C60.18 234.81 59.79 234.95 60.03 234.88C60.26 234.81 59.78 234.94 59.71 234.96C59.72 234.96 59.49 235.01 59.49 235C59.48 234.97 59.88 234.98 59.54 234.98C59.51 234.98 59.06 235.01 59.04 234.97C59.04 234.97 59.42 235.05 59.09 234.97C58.98 234.95 58.88 234.92 58.78 234.9C58.49 234.83 58.76 234.95 58.82 234.92C58.81 234.94 58.62 234.84 58.63 234.84C58.49 234.77 58.36 234.68 58.22 234.61C58.03 234.51 58.49 234.84 58.24 234.62C58.19 234.57 58.13 234.52 58.07 234.49C58 234.43 57.94 234.37 57.88 234.31C57.64 234.08 57.92 234.38 57.86 234.29C57.78 234.16 57.67 234.03 57.59 233.9C57.58 233.88 57.39 233.58 57.52 233.79C57.64 233.99 57.48 233.69 57.47 233.67C57.42 233.54 57.38 233.4 57.34 233.26C57.32 233.16 57.3 233.08 57.28 232.98C57.26 232.88 57.27 232.91 57.29 233.09C57.28 233.03 57.28 232.98 57.28 232.93C57.27 232.76 57.27 232.58 57.28 232.42C57.28 232.4 57.32 232.03 57.29 232.27C57.27 232.51 57.32 232.16 57.33 232.14C57.36 232 57.4 231.86 57.45 231.73C57.48 231.65 57.52 231.56 57.54 231.48C57.59 231.39 57.56 231.41 57.49 231.59C57.53 231.53 57.56 231.46 57.6 231.4C57.67 231.28 57.75 231.16 57.84 231.04C58.01 230.77 57.66 231.19 57.83 231.06C57.9 231 57.94 230.93 58.01 230.87C58.06 230.82 58.12 230.77 58.17 230.72C58.19 230.7 58.42 230.48 58.25 230.64C58.1 230.81 58.3 230.61 58.36 230.58C58.45 230.54 58.55 230.48 58.64 230.43C58.67 230.42 58.82 230.33 58.83 230.35C58.83 230.35 58.51 230.44 58.75 230.38C58.78 230.37 59.26 230.23 59.27 230.26C59.28 230.3 58.9 230.28 59.17 230.28C59.27 230.28 59.36 230.26 59.46 230.28C59.49 230.28 59.73 230.28 59.73 230.29C59.72 230.26 59.34 230.22 59.73 230.3C59.8 230.31 59.87 230.33 59.94 230.35C59.99 230.36 60.05 230.37 60.1 230.39C60.22 230.43 60.17 230.42 59.97 230.33C60.05 230.31 60.42 230.56 60.49 230.59C60.72 230.72 60.57 230.57 60.46 230.57C60.51 230.57 60.68 230.75 60.71 230.77C60.76 230.82 60.82 230.87 60.87 230.91C60.91 230.96 60.96 231.01 61.01 231.07C60.97 231.02 60.94 230.99 60.89 230.94C61.01 230.99 61.16 231.33 61.22 231.42C61.27 231.51 61.41 231.71 61.23 231.41C61.29 231.51 61.32 231.61 61.35 231.71C61.41 231.88 61.46 232.06 61.49 232.23C61.47 232.35 61.49 232.48 61.49 232.61C61.5 233.35 62.23 234.07 63.1 234.04C63.97 234 64.72 233.41 64.71 232.61C64.68 230.45 63.36 228.44 61.09 227.64C58.9 226.87 56.54 227.74 55.2 229.38C53.8 231.07 53.74 233.48 54.83 235.32C55.92 237.15 58.19 238.15 60.48 237.74C63.1 237.26 64.69 234.87 64.71 232.61C64.72 231.86 63.97 231.14 63.1 231.17C62.21 231.21 61.5 231.8 61.49 232.61Z" fill="#050505" fill-opacity="1.000000" fill-rule="nonzero"/>
		<path id="Vector" d="M52.02 194.58C52.12 193.32 51.79 192.16 51.19 191.02C50.9 190.49 50.27 189.86 50.66 189.3C51.14 188.61 52.55 188.3 53.35 188.13C54.84 187.8 56.45 187.75 57.96 188C63.16 188.84 66.97 193.54 67.21 198.13C67.38 201.64 65.85 205.24 62.57 207.3C60.46 208.62 57.84 209.62 55.26 208.91C54.54 208.71 52.71 208.1 52.63 207.28C52.57 206.62 53.98 205.77 54.37 205.26C56.19 202.92 54.26 200.99 52.09 199.74C51.5 199.4 50.37 198.89 50.49 198.12C50.55 197.74 51 197.35 51.2 197.03C51.6 196.38 51.85 195.7 51.98 194.97C52.28 193.16 49.19 192.38 48.88 194.2C48.67 195.44 47.7 196.26 47.37 197.44C47.01 198.72 47.62 200.06 48.62 200.96C49.48 201.74 50.82 202.12 51.61 202.93C51.92 203.24 51.97 203.26 51.74 203.61C51.44 204.07 50.9 204.42 50.53 204.83C48.06 207.45 50.36 210.15 53.34 211.3C56.62 212.56 60.13 211.95 63.14 210.39C67.88 207.9 70.52 203.35 70.45 198.45C70.35 192.78 66.01 186.99 59.79 185.42C56.36 184.56 51.41 184.75 48.66 187.06C47.52 188.01 47.02 189.35 47.51 190.7C48.01 192.11 48.96 193.02 48.83 194.58C48.64 196.43 51.86 196.41 52.02 194.58Z" fill="#050505" fill-opacity="1.000000" fill-rule="nonzero"/>
		<path id="Vector" d="M100.07 114.28C100.02 117.88 97.54 121.2 93.71 122.44C89.82 123.69 85.42 122.6 82.8 119.74C80.26 116.95 79.97 112.9 82.03 109.82C84.07 106.77 88.17 105.06 92.1 105.73C96.73 106.53 100.02 110.11 100.07 114.28C100.1 116.13 103.32 116.13 103.28 114.28C103.21 109.46 99.9 105.17 94.84 103.46C89.83 101.74 83.84 103.19 80.45 106.9C77.03 110.64 76.47 116.01 79.26 120.2C82.06 124.38 87.5 126.48 92.81 125.63C98.88 124.65 103.2 119.71 103.29 114.3C103.32 112.44 100.11 112.44 100.07 114.28Z" fill="#050505" fill-opacity="1.000000" fill-rule="nonzero"/>
		<path id="Vector" d="M62.83 130.42C60.52 132.61 59.56 135.61 60.32 138.56C60.79 140.39 62.04 142.04 64.05 142.74C66.18 143.47 68.56 142.74 70.6 142.12C73.06 141.38 75.41 140.43 77.57 139.13C78.29 138.69 78.6 137.86 78.15 137.16C77.74 136.53 76.67 136.22 75.95 136.64C73.97 137.84 71.87 138.7 69.62 139.39C68.51 139.72 67.3 140.13 66.15 140.16C65.39 140.18 64.75 140 64.21 139.42C63.71 138.87 63.53 138.29 63.36 137.54C63.34 137.46 63.27 136.94 63.33 137.38C63.31 137.27 63.3 137.18 63.29 137.07C63.24 136.63 63.23 136.17 63.3 135.73C63.43 134.88 63.76 134.2 64.24 133.5C64.34 133.34 64.46 133.19 64.57 133.03C64.62 132.96 64.68 132.91 64.72 132.83C64.59 132.98 64.59 132.99 64.69 132.87C64.82 132.73 64.96 132.59 65.1 132.44C66.52 131.11 64.25 129.07 62.83 130.42Z" fill="#050505" fill-opacity="1.000000" fill-rule="nonzero"/>
		<path id="Vector" d="M65.46 140.99C62.47 143.13 61.08 146.9 62.51 150.14C63.88 153.27 67.17 155.2 70.85 155.46C71.71 155.51 72.46 154.75 72.46 154.02C72.46 153.2 71.73 152.65 70.85 152.59C68.58 152.43 66.33 151.07 65.54 149.23C64.55 146.94 65.56 144.57 67.73 143.02C68.4 142.54 68.3 141.49 67.73 140.99C67.07 140.38 66.14 140.49 65.46 140.99Z" fill="#050505" fill-opacity="1.000000" fill-rule="nonzero"/>
		<path id="Vector" d="M96.98 112.07C97.36 113.24 94.55 115.18 90.72 116.41C86.88 117.63 83.47 117.68 83.1 116.51C82.72 115.34 85.53 113.4 89.36 112.17C93.2 110.95 96.61 110.9 96.98 112.07Z" fill="#1B1B1B" fill-opacity="1.000000" fill-rule="evenodd"/>
		<path id="Vector" d="M81.72 117.29C82.22 118.33 83.65 118.67 84.79 118.77C86.21 118.89 87.7 118.66 89.08 118.35C91.97 117.71 95.29 116.56 97.4 114.58C98.18 113.85 98.86 112.84 98.56 111.79C98.28 110.77 97.27 110.13 96.17 109.93C94.7 109.66 93.16 109.82 91.71 110.1C90.01 110.4 88.36 110.94 86.79 111.59C84.75 112.43 80.67 114.39 81.57 116.96C82.19 118.72 85.29 117.96 84.67 116.19C84.6 115.98 84.68 116.33 84.68 116.34C84.69 116.22 84.72 116.16 84.65 116.48C84.66 116.44 84.69 116.35 84.69 116.32C84.69 116.4 84.5 116.58 84.67 116.4C84.71 116.37 84.94 116.06 84.82 116.18C84.69 116.32 84.89 116.12 84.92 116.08C85 116 85.1 115.92 85.18 115.85C85.83 115.29 86.67 114.84 87.58 114.43C89.63 113.48 92.04 112.72 94.35 112.66C94.58 112.65 94.82 112.66 95.06 112.67C95.14 112.67 95.22 112.69 95.31 112.69C95.02 112.66 95.27 112.69 95.33 112.7C95.41 112.71 95.51 112.75 95.59 112.76C95.9 112.79 95.59 112.73 95.55 112.72C95.61 112.72 95.68 112.8 95.74 112.82C95.68 112.78 95.64 112.73 95.58 112.7C95.67 112.78 95.67 112.78 95.58 112.67C95.39 112.45 95.61 112.85 95.51 112.57C95.46 112.45 95.44 112.37 95.42 112.24C95.44 112.46 95.45 112.12 95.46 112.09C95.46 112.09 95.4 112.25 95.41 112.26C95.4 112.2 95.61 111.99 95.44 112.18C95.39 112.22 95.35 112.31 95.31 112.36C95.27 112.41 95.13 112.54 95.32 112.34C95.26 112.4 95.19 112.47 95.13 112.53C93.74 113.83 91.47 114.7 89.46 115.27C88.23 115.61 86.95 115.89 85.66 115.92C85.43 115.92 85.2 115.9 84.97 115.9C84.63 115.89 84.85 115.89 84.93 115.9C84.81 115.88 84.71 115.86 84.59 115.83C84.54 115.82 84.27 115.74 84.48 115.82C84.71 115.89 84.41 115.76 84.36 115.76C84.48 115.79 84.6 115.94 84.46 115.82C84.59 115.93 84.62 116.06 84.52 115.83C84.17 115.12 83 114.96 82.32 115.31C81.48 115.75 81.38 116.57 81.72 117.29Z" fill="#050505" fill-opacity="1.000000" fill-rule="nonzero"/>
		<path id="Vector" d="M112.88 151.08C113.26 152.25 110.45 154.19 106.62 155.42C102.79 156.64 99.38 156.69 99 155.52C98.63 154.35 101.43 152.41 105.27 151.18C109.1 149.95 112.51 149.91 112.88 151.08Z" fill="#1B1B1B" fill-opacity="1.000000" fill-rule="evenodd"/>
		<path id="Vector" d="M97.64 156.28C98.13 157.32 99.57 157.67 100.7 157.76C102.12 157.88 103.61 157.66 105 157.35C107.88 156.71 111.21 155.55 113.31 153.57C114.09 152.84 114.77 151.84 114.47 150.78C114.19 149.76 113.18 149.13 112.08 148.92C110.62 148.65 109.08 148.82 107.62 149.09C105.92 149.4 104.27 149.93 102.7 150.58C100.67 151.42 96.58 153.39 97.48 155.95C98.1 157.72 101.2 156.96 100.58 155.18C100.51 154.97 100.59 155.33 100.59 155.34C100.61 155.22 100.63 155.16 100.56 155.48C100.57 155.43 100.61 155.35 100.61 155.31C100.61 155.4 100.42 155.56 100.58 155.4C100.62 155.36 100.86 155.05 100.74 155.17C100.61 155.31 100.81 155.11 100.83 155.08C100.91 154.99 101.01 154.91 101.09 154.84C101.74 154.28 102.58 153.83 103.49 153.42C105.54 152.47 107.95 151.72 110.26 151.66C110.5 151.65 110.73 151.66 110.97 151.67C111.05 151.67 111.14 151.68 111.22 151.68C110.94 151.66 111.18 151.68 111.24 151.69C111.33 151.71 111.42 151.74 111.5 151.75C111.81 151.79 111.5 151.73 111.47 151.72C111.53 151.72 111.6 151.8 111.66 151.81C111.6 151.78 111.55 151.73 111.49 151.69C111.59 151.78 111.59 151.78 111.49 151.67C111.3 151.44 111.53 151.85 111.42 151.56C111.37 151.44 111.35 151.36 111.34 151.23C111.35 151.46 111.36 151.11 111.37 151.09C111.37 151.09 111.31 151.24 111.33 151.25C111.31 151.2 111.53 150.98 111.35 151.17C111.3 151.22 111.27 151.3 111.22 151.35C111.18 151.41 111.04 151.54 111.23 151.34C111.17 151.4 111.1 151.47 111.04 151.53C109.66 152.83 107.39 153.69 105.37 154.26C104.14 154.6 102.87 154.89 101.58 154.91C101.34 154.91 101.12 154.9 100.88 154.9C100.55 154.89 100.76 154.89 100.84 154.9C100.73 154.88 100.62 154.85 100.5 154.83C100.45 154.82 100.18 154.73 100.39 154.82C100.62 154.89 100.32 154.76 100.28 154.76C100.39 154.78 100.51 154.94 100.37 154.82C100.5 154.92 100.54 155.05 100.43 154.83C100.09 154.12 98.91 153.95 98.23 154.31C97.39 154.75 97.29 155.57 97.64 156.28Z" fill="#050505" fill-opacity="1.000000" fill-rule="nonzero"/>
		<path id="Vector" d="M117.47 154.02C117.28 164.42 101.23 167.29 94.05 160.59C90.56 157.34 90.04 152.47 92.88 148.74C95.86 144.81 101.7 143.1 106.81 143.92C112.4 144.81 117.36 148.68 117.47 154.02C117.5 155.87 120.71 155.87 120.67 154.02C120.57 148.11 115.82 143.34 109.66 141.59C103.41 139.83 95.97 141.27 91.51 145.67C87.3 149.82 86.53 156.05 90.09 160.75C93.83 165.7 100.75 167.88 107.22 166.96C114.43 165.93 120.54 160.74 120.66 154.01C120.71 152.17 117.49 152.17 117.47 154.02Z" fill="#050505" fill-opacity="1.000000" fill-rule="nonzero"/>
		<path id="Vector" d="M79.78 136.53C79.77 136.42 79.78 136.31 79.77 136.21C79.76 135.96 79.69 136.39 79.78 136.16C79.81 136.1 79.94 135.75 79.87 135.9C79.81 136.04 79.98 135.7 80.02 135.64C80.09 135.53 80.16 135.41 80.25 135.31C80.28 135.26 80.49 134.99 80.35 135.15C80.59 134.87 80.86 134.61 81.13 134.35C81.7 133.8 82.29 133.3 82.88 132.78C83.17 132.53 83.45 132.28 83.75 132.04C83.85 131.96 83.97 131.86 84.08 131.78C83.85 131.95 84.11 131.77 84.21 131.72C84.26 131.7 84.31 131.67 84.35 131.65C84.35 131.65 84.04 131.76 84.2 131.71C84.5 131.62 84.05 131.71 84.14 131.7C84.46 131.67 83.98 131.67 84.05 131.67C84.1 131.67 84.16 131.7 84.22 131.71C84.37 131.77 83.96 131.55 84.07 131.65C84.1 131.69 84.24 131.76 84.29 131.77C84.35 131.78 84.04 131.56 84.24 131.75C84.31 131.81 84.39 131.86 84.45 131.92C84.58 132.05 84.62 132.17 84.48 131.95C84.72 132.31 84.98 132.66 85.18 133.06C85.25 133.2 85.3 133.32 85.2 133.09C85.24 133.19 85.29 133.28 85.33 133.38C85.43 133.6 85.51 133.83 85.59 134.05C85.83 134.69 86.01 135.35 86.16 136.02C86.24 136.37 86.3 136.72 86.37 137.07C86.41 137.22 86.43 137.39 86.46 137.54C86.47 137.61 86.48 137.69 86.48 137.77C86.52 138.08 86.53 138.39 86.52 138.7C86.52 138.76 86.5 138.82 86.5 138.88C86.5 138.84 86.57 138.66 86.5 138.78C86.48 138.83 86.36 139.15 86.46 138.97C86.57 138.74 86.26 139.21 86.43 139.01C86.56 138.87 86.43 139 86.41 139.02C86.23 139.18 86.69 138.89 86.53 138.95C86.47 138.97 86.39 139.02 86.33 139.06C86.09 139.2 86.48 139.02 86.41 139.03C86.23 139.06 86.03 139.13 85.85 139.16C85.58 139.22 86.2 139.15 85.9 139.15C85.78 139.15 85.66 139.16 85.55 139.16C85.32 139.16 85.08 139.16 84.86 139.14C84.66 139.13 84.59 139.11 84.85 139.14C84.73 139.12 84.62 139.11 84.5 139.09C84.23 139.05 83.96 138.99 83.7 138.93C83.43 138.86 83.16 138.78 82.88 138.69C82.81 138.67 82.43 138.54 82.61 138.6C82.8 138.67 82.61 138.6 82.58 138.58C82.48 138.55 82.39 138.51 82.29 138.47C81.78 138.24 81.33 137.97 80.85 137.7C80.69 137.61 80.93 137.76 80.94 137.77C80.87 137.71 80.8 137.66 80.72 137.6C80.62 137.53 80.53 137.45 80.43 137.37C80.34 137.28 80.26 137.21 80.17 137.12C80.04 136.99 79.98 136.86 80.13 137.08C80.07 136.99 80 136.9 79.94 136.82C79.89 136.76 79.7 136.43 79.82 136.64C79.94 136.85 79.8 136.57 79.77 136.5C79.78 136.43 79.72 136.06 79.78 136.53C79.68 135.76 79.12 135.09 78.17 135.09C77.38 135.09 76.47 135.76 76.57 136.53C76.91 139.11 79.52 140.66 82.07 141.48C84.29 142.2 87.83 142.62 89.25 140.44C90.17 139.03 89.69 137.22 89.38 135.72C89.24 135.05 89.07 134.37 88.86 133.71C88.22 131.77 86.88 128.66 84.07 128.82C83.06 128.88 82.28 129.37 81.55 129.96C80.73 130.61 79.95 131.31 79.19 132.02C77.89 133.21 76.42 134.73 76.58 136.51C76.64 137.28 77.26 137.95 78.19 137.95C79 137.96 79.85 137.29 79.78 136.53Z" fill="#050505" fill-opacity="1.000000" fill-rule="nonzero"/>
		<path id="Vector" d="M114.18 100.36C114.25 106.55 114.32 112.73 114.39 118.93C115.38 118.7 116.39 118.45 117.38 118.21C114.83 115.15 112.28 112.08 109.73 109.02C108.65 107.73 106.43 108.46 106.79 110.13C107.88 115.15 108.98 120.16 110.07 125.18C110.32 124.64 110.57 124.1 110.81 123.56C107.02 126.03 103.22 128.52 99.44 130.99C98.26 131.76 98.5 133.75 100.24 133.66C104.53 133.46 108.84 133.27 113.14 133.07C112.67 132.83 112.21 132.6 111.75 132.36C114.66 136 117.58 139.66 120.49 143.31C121.39 144.43 123.45 144.09 123.49 142.58C123.56 139.78 123.63 136.98 123.7 134.18C122.9 134.6 122.09 135.01 121.29 135.42C123.91 136.6 126.54 137.77 129.16 138.94C131 139.77 132.62 137.28 130.78 136.45C128.15 135.28 125.52 134.11 122.91 132.94C121.82 132.46 120.52 133.05 120.49 134.18C120.42 136.99 120.35 139.79 120.28 142.58C121.28 142.35 122.28 142.1 123.28 141.86C120.83 138.8 118.38 135.73 115.93 132.67C115.15 131.69 114.41 130.27 112.93 130.21C110.83 130.13 108.63 130.41 106.53 130.5C104.44 130.6 102.35 130.69 100.24 130.79C100.51 131.67 100.78 132.57 101.04 133.46C104.83 130.99 108.63 128.5 112.41 126.03C113.04 125.63 113.3 125.1 113.15 124.41C112.06 119.39 110.96 114.38 109.87 109.36C108.89 109.73 107.92 110.1 106.94 110.47C109.49 113.54 112.04 116.6 114.59 119.67C115.48 120.73 117.6 120.48 117.58 118.94C117.51 112.76 117.44 106.57 117.37 100.37C117.37 98.51 114.17 98.51 114.18 100.36Z" fill="#050505" fill-opacity="1.000000" fill-rule="nonzero"/>
		<path id="Vector" d="M86.28 49.33C86.28 51.27 84.52 52.84 82.34 52.84C80.16 52.84 78.4 51.27 78.4 49.33C78.4 47.39 80.16 45.82 82.34 45.82C84.52 45.82 86.28 47.39 86.28 49.33Z" fill="#1B1B1B" fill-opacity="1.000000" fill-rule="evenodd"/>
		<path id="Vector" d="M84.67 49.33C84.67 49.43 84.66 49.53 84.66 49.63C84.65 49.91 84.66 49.53 84.67 49.53C84.67 49.53 84.56 49.93 84.55 49.99C84.54 50.02 84.46 50.27 84.45 50.25C84.42 50.24 84.63 49.92 84.48 50.16C84.37 50.32 84.28 50.48 84.16 50.63C83.98 50.88 84.35 50.48 84.2 50.6C84.14 50.64 84.08 50.71 84.02 50.76C83.97 50.81 83.92 50.84 83.88 50.89C83.61 51.12 83.88 50.88 83.89 50.9C83.9 50.92 83.48 51.14 83.46 51.15C83.4 51.19 83.34 51.21 83.29 51.24C83.01 51.38 83.62 51.15 83.24 51.26C83.07 51.31 82.91 51.35 82.73 51.39C82.4 51.45 82.79 51.39 82.79 51.39C82.79 51.4 82.54 51.4 82.52 51.41C82.33 51.42 82.15 51.41 81.97 51.4C81.74 51.39 82.37 51.47 82.03 51.4C81.93 51.38 81.83 51.37 81.72 51.33C81.62 51.31 81.52 51.27 81.43 51.25C81.19 51.18 81.53 51.25 81.52 51.28C81.52 51.28 81.12 51.09 81.07 51.06C81 51.02 80.93 50.96 80.86 50.93C80.67 50.83 81.14 51.16 80.91 50.95C80.87 50.92 80.46 50.57 80.48 50.56C80.51 50.55 80.68 50.82 80.54 50.63C80.48 50.55 80.42 50.48 80.38 50.4C80.34 50.35 80.3 50.29 80.27 50.23C80.09 49.92 80.27 50.23 80.26 50.24C80.25 50.24 80.1 49.83 80.09 49.79C80.08 49.73 80.06 49.67 80.04 49.6C79.97 49.32 80.07 49.93 80.04 49.56C80.03 49.41 80.03 49.26 80.04 49.12C80.06 48.95 80.17 48.81 80.03 49.12C80.06 49.07 80.06 48.99 80.07 48.93C80.1 48.77 80.16 48.63 80.22 48.48C80.27 48.4 80.32 48.31 80.38 48.23C80.42 48.16 80.47 48.1 80.52 48.04C80.69 47.79 80.51 48.09 80.48 48.08C80.47 48.06 80.81 47.77 80.84 47.75C80.86 47.72 80.88 47.71 80.91 47.69C80.88 47.71 80.85 47.72 80.82 47.75C80.88 47.71 80.93 47.67 80.99 47.64C81.05 47.6 81.52 47.35 81.53 47.37C81.53 47.38 81.14 47.48 81.44 47.4C81.53 47.38 81.64 47.34 81.74 47.32C81.81 47.31 81.88 47.28 81.94 47.27C81.97 47.26 82.01 47.26 82.04 47.25C82.01 47.25 81.97 47.26 81.94 47.26C82.01 47.25 82.08 47.25 82.15 47.25C82.24 47.25 82.33 47.25 82.42 47.25C82.52 47.25 82.6 47.26 82.69 47.26C82.9 47.31 83.1 47.35 83.3 47.41C83.62 47.51 83.07 47.28 83.25 47.39C83.34 47.45 83.46 47.48 83.57 47.54C83.63 47.58 83.69 47.6 83.75 47.64C83.81 47.67 83.87 47.71 83.91 47.75C83.72 47.62 83.7 47.59 83.83 47.7C83.95 47.8 84.07 47.91 84.2 48.02C84.26 48.1 84.32 48.17 84.36 48.25C84.41 48.34 84.46 48.42 84.52 48.5C84.58 48.68 84.63 48.86 84.68 49.05C84.74 49.27 84.63 48.95 84.67 48.95C84.66 48.95 84.67 49.31 84.67 49.33C84.68 50.08 85.4 50.8 86.28 50.76C87.14 50.73 87.9 50.14 87.89 49.33C87.85 47.21 86.39 45.4 84.18 44.66C82.11 43.96 79.56 44.57 78.15 46.1C76.66 47.72 76.35 50.02 77.57 51.86C78.8 53.7 81.14 54.56 83.46 54.18C86.03 53.77 87.84 51.6 87.88 49.33C87.89 48.59 87.13 47.86 86.27 47.9C85.39 47.93 84.68 48.53 84.67 49.33Z" fill="#050505" fill-opacity="1.000000" fill-rule="nonzero"/>
		<path id="Vector" d="M59.38 65.78C59.62 64.3 57.96 62.84 56.68 62.31C54.45 61.37 51.39 62.4 51.05 64.01C50.7 65.62 53.01 68.05 55.41 68.13C56.99 68.2 59.13 67.28 59.38 65.78Z" fill="#1B1B1B" fill-opacity="1.000000" fill-rule="nonzero"/>
		<path id="Vector" d="M60.79 66.01C61.14 63.43 59.29 61.61 57.64 60.77C55.9 59.9 53.66 59.88 51.84 60.9C51.01 61.36 50.22 62.07 49.8 63.14C49.35 64.31 49.6 65.56 50.09 66.56C51.07 68.52 53.16 69.83 55.04 69.93C57.15 70.05 60.19 69.05 60.79 66.01C60.98 65.08 60.43 64.06 59.68 63.98C58.88 63.89 58.17 64.53 57.97 65.54C57.91 65.85 58 65.42 58.01 65.39C57.91 65.69 58.06 65.27 58.09 65.28C58.09 65.28 57.98 65.44 57.97 65.47C57.79 65.76 58.04 65.4 58.03 65.41C58.01 65.5 57.74 65.67 57.67 65.73C57.59 65.8 57.46 65.83 57.71 65.7C57.61 65.75 57.53 65.81 57.43 65.86C57.28 65.94 57.13 66.01 56.97 66.07C56.94 66.08 56.68 66.18 56.86 66.12C57.03 66.06 56.77 66.14 56.74 66.15C56.39 66.25 56.04 66.3 55.7 66.32C55.61 66.33 55.44 66.28 55.73 66.32C55.65 66.31 55.55 66.31 55.47 66.3C55.29 66.27 55.13 66.25 54.95 66.2C54.89 66.19 54.82 66.17 54.76 66.15C54.54 66.12 54.96 66.25 54.75 66.15C54.56 66.08 54.38 66 54.2 65.91C54.05 65.82 53.9 65.74 53.74 65.63C53.67 65.59 53.6 65.53 53.53 65.48C53.26 65.24 53.03 64.96 52.77 64.71C52.62 64.57 52.9 64.94 52.8 64.75C52.76 64.68 52.71 64.62 52.67 64.55C52.6 64.42 52.54 64.27 52.47 64.14C52.37 63.97 52.52 64.45 52.51 64.25C52.51 64.21 52.48 64.14 52.47 64.11C52.38 63.86 52.48 64.23 52.48 64.27C52.45 64.1 52.5 63.87 52.44 64.39C52.49 63.97 52.35 64.64 52.42 64.43C52.51 64.15 52.22 64.84 52.43 64.44C52.54 64.23 52.18 64.66 52.44 64.44C52.49 64.39 52.55 64.36 52.6 64.31C52.71 64.18 52.32 64.46 52.57 64.32C52.84 64.17 53.12 64.04 53.4 63.92C53.07 64.06 53.54 63.88 53.61 63.87C53.8 63.82 53.98 63.79 54.17 63.76C54.34 63.74 54.51 63.74 54.68 63.72C54.76 63.73 54.86 63.73 54.94 63.73C55.31 63.75 55.67 63.82 56.02 63.93C55.96 63.91 55.75 63.82 56.02 63.94C56.1 63.98 56.18 64.01 56.25 64.05C56.41 64.12 56.56 64.2 56.7 64.3C56.77 64.34 56.83 64.38 56.9 64.43C56.94 64.45 57.21 64.65 57.04 64.52C56.89 64.4 57.09 64.57 57.13 64.59C57.21 64.66 57.28 64.73 57.35 64.81C57.49 64.95 57.64 65.1 57.77 65.27C57.73 65.23 57.59 64.98 57.74 65.23C57.79 65.31 57.84 65.4 57.9 65.49C57.91 65.52 57.98 65.62 57.98 65.65C57.9 65.43 57.88 65.4 57.92 65.52C57.94 65.56 57.96 65.62 57.97 65.68C58 65.79 58 66.01 57.94 65.55C57.98 65.88 58 65.14 57.96 65.5C57.83 66.45 58.27 67.46 59.07 67.54C59.84 67.66 60.66 67.02 60.79 66.01Z" fill="#050505" fill-opacity="1.000000" fill-rule="nonzero"/>
		<path id="Vector" d="M57.56 273.48C55.53 273.48 53.72 272.89 52.43 271.74C50.34 269.9 49.56 266.6 50.35 262.94C50.96 260.11 52.68 256.75 55.66 255.83C58.69 254.9 62.04 256.78 64.17 258.86C66.89 261.52 68.11 264.82 67.35 267.46C66.64 269.92 64.18 272.04 60.9 272.99C59.75 273.32 58.63 273.48 57.56 273.48ZM57.29 259.13C57.08 259.13 56.88 259.15 56.69 259.21C55.49 259.58 54.28 261.46 53.8 263.69C53.31 266.01 53.68 268.12 54.77 269.08C55.8 269.99 57.81 270.19 59.9 269.58C61.94 268.99 63.56 267.73 63.92 266.48C64.31 265.13 63.4 263.08 61.67 261.39C60.25 259.99 58.52 259.13 57.29 259.13Z" fill="#050505" fill-opacity="1.000000" fill-rule="nonzero"/>
		<path id="Vector" d="M82.34 64.17C74.1 64.17 67.42 57.47 67.42 49.25C67.42 41.03 74.12 34.33 82.34 34.33C90.56 34.33 97.26 41.03 97.26 49.25C97.26 57.47 90.57 64.17 82.34 64.17ZM82.34 37.88C76.07 37.88 70.97 42.98 70.97 49.25C70.97 55.52 76.07 60.62 82.34 60.62C88.61 60.62 93.71 55.52 93.71 49.25C93.71 42.98 88.61 37.88 82.34 37.88Z" fill="#050505" fill-opacity="1.000000" fill-rule="nonzero"/>
		<path id="Vector" d="M53.14 35.31C53.14 37.25 51.38 38.82 49.2 38.82C47.02 38.82 45.26 37.25 45.26 35.31C45.26 33.37 47.02 31.8 49.2 31.8C51.38 31.8 53.14 33.37 53.14 35.31Z" fill="#1B1B1B" fill-opacity="1.000000" fill-rule="evenodd"/>
		<path id="Vector" d="M51.53 35.31C51.53 35.41 51.52 35.51 51.52 35.61C51.51 35.89 51.52 35.51 51.53 35.51C51.53 35.51 51.42 35.91 51.41 35.97C51.4 36 51.32 36.25 51.31 36.23C51.28 36.22 51.5 35.9 51.34 36.14C51.24 36.3 51.14 36.46 51.02 36.61C50.85 36.86 51.21 36.46 51.06 36.58C51 36.62 50.94 36.7 50.88 36.74C50.83 36.79 50.79 36.83 50.74 36.87C50.47 37.1 50.74 36.86 50.75 36.88C50.76 36.9 50.34 37.12 50.32 37.13C50.27 37.17 50.21 37.19 50.15 37.22C49.87 37.36 50.48 37.13 50.1 37.24C49.93 37.29 49.77 37.33 49.59 37.37C49.26 37.43 49.65 37.37 49.65 37.37C49.65 37.38 49.4 37.38 49.38 37.39C49.19 37.4 49.01 37.39 48.83 37.38C48.6 37.37 49.24 37.45 48.89 37.38C48.79 37.36 48.69 37.35 48.59 37.31C48.48 37.29 48.38 37.25 48.29 37.23C48.05 37.16 48.4 37.23 48.38 37.26C48.38 37.26 47.98 37.07 47.93 37.04C47.86 37 47.79 36.94 47.72 36.91C47.53 36.81 48.01 37.14 47.77 36.93C47.73 36.9 47.32 36.55 47.34 36.54C47.37 36.53 47.54 36.8 47.4 36.61C47.34 36.53 47.28 36.46 47.24 36.38C47.2 36.33 47.17 36.27 47.13 36.21C46.95 35.9 47.13 36.21 47.12 36.22C47.11 36.22 46.96 35.81 46.95 35.77C46.94 35.71 46.92 35.65 46.91 35.58C46.83 35.3 46.93 35.91 46.91 35.54C46.89 35.39 46.89 35.24 46.91 35.1C46.92 34.93 47.04 34.79 46.89 35.1C46.92 35.05 46.92 34.97 46.93 34.91C46.96 34.75 47.02 34.61 47.08 34.46C47.13 34.38 47.18 34.29 47.24 34.21C47.28 34.14 47.33 34.08 47.38 34.02C47.56 33.77 47.37 34.07 47.34 34.06C47.33 34.04 47.67 33.75 47.7 33.73C47.72 33.7 47.75 33.69 47.77 33.67C47.75 33.69 47.71 33.7 47.69 33.73C47.75 33.69 47.79 33.65 47.85 33.62C47.91 33.58 48.38 33.33 48.4 33.35C48.4 33.36 48.01 33.47 48.3 33.38C48.4 33.36 48.5 33.32 48.6 33.3C48.67 33.29 48.74 33.26 48.8 33.25C48.83 33.24 48.87 33.24 48.9 33.23C48.87 33.23 48.83 33.24 48.8 33.24C48.87 33.23 48.94 33.23 49.01 33.23C49.11 33.23 49.19 33.23 49.28 33.23C49.38 33.23 49.46 33.24 49.56 33.24C49.76 33.29 49.96 33.33 50.16 33.39C50.48 33.49 49.93 33.26 50.11 33.37C50.21 33.43 50.32 33.47 50.43 33.52C50.49 33.56 50.55 33.58 50.61 33.62C50.67 33.65 50.73 33.69 50.77 33.73C50.58 33.6 50.56 33.57 50.69 33.68C50.81 33.78 50.93 33.89 51.06 34C51.12 34.08 51.18 34.15 51.22 34.23C51.27 34.32 51.32 34.4 51.38 34.48C51.44 34.66 51.5 34.84 51.54 35.03C51.6 35.25 51.5 34.93 51.53 34.93C51.53 34.92 51.53 35.29 51.53 35.31C51.54 36.06 52.26 36.78 53.14 36.74C54 36.71 54.76 36.12 54.75 35.31C54.71 33.19 53.25 31.38 51.05 30.64C48.98 29.94 46.42 30.55 45.01 32.08C43.52 33.7 43.21 36 44.43 37.84C45.66 39.68 48.01 40.54 50.32 40.16C52.89 39.75 54.7 37.58 54.74 35.31C54.75 34.57 53.99 33.84 53.13 33.88C52.26 33.91 51.54 34.51 51.53 35.31Z" fill="#050505" fill-opacity="1.000000" fill-rule="nonzero"/>
		<path id="Vector" d="M39.11 69.98C42.54 75.04 49.13 75.05 53.29 70.87C52.47 70.66 51.65 70.44 50.82 70.22C51.55 75.64 54.52 80.62 59.26 83.47C64.76 86.8 71.63 86.91 77.57 84.78C79.35 84.14 78.58 81.27 76.79 81.93C71.56 83.81 65.62 83.87 60.76 80.93C56.64 78.43 54.32 74.12 53.68 69.44C53.53 68.3 51.92 68.08 51.21 68.79C48.47 71.55 44.04 72 41.68 68.5C40.6 66.92 38.04 68.4 39.11 69.98Z" fill="#050505" fill-opacity="1.000000" fill-rule="nonzero"/>
		<path id="Vector" d="M56.16 324.5C52.47 326.31 48.77 328.11 45.08 329.92C44.36 330.27 44.17 331.29 44.55 331.94C44.98 332.67 45.85 332.83 46.57 332.47C50.27 330.66 53.96 328.86 57.65 327.05C58.37 326.7 58.56 325.68 58.18 325.03C57.74 324.3 56.87 324.14 56.16 324.5Z" fill="#050505" fill-opacity="1.000000" fill-rule="nonzero"/>
		<path id="Vector" d="M49.45 266.43C45.86 270.41 44.14 275.97 45.6 281.22C46.98 286.15 51.07 289.48 56.26 289.45C59.6 289.43 62.87 288.18 65.5 286.15C66.13 285.67 66.47 284.88 66.04 284.13C65.67 283.5 64.65 283.11 64.01 283.6C60.62 286.19 55.35 287.85 51.52 285.12C48.57 283.02 47.64 278.83 48.18 275.43C48.6 272.84 49.8 270.48 51.55 268.53C52.81 267.1 50.73 265.01 49.45 266.43Z" fill="#050505" fill-opacity="1.000000" fill-rule="nonzero"/>
		<path id="Vector" d="M51.53 58.24C53.85 57.08 56.73 56.68 59.16 57.77C61.15 58.65 62.43 60.45 62.91 62.55C63.88 66.7 61.84 71.36 57.83 73C56.29 73.63 54.84 73.87 53.22 73.8C51.32 73.73 51.32 76.68 53.22 76.75C57.94 76.93 62.75 74.59 64.81 70.22C67.16 65.22 66.33 58.29 61.09 55.45C57.62 53.57 53.48 53.99 50.04 55.71C48.34 56.54 49.83 59.09 51.53 58.24Z" fill="#050505" fill-opacity="1.000000" fill-rule="nonzero"/>
	</g>
</svg>
