<svg width="68.000000" height="56.000000" viewBox="0 0 68 56" fill="none" xmlns="http://www.w3.org/2000/svg" xmlns:xlink="http://www.w3.org/1999/xlink">
	<desc>
			Created with Pixso.
	</desc>
	<defs/>
	<path id="Vector" d="M42.74 43.2C41.97 43.24 41.19 43.2 40.43 43.1C40.57 43.12 40.34 43.09 40.33 43.08C40.26 43.07 40.19 43.06 40.12 43.05C39.97 43.02 39.82 43 39.68 42.97C39.36 42.9 39.06 42.83 38.75 42.74C38.09 42.55 37.46 42.31 36.85 41.97C35.66 41.32 34.73 40.38 34.11 39.3C33.22 37.77 33.14 36.06 33.56 34.37C34.17 31.92 34.66 29.47 34.86 26.94C35.12 23.77 34.99 20.55 34.29 17.44C34.05 16.32 33.71 15.22 33.31 14.14C33.02 13.38 32.74 12.61 32.59 11.8C32.24 9.89 32.67 7.93 33.56 6.23C33.31 6.33 33.05 6.43 32.8 6.54C35.26 7.26 37.73 7.99 40.19 8.72C40.57 8.83 40.89 8.58 41.03 8.24C41.99 5.78 42.95 3.32 43.92 0.86C43.64 1.02 43.36 1.17 43.08 1.33C45.46 2.21 47.74 3.54 49.44 5.42C49.55 5.55 49.66 5.68 49.77 5.81C49.83 5.88 49.89 5.95 49.94 6.02C49.98 6.06 50.01 6.11 50.05 6.15C50.14 6.28 50.01 6.1 50.08 6.2C50.4 6.61 50.71 7.04 51.01 7.46C52.05 8.94 53.05 10.44 54.04 11.94C55.63 14.31 57.2 16.68 58.62 19.15C59.55 20.76 60.44 22.4 61.1 24.14C61.77 25.88 62.2 27.69 62.54 29.52C62.86 31.33 62.97 33.21 62.45 34.99C61.94 36.73 60.82 38.24 59.39 39.34C59.15 39.53 58.9 39.71 58.64 39.87C57.91 40.34 58.59 41.51 59.32 41.04C60.8 40.09 62.08 38.83 62.93 37.3C63.96 35.46 64.29 33.37 64.13 31.29C63.98 29.39 63.56 27.45 63.03 25.62C62.48 23.75 61.69 21.96 60.78 20.24C59.37 17.59 57.76 15.07 56.1 12.58C54.99 10.92 53.89 9.26 52.76 7.62C52.11 6.68 51.46 5.73 50.73 4.85C49.21 3.02 47.13 1.63 44.97 0.65C44.47 0.42 43.95 0.22 43.44 0.02C43.07 -0.11 42.72 0.18 42.6 0.5C41.63 2.96 40.67 5.42 39.71 7.88C39.99 7.73 40.26 7.57 40.54 7.41C38.08 6.68 35.62 5.96 33.15 5.23C32.87 5.15 32.52 5.28 32.39 5.54C31.52 7.18 31.02 9.01 31.12 10.88C31.17 11.76 31.35 12.63 31.62 13.47C31.89 14.28 32.22 15.08 32.48 15.9C33.46 19.08 33.73 22.4 33.58 25.72C33.45 28.38 33.03 31.03 32.34 33.61C32.13 34.43 31.95 35.25 31.93 36.1C31.9 37.16 32.11 38.2 32.53 39.17C33.11 40.53 34.09 41.71 35.29 42.58C37.3 44.04 39.96 44.6 42.41 44.56C42.52 44.56 42.63 44.55 42.73 44.55C43.61 44.52 43.61 43.16 42.74 43.2Z" fill="#000000" fill-opacity="1.000000" fill-rule="nonzero"/>
	<path id="Vector" d="M51.63 39.66C53.88 39.92 56.17 40.63 58.3 41.53C60.23 42.33 62.21 43.38 63.35 45.19C63.49 45.42 63.62 45.65 63.74 45.89C63.78 45.98 63.82 46.08 63.86 46.17C63.79 46.01 63.85 46.15 63.89 46.22C64.04 46.62 64.17 47.02 64.25 47.44C64.48 48.51 64.4 49.66 63.81 50.61C63.42 51.25 62.81 51.75 62.11 52.13C61.32 52.56 60.47 52.83 59.56 53.04C57.77 53.45 55.93 53.55 54.07 53.6C52.4 53.65 50.71 53.69 49.04 53.59C47.29 53.48 45.4 53.23 43.84 52.5C43.05 52.14 42.45 51.74 41.9 51.1C41.7 50.87 41.47 50.5 41.31 50.14C41.07 49.59 40.98 48.98 40.98 48.39C40.99 46.26 42.28 44.58 44.18 43.77C46.33 42.86 48.82 43 51.01 43.65C51.68 43.84 52.32 44.09 52.95 44.38C53.28 44.53 53.68 44.47 53.88 44.14C54.05 43.84 53.97 43.37 53.63 43.21C51.06 42.02 48.16 41.43 45.34 42.01C43.1 42.47 41.03 43.77 40.13 45.92C39.18 48.18 39.57 50.94 41.47 52.58C42.98 53.89 45.01 54.45 46.96 54.72C48.89 55 50.84 55.02 52.78 54.98C54.71 54.94 56.63 54.88 58.54 54.6C60.52 54.3 62.65 53.73 64.14 52.32C65.91 50.66 66.05 48.08 65.21 45.91C64.37 43.74 62.67 42.19 60.62 41.12C59.57 40.57 58.47 40.14 57.36 39.71C56.04 39.2 54.67 38.8 53.27 38.55C52.72 38.45 52.18 38.37 51.63 38.3C51.27 38.26 50.95 38.65 50.95 38.98C50.95 39.38 51.26 39.61 51.63 39.66Z" fill="#000000" fill-opacity="1.000000" fill-rule="nonzero"/>
	<path id="Vector" d="M50.34 25.34C52.99 26.22 55.36 27.87 57.07 30.08C57.29 30.37 57.65 30.52 57.99 30.32C58.28 30.15 58.46 29.69 58.24 29.4C56.3 26.9 53.71 25.04 50.7 24.03C49.87 23.76 49.51 25.06 50.34 25.34Z" fill="#000000" fill-opacity="1.000000" fill-rule="nonzero"/>
	<path id="Vector" d="M50.82 27.85C52.72 28.49 54.58 29.77 55.82 31.37C56.04 31.66 56.4 31.81 56.75 31.61C57.03 31.44 57.21 30.98 56.99 30.69C55.5 28.76 53.51 27.33 51.18 26.55C50.84 26.44 50.44 26.69 50.35 27.03C50.25 27.39 50.48 27.74 50.82 27.85Z" fill="#000000" fill-opacity="1.000000" fill-rule="nonzero"/>
	<path id="Vector" d="M50.17 29.77C52.07 30.41 53.93 31.69 55.17 33.29C55.39 33.58 55.75 33.73 56.1 33.53C56.38 33.36 56.57 32.9 56.34 32.61C54.85 30.67 52.86 29.25 50.54 28.47C50.19 28.35 49.79 28.61 49.7 28.94C49.6 29.31 49.83 29.66 50.17 29.77Z" fill="#000000" fill-opacity="1.000000" fill-rule="nonzero"/>
	<path id="Vector" d="M50.71 32.57C50.82 32.56 50.93 32.56 51.04 32.56C51.08 32.56 51.11 32.56 51.15 32.57C51.18 32.57 51.29 32.58 51.18 32.57C51.06 32.55 51.18 32.57 51.21 32.57C51.25 32.58 51.3 32.59 51.34 32.6C51.42 32.62 51.5 32.65 51.58 32.68C51.66 32.7 51.46 32.62 51.58 32.68C51.62 32.7 51.67 32.72 51.72 32.75C51.79 32.79 51.86 32.83 51.92 32.88C51.99 32.93 51.81 32.79 51.9 32.87C51.93 32.89 51.97 32.92 52 32.95C52.05 33 52.09 33.04 52.13 33.09C52.16 33.12 52.18 33.16 52.21 33.18C52.09 33.08 52.15 33.1 52.19 33.16C52.26 33.26 52.33 33.36 52.39 33.46C52.47 33.6 52.55 33.73 52.62 33.88C52.63 33.9 52.64 33.95 52.66 33.97C52.62 33.87 52.61 33.86 52.64 33.92C52.65 33.93 52.65 33.95 52.65 33.96C52.68 34.02 52.7 34.08 52.72 34.15C52.83 34.48 53.2 34.74 53.56 34.62C53.9 34.51 54.15 34.15 54.03 33.79C53.82 33.13 53.45 32.44 52.93 31.96C52.33 31.42 51.52 31.14 50.71 31.21C50.53 31.23 50.37 31.28 50.23 31.41C50.12 31.53 50.03 31.72 50.04 31.89C50.05 32.23 50.33 32.6 50.71 32.57Z" fill="#000000" fill-opacity="1.000000" fill-rule="nonzero"/>
	<path id="Vector" d="M63.39 40.2C63.72 40.17 64.05 40.17 64.38 40.19C64.44 40.2 64.49 40.2 64.55 40.21C64.56 40.21 64.69 40.22 64.64 40.22C64.59 40.21 64.72 40.23 64.73 40.23C64.78 40.24 64.83 40.25 64.88 40.26C65.09 40.3 65.29 40.36 65.49 40.42C65.57 40.44 65.66 40.47 65.74 40.5C65.78 40.51 65.82 40.53 65.85 40.55C65.93 40.57 65.78 40.51 65.89 40.56C66.04 40.63 66.18 40.7 66.32 40.77C66.55 40.9 66.77 41.04 66.98 41.19C67.26 41.4 67.75 41.25 67.91 40.95C68.09 40.6 67.97 40.25 67.66 40.02C66.44 39.13 64.89 38.71 63.39 38.85C63.04 38.89 62.69 39.14 62.71 39.53C62.73 39.87 63.01 40.24 63.39 40.2Z" fill="#000000" fill-opacity="1.000000" fill-rule="nonzero"/>
	<path id="Vector" d="M61.45 41.17C63.08 41.28 64.69 41.75 66.1 42.49C66.42 42.66 66.84 42.57 67.03 42.25C67.2 41.94 67.11 41.49 66.78 41.32C65.13 40.45 63.32 39.94 61.45 39.82C61.08 39.8 60.77 40.15 60.77 40.5C60.77 40.88 61.08 41.15 61.45 41.17Z" fill="#000000" fill-opacity="1.000000" fill-rule="nonzero"/>
	<path id="Vector" d="M26.43 30.23C26.49 30.17 26.29 30.28 26.25 30.3C26.19 30.34 26.3 30.31 26.37 30.31C26.39 30.31 26.49 30.33 26.36 30.31C26.4 30.31 26.43 30.32 26.46 30.32C26.55 30.34 26.64 30.36 26.73 30.38C27.09 30.46 27.47 30.56 27.85 30.57C28.23 30.57 28.63 30.46 28.9 30.17C29.25 29.79 29.25 29.29 29.17 28.81C29.16 28.72 29.15 28.63 29.13 28.54C29.12 28.49 29.11 28.44 29.1 28.39C29.1 28.42 29.12 28.47 29.1 28.41C29.06 28.27 29.12 28.37 29.05 28.46C28.98 28.5 28.92 28.54 28.85 28.58C28.78 28.68 28.69 28.72 28.58 28.69C28.61 28.67 28.67 28.73 28.6 28.68C28.9 28.87 29.26 29.09 29.62 29.15C30.16 29.22 30.6 28.83 30.63 28.3C30.65 27.94 30.53 27.57 30.4 27.23C30.22 26.77 30.01 26.32 29.75 25.9C29.63 25.72 29.51 25.54 29.39 25.37C29.34 25.31 29.3 25.25 29.26 25.18C29.25 25.17 29.24 25.14 29.23 25.13C29.2 25.07 29.2 25.08 29.23 25.14C29.33 25.34 29.29 25.54 29.11 25.76C29.01 25.81 28.91 25.87 28.81 25.93C28.78 25.94 28.53 25.92 28.57 25.93C28.6 25.94 28.65 25.98 28.59 25.94C28.5 25.87 28.64 25.96 28.65 25.97C28.69 25.99 28.73 26.01 28.77 26.03C29.02 26.14 29.27 26.26 29.53 26.34C30.17 26.55 30.87 26.57 31.52 26.4C32.11 26.24 32.77 25.89 32.87 25.23C32.96 24.61 32.49 24.14 32.03 23.8C31.57 23.46 31.06 23.21 30.52 23.01C30.27 22.92 30.01 22.85 29.75 22.78C29.65 22.76 29.55 22.74 29.45 22.71C29.42 22.7 29.39 22.68 29.35 22.68C29.6 22.7 29.6 23.46 29.53 23.61C29.53 23.6 29.39 23.74 29.48 23.65C29.54 23.59 29.47 23.65 29.44 23.66C29.52 23.63 29.6 23.61 29.68 23.58C29.88 23.52 30.08 23.47 30.29 23.41C30.65 23.3 31.07 23.18 31.33 22.89C31.59 22.61 31.63 22.21 31.42 21.89C31.2 21.55 30.77 21.41 30.41 21.29C29.74 21.06 29.01 21.01 28.31 21.1C28.53 21.26 28.75 21.43 28.96 21.59C28.56 20.33 28.08 19.1 27.48 17.92C27.08 17.13 26.63 16.32 26.05 15.64C25.49 14.99 24.66 14.76 23.98 15.31C23.28 15.88 22.82 16.81 22.41 17.58C22.17 18.02 21.96 18.48 21.75 18.93C21.7 19.03 21.62 19.13 21.59 19.23C21.63 19.11 21.69 19.12 21.64 19.16C21.57 19.22 21.73 19.1 21.72 19.1C21.6 19.17 21.9 19.05 21.76 19.08C22 19.02 21.95 19.06 21.88 19.06C21.76 19.06 22.05 19.09 22 19.08C21.97 19.08 21.96 19.07 21.94 19.06C21.84 19.04 22.09 19.17 22.01 19.09C21.97 19.06 21.91 19.02 21.87 19.01C21.82 18.99 22 19.13 21.89 19.02C21.85 18.99 21.81 18.96 21.78 18.92C21.26 18.44 20.81 17.87 20.36 17.33C19.95 16.83 19.55 16.33 19.15 15.83C18.72 15.3 18.25 14.64 17.49 14.61C16.09 14.56 15.56 16.52 15.17 17.54C14.64 18.91 14.19 20.32 13.81 21.74C14.15 21.6 14.48 21.47 14.81 21.33C13.53 20.73 12.04 20.57 10.69 21.06C10.03 21.3 9.33 21.81 9.57 22.62C9.82 23.47 10.85 23.91 11.62 24.17C11.62 23.73 11.62 23.3 11.62 22.87C10.92 22.99 10.27 23.26 9.65 23.59C9.07 23.9 8.43 24.36 8.31 25.05C8.19 25.73 8.61 26.41 9.22 26.71C10.04 27.11 10.94 26.83 11.6 26.27C11.88 26.03 11.84 25.56 11.6 25.31C11.32 25.03 10.92 25.08 10.64 25.31C9.73 26.04 7.68 27.83 9.27 28.91C9.98 29.39 10.89 29.34 11.62 28.93C11.92 28.76 12.19 28.54 12.44 28.31C12.53 28.22 12.62 28.13 12.71 28.05C12.74 28.01 12.78 27.98 12.81 27.95C12.85 27.91 12.83 27.93 12.74 28C12.85 27.93 12.77 27.95 12.48 28.06C12.37 28.03 12.25 28 12.14 27.97C12.14 27.97 12.15 27.98 12.15 27.98C12.07 27.89 11.99 27.81 11.91 27.73C11.91 27.74 11.92 27.75 11.92 27.75C11.89 27.64 11.86 27.52 11.83 27.41C11.83 27.37 11.92 27.14 11.84 27.29C11.82 27.33 11.8 27.38 11.78 27.42C11.71 27.58 11.63 27.74 11.59 27.91C11.51 28.27 11.53 28.66 11.72 28.99C11.87 29.24 12.11 29.43 12.37 29.56C12.47 29.61 12.57 29.66 12.67 29.71C12.71 29.72 12.75 29.76 12.78 29.77C12.89 29.8 12.76 29.75 12.73 29.7C12.82 29.84 12.59 29.32 12.73 29.28C12.71 29.29 12.63 29.38 12.62 29.38C12.52 29.45 12.39 29.52 12.29 29.59C11.95 29.79 11.62 30 11.32 30.25C10.79 30.67 10.36 31.2 10 31.77C9.5 32.55 9.15 33.44 8.93 34.34C8.79 34.94 8.72 35.56 8.67 36.17C8.65 36.45 8.64 36.63 8.59 36.86C8.58 36.89 8.58 37.02 8.56 36.95C8.56 36.94 8.5 36.97 8.6 36.91C8.65 36.88 8.68 36.87 8.74 36.84C8.87 36.85 8.88 36.85 8.77 36.82C8.72 36.81 8.68 36.8 8.65 36.78C8.33 36.67 8.02 36.61 7.71 36.79C7.4 36.98 7.28 37.35 7.33 37.7C7.37 37.92 7.45 38.12 7.54 38.33C7.58 38.44 7.63 38.55 7.67 38.67C7.68 38.71 7.7 38.75 7.71 38.8C7.72 38.88 7.72 38.88 7.71 38.8C7.71 38.86 7.71 38.87 7.72 38.81C7.75 38.69 7.81 38.61 7.91 38.53C7.94 38.52 7.97 38.5 8 38.49C7.95 38.5 7.95 38.5 8.01 38.49C8.01 38.46 8.07 38.51 7.95 38.48C8.09 38.52 7.99 38.49 7.96 38.48C7.69 38.42 7.42 38.33 7.14 38.24C6.45 38.02 5.75 37.84 5.02 37.78C3.64 37.67 2.24 38.11 1.07 38.81C0.32 39.26 -0.71 39.97 -0.96 40.87C-1.32 42.2 0.5 42.13 1.31 42.14C2.18 42.15 3.04 42.15 3.9 42.15C4.22 42.15 4.54 42.15 4.86 42.18C5.08 42.19 4.75 42.15 4.94 42.18C4.98 42.19 5.04 42.21 5.09 42.22C5.19 42.23 5.07 42.22 5.04 42.2C5.11 42.24 5.09 42.22 4.99 42.15C4.88 41.9 4.84 41.84 4.86 41.97C4.86 41.85 4.86 41.73 4.86 41.61C4.84 41.75 5.06 41.46 4.91 41.54C4.86 41.57 4.8 41.65 4.76 41.68C4.64 41.8 4.52 41.93 4.45 42.08C4.25 42.44 4.31 42.86 4.56 43.18C5.05 43.79 6.03 43.95 6.77 43.97C7.62 43.98 8.45 43.73 9.18 43.31C9.45 43.16 9.7 42.98 9.95 42.8C10.04 42.74 10.13 42.68 10.22 42.62C10.25 42.61 10.29 42.6 10.31 42.58C10.24 42.65 9.91 42.64 9.79 42.56C9.71 42.48 9.63 42.39 9.55 42.31C9.53 42.18 9.51 42.05 9.5 41.91C9.48 41.96 9.48 41.97 9.5 41.92C9.56 41.86 9.47 41.97 9.46 41.99C9.41 42.08 9.36 42.17 9.32 42.26C9.19 42.51 9.06 42.77 9.06 43.05C9.05 43.71 9.65 44.03 10.23 43.9C10.71 43.8 11.15 43.54 11.62 43.39C11.9 43.3 12.19 43.22 12.48 43.19C12.62 43.17 12.77 43.16 12.92 43.17C12.98 43.17 13.05 43.17 13.11 43.17C13.25 43.19 13.08 43.16 13.22 43.19C13.68 43.27 13.87 43.4 14.31 43.61C14.91 43.9 15.52 44.14 16.16 44.31C17.4 44.63 18.66 44.66 19.93 44.64C21.24 44.61 22.59 44.64 23.89 44.41C25.02 44.21 26.03 43.6 26.84 42.8C27.74 41.93 28.47 40.73 28.69 39.49C28.9 38.34 28.76 37.15 28.69 35.99C28.64 35.27 28.6 34.55 28.5 33.84C28.39 33.17 28.16 32.53 27.87 31.92C27.6 31.37 27.28 30.87 26.93 30.37C26.82 30.2 26.71 30.03 26.6 29.86C26.51 29.71 26.62 29.96 26.58 29.8C26.55 29.68 26.59 29.96 26.59 29.88C26.59 29.86 26.5 30.14 26.55 30.09C27.03 29.36 25.85 28.68 25.37 29.4C25.08 29.85 25.3 30.36 25.56 30.76C25.87 31.24 26.22 31.71 26.49 32.22C27.26 33.61 27.27 34.94 27.36 36.49C27.41 37.22 27.47 37.96 27.43 38.7C27.42 38.81 27.41 38.92 27.4 39.03C27.38 39.24 27.43 38.9 27.39 39.1C27.38 39.16 27.37 39.22 27.36 39.28C27.28 39.61 27.17 39.93 27.03 40.23C26.69 40.95 26.21 41.58 25.61 42.1C25.32 42.35 25.01 42.56 24.67 42.74C24.4 42.89 24.34 42.91 24.01 43.01C23.41 43.17 22.93 43.2 22.3 43.23C21.38 43.27 20.45 43.29 19.53 43.3C18.03 43.31 16.59 43.19 15.21 42.56C14.7 42.32 14.2 42.02 13.64 41.9C12.85 41.74 12.02 41.85 11.26 42.09C10.95 42.19 10.66 42.32 10.36 42.43C10.25 42.48 10.15 42.52 10.04 42.55C10 42.57 9.94 42.58 9.89 42.59C9.81 42.61 9.83 42.61 9.94 42.59C10.02 42.59 10.09 42.61 10.16 42.65C10.24 42.8 10.33 42.94 10.41 43.08C10.4 43.18 10.4 43.19 10.41 43.11C10.5 43.03 10.38 43.16 10.44 43.03C10.5 42.93 10.55 42.83 10.6 42.73C10.75 42.45 10.9 42.14 10.81 41.81C10.69 41.41 10.26 41.2 9.86 41.31C9.64 41.37 9.46 41.51 9.27 41.64C8.75 42.01 8.22 42.36 7.6 42.52C7.21 42.62 6.8 42.65 6.41 42.59C6.25 42.57 6.08 42.53 5.92 42.48C5.95 42.49 5.71 42.4 5.77 42.42C5.69 42.38 5.62 42.37 5.62 42.33C5.62 42.39 5.76 42.72 5.63 42.74C5.69 42.73 5.86 42.51 5.91 42.46C6.18 42.15 6.3 41.72 6.07 41.36C5.74 40.81 4.95 40.81 4.38 40.8C3.5 40.78 2.62 40.8 1.74 40.8C1.39 40.79 1.04 40.79 0.69 40.77C0.55 40.77 0.42 40.76 0.28 40.75C0.24 40.74 0.06 40.71 0.25 40.74C0.19 40.73 0.14 40.72 0.08 40.71C-0.05 40.7 0.15 40.74 0.21 40.8C0.3 40.91 0.36 41.02 0.36 41.16C0.36 41.04 0.33 41.35 0.35 41.22C0.37 41.11 0.26 41.35 0.34 41.25C0.36 41.22 0.37 41.2 0.38 41.17C0.41 41.13 0.43 41.09 0.46 41.05C0.5 40.99 0.5 40.99 0.45 41.06C0.48 41.03 0.5 41 0.53 40.97C1.39 40.03 2.64 39.36 3.94 39.16C4.72 39.04 5.48 39.16 6.23 39.37C6.82 39.54 7.48 39.86 8.11 39.83C8.89 39.78 9.21 39.06 9 38.37C8.93 38.12 8.81 37.89 8.72 37.65C8.71 37.6 8.69 37.52 8.67 37.48C8.67 37.5 8.68 37.53 8.68 37.56C8.69 37.26 8.5 37.42 8.11 38.01C8.27 38.12 8.56 38.18 8.75 38.18C9.6 38.2 9.89 37.44 9.98 36.75C10.06 36.07 10.08 35.39 10.23 34.72C10.47 33.7 10.85 32.77 11.52 31.94C11.75 31.67 12.01 31.4 12.3 31.18C12.65 30.92 13.04 30.73 13.38 30.48C13.67 30.27 13.93 30.03 14 29.67C14.1 29.23 13.87 28.85 13.52 28.62C13.35 28.51 13.03 28.33 12.9 28.29C12.91 28.29 12.91 28.3 12.92 28.3C12.86 28.25 12.86 28.24 12.9 28.29C12.96 28.21 12.79 28.66 12.9 28.25C12.94 28.11 12.98 28.04 13.04 27.9C13.22 27.51 13.26 27.05 12.83 26.8C12.49 26.59 12.14 26.73 11.86 26.97C11.47 27.3 11.15 27.72 10.67 27.87C10.55 27.9 10.48 27.91 10.35 27.9C10.32 27.89 9.98 27.76 9.98 27.76C10.01 27.75 10.02 27.88 10.02 27.92C10.02 27.85 10.05 27.79 10.01 27.99C10.04 27.82 9.96 28.05 10.03 27.93C10.41 27.27 11.01 26.73 11.6 26.26C11.28 25.94 10.95 25.62 10.63 25.3C10.34 25.55 10.05 25.59 9.73 25.43C9.89 25.51 9.76 25.47 9.72 25.4C9.59 25.23 9.77 25.51 9.64 25.29C9.65 25.3 9.63 25.33 9.65 25.25C9.64 25.3 9.69 25.2 9.72 25.17C9.96 24.89 10.34 24.73 10.67 24.58C11.08 24.38 11.52 24.24 11.97 24.16C12.68 24.03 12.55 23.05 11.97 22.85C11.67 22.75 11.36 22.62 11.1 22.43C11.02 22.38 10.94 22.32 10.88 22.24C10.95 22.32 10.84 22.2 10.85 22.19C10.87 22.21 10.88 22.24 10.87 22.26C10.87 22.33 10.85 22.39 10.84 22.45C10.82 22.53 10.75 22.49 10.85 22.45C10.93 22.41 10.76 22.5 10.85 22.45C10.9 22.42 10.94 22.39 10.99 22.37C11.09 22.32 10.99 22.37 11.05 22.35C11.1 22.33 11.14 22.32 11.19 22.3C11.29 22.27 11.41 22.24 11.52 22.21C11.67 22.18 11.83 22.15 11.99 22.12C12.11 22.1 11.93 22.13 11.91 22.13C11.95 22.13 12 22.12 12.04 22.12C12.24 22.1 12.44 22.09 12.64 22.1C13.16 22.13 13.73 22.3 14.12 22.49C14.51 22.67 15 22.54 15.12 22.09C15.45 20.86 15.83 19.64 16.26 18.44C16.43 18 16.6 17.55 16.78 17.11C16.89 16.85 17 16.6 17.14 16.36C17.19 16.27 17.24 16.18 17.3 16.1C17.33 16.06 17.39 16.02 17.42 15.98C17.39 16.02 17.51 15.94 17.45 15.95C17.36 15.98 17.41 15.91 17.44 15.96C17.49 16.04 17.63 16.12 17.69 16.19C17.92 16.44 18.13 16.72 18.34 16.98C18.71 17.45 19.09 17.92 19.48 18.38C19.89 18.88 20.31 19.4 20.79 19.85C21.06 20.1 21.36 20.35 21.74 20.4C22.29 20.47 22.66 20.12 22.89 19.65C23.35 18.71 23.79 17.75 24.39 16.88C24.52 16.68 24.52 16.69 24.64 16.55C24.72 16.46 24.81 16.38 24.89 16.29C24.92 16.27 24.75 16.4 24.88 16.32C24.92 16.29 25 16.28 24.88 16.3C24.74 16.34 24.84 16.32 24.87 16.32C24.9 16.31 24.76 16.34 24.76 16.33C24.77 16.28 25.08 16.58 25.12 16.64C25.25 16.79 25.35 16.96 25.46 17.13C25.7 17.5 25.92 17.87 26.13 18.26C26.76 19.43 27.24 20.67 27.65 21.95C27.73 22.2 28 22.48 28.3 22.44C28.81 22.38 29.32 22.38 29.82 22.52C29.9 22.54 29.97 22.57 30.05 22.59C30.08 22.6 30.32 22.72 30.36 22.72C30.36 22.72 30.35 21.92 30.34 21.97C30.33 22.03 30.45 21.91 30.38 21.94C30.36 21.95 30.34 21.97 30.32 21.97C30.17 22 30.45 21.93 30.28 21.99C29.72 22.2 28.77 22.25 28.44 22.82C28.17 23.26 28.42 23.75 28.87 23.94C29.25 24.09 29.67 24.15 30.06 24.28C30.45 24.41 30.83 24.62 31.17 24.85C31.29 24.93 31.43 25.09 31.52 25.15C31.6 25.19 31.5 25.18 31.52 25.09C31.44 25.39 31.57 24.86 31.6 24.9C31.61 24.9 31.52 24.96 31.52 24.96C30.76 25.41 29.92 25.07 29.23 24.76C28.81 24.57 28.29 24.49 28.02 24.96C27.8 25.33 27.98 25.71 28.19 26.03C28.46 26.4 28.71 26.78 28.91 27.19C28.96 27.28 29 27.38 29.05 27.48C29.05 27.49 29.08 27.57 29.06 27.5C29.02 27.41 29.07 27.54 29.08 27.56C29.15 27.75 29.22 27.94 29.26 28.13C29.27 28.16 29.28 28.2 29.28 28.24C29.26 28.1 29.29 28.24 29.27 28.24C29.28 28.23 29.28 28.22 29.28 28.21C29.3 27.99 29.45 27.86 29.76 27.81C29.8 27.75 29.82 27.88 29.81 27.81C29.81 27.78 29.86 27.83 29.81 27.81C29.77 27.78 29.73 27.76 29.69 27.74C29.6 27.69 29.52 27.64 29.43 27.6C29 27.36 28.45 27.2 28.04 27.58C27.63 27.96 27.74 28.49 27.83 28.98C27.86 29.12 27.85 29.09 27.86 29.21C27.87 29.25 27.86 29.29 27.86 29.32C27.86 29.24 27.84 29.35 27.86 29.33C27.88 29.31 27.9 29.26 27.92 29.24C27.94 29.22 27.98 29.2 28.01 29.19C28 29.2 27.98 29.2 27.96 29.21C27.95 29.22 27.81 29.23 27.97 29.21C27.93 29.22 27.88 29.22 27.84 29.22C27.8 29.21 27.76 29.21 27.71 29.21C27.59 29.2 27.73 29.21 27.65 29.2C27.55 29.18 27.44 29.16 27.33 29.13C27.14 29.09 26.95 29.04 26.75 29.01C26.31 28.93 25.8 28.91 25.47 29.27C25.23 29.55 25.2 29.96 25.47 30.23C25.72 30.47 26.19 30.5 26.43 30.23Z" fill="#000000" fill-opacity="1.000000" fill-rule="nonzero"/>
	<path id="Vector" d="M19.07 33.08C19.09 33.1 19.23 33.21 19.24 33.21C19.23 33.22 19.11 33.11 19.22 33.2C19.25 33.22 19.28 33.25 19.31 33.27C19.42 33.36 19.54 33.46 19.65 33.56C19.9 33.79 20.14 34.02 20.37 34.27C20.47 34.39 20.57 34.51 20.67 34.63C20.7 34.66 20.72 34.69 20.75 34.72C20.83 34.82 20.69 34.64 20.74 34.71C20.78 34.77 20.82 34.82 20.86 34.87C21.02 35.09 21.17 35.32 21.31 35.55C21.5 35.85 21.93 35.99 22.24 35.79C22.55 35.6 22.68 35.19 22.49 34.87C21.78 33.71 20.85 32.72 19.75 31.92C19.62 31.82 19.38 31.81 19.23 31.85C19.07 31.9 18.9 32.02 18.82 32.16C18.64 32.51 18.76 32.86 19.07 33.08Z" fill="#000000" fill-opacity="1.000000" fill-rule="nonzero"/>
	<path id="Vector" d="M18.5 34.48C18.98 34.97 19.45 35.46 19.89 35.98C19.93 36.03 19.98 36.08 20.02 36.13C20.09 36.21 19.93 36.01 19.98 36.08C19.99 36.1 20.01 36.12 20.02 36.14C20.08 36.21 20.14 36.3 20.18 36.38C20.25 36.5 20.31 36.61 20.37 36.73C20.42 36.85 20.34 36.65 20.36 36.72C20.38 36.75 20.39 36.79 20.4 36.82C20.43 36.89 20.45 36.96 20.47 37.03C20.58 37.36 20.95 37.61 21.31 37.5C21.65 37.39 21.9 37.03 21.79 36.67C21.6 36.07 21.3 35.56 20.9 35.08C20.45 34.54 19.96 34.03 19.47 33.53C19.22 33.27 18.75 33.26 18.51 33.53C18.25 33.8 18.24 34.21 18.5 34.48Z" fill="#000000" fill-opacity="1.000000" fill-rule="nonzero"/>
	<path id="Vector" d="M18.59 36.19C18.62 36.22 18.65 36.25 18.67 36.28C18.64 36.24 18.6 36.19 18.57 36.14C18.65 36.25 18.71 36.37 18.77 36.49C18.74 36.43 18.72 36.38 18.7 36.33C18.75 36.46 18.79 36.6 18.81 36.74C18.8 36.68 18.79 36.62 18.79 36.56C18.8 36.7 18.8 36.83 18.78 36.97C18.79 36.91 18.8 36.85 18.81 36.79C18.79 36.93 18.75 37.05 18.7 37.18C18.72 37.13 18.74 37.07 18.77 37.02C18.74 37.09 18.7 37.16 18.66 37.23C18.48 37.53 18.58 37.98 18.9 38.15C19.23 38.32 19.64 38.23 19.83 37.91C20.09 37.48 20.2 36.96 20.13 36.47C20.07 36 19.87 35.58 19.55 35.23C19.31 34.97 18.83 34.97 18.59 35.23C18.33 35.51 18.34 35.91 18.59 36.19Z" fill="#000000" fill-opacity="1.000000" fill-rule="nonzero"/>
	<path id="Vector" d="M38.42 44.63C34.94 43.47 31.26 42.9 27.59 42.95C26.72 42.96 26.71 44.31 27.59 44.3C31.15 44.25 34.68 44.8 38.06 45.93C38.89 46.21 39.24 44.91 38.42 44.63Z" fill="#000000" fill-opacity="1.000000" fill-rule="nonzero"/>
	<path id="Vector" d="M36.27 46.14C32.49 45.07 28.56 44.55 24.63 44.62C23.75 44.64 23.75 45.99 24.63 45.97C28.44 45.91 32.24 46.4 35.91 47.45C36.75 47.69 37.11 46.38 36.27 46.14Z" fill="#000000" fill-opacity="1.000000" fill-rule="nonzero"/>
	<path id="Vector" d="M26.08 48.18C22.15 46.39 17.72 45.99 13.58 47.22C12.74 47.46 13.1 48.77 13.94 48.52C17.72 47.4 21.8 47.71 25.39 49.34C25.73 49.5 26.12 49.44 26.32 49.1C26.49 48.81 26.41 48.33 26.08 48.18Z" fill="#000000" fill-opacity="1.000000" fill-rule="nonzero"/>
</svg>
