<svg width="120.000000" height="33.000000" viewBox="0 0 120 33" fill="none" xmlns="http://www.w3.org/2000/svg" xmlns:xlink="http://www.w3.org/1999/xlink">
	<desc>
			Created with Pixso.
	</desc>
	<defs/>
	<path id="Vector" d="M15.59 30.23C7.99 30.23 1.83 24.2 1.83 16.76C1.83 9.32 7.99 3.29 15.59 3.29C23.19 3.29 29.34 9.32 29.34 16.76C29.34 24.2 23.19 30.23 15.59 30.23Z" stroke="#E54F1E" stroke-opacity="1.000000" stroke-width="4.000000"/>
	<path id="Vector" d="M104.11 28.71C96.51 28.71 90.35 22.68 90.35 15.24C90.35 7.81 96.51 1.78 104.11 1.78C111.7 1.78 117.86 7.81 117.86 15.24C117.86 22.68 111.7 28.71 104.11 28.71Z" stroke="#E54F1E" stroke-opacity="1.000000" stroke-width="4.000000"/>
	<path id="Vector" d="M59.49 29.62C51.9 29.62 45.74 23.59 45.74 16.15C45.74 8.71 51.9 2.68 59.49 2.68C67.09 2.68 73.25 8.71 73.25 16.15C73.25 23.59 67.09 29.62 59.49 29.62Z" stroke="#E54F1E" stroke-opacity="1.000000" stroke-width="4.000000"/>
</svg>
