<svg width="153.000000" height="204.000000" viewBox="0 0 153 204" fill="none" xmlns="http://www.w3.org/2000/svg" xmlns:xlink="http://www.w3.org/1999/xlink">
	<desc>
			Created with Pixso.
	</desc>
	<defs/>
	<path id="Vector" d="M129.74 -0.41C132.04 0.89 133.15 3.01 133.6 5.73C134.17 9.19 134.98 12.59 135.52 16.05C135.72 17.34 136.22 17.66 137.33 17.63C139.65 17.56 141.98 17.57 144.31 17.62C149.34 17.71 152.26 20.84 152.35 26.31C152.41 30.22 152.42 34.14 152.35 38.05C152.26 43.56 149.36 46.59 144.28 46.65C141.48 46.69 141.46 46.69 141.04 49.77C140.53 53.5 140.01 57.24 139.6 60.98C139.53 61.61 139.84 62.53 140.28 62.95C142.23 64.8 142.86 67.08 142.51 69.75C138.78 98.08 135.03 126.42 131.3 154.77C130.55 160.47 129.78 166.17 129.06 171.89C128.7 174.86 127.56 177.13 124.92 178.43C124.42 178.68 124.01 179.59 123.91 180.27C123.25 184.71 122.77 189.2 122.06 193.63C121.13 199.46 117.01 203.36 111.58 203.37C87.69 203.43 63.81 203.43 39.92 203.37C34.43 203.36 30.28 199.35 29.4 193.44C28.74 189 28.23 184.52 27.55 180.07C27.46 179.43 26.94 178.63 26.41 178.36C24.1 177.15 22.84 175.14 22.5 172.5C20.61 158.33 18.77 144.16 16.92 129.98C14.78 113.71 12.64 97.44 10.51 81.18C9.98 77.25 9.41 73.31 8.95 69.37C8.65 66.85 9.39 64.7 11.19 62.96C11.63 62.53 11.97 61.62 11.89 60.99C11.42 56.72 10.8 52.47 10.3 48.19C10.17 47.04 9.81 46.53 8.7 46.63C7.73 46.7 6.74 46.65 5.77 46.57C2.35 46.27 -0.57 43.36 -0.71 39.65C-0.89 34.69 -0.88 29.7 -0.72 24.74C-0.61 21.13 1.96 18.21 5.32 17.84C8.17 17.52 11.06 17.59 13.94 17.63C15.18 17.64 15.76 17.34 15.99 15.87C16.52 12.49 17.34 9.15 17.89 5.75C18.33 3.02 19.43 0.91 21.7 -0.42C57.69 -0.41 93.72 -0.41 129.74 -0.41ZM118.49 178.99C117.58 178.99 116.93 178.99 116.28 178.99C110.03 178.99 103.78 178.99 97.53 178.98C96.87 178.98 96.18 178.94 95.53 178.79C94.07 178.46 93.29 177.38 93.38 175.8C93.46 174.23 94.32 173.26 95.81 173.07C96.48 172.98 97.15 172.98 97.83 172.98C105.67 172.98 113.51 172.96 121.35 173C122.74 173.01 123.4 172.59 123.61 170.93C125.35 157.35 127.19 143.77 128.97 130.2C131.63 109.99 134.25 89.78 136.95 69.58C137.19 67.75 136.68 67.25 135.06 67.25C95.49 67.28 55.91 67.28 16.35 67.25C14.66 67.25 14.28 67.84 14.52 69.63C16.58 84.97 18.57 100.33 20.58 115.69C22.97 133.86 25.37 152.03 27.78 170.2C28.15 173 28.21 172.98 30.89 172.98C47.73 172.98 64.58 172.98 81.42 172.98C82.16 172.98 82.9 173 83.62 173.1C85.04 173.32 85.8 174.36 85.9 175.79C85.99 177.25 85.29 178.37 83.92 178.74C83.1 178.95 82.22 178.98 81.38 178.98C66 178.99 50.63 178.99 35.26 178.99C34.56 178.99 33.84 178.99 33.03 178.99C33.31 181.22 33.56 183.11 33.81 185.01C34.06 186.91 34.33 188.81 34.54 190.72C35.11 195.74 36.82 197.41 41.49 197.41C60.85 197.41 80.2 197.41 99.56 197.41C103.36 197.41 107.16 197.43 110.96 197.4C113.82 197.37 115.9 196.02 116.38 193.36C117.23 188.7 117.77 183.98 118.49 178.99ZM130.18 17.6C129.51 14.06 128.79 10.79 128.3 7.48C128.04 5.71 127.44 5.12 125.73 5.13C92.4 5.19 59.07 5.18 25.75 5.18C25.38 5.18 24.95 5.05 24.66 5.21C24.19 5.47 23.58 5.87 23.47 6.32C22.69 9.99 22.01 13.67 21.25 17.63C23.18 17.63 24.94 17.62 26.71 17.63C28.3 17.64 29.9 17.58 31.48 17.77C33.03 17.95 33.92 19.01 33.84 20.76C33.78 22.47 32.86 23.41 31.29 23.56C30.69 23.62 30.07 23.61 29.45 23.61C22.16 23.61 14.87 23.61 7.59 23.62C5.15 23.62 4.65 24.17 4.64 26.75C4.63 30.14 4.64 33.51 4.64 36.9C4.64 40.54 4.8 40.69 8.19 40.69C53.22 40.69 98.25 40.69 143.27 40.69C143.64 40.69 144.01 40.67 144.38 40.69C146.11 40.8 146.81 39.83 146.8 38.04C146.78 34.59 146.8 31.14 146.8 27.68C146.8 23.87 146.56 23.62 143.06 23.62C110.71 23.62 78.37 23.62 46.02 23.62C45.23 23.62 44.42 23.63 43.64 23.53C42.21 23.34 41.44 22.33 41.35 20.86C41.25 19.39 41.89 18.26 43.28 17.9C44.1 17.69 44.98 17.65 45.82 17.65C73.08 17.64 100.35 17.64 127.6 17.64C128.41 17.6 129.19 17.6 130.18 17.6ZM17.53 61.14C56.49 61.14 95.17 61.14 133.93 61.14C134.55 56.3 135.15 51.6 135.77 46.82C95.62 46.82 55.73 46.82 15.66 46.82C16.3 51.7 16.92 56.41 17.53 61.14Z" fill="#000000" fill-opacity="1.000000" fill-rule="nonzero"/>
</svg>
