<svg width="146.000000" height="193.000000" viewBox="0 0 146 193" fill="none" xmlns="http://www.w3.org/2000/svg" xmlns:xlink="http://www.w3.org/1999/xlink">
	<desc>
			Created with Pixso.
	</desc>
	<defs/>
	<path id="Vector" d="M123.57 0C125.77 1.22 126.81 3.24 127.24 5.81C127.79 9.07 128.55 12.31 129.07 15.59C129.27 16.81 129.75 17.11 130.8 17.08C133.02 17.01 135.23 17.02 137.45 17.06C142.25 17.15 145.03 20.12 145.11 25.3C145.17 29 145.17 32.71 145.11 36.42C145.02 41.63 142.26 44.5 137.42 44.57C134.74 44.6 134.72 44.6 134.32 47.52C133.84 51.06 133.33 54.59 132.96 58.14C132.89 58.74 133.19 59.61 133.61 60.01C135.46 61.75 136.06 63.92 135.73 66.45C132.18 93.28 128.61 120.11 125.04 146.94C124.33 152.34 123.59 157.75 122.92 163.16C122.57 165.97 121.48 168.11 118.97 169.34C118.5 169.57 118.1 170.44 118 171.07C117.37 175.28 116.91 179.53 116.23 183.74C115.35 189.25 111.43 192.94 106.25 192.95C83.5 193.01 60.74 193.01 37.99 192.95C32.75 192.94 28.82 189.15 27.96 183.56C27.33 179.35 26.85 175.11 26.21 170.89C26.11 170.29 25.63 169.53 25.12 169.28C22.92 168.14 21.72 166.22 21.39 163.73C19.59 150.32 17.84 136.89 16.07 123.48C14.04 108.07 12.01 92.67 9.97 77.26C9.48 73.53 8.93 69.81 8.49 66.08C8.2 63.69 8.9 61.66 10.62 60.01C11.04 59.61 11.36 58.74 11.3 58.15C10.84 54.1 10.25 50.07 9.78 46.03C9.65 44.94 9.31 44.46 8.24 44.54C7.32 44.61 6.37 44.57 5.44 44.48C2.18 44.21 -0.6 41.44 -0.72 37.94C-0.89 33.24 -0.88 28.52 -0.73 23.82C-0.63 20.42 1.82 17.65 5.02 17.29C7.74 16.98 10.5 17.04 13.23 17.09C14.42 17.1 14.97 16.81 15.19 15.43C15.69 12.21 16.48 9.05 17 5.84C17.42 3.26 18.47 1.26 20.63 0C54.95 0 89.25 0 123.57 0ZM112.85 169.88C111.99 169.88 111.37 169.88 110.74 169.88C104.79 169.88 98.84 169.88 92.88 169.87C92.24 169.87 91.6 169.84 90.98 169.69C89.58 169.37 88.85 168.36 88.93 166.86C89 165.36 89.82 164.44 91.24 164.27C91.87 164.18 92.53 164.19 93.17 164.19C100.64 164.19 108.1 164.17 115.57 164.2C116.9 164.21 117.53 163.81 117.73 162.25C119.38 149.39 121.13 136.53 122.83 123.67C125.37 104.54 127.86 85.4 130.44 66.27C130.67 64.52 130.19 64.06 128.64 64.06C90.95 64.09 53.25 64.09 15.57 64.06C13.96 64.06 13.6 64.62 13.83 66.32C15.8 80.85 17.68 95.4 19.61 109.93C21.88 127.14 24.17 144.34 26.46 161.55C26.82 164.19 26.86 164.19 29.43 164.19C45.48 164.19 61.52 164.19 77.56 164.19C78.26 164.19 78.96 164.2 79.66 164.3C81.01 164.5 81.74 165.48 81.82 166.85C81.91 168.23 81.24 169.3 79.94 169.64C79.16 169.84 78.33 169.87 77.52 169.87C62.87 169.88 48.23 169.88 33.58 169.88C32.91 169.88 32.24 169.88 31.46 169.88C31.73 171.98 31.96 173.78 32.21 175.59C32.44 177.38 32.7 179.19 32.91 180.99C33.45 185.74 35.09 187.32 39.53 187.32C57.97 187.32 76.4 187.32 94.84 187.32C98.46 187.32 102.08 187.34 105.69 187.31C108.42 187.29 110.39 186.01 110.86 183.48C111.65 179.08 112.16 174.59 112.85 169.88ZM123.98 17.05C123.35 13.7 122.66 10.6 122.2 7.46C121.96 5.79 121.38 5.23 119.75 5.23C88 5.29 56.25 5.28 24.51 5.28C24.17 5.28 23.76 5.15 23.48 5.31C23.05 5.55 22.45 5.92 22.36 6.35C21.61 9.82 20.97 13.31 20.24 17.05C22.08 17.05 23.76 17.04 25.44 17.05C26.95 17.08 28.48 17.01 29.97 17.19C31.44 17.36 32.29 18.38 32.23 20.01C32.16 21.64 31.29 22.52 29.8 22.68C29.22 22.74 28.63 22.73 28.05 22.73C21.1 22.73 14.16 22.72 7.21 22.74C4.9 22.74 4.42 23.26 4.41 25.7C4.4 28.9 4.4 32.11 4.41 35.31C4.41 38.74 4.56 38.9 7.8 38.9C50.7 38.9 93.58 38.9 136.47 38.9C136.82 38.9 137.17 38.88 137.52 38.9C139.17 39 139.84 38.09 139.83 36.39C139.81 33.12 139.83 29.85 139.83 26.59C139.83 22.97 139.61 22.74 136.27 22.74C105.46 22.74 74.65 22.74 43.84 22.74C43.09 22.74 42.32 22.75 41.57 22.65C40.21 22.47 39.48 21.5 39.39 20.12C39.31 18.73 39.92 17.66 41.25 17.31C42.02 17.11 42.86 17.08 43.67 17.08C69.64 17.06 95.6 17.06 121.57 17.06C122.31 17.05 123.04 17.05 123.98 17.05ZM16.68 58.28C53.8 58.28 90.63 58.28 127.57 58.28C128.16 53.7 128.74 49.25 129.33 44.71C91.08 44.71 53.08 44.71 14.91 44.71C15.52 49.34 16.09 53.79 16.68 58.28Z" fill="#000000" fill-opacity="1.000000" fill-rule="nonzero"/>
</svg>
