<svg width="181.000000" height="69.000000" viewBox="0 0 181 69" fill="none" xmlns="http://www.w3.org/2000/svg" xmlns:xlink="http://www.w3.org/1999/xlink">
	<desc>
			Created with Pixso.
	</desc>
	<defs/>
	<path id="Vector" d="M100.55 46.77C97.53 41.23 90.23 41.21 88.63 41.21C86.99 41.21 79.26 41.18 76.54 46.91C74.83 50.48 75.99 54.39 76.05 54.6C76.37 55.64 77.19 57.66 79.1 59.23C80.72 60.58 82.37 60.85 84.46 61.23C86.13 61.52 87.45 61.5 88.73 61.5C90.06 61.48 91.42 61.46 93.12 61.1C95 60.7 96.69 60.35 98.36 58.98C99.09 58.37 100.78 56.93 101.53 54.33C102.59 50.66 100.9 47.41 100.55 46.77ZM95.48 54.21C94.76 55.23 93.84 55.6 92.73 56.02C91.12 56.64 89.77 56.66 88.71 56.66C87.54 56.66 86.25 56.64 84.72 56.02C83.72 55.62 82.72 55.23 81.96 54.1C81.72 53.75 81.04 52.64 81.12 51.12C81.21 49.54 82.06 48.5 82.43 48.06C84.31 45.85 87.24 45.89 88.83 45.91C90.45 45.93 93.2 45.96 94.99 48.1C95.35 48.52 96.21 49.58 96.3 51.18C96.31 51.48 96.37 52.91 95.48 54.21Z" fill="#EF5924" fill-opacity="1.000000" fill-rule="nonzero"/>
	<path id="Vector" d="M83.05 13.6C79.32 7.45 70.49 7.54 68.54 7.55C66.56 7.57 57.21 7.64 53.97 14.05C51.94 18.05 53.39 22.39 53.47 22.62C53.88 23.78 54.88 26.01 57.21 27.75C59.18 29.22 61.19 29.51 63.73 29.89C65.75 30.21 67.35 30.18 68.9 30.14C70.51 30.1 72.16 30.07 74.21 29.64C76.48 29.16 78.53 28.77 80.53 27.21C81.41 26.53 83.43 24.91 84.31 22C85.56 17.91 83.48 14.32 83.05 13.6ZM77 21.93C76.15 23.1 75.03 23.51 73.69 24C71.75 24.71 70.12 24.74 68.83 24.75C67.41 24.76 65.85 24.76 63.99 24.1C62.77 23.66 61.55 23.23 60.62 21.99C60.32 21.58 59.49 20.35 59.57 18.66C59.66 16.91 60.68 15.75 61.12 15.26C63.37 12.77 66.92 12.78 68.83 12.78C70.8 12.78 74.12 12.79 76.32 15.14C76.76 15.6 77.81 16.77 77.94 18.56C77.97 18.89 78.06 20.5 77 21.93Z" fill="#EF5924" fill-opacity="1.000000" fill-rule="nonzero"/>
	<path id="Vector" d="M128.67 29.98L123.63 29.98C122.93 29.98 122.35 29.4 122.36 28.69L122.39 16.64C122.39 15.94 122.96 15.37 123.66 15.37L128.53 15.37C129.24 15.37 129.81 15.93 129.81 16.63C129.85 20.65 129.89 24.67 129.92 28.68C129.95 29.39 129.38 29.98 128.67 29.98Z" fill="#EF5924" fill-opacity="1.000000" fill-rule="nonzero"/>
	<path id="Vector" d="M129 9.55C129 9.54 129 9.54 129 9.52C129 9.43 129 9.33 129 9.24C129 7.17 127.67 5.49 126.02 5.49C124.37 5.49 123.03 7.17 123.03 9.24C123.03 9.35 123.03 9.46 123.04 9.57C123.04 9.58 123.03 9.58 123.03 9.59L123.04 9.6C123.18 11.5 124.46 13 126.01 13C127.57 13 128.86 11.49 128.99 9.57L129 9.55Z" fill="#EF5924" fill-opacity="1.000000" fill-rule="nonzero"/>
	<path id="Vector" d="M177.31 29.89L172.27 29.89C171.57 29.89 170.99 29.32 171 28.61L171.03 16.56C171.03 15.86 171.6 15.29 172.3 15.29L177.18 15.29C177.88 15.29 178.45 15.85 178.45 16.55C178.49 20.57 178.53 24.59 178.57 28.6C178.59 29.31 178.02 29.89 177.31 29.89Z" fill="#EF5924" fill-opacity="1.000000" fill-rule="nonzero"/>
	<path id="Vector" d="M177.65 9.47C177.65 9.45 177.64 9.45 177.64 9.43C177.65 9.35 177.65 9.25 177.65 9.16C177.65 7.09 176.31 5.41 174.66 5.41C173.01 5.41 171.67 7.09 171.67 9.16C171.67 9.27 171.67 9.38 171.68 9.49C171.68 9.5 171.67 9.5 171.67 9.51L171.68 9.52C171.82 11.41 173.1 12.91 174.65 12.91C176.21 12.91 177.5 11.41 177.63 9.49L177.65 9.47Z" fill="#EF5924" fill-opacity="1.000000" fill-rule="nonzero"/>
	<path id="Vector" d="M136.83 29C136.75 27.58 138.53 22.04 138.46 18.51C138.39 15.49 136.87 9.22 136.83 8.7C136.83 8.68 136.83 8.66 136.83 8.66C136.83 8.53 136.84 8.2 137.1 7.97C137.28 7.81 137.6 7.72 138.05 7.72L142.25 7.72C142.61 7.72 142.89 7.77 143.14 7.85C143.38 7.95 143.55 8.04 143.64 8.12C143.73 8.2 143.84 8.33 143.98 8.54C144.12 8.74 144.19 8.85 144.21 8.87L149.78 16.87C149.89 17.03 150.13 17.03 150.24 16.87L155.88 8.87C155.94 8.78 156.03 8.62 156.16 8.47C156.32 8.26 156.42 8.14 156.58 8.02C156.78 7.87 156.96 7.82 157.09 7.79C157.35 7.72 157.59 7.7 157.78 7.72C159.14 7.72 160.5 7.72 161.86 7.72C162.32 7.72 162.63 7.8 162.81 7.97C162.96 8.1 163.07 8.33 163.08 8.7C163.12 10.08 161.86 15.79 161.84 18.68C161.82 21.76 163.17 27.6 163.08 29C163.07 29.14 163.07 29.55 162.78 29.76C162.58 29.89 162.27 29.97 161.86 29.97L157.78 29.97C157.37 29.97 157.06 29.89 156.86 29.76C156.59 29.56 156.57 29.16 156.56 29C156.52 28.39 157.02 24.16 157.78 18.45C157.69 17.47 157.21 16.7 156.56 16.53C155.89 16.35 155.17 16.75 154.92 17.1C154.3 18.03 153.58 19.27 153 20.82C152.66 21.78 152.44 22.66 152.3 23.45C152.22 23.57 152.03 23.8 151.71 23.98C151.5 24.1 151.28 24.16 151.07 24.16L148.94 24.16C148.53 24.16 148.13 23.91 147.75 23.45C147.61 22.66 146.75 18.48 144.96 17.2C144.64 16.98 144.08 16.58 143.5 16.75C142.85 16.93 142.39 17.76 142.28 18.83C143.06 24.22 143.53 28.18 143.47 28.99C143.46 29.12 143.46 29.54 143.17 29.75C142.97 29.89 142.66 29.96 142.25 29.96L138.03 29.96C137.63 29.96 137.32 29.89 137.12 29.75C136.83 29.54 136.84 29.12 136.83 29Z" fill="#EF5924" fill-opacity="1.000000" fill-rule="nonzero"/>
	<path id="Vector" d="M89.35 29.08C89.27 27.66 91.05 22.12 90.98 18.59C90.92 15.57 89.39 9.3 89.35 8.79C89.35 8.77 89.35 8.74 89.35 8.74C89.35 8.61 89.36 8.29 89.62 8.05C89.8 7.89 90.12 7.8 90.57 7.8L94.78 7.8C95.13 7.8 95.42 7.85 95.66 7.93C95.9 8.03 96.07 8.12 96.16 8.2C96.25 8.28 96.36 8.41 96.5 8.62C96.64 8.82 96.71 8.93 96.73 8.95L102.31 16.95C102.42 17.11 102.65 17.11 102.76 16.95L108.4 8.95C108.46 8.86 108.56 8.7 108.68 8.55C108.84 8.34 108.94 8.22 109.1 8.1C109.3 7.95 109.48 7.9 109.61 7.87C109.87 7.8 110.11 7.79 110.3 7.8C111.66 7.8 113.02 7.8 114.38 7.8C114.84 7.8 115.15 7.88 115.33 8.05C115.48 8.18 115.59 8.41 115.6 8.79C115.64 10.16 114.38 15.87 114.36 18.76C114.34 21.84 115.69 27.68 115.6 29.08C115.59 29.23 115.59 29.63 115.3 29.84C115.1 29.98 114.79 30.05 114.38 30.05L110.3 30.05C109.89 30.05 109.58 29.98 109.38 29.84C109.11 29.64 109.09 29.24 109.08 29.08C109.04 28.47 109.54 24.24 110.3 18.53C110.21 17.55 109.73 16.79 109.08 16.61C108.42 16.43 107.7 16.83 107.45 17.18C106.82 18.11 106.1 19.35 105.53 20.9C105.18 21.86 104.96 22.75 104.82 23.53C104.74 23.65 104.55 23.88 104.23 24.06C104.03 24.18 103.81 24.24 103.59 24.24L101.46 24.24C101.05 24.24 100.65 24 100.28 23.53C100.13 22.74 99.27 18.56 97.48 17.28C97.17 17.06 96.6 16.66 96.02 16.83C95.37 17.01 94.91 17.84 94.8 18.91C95.58 24.3 96.05 28.26 95.99 29.07C95.98 29.21 95.98 29.62 95.69 29.83C95.49 29.97 95.18 30.04 94.77 30.04L90.56 30.04C90.15 30.04 89.84 29.97 89.64 29.83C89.36 29.62 89.36 29.21 89.35 29.08Z" fill="#EF5924" fill-opacity="1.000000" fill-rule="nonzero"/>
	<path id="Vector" d="M53.25 51.53C53.25 50 53.5 48.6 54 47.34C54.5 46.08 55.21 44.99 56.12 44.07C57.04 43.15 58.13 42.44 59.39 41.95C60.65 41.46 62.05 41.2 63.58 41.2C65.01 41.2 66.26 41.35 67.37 41.64C68.47 41.93 69.39 42.31 70.12 42.77C70.87 43.23 71.43 43.73 71.81 44.26C72.19 44.8 72.37 45.31 72.37 45.79C72.37 46.12 72.3 46.44 72.15 46.75C72 47.06 71.81 47.32 71.58 47.53C71.35 47.75 71.08 47.92 70.8 48.05C70.51 48.18 70.21 48.24 69.9 48.24C69.36 48.24 68.92 48.06 68.56 47.7C68.33 47.47 68.07 47.24 67.79 47.01C67.51 46.78 67.18 46.58 66.79 46.4C66.41 46.22 65.94 46.07 65.43 45.96C64.91 45.85 64.29 45.79 63.57 45.79C61.83 45.79 60.51 46.22 59.59 47.07C58.67 47.93 58.21 49.41 58.21 51.53C58.21 53.65 58.67 55.14 59.59 55.99C60.51 56.85 61.84 57.27 63.57 57.27C64.28 57.27 64.9 57.21 65.43 57.1C65.94 56.99 66.41 56.84 66.79 56.66C67.17 56.48 67.5 56.28 67.79 56.05C68.07 55.82 68.33 55.59 68.56 55.36C68.92 55 69.36 54.82 69.9 54.82C70.21 54.82 70.51 54.88 70.8 55.01C71.08 55.14 71.35 55.31 71.58 55.53C71.81 55.75 72 56 72.15 56.3C72.3 56.59 72.37 56.92 72.37 57.28C72.37 57.77 72.19 58.28 71.81 58.81C71.43 59.35 70.87 59.84 70.12 60.3C69.39 60.76 68.47 61.14 67.37 61.43C66.26 61.72 65.01 61.87 63.58 61.87C62.05 61.87 60.65 61.62 59.39 61.12C58.13 60.62 57.04 59.91 56.12 59C55.2 58.08 54.49 56.99 54 55.73C53.5 54.46 53.25 53.06 53.25 51.53Z" fill="#EF5924" fill-opacity="1.000000" fill-rule="nonzero"/>
	<path id="Vector" d="M106.34 44.05C106.66 44.05 106.92 44.07 107.11 44.1C107.3 44.12 107.51 44.16 107.71 44.18C108.14 44.24 108.39 44.02 108.43 43.54C108.5 42.55 108.73 41.64 109.12 40.83C109.51 40.03 110.06 39.32 110.77 38.72C111.48 38.12 112.37 37.66 113.44 37.33C114.51 37 115.75 36.83 117.17 36.83C117.38 36.83 117.56 36.91 117.72 37.1C117.88 37.29 118.01 37.52 118.1 37.8C118.19 38.07 118.26 38.35 118.31 38.66C118.36 38.96 118.38 39.21 118.38 39.41C118.38 39.62 118.36 39.85 118.31 40.12C118.26 40.39 118.2 40.64 118.1 40.87C118.01 41.1 117.88 41.29 117.72 41.43C117.56 41.58 117.38 41.66 117.17 41.66C115.84 41.66 114.89 41.87 114.33 42.28C113.77 42.68 113.43 43.12 113.32 43.55C113.27 43.73 113.31 43.89 113.42 44.03C113.53 44.16 113.7 44.23 113.9 44.2C114.24 44.14 114.59 44.12 114.95 44.1C115.31 44.08 115.64 44.07 115.96 44.07C116.17 44.07 116.35 44.16 116.51 44.35C116.67 44.53 116.8 44.76 116.89 45.04C116.98 45.32 117.05 45.6 117.1 45.89C117.15 46.2 117.17 46.45 117.17 46.66C117.17 46.87 117.15 47.12 117.1 47.41C117.05 47.72 116.99 48 116.89 48.28C116.8 48.56 116.67 48.79 116.51 48.97C116.35 49.14 116.17 49.24 115.96 49.24C115.64 49.24 115.3 49.23 114.95 49.21C114.59 49.18 114.25 49.14 113.9 49.1C113.69 49.08 113.53 49.14 113.4 49.26C113.27 49.39 113.21 49.55 113.21 49.76C113.21 50.6 113.22 51.53 113.24 52.53C113.26 53.53 113.29 54.51 113.31 55.47C113.33 56.43 113.35 57.35 113.36 58.22C113.37 59.08 113.38 59.83 113.38 60.41C113.38 60.64 113.29 60.83 113.1 60.99C112.92 61.14 112.69 61.26 112.41 61.35C112.13 61.43 111.85 61.51 111.55 61.56C111.25 61.6 111 61.62 110.79 61.62C110.58 61.62 110.33 61.6 110.03 61.56C109.73 61.51 109.45 61.45 109.17 61.35C108.89 61.26 108.66 61.14 108.48 60.99C108.3 60.83 108.2 60.64 108.2 60.41C108.2 59.82 108.21 59.08 108.22 58.22C108.23 57.35 108.25 56.43 108.27 55.47C108.29 54.51 108.32 53.53 108.34 52.53C108.36 51.53 108.37 50.6 108.37 49.76C108.37 49.55 108.31 49.39 108.18 49.26C108.05 49.12 107.89 49.08 107.68 49.1C107.45 49.12 107.24 49.16 107.04 49.2C106.84 49.23 106.6 49.25 106.3 49.25C106.09 49.25 105.91 49.16 105.75 48.98C105.59 48.8 105.46 48.57 105.37 48.29C105.28 48.01 105.21 47.73 105.16 47.43C105.11 47.12 105.09 46.87 105.09 46.66C105.09 46.46 105.11 46.21 105.16 45.91C105.21 45.6 105.27 45.33 105.37 45.05C105.46 44.77 105.59 44.55 105.75 44.35C105.95 44.14 106.13 44.05 106.34 44.05Z" fill="#EF5924" fill-opacity="1.000000" fill-rule="nonzero"/>
	<path id="Vector" d="M122.03 44.05C122.35 44.05 122.61 44.07 122.8 44.1C122.99 44.12 123.2 44.16 123.4 44.18C123.83 44.24 124.08 44.02 124.12 43.54C124.19 42.55 124.42 41.64 124.81 40.83C125.2 40.03 125.75 39.32 126.46 38.72C127.17 38.12 128.06 37.66 129.13 37.33C130.2 37 131.44 36.83 132.86 36.83C133.07 36.83 133.25 36.91 133.41 37.1C133.57 37.29 133.7 37.52 133.78 37.8C133.88 38.07 133.95 38.35 134 38.66C134.05 38.96 134.07 39.21 134.07 39.41C134.07 39.62 134.05 39.85 134 40.12C133.95 40.39 133.89 40.64 133.78 40.87C133.7 41.1 133.57 41.29 133.41 41.43C133.25 41.58 133.07 41.66 132.86 41.66C131.53 41.66 130.58 41.87 130.02 42.28C129.46 42.68 129.12 43.12 129 43.55C128.96 43.73 129 43.89 129.11 44.03C129.22 44.16 129.39 44.23 129.59 44.2C129.92 44.14 130.28 44.12 130.64 44.1C131 44.08 131.33 44.07 131.64 44.07C131.86 44.07 132.03 44.16 132.2 44.35C132.36 44.53 132.49 44.76 132.58 45.04C132.67 45.32 132.74 45.6 132.78 45.89C132.84 46.2 132.86 46.45 132.86 46.66C132.86 46.87 132.84 47.12 132.78 47.41C132.74 47.72 132.67 48 132.58 48.28C132.49 48.56 132.36 48.78 132.2 48.97C132.03 49.14 131.86 49.24 131.64 49.24C131.33 49.24 130.99 49.23 130.64 49.21C130.28 49.18 129.94 49.14 129.59 49.1C129.38 49.08 129.22 49.14 129.09 49.27C128.96 49.39 128.89 49.56 128.89 49.77C128.89 50.62 128.91 51.54 128.92 52.54C128.95 53.54 128.98 54.52 129 55.48C129.02 56.43 129.03 57.35 129.05 58.23C129.06 59.1 129.07 59.83 129.07 60.43C129.07 60.66 128.98 60.85 128.78 61C128.61 61.14 128.38 61.27 128.1 61.35C127.82 61.45 127.54 61.52 127.24 61.57C126.94 61.62 126.69 61.64 126.48 61.64C126.27 61.64 126.02 61.62 125.72 61.57C125.42 61.52 125.14 61.46 124.86 61.35C124.58 61.26 124.35 61.14 124.17 61C123.99 60.85 123.89 60.66 123.89 60.43C123.89 59.83 123.9 59.1 123.91 58.23C123.92 57.35 123.94 56.43 123.96 55.48C123.98 54.52 124.01 53.54 124.03 52.54C124.05 51.54 124.06 50.62 124.06 49.77C124.06 49.56 124 49.39 123.87 49.27C123.74 49.14 123.58 49.08 123.37 49.1C123.14 49.12 122.93 49.16 122.73 49.2C122.53 49.23 122.29 49.25 121.99 49.25C121.78 49.25 121.6 49.16 121.44 48.98C121.28 48.8 121.15 48.57 121.06 48.29C120.97 48.01 120.9 47.73 120.85 47.43C120.8 47.12 120.78 46.87 120.78 46.66C120.78 46.46 120.8 46.21 120.85 45.91C120.9 45.6 120.96 45.33 121.06 45.05C121.15 44.77 121.28 44.55 121.44 44.35C121.64 44.14 121.83 44.05 122.03 44.05Z" fill="#EF5924" fill-opacity="1.000000" fill-rule="nonzero"/>
	<path id="Vector" d="M170.97 41.2C172.26 41.2 173.46 41.37 174.58 41.7C175.7 42.03 176.68 42.48 177.51 43.05C178.34 43.62 179 44.3 179.5 45.09C179.99 45.88 180.24 46.74 180.24 47.68C180.24 48.84 179.99 49.81 179.5 50.59C179.01 51.37 178.35 52 177.51 52.48C176.68 52.96 175.7 53.3 174.58 53.5C173.46 53.7 172.25 53.8 170.97 53.8C170.04 53.8 169.19 53.74 168.42 53.61C167.65 53.49 167.04 53.36 166.59 53.24C166.34 53.19 166.16 53.22 166.04 53.33C165.93 53.44 165.89 53.6 165.95 53.79C166.03 54.09 166.16 54.41 166.37 54.75C166.57 55.1 166.86 55.42 167.24 55.71C167.62 56.01 168.11 56.25 168.72 56.45C169.32 56.65 170.08 56.75 170.99 56.75C171.7 56.75 172.31 56.69 172.82 56.58C173.34 56.47 173.78 56.33 174.16 56.15C174.54 55.98 174.87 55.78 175.14 55.56C175.42 55.34 175.67 55.12 175.9 54.89C176.25 54.54 176.69 54.37 177.22 54.37C177.52 54.37 177.82 54.43 178.11 54.56C178.4 54.68 178.66 54.85 178.89 55.06C179.12 55.27 179.31 55.52 179.46 55.8C179.61 56.08 179.69 56.4 179.69 56.74C179.69 57.21 179.5 57.7 179.12 58.22C178.74 58.74 178.19 59.22 177.46 59.66C176.73 60.1 175.82 60.47 174.74 60.75C173.66 61.03 172.41 61.18 171 61.18C169.44 61.18 168.02 60.94 166.76 60.46C165.5 59.98 164.43 59.29 163.55 58.41C162.67 57.52 161.99 56.47 161.5 55.25C161.03 54.03 160.78 52.68 160.78 51.2C160.78 49.72 161.03 48.37 161.5 47.15C161.99 45.93 162.67 44.87 163.55 43.99C164.43 43.1 165.5 42.42 166.76 41.94C167.99 41.44 169.4 41.2 170.97 41.2ZM166.58 49.16C167.06 49.26 167.7 49.38 168.51 49.51C169.32 49.65 170.14 49.71 170.97 49.71C172.21 49.71 173.24 49.53 174.07 49.17C174.9 48.81 175.32 48.31 175.32 47.67C175.32 47.03 174.9 46.53 174.07 46.17C173.24 45.81 172.2 45.63 170.97 45.63C170.11 45.63 169.38 45.72 168.78 45.89C168.18 46.06 167.68 46.28 167.29 46.54C166.9 46.8 166.6 47.08 166.4 47.37C166.2 47.67 166.06 47.95 165.98 48.22C165.93 48.42 165.96 48.61 166.07 48.79C166.18 48.99 166.35 49.11 166.58 49.16Z" fill="#EF5924" fill-opacity="1.000000" fill-rule="nonzero"/>
	<path id="Vector" d="M147.92 41.25C149.21 41.25 150.42 41.42 151.55 41.75C152.67 42.08 153.66 42.54 154.5 43.11C155.34 43.68 156 44.36 156.49 45.16C156.98 45.96 157.23 46.82 157.23 47.76C157.23 48.93 156.98 49.9 156.49 50.68C156 51.46 155.33 52.09 154.5 52.58C153.66 53.06 152.67 53.4 151.55 53.6C150.42 53.8 149.21 53.9 147.92 53.9C146.98 53.9 146.13 53.84 145.35 53.71C144.58 53.59 143.96 53.46 143.5 53.34C143.25 53.29 143.07 53.32 142.96 53.43C142.85 53.54 142.81 53.71 142.86 53.89C142.94 54.19 143.08 54.51 143.28 54.86C143.48 55.21 143.77 55.53 144.14 55.83C144.53 56.13 145.02 56.38 145.63 56.57C146.24 56.77 147 56.87 147.91 56.87C148.62 56.87 149.23 56.81 149.75 56.71C150.27 56.59 150.72 56.46 151.1 56.27C151.48 56.1 151.81 55.9 152.09 55.68C152.37 55.46 152.62 55.23 152.85 55.01C153.2 54.66 153.64 54.5 154.17 54.5C154.48 54.5 154.78 54.55 155.07 54.68C155.36 54.8 155.62 54.98 155.85 55.18C156.08 55.39 156.27 55.64 156.42 55.92C156.57 56.21 156.64 56.52 156.64 56.87C156.64 57.34 156.46 57.84 156.08 58.36C155.7 58.88 155.14 59.36 154.41 59.81C153.67 60.26 152.75 60.62 151.67 60.91C150.58 61.19 149.33 61.34 147.91 61.34C146.34 61.34 144.92 61.1 143.64 60.62C142.38 60.14 141.31 59.46 140.42 58.56C139.53 57.67 138.85 56.61 138.37 55.38C137.89 54.15 137.64 52.8 137.64 51.31C137.64 49.82 137.89 48.48 138.37 47.25C138.85 46.01 139.53 44.96 140.42 44.06C141.31 43.17 142.38 42.48 143.64 42C144.92 41.5 146.35 41.25 147.92 41.25ZM143.5 49.25C143.99 49.34 144.64 49.46 145.45 49.59C146.25 49.73 147.08 49.79 147.92 49.79C149.16 49.79 150.2 49.61 151.03 49.25C151.88 48.89 152.28 48.39 152.28 47.75C152.28 47.1 151.87 46.59 151.03 46.23C150.2 45.87 149.17 45.69 147.92 45.69C147.06 45.69 146.32 45.78 145.72 45.96C145.11 46.12 144.61 46.34 144.22 46.6C143.83 46.86 143.53 47.14 143.33 47.44C143.13 47.75 142.99 48.02 142.91 48.3C142.86 48.5 142.89 48.69 143 48.88C143.11 49.07 143.28 49.19 143.5 49.25Z" fill="#EF5924" fill-opacity="1.000000" fill-rule="nonzero"/>
	<path id="Vector" d="M44.58 41.12C44.53 42.04 44.53 43.12 44.43 44.2C44.07 47.79 43.17 51.24 41.62 54.5C40.39 57.08 38.83 59.46 36.84 61.54C35.18 63.31 33.29 64.8 31.14 65.95C29.26 66.96 27.28 67.66 25.18 68.01C24.23 68.18 23.28 68.28 22.31 68.26C21.96 68.26 21.61 68.26 21.26 68.26C19.14 68.18 17.09 67.76 15.12 66.99C12.64 66.03 10.43 64.62 8.46 62.83C6.31 60.87 4.55 58.58 3.14 56C1.77 53.48 0.8 50.82 0.18 48.03C-0.06 46.95 -0.24 45.85 -0.38 44.76C-0.42 44.45 -0.43 44.14 -0.46 43.83C-0.59 42.43 -0.59 41.37 -0.57 40.16C-0.56 39.08 -0.48 38.03 -0.34 36.96C-0.12 35.18 0.25 33.46 0.76 31.75C1.71 28.58 3.13 25.64 5.08 22.97C6.7 20.75 8.62 18.83 10.9 17.27C13.08 15.77 15.46 14.72 18.04 14.16C18.77 14.01 19.49 13.89 20.21 13.83C21.22 13.73 22.21 13.74 23.21 13.78C23.99 13.81 24.76 13.91 25.53 14.06C27.48 14.45 29.32 15.1 31.07 16.04C32.81 16.97 34.39 18.12 35.82 19.47C37.98 21.5 39.71 23.85 41.08 26.46C42.37 28.91 43.29 31.52 43.86 34.23C44.08 35.29 44.25 36.35 44.37 37.43C44.52 38.6 44.58 39.79 44.58 41.12ZM18.23 20.31C18.06 20.31 17.92 20.31 17.78 20.31C17.12 20.37 16.5 20.5 15.87 20.68C14.65 21.06 13.55 21.66 12.53 22.43C11.26 23.39 10.21 24.55 9.3 25.85C7.99 27.74 7.04 29.8 6.36 32C6 33.16 5.72 34.33 5.52 35.53C5.4 36.29 5.3 37.05 5.23 37.81C5.17 38.43 5.16 39.04 5.13 39.64C5.06 41.12 5.14 42.58 5.3 44.04C5.42 45.14 5.61 46.23 5.87 47.3C6.37 49.41 7.09 51.43 8.12 53.35C8.97 54.95 10.01 56.39 11.3 57.66C12.34 58.66 13.51 59.51 14.84 60.1C15.73 60.49 16.65 60.73 17.61 60.85C17.69 60.85 17.78 60.87 17.85 60.78C17.87 60.64 17.79 60.51 17.76 60.37C17 57.85 16.36 55.31 15.97 52.71C15.81 51.66 15.69 50.6 15.65 49.56C15.6 48.35 15.61 47.12 15.77 45.93C15.9 44.89 16.12 43.89 16.48 42.91C16.95 41.62 17.67 40.46 18.68 39.49C18.96 39.21 19.25 38.93 19.54 38.66C20.33 37.91 20.9 37.05 21.28 36.04C21.62 35.1 21.79 34.14 21.84 33.14C21.89 32.22 21.82 31.3 21.68 30.37C21.52 29.25 21.26 28.14 20.93 27.04C20.27 24.77 19.36 22.6 18.34 20.48C18.31 20.43 18.28 20.39 18.23 20.31ZM25.24 20.33C25.29 20.45 25.31 20.55 25.35 20.64C25.48 20.93 25.62 21.23 25.75 21.53C26.5 23.24 27.17 24.97 27.68 26.76C28.18 28.53 28.55 30.33 28.59 32.18C28.62 33.37 28.53 34.56 28.21 35.71C27.86 36.97 27.3 38.1 26.4 39.06C26.08 39.41 25.74 39.74 25.4 40.05C24.27 41.08 23.48 42.33 23.02 43.81C22.58 45.2 22.42 46.62 22.39 48.07C22.37 49.18 22.46 50.3 22.59 51.41C22.72 52.54 22.92 53.66 23.15 54.78C23.46 56.29 23.85 57.77 24.28 59.25C24.41 59.71 24.56 60.16 24.7 60.62C24.76 60.81 24.82 60.85 24.98 60.83C25.39 60.79 25.79 60.76 26.19 60.68C27.69 60.39 29.03 59.74 30.26 58.83C31.54 57.89 32.61 56.75 33.53 55.46C34.75 53.76 35.65 51.89 36.33 49.91C36.91 48.2 37.33 46.43 37.57 44.64C37.7 43.71 37.78 42.78 37.82 41.83C37.86 40.8 37.86 39.75 37.78 38.71C37.72 37.8 37.63 36.89 37.49 35.99C37.23 34.3 36.83 32.64 36.25 31.04C35.59 29.16 34.73 27.41 33.59 25.79C32.71 24.53 31.68 23.41 30.46 22.47C29.14 21.45 27.67 20.73 26.02 20.41C25.79 20.37 25.55 20.3 25.24 20.33Z" fill="#EF5924" fill-opacity="1.000000" fill-rule="nonzero"/>
	<path id="Vector" d="M26.19 6.64C26.24 6.55 26.27 6.48 26.31 6.43C27.14 5.28 28.04 4.19 29.02 3.16C29.8 2.34 30.63 1.58 31.53 0.89C32.2 0.38 32.9 -0.09 33.66 -0.45C34.14 -0.68 34.63 -0.88 35.16 -0.95C35.43 -0.99 35.71 -0.99 35.98 -0.97C36.3 -0.94 36.57 -0.79 36.81 -0.56C37.09 -0.29 37.3 0.03 37.46 0.38C37.75 0.99 37.91 1.65 38.02 2.31C38.21 3.43 38.22 4.56 38.15 5.69C38.05 7.35 37.75 8.98 37.34 10.58C37.07 11.67 36.72 12.75 36.34 13.81C36.3 13.94 36.24 14.07 36.18 14.2C36.05 14.16 36.02 14.04 35.97 13.95C35.49 13.14 34.96 12.37 34.37 11.65C33.25 10.29 31.96 9.14 30.44 8.25C29.22 7.53 27.93 7.01 26.53 6.74C26.48 6.73 26.44 6.72 26.39 6.7C26.34 6.68 26.29 6.66 26.19 6.64Z" fill="#EF5924" fill-opacity="1.000000" fill-rule="nonzero"/>
	<path id="Vector" d="M8.82 12.5C8.77 12.4 8.72 12.33 8.68 12.25C8.05 10.73 7.57 9.16 7.26 7.54C7.01 6.2 6.92 4.87 7 3.52C7.05 2.6 7.22 1.68 7.58 0.83C7.75 0.42 7.96 0.04 8.26 -0.28C8.5 -0.54 8.78 -0.73 9.13 -0.83C9.22 -0.85 9.34 -0.87 9.45 -0.88C10.2 -0.94 10.9 -0.77 11.59 -0.48C12.27 -0.21 12.9 0.16 13.51 0.58C14.59 1.33 15.55 2.2 16.43 3.18C17.24 4.08 17.96 5.06 18.62 6.08C18.68 6.15 18.71 6.23 18.77 6.35C18.68 6.37 18.62 6.41 18.54 6.42C16.08 6.68 13.9 7.65 11.97 9.18C10.88 10.04 9.93 11.06 9.1 12.17C9.03 12.29 8.97 12.41 8.82 12.5Z" fill="#EF5924" fill-opacity="1.000000" fill-rule="nonzero"/>
</svg>
