<svg width="570.000000" height="9.000000" viewBox="0 0 570 9" fill="none" xmlns="http://www.w3.org/2000/svg" xmlns:xlink="http://www.w3.org/1999/xlink">
	<desc>
			Created with Pixso.
	</desc>
	<defs/>
	<path id="Vector" d="M3.29 8.78C8.34 8.78 13.38 8.78 18.43 8.78C32.03 8.78 45.64 8.78 59.24 8.78C79.41 8.78 99.58 8.78 119.75 8.78C144.36 8.78 168.97 8.78 193.58 8.78C220.44 8.78 247.29 8.78 274.16 8.78C301.45 8.78 328.75 8.78 356.04 8.78C381.32 8.78 406.6 8.78 431.88 8.78C453.32 8.78 474.76 8.78 496.2 8.78C511.6 8.78 527.02 8.78 542.43 8.78C549.71 8.78 557.01 8.91 564.29 8.78C564.61 8.78 564.93 8.78 565.24 8.78C570.97 8.78 570.97 -0.11 565.24 -0.11C560.19 -0.11 555.15 -0.11 550.1 -0.11C536.5 -0.11 522.89 -0.11 509.29 -0.11C489.12 -0.11 468.95 -0.11 448.78 -0.11C424.17 -0.11 399.56 -0.11 374.96 -0.11C348.09 -0.11 321.24 -0.11 294.37 -0.11C267.08 -0.11 239.78 -0.11 212.49 -0.11C187.21 -0.11 161.93 -0.11 136.65 -0.11C115.21 -0.11 93.77 -0.11 72.34 -0.11C56.93 -0.11 41.51 -0.11 26.1 -0.11C18.82 -0.11 11.52 -0.24 4.24 -0.11C3.92 -0.11 3.6 -0.11 3.29 -0.11C-2.43 -0.11 -2.44 8.78 3.29 8.78Z" fill="#DE5922" fill-opacity="1.000000" fill-rule="nonzero"/>
</svg>
