<svg width="533.000000" height="9.000000" viewBox="0 0 533 9" fill="none" xmlns="http://www.w3.org/2000/svg" xmlns:xlink="http://www.w3.org/1999/xlink">
	<desc>
			Created with Pixso.
	</desc>
	<defs/>
	<path id="Vector" d="M3.21 8.13C7.92 8.13 12.63 8.13 17.34 8.13C30.04 8.13 42.75 8.13 55.46 8.13C74.3 8.13 93.13 8.13 111.98 8.13C134.96 8.13 157.95 8.13 180.93 8.13C206.02 8.13 231.1 8.13 256.19 8.13C281.69 8.13 307.19 8.13 332.67 8.13C356.29 8.13 379.89 8.13 403.5 8.13C423.52 8.13 443.55 8.13 463.57 8.13C477.97 8.13 492.36 8.13 506.76 8.13C513.56 8.13 520.37 8.26 527.17 8.13C527.47 8.13 527.77 8.13 528.07 8.13C533.69 8.13 533.69 -0.62 528.07 -0.62C523.36 -0.62 518.65 -0.62 513.94 -0.62C501.23 -0.62 488.52 -0.62 475.82 -0.62C456.97 -0.62 438.14 -0.62 419.3 -0.62C396.31 -0.62 373.33 -0.62 350.34 -0.62C325.25 -0.62 300.17 -0.62 275.08 -0.62C249.58 -0.62 224.09 -0.62 198.6 -0.62C174.99 -0.62 151.39 -0.62 127.77 -0.62C107.76 -0.62 87.72 -0.62 67.71 -0.62C53.31 -0.62 38.92 -0.62 24.52 -0.62C17.71 -0.62 10.91 -0.75 4.1 -0.62C3.8 -0.62 3.51 -0.62 3.21 -0.62C-2.4 -0.62 -2.41 8.13 3.21 8.13Z" fill="#DE5922" fill-opacity="1.000000" fill-rule="nonzero"/>
</svg>
