<svg width="277.000000" height="58.000000" viewBox="0 0 277 58" fill="none" xmlns="http://www.w3.org/2000/svg" xmlns:xlink="http://www.w3.org/1999/xlink">
	<desc>
			Created with Pixso.
	</desc>
	<defs/>
	<path id="Vector" d="M0.91 4.66C30.16 4.86 59.41 5.07 88.65 5.27C117.81 5.47 146.97 5.67 176.12 5.87C192.56 5.98 209 6.09 225.44 6.21C224.97 5.98 224.51 5.76 224.04 5.53C240.21 22.48 256.38 39.43 272.55 56.38C274.45 58.37 277.27 55.08 275.36 53.08C261.28 38.32 247.19 23.56 233.11 8.8C231.36 6.96 229.61 5.13 227.86 3.28C226.99 2.38 226.38 1.6 225.17 1.54C223.9 1.47 222.62 1.52 221.35 1.51C216.63 1.48 211.91 1.45 207.19 1.41C197.65 1.34 188.11 1.28 178.58 1.21C159.69 1.08 140.8 0.95 121.91 0.82C102.92 0.69 83.94 0.56 64.96 0.43C45.98 0.3 26.99 0.17 8.01 0.04C5.64 0.03 3.27 0.02 0.91 0C-1.64 -0.03 -1.65 4.64 0.91 4.66Z" fill="#DE5922" fill-opacity="1.000000" fill-rule="nonzero"/>
</svg>
