<svg width="541.000000" height="9.000000" viewBox="0 0 541 9" fill="none" xmlns="http://www.w3.org/2000/svg" xmlns:xlink="http://www.w3.org/1999/xlink">
	<desc>
			Created with Pixso.
	</desc>
	<defs/>
	<path id="Vector" d="M3.22 8.41C8.01 8.41 12.8 8.41 17.59 8.41C30.5 8.41 43.42 8.41 56.34 8.41C75.5 8.41 94.64 8.41 113.79 8.41C137.16 8.41 160.53 8.41 183.88 8.41C209.38 8.41 234.88 8.41 260.38 8.41C286.3 8.41 312.21 8.41 338.13 8.41C362.13 8.41 386.14 8.41 410.13 8.41C430.49 8.41 450.84 8.41 471.19 8.41C485.82 8.41 500.46 8.41 515.09 8.41C522 8.41 528.92 8.53 535.84 8.41C536.14 8.41 536.44 8.41 536.75 8.41C542.38 8.41 542.38 -0.36 536.75 -0.36C531.95 -0.36 527.17 -0.36 522.38 -0.36C509.46 -0.36 496.55 -0.36 483.62 -0.36C464.47 -0.36 445.33 -0.36 426.17 -0.36C402.81 -0.36 379.44 -0.36 356.09 -0.36C330.59 -0.36 305.08 -0.36 279.58 -0.36C253.66 -0.36 227.75 -0.36 201.83 -0.36C177.84 -0.36 153.83 -0.36 129.83 -0.36C109.48 -0.36 89.12 -0.36 68.78 -0.36C54.15 -0.36 39.51 -0.36 24.88 -0.36C17.96 -0.36 11.05 -0.49 4.13 -0.36C3.82 -0.36 3.52 -0.36 3.22 -0.36C-2.4 -0.36 -2.42 8.41 3.22 8.41Z" fill="#DE5922" fill-opacity="1.000000" fill-rule="nonzero"/>
</svg>
