<svg width="396.000000" height="102.000000" viewBox="0 0 396 102" fill="none" xmlns="http://www.w3.org/2000/svg" xmlns:xlink="http://www.w3.org/1999/xlink">
	<desc>
			Created with Pixso.
	</desc>
	<defs/>
	<path id="Vector" d="M2.39 102C28.99 101.99 55.59 101.98 82.19 101.97C108.79 101.96 135.39 101.95 161.99 101.94C165.23 101.94 168.48 101.94 171.72 101.94C173.58 101.94 174.79 101.64 176.49 100.88C178.04 100.19 179.61 99.5 181.17 98.82C187.28 96.12 193.41 93.42 199.52 90.72C211.89 85.27 224.24 79.81 236.6 74.35C261.19 63.49 285.79 52.64 310.39 41.78C334.87 30.97 359.34 20.17 383.82 9.36C386.94 7.98 390.06 6.61 393.18 5.23C394.43 4.68 395.28 3.48 394.91 1.98C394.6 0.73 393.1 -0.41 391.86 0.14C367.38 10.94 342.91 21.75 318.43 32.56C293.95 43.36 269.48 54.17 245 64.96C232.76 70.37 220.51 75.77 208.27 81.17C202.16 83.87 196.03 86.58 189.92 89.28C186.8 90.66 183.68 92.03 180.56 93.41C177.61 94.71 174.54 96.65 171.32 96.65C144.85 96.66 118.38 96.67 91.91 96.68C65.44 96.69 38.98 96.7 12.51 96.71C9.13 96.71 5.76 96.71 2.39 96.71C-0.8 96.71 -0.8 102 2.39 102Z" fill="#DE5922" fill-opacity="1.000000" fill-rule="nonzero"/>
</svg>
