<svg width="455.000000" height="58.000000" viewBox="0 0 455 58" fill="none" xmlns="http://www.w3.org/2000/svg" xmlns:xlink="http://www.w3.org/1999/xlink">
	<desc>
			Created with Pixso.
	</desc>
	<defs/>
	<path id="Vector" d="M452.06 0C421.44 0.12 390.82 0.24 360.2 0.37C329.43 0.5 298.65 0.63 267.89 0.75C237.26 0.88 206.64 1 176.02 1.13C145.4 1.26 114.77 1.39 84.14 1.52C82.06 1.53 81.13 1.96 79.49 2.99C77.83 4.04 76.17 5.1 74.5 6.14C71.53 8.02 68.57 9.9 65.6 11.77C59.42 15.67 53.26 19.58 47.08 23.49C34.97 31.14 22.85 38.81 10.74 46.47C7.65 48.42 4.56 50.37 1.47 52.32C0.16 53.15 -0.49 54.46 0.38 55.74C1.11 56.8 3.23 57.45 4.53 56.64C28.75 41.32 52.97 26 77.19 10.68C78.63 9.78 80.06 8.88 81.48 7.98C82.11 7.58 82.88 6.87 83.61 6.63C84.34 6.39 85.51 6.51 86.38 6.51C90.12 6.49 93.86 6.48 97.59 6.46C105.21 6.43 112.83 6.4 120.45 6.37C135.69 6.31 150.92 6.24 166.16 6.18C196.64 6.05 227.11 5.93 257.58 5.8C288.04 5.67 318.53 5.55 348.99 5.42C379.47 5.29 409.95 5.18 440.41 5.05C444.3 5.03 448.18 5.02 452.06 5C455.96 4.97 455.98 -0.03 452.06 0Z" fill="#DE5922" fill-opacity="1.000000" fill-rule="nonzero"/>
</svg>
