<svg width="148.000000" height="57.000000" viewBox="0 0 148 57" fill="none" xmlns="http://www.w3.org/2000/svg" xmlns:xlink="http://www.w3.org/1999/xlink">
	<desc>
			Created with Pixso.
	</desc>
	<defs>
		<clipPath id="clip1_28">
			<rect id="Frame" width="147.889999" height="56.669998" fill="white" fill-opacity="0"/>
		</clipPath>
	</defs>
	<rect id="Frame" width="147.889999" height="56.669998" fill="#FFFFFF" fill-opacity="0"/>
	<g clip-path="url(#clip1_28)">
		<path id="Vector" d="M82.72 39.08C80.25 34.54 74.28 34.53 72.97 34.52C71.62 34.52 65.32 34.5 63.08 39.18C61.68 42.11 62.63 45.3 62.68 45.47C62.95 46.33 63.61 47.97 65.17 49.27C66.49 50.37 67.85 50.59 69.56 50.9C70.92 51.14 72 51.13 73.05 51.12C74.14 51.11 75.25 51.09 76.64 50.79C78.18 50.46 79.56 50.18 80.93 49.05C81.53 48.56 82.91 47.38 83.52 45.25C84.38 42.27 83 39.61 82.72 39.08ZM78.57 45.16C77.98 46.01 77.23 46.3 76.32 46.65C75 47.16 73.9 47.17 73.03 47.17C72.07 47.17 71.01 47.16 69.76 46.65C68.94 46.32 68.12 45.99 67.5 45.08C67.3 44.79 66.75 43.88 66.82 42.63C66.89 41.34 67.58 40.49 67.89 40.14C69.42 38.33 71.82 38.36 73.12 38.38C74.44 38.4 76.69 38.43 78.16 40.16C78.44 40.52 79.15 41.38 79.23 42.69C79.25 42.93 79.3 44.11 78.57 45.16Z" fill="#444342" fill-opacity="1.000000" fill-rule="nonzero"/>
		<path id="Vector" d="M68.4 11.95C65.35 6.92 58.13 6.98 56.54 7C54.92 7 47.27 7.08 44.62 12.32C42.96 15.59 44.14 19.14 44.21 19.33C44.54 20.28 45.36 22.1 47.27 23.52C48.88 24.72 50.53 24.96 52.6 25.28C54.26 25.53 55.56 25.51 56.83 25.48C58.15 25.45 59.49 25.42 61.17 25.07C63.03 24.68 64.69 24.36 66.33 23.08C67.06 22.52 68.72 21.2 69.44 18.82C70.44 15.47 68.75 12.53 68.4 11.95ZM63.45 18.77C62.75 19.71 61.84 20.04 60.74 20.45C59.15 21.03 57.82 21.05 56.76 21.07C55.6 21.08 54.33 21.08 52.8 20.54C51.8 20.19 50.81 19.83 50.05 18.82C49.81 18.5 49.12 17.49 49.19 16.11C49.26 14.68 50.1 13.72 50.46 13.32C52.3 11.28 55.2 11.29 56.78 11.29C58.39 11.29 61.11 11.3 62.9 13.22C63.26 13.61 64.12 14.55 64.23 16.01C64.25 16.27 64.32 17.58 63.45 18.77Z" fill="#444342" fill-opacity="1.000000" fill-rule="nonzero"/>
		<path id="Vector" d="M105.71 25.34L101.59 25.34C101.01 25.34 100.55 24.87 100.55 24.3L100.58 14.44C100.58 13.87 101.05 13.4 101.62 13.4L105.61 13.4C106.18 13.4 106.65 13.86 106.65 14.43C106.68 17.71 106.72 21 106.75 24.29C106.76 24.87 106.29 25.34 105.71 25.34Z" fill="#444342" fill-opacity="1.000000" fill-rule="nonzero"/>
		<path id="Vector" d="M105.99 8.63C105.99 8.63 105.98 8.62 105.98 8.6C105.98 8.53 105.99 8.45 105.99 8.38C105.99 6.69 104.89 5.31 103.55 5.31C102.2 5.31 101.11 6.69 101.11 8.38C101.11 8.47 101.11 8.56 101.12 8.64C101.12 8.64 101.12 8.66 101.11 8.66L101.12 8.66C101.24 10.22 102.28 11.44 103.55 11.44C104.83 11.44 105.88 10.2 105.98 8.63L105.99 8.63Z" fill="#444342" fill-opacity="1.000000" fill-rule="nonzero"/>
		<path id="Vector" d="M145.5 25.27L141.38 25.27C140.8 25.27 140.34 24.8 140.34 24.23L140.37 14.37C140.37 13.8 140.84 13.33 141.41 13.33L145.39 13.33C145.97 13.33 146.44 13.79 146.44 14.36C146.47 17.65 146.5 20.93 146.53 24.22C146.55 24.8 146.08 25.27 145.5 25.27Z" fill="#444342" fill-opacity="1.000000" fill-rule="nonzero"/>
		<path id="Vector" d="M145.78 8.57C145.78 8.57 145.77 8.56 145.77 8.55C145.77 8.47 145.78 8.39 145.78 8.32C145.78 6.63 144.67 5.25 143.34 5.25C141.99 5.25 140.89 6.63 140.89 8.32C140.89 8.41 140.89 8.5 140.91 8.59C140.91 8.59 140.91 8.6 140.89 8.6L140.91 8.6C141.03 10.16 142.07 11.38 143.34 11.38C144.62 11.38 145.67 10.14 145.77 8.57L145.78 8.57Z" fill="#444342" fill-opacity="1.000000" fill-rule="nonzero"/>
		<path id="Vector" d="M112.39 24.54C112.32 23.37 113.78 18.85 113.72 15.96C113.67 13.49 112.42 8.35 112.39 7.95C112.39 7.92 112.39 7.91 112.39 7.91C112.39 7.8 112.4 7.53 112.61 7.34C112.76 7.2 113.02 7.14 113.39 7.14L116.83 7.14C117.11 7.14 117.35 7.17 117.55 7.25C117.75 7.33 117.88 7.39 117.96 7.45C118.03 7.52 118.13 7.64 118.24 7.8C118.35 7.97 118.42 8.06 118.43 8.08L122.99 14.61C123.08 14.74 123.27 14.74 123.36 14.61L127.97 8.08C128.02 8 128.1 7.87 128.2 7.73C128.33 7.56 128.41 7.47 128.55 7.37C128.71 7.25 128.86 7.2 128.97 7.17C129.17 7.12 129.38 7.11 129.53 7.12C130.64 7.12 131.77 7.12 132.88 7.12C133.25 7.12 133.5 7.2 133.66 7.33C133.78 7.44 133.87 7.62 133.88 7.94C133.92 9.06 132.88 13.73 132.86 16.09C132.84 18.61 133.94 23.39 133.88 24.53C133.87 24.65 133.87 24.98 133.63 25.15C133.47 25.27 133.21 25.33 132.88 25.33L129.53 25.33C129.2 25.33 128.95 25.27 128.78 25.15C128.57 24.99 128.55 24.66 128.53 24.53C128.5 24.03 128.91 20.57 129.53 15.9C129.46 15.1 129.07 14.48 128.53 14.33C128 14.18 127.41 14.51 127.21 14.8C126.69 15.55 126.1 16.57 125.64 17.84C125.35 18.62 125.17 19.36 125.06 20C124.99 20.1 124.84 20.29 124.58 20.44C124.41 20.54 124.24 20.58 124.06 20.58L122.31 20.58C121.97 20.58 121.65 20.39 121.34 20C121.21 19.36 120.51 15.93 119.05 14.89C118.8 14.71 118.33 14.39 117.85 14.53C117.32 14.68 116.94 15.35 116.85 16.24C117.48 20.64 117.87 23.88 117.83 24.54C117.82 24.66 117.83 24.99 117.58 25.16C117.42 25.28 117.16 25.34 116.83 25.34L113.39 25.34C113.05 25.34 112.8 25.28 112.64 25.16C112.39 24.99 112.4 24.65 112.39 24.54Z" fill="#444342" fill-opacity="1.000000" fill-rule="nonzero"/>
		<path id="Vector" d="M73.56 24.6C73.49 23.43 74.94 18.91 74.89 16.02C74.83 13.55 73.58 8.42 73.56 8C73.56 7.98 73.56 7.97 73.56 7.97C73.56 7.86 73.57 7.59 73.78 7.39C73.93 7.26 74.19 7.2 74.56 7.2L78 7.2C78.28 7.2 78.51 7.23 78.72 7.31C78.92 7.39 79.05 7.45 79.12 7.51C79.19 7.58 79.3 7.7 79.41 7.86C79.51 8.03 79.58 8.12 79.6 8.14L84.16 14.67C84.25 14.8 84.44 14.8 84.53 14.67L89.14 8.14C89.19 8.06 89.27 7.93 89.37 7.79C89.5 7.62 89.58 7.53 89.72 7.42C89.88 7.31 90.03 7.26 90.14 7.23C90.35 7.17 90.55 7.17 90.71 7.18C91.82 7.18 92.94 7.18 94.05 7.18C94.42 7.18 94.68 7.25 94.83 7.39C94.95 7.5 95.04 7.68 95.05 8C95.09 9.12 94.05 13.79 94.03 16.15C94.01 18.67 95.11 23.45 95.05 24.59C95.04 24.71 95.04 25.04 94.8 25.21C94.64 25.33 94.38 25.39 94.05 25.39L90.7 25.39C90.36 25.39 90.11 25.33 89.95 25.21C89.73 25.05 89.71 24.72 89.7 24.59C89.67 24.09 90.07 20.63 90.7 15.96C90.62 15.16 90.23 14.54 89.7 14.39C89.16 14.24 88.57 14.57 88.37 14.86C87.85 15.61 87.26 16.62 86.8 17.9C86.51 18.69 86.33 19.42 86.22 20.06C86.15 20.16 86 20.35 85.74 20.5C85.57 20.6 85.4 20.64 85.22 20.64L83.47 20.64C83.13 20.64 82.81 20.45 82.5 20.06C82.37 19.42 81.67 15.99 80.21 14.95C79.96 14.77 79.49 14.45 79.01 14.59C78.48 14.74 78.1 15.41 78.01 16.29C78.64 20.7 79.03 23.94 78.99 24.6C78.98 24.72 78.99 25.05 78.74 25.22C78.58 25.34 78.32 25.4 77.99 25.4L74.55 25.4C74.21 25.4 73.96 25.34 73.8 25.22C73.56 25.05 73.56 24.71 73.56 24.6Z" fill="#444342" fill-opacity="1.000000" fill-rule="nonzero"/>
		<path id="Vector" d="M44.02 42.97C44.02 41.72 44.22 40.57 44.63 39.54C45.04 38.5 45.62 37.61 46.37 36.86C47.12 36.11 48.01 35.53 49.05 35.12C50.09 34.71 51.23 34.5 52.48 34.5C53.65 34.5 54.68 34.63 55.58 34.87C56.48 35.11 57.23 35.41 57.83 35.79C58.43 36.16 58.89 36.57 59.21 37C59.52 37.45 59.68 37.87 59.68 38.25C59.68 38.53 59.62 38.79 59.49 39.04C59.36 39.29 59.21 39.5 59.02 39.68C58.83 39.86 58.62 40 58.38 40.09C58.14 40.2 57.89 40.25 57.64 40.25C57.2 40.25 56.84 40.11 56.54 39.82C56.35 39.63 56.14 39.43 55.91 39.25C55.68 39.07 55.41 38.91 55.1 38.75C54.79 38.61 54.42 38.49 53.99 38.4C53.56 38.31 53.06 38.25 52.47 38.25C51.05 38.25 49.96 38.61 49.21 39.31C48.46 40 48.08 41.23 48.08 42.96C48.08 44.69 48.46 45.91 49.21 46.61C49.96 47.31 51.05 47.66 52.47 47.66C53.05 47.66 53.56 47.61 53.99 47.52C54.42 47.43 54.79 47.31 55.1 47.16C55.41 47.01 55.68 46.85 55.91 46.66C56.14 46.47 56.35 46.28 56.54 46.1C56.83 45.81 57.2 45.66 57.64 45.66C57.89 45.66 58.14 45.71 58.38 45.82C58.62 45.92 58.83 46.07 59.02 46.24C59.21 46.42 59.36 46.63 59.49 46.87C59.62 47.11 59.68 47.38 59.68 47.67C59.68 48.07 59.52 48.48 59.21 48.92C58.9 49.36 58.44 49.77 57.83 50.14C57.22 50.52 56.47 50.82 55.58 51.06C54.68 51.3 53.65 51.42 52.48 51.42C51.23 51.42 50.08 51.22 49.05 50.81C48.02 50.4 47.12 49.82 46.37 49.07C45.62 48.32 45.04 47.43 44.63 46.39C44.22 45.37 44.02 44.22 44.02 42.97Z" fill="#444342" fill-opacity="1.000000" fill-rule="nonzero"/>
		<path id="Vector" d="M87.45 36.84C87.71 36.84 87.92 36.86 88.08 36.89C88.24 36.91 88.4 36.93 88.57 36.96C88.93 37 89.12 36.82 89.16 36.43C89.22 35.62 89.4 34.89 89.72 34.22C90.04 33.55 90.49 32.98 91.07 32.49C91.65 32 92.38 31.62 93.25 31.35C94.12 31.08 95.14 30.94 96.3 30.94C96.47 30.94 96.62 31.02 96.75 31.17C96.88 31.32 96.98 31.51 97.06 31.73C97.13 31.95 97.19 32.18 97.23 32.43C97.27 32.66 97.29 32.88 97.29 33.05C97.29 33.22 97.27 33.41 97.23 33.63C97.19 33.84 97.14 34.05 97.06 34.23C96.98 34.41 96.88 34.57 96.75 34.68C96.62 34.81 96.47 34.87 96.3 34.87C95.21 34.87 94.44 35.04 93.98 35.38C93.52 35.72 93.24 36.07 93.15 36.41C93.11 36.57 93.14 36.7 93.23 36.81C93.32 36.91 93.46 36.97 93.62 36.95C93.9 36.91 94.19 36.88 94.48 36.87C94.77 36.84 95.05 36.84 95.31 36.84C95.48 36.84 95.63 36.91 95.76 37.07C95.89 37.22 95.99 37.41 96.07 37.63C96.15 37.86 96.2 38.09 96.24 38.33C96.28 38.57 96.3 38.78 96.3 38.95C96.3 39.12 96.28 39.33 96.24 39.57C96.2 39.81 96.15 40.05 96.07 40.27C95.99 40.5 95.89 40.68 95.76 40.83C95.63 40.98 95.48 41.05 95.31 41.05C95.05 41.05 94.77 41.04 94.48 41.02C94.19 41 93.9 40.97 93.62 40.93C93.45 40.91 93.32 40.96 93.21 41.07C93.11 41.17 93.06 41.31 93.06 41.48C93.06 42.17 93.07 42.93 93.09 43.75C93.11 44.57 93.13 45.37 93.15 46.16C93.17 46.95 93.18 47.7 93.19 48.41C93.2 49.12 93.2 49.72 93.2 50.21C93.2 50.4 93.12 50.55 92.97 50.67C92.82 50.79 92.63 50.89 92.41 50.97C92.18 51.05 91.95 51.1 91.71 51.14C91.47 51.18 91.26 51.2 91.09 51.2C90.92 51.2 90.71 51.18 90.47 51.14C90.23 51.1 89.99 51.05 89.77 50.97C89.54 50.9 89.36 50.8 89.21 50.67C89.07 50.55 89 50.4 89 50.21C89 49.72 89 49.12 89.01 48.41C89.02 47.7 89.03 46.95 89.05 46.16C89.07 45.37 89.09 44.57 89.11 43.75C89.13 42.93 89.14 42.18 89.14 41.48C89.14 41.31 89.09 41.18 88.98 41.07C88.88 40.97 88.74 40.91 88.57 40.93C88.38 40.96 88.21 40.98 88.05 41.01C87.89 41.04 87.69 41.05 87.45 41.05C87.28 41.05 87.13 40.98 87 40.83C86.87 40.68 86.77 40.49 86.69 40.27C86.61 40.04 86.56 39.81 86.52 39.57C86.48 39.33 86.46 39.12 86.46 38.95C86.46 38.78 86.48 38.58 86.52 38.33C86.56 38.09 86.61 37.84 86.69 37.63C86.77 37.4 86.87 37.22 87 37.07C87.13 36.91 87.28 36.84 87.45 36.84Z" fill="#444342" fill-opacity="1.000000" fill-rule="nonzero"/>
		<path id="Vector" d="M100.29 36.84C100.55 36.84 100.76 36.86 100.92 36.89C101.08 36.91 101.24 36.93 101.41 36.96C101.77 37 101.96 36.82 102 36.43C102.06 35.62 102.24 34.89 102.56 34.22C102.88 33.55 103.33 32.98 103.91 32.49C104.49 32 105.22 31.62 106.09 31.35C106.96 31.08 107.98 30.94 109.14 30.94C109.31 30.94 109.46 31.02 109.59 31.17C109.72 31.32 109.82 31.51 109.9 31.73C109.97 31.95 110.03 32.18 110.07 32.43C110.11 32.66 110.13 32.88 110.13 33.05C110.13 33.22 110.11 33.41 110.07 33.63C110.03 33.84 109.98 34.05 109.9 34.23C109.82 34.41 109.72 34.57 109.59 34.68C109.46 34.81 109.31 34.87 109.14 34.87C108.05 34.87 107.28 35.04 106.82 35.38C106.36 35.72 106.08 36.07 105.99 36.41C105.95 36.57 105.98 36.7 106.07 36.81C106.16 36.91 106.3 36.97 106.46 36.95C106.74 36.91 107.03 36.88 107.32 36.87C107.61 36.84 107.89 36.84 108.15 36.84C108.32 36.84 108.47 36.91 108.6 37.07C108.73 37.22 108.83 37.41 108.91 37.63C108.99 37.86 109.04 38.09 109.08 38.33C109.12 38.57 109.14 38.78 109.14 38.95C109.14 39.12 109.12 39.33 109.08 39.57C109.04 39.81 108.99 40.05 108.91 40.27C108.83 40.5 108.73 40.68 108.6 40.83C108.47 40.98 108.32 41.05 108.15 41.05C107.89 41.05 107.61 41.04 107.32 41.02C107.03 41 106.74 40.97 106.46 40.93C106.29 40.91 106.16 40.96 106.05 41.07C105.95 41.17 105.9 41.31 105.9 41.48C105.9 42.17 105.91 42.93 105.93 43.75C105.95 44.57 105.97 45.37 105.99 46.16C106.01 46.95 106.02 47.7 106.03 48.41C106.04 49.12 106.04 49.72 106.04 50.21C106.04 50.4 105.96 50.55 105.81 50.67C105.66 50.79 105.47 50.89 105.25 50.97C105.02 51.05 104.79 51.1 104.55 51.14C104.31 51.18 104.1 51.2 103.93 51.2C103.76 51.2 103.55 51.18 103.31 51.14C103.07 51.1 102.83 51.05 102.61 50.97C102.38 50.89 102.2 50.8 102.05 50.67C101.9 50.55 101.82 50.39 101.82 50.21C101.82 49.72 101.82 49.12 101.83 48.41C101.84 47.7 101.85 46.95 101.87 46.16C101.89 45.37 101.91 44.57 101.93 43.75C101.95 42.93 101.96 42.18 101.96 41.48C101.96 41.31 101.91 41.18 101.8 41.07C101.7 40.97 101.56 40.91 101.39 40.93C101.2 40.96 101.03 40.98 100.87 41.01C100.71 41.04 100.51 41.05 100.27 41.05C100.1 41.05 99.95 40.98 99.82 40.83C99.69 40.68 99.59 40.49 99.51 40.27C99.43 40.04 99.38 39.81 99.34 39.57C99.3 39.33 99.28 39.12 99.28 38.95C99.28 38.78 99.3 38.58 99.34 38.33C99.38 38.09 99.43 37.84 99.51 37.63C99.59 37.4 99.69 37.22 99.82 37.07C99.97 36.91 100.12 36.84 100.29 36.84Z" fill="#444342" fill-opacity="1.000000" fill-rule="nonzero"/>
		<path id="Vector" d="M140.31 34.52C141.36 34.52 142.35 34.66 143.25 34.93C144.17 35.2 144.98 35.57 145.66 36.03C146.34 36.49 146.88 37.05 147.28 37.7C147.67 38.34 147.88 39.05 147.88 39.82C147.88 40.77 147.67 41.56 147.28 42.2C146.88 42.84 146.34 43.35 145.66 43.74C144.98 44.13 144.17 44.41 143.25 44.57C142.34 44.73 141.36 44.81 140.31 44.81C139.55 44.81 138.85 44.76 138.22 44.66C137.59 44.56 137.09 44.46 136.72 44.36C136.5 44.32 136.36 44.34 136.27 44.44C136.17 44.53 136.14 44.66 136.19 44.82C136.25 45.06 136.37 45.32 136.53 45.61C136.69 45.89 136.92 46.16 137.24 46.4C137.55 46.64 137.95 46.84 138.45 47.01C138.94 47.17 139.56 47.25 140.31 47.25C140.89 47.25 141.39 47.2 141.81 47.11C142.23 47.02 142.6 46.9 142.91 46.76C143.22 46.62 143.49 46.46 143.71 46.28C143.94 46.1 144.14 45.92 144.33 45.74C144.62 45.46 144.98 45.32 145.41 45.32C145.66 45.32 145.89 45.37 146.14 45.47C146.38 45.57 146.59 45.71 146.77 45.88C146.96 46.05 147.11 46.25 147.23 46.49C147.35 46.72 147.42 46.98 147.42 47.26C147.42 47.64 147.27 48.05 146.96 48.47C146.64 48.89 146.2 49.29 145.6 49.65C145 50.01 144.25 50.31 143.37 50.54C142.48 50.77 141.46 50.89 140.31 50.89C139.03 50.89 137.88 50.69 136.84 50.3C135.81 49.91 134.92 49.35 134.21 48.62C133.49 47.89 132.92 47.03 132.53 46.03C132.14 45.03 131.95 43.93 131.95 42.71C131.95 41.5 132.14 40.39 132.53 39.39C132.92 38.39 133.49 37.53 134.21 36.8C134.92 36.07 135.81 35.5 136.84 35.12C137.88 34.72 139.03 34.52 140.31 34.52ZM136.72 41.03C137.11 41.11 137.64 41.21 138.3 41.32C138.96 41.43 139.63 41.49 140.31 41.49C141.32 41.49 142.17 41.34 142.85 41.05C143.53 40.75 143.87 40.34 143.87 39.82C143.87 39.3 143.53 38.89 142.85 38.59C142.17 38.3 141.32 38.15 140.31 38.15C139.61 38.15 139 38.22 138.52 38.36C138.03 38.5 137.62 38.68 137.3 38.89C136.98 39.09 136.74 39.33 136.57 39.57C136.39 39.81 136.28 40.04 136.23 40.27C136.19 40.43 136.21 40.59 136.31 40.74C136.39 40.89 136.53 40.99 136.72 41.03Z" fill="#444342" fill-opacity="1.000000" fill-rule="nonzero"/>
		<path id="Vector" d="M121.46 34.57C122.52 34.57 123.51 34.71 124.43 34.98C125.35 35.25 126.15 35.62 126.84 36.09C127.52 36.56 128.07 37.11 128.47 37.75C128.87 38.41 129.08 39.12 129.08 39.89C129.08 40.84 128.88 41.64 128.47 42.28C128.07 42.92 127.52 43.44 126.84 43.83C126.16 44.23 125.35 44.5 124.43 44.67C123.51 44.83 122.52 44.91 121.46 44.91C120.69 44.91 119.99 44.86 119.36 44.76C118.73 44.66 118.23 44.56 117.85 44.46C117.64 44.42 117.49 44.44 117.4 44.54C117.31 44.63 117.28 44.76 117.32 44.92C117.38 45.16 117.5 45.43 117.66 45.71C117.82 45.99 118.06 46.26 118.38 46.5C118.69 46.74 119.09 46.95 119.59 47.11C120.09 47.27 120.71 47.35 121.45 47.35C122.03 47.35 122.53 47.3 122.96 47.21C123.38 47.12 123.75 47 124.06 46.86C124.37 46.72 124.64 46.56 124.87 46.37C125.1 46.19 125.3 46.01 125.49 45.82C125.78 45.54 126.14 45.39 126.58 45.39C126.83 45.39 127.07 45.44 127.31 45.54C127.55 45.64 127.76 45.78 127.95 45.95C128.14 46.12 128.28 46.33 128.42 46.56C128.53 46.79 128.61 47.05 128.61 47.34C128.61 47.73 128.45 48.13 128.14 48.56C127.83 48.99 127.37 49.38 126.77 49.75C126.17 50.11 125.42 50.41 124.53 50.65C123.64 50.88 122.61 51 121.45 51C120.17 51 119 50.8 117.97 50.41C116.93 50.01 116.05 49.45 115.33 48.72C114.6 47.99 114.04 47.12 113.65 46.12C113.26 45.12 113.06 44.01 113.06 42.79C113.06 41.57 113.26 40.46 113.65 39.46C114.04 38.46 114.6 37.59 115.33 36.86C116.05 36.13 116.94 35.57 117.97 35.16C119.02 34.75 120.18 34.57 121.46 34.57ZM117.86 41.11C118.25 41.19 118.78 41.29 119.45 41.4C120.11 41.51 120.79 41.57 121.47 41.57C122.48 41.57 123.33 41.42 124.02 41.13C124.7 40.84 125.05 40.43 125.05 39.9C125.05 39.37 124.71 38.96 124.02 38.66C123.34 38.38 122.49 38.23 121.47 38.23C120.77 38.23 120.16 38.3 119.67 38.43C119.17 38.58 118.76 38.75 118.44 38.97C118.12 39.18 117.88 39.41 117.71 39.65C117.54 39.89 117.43 40.13 117.37 40.34C117.33 40.5 117.35 40.66 117.45 40.82C117.53 40.97 117.67 41.07 117.86 41.11Z" fill="#444342" fill-opacity="1.000000" fill-rule="nonzero"/>
		<path id="Vector" d="M36.93 34.46C36.89 35.21 36.89 36.09 36.81 36.98C36.52 39.91 35.78 42.74 34.52 45.41C33.52 47.53 32.23 49.46 30.62 51.17C29.25 52.62 27.71 53.83 25.95 54.78C24.42 55.61 22.79 56.18 21.07 56.47C20.29 56.6 19.51 56.68 18.71 56.68C18.43 56.68 18.15 56.68 17.86 56.67C16.12 56.62 14.45 56.26 12.84 55.63C10.81 54.85 9 53.69 7.39 52.23C5.62 50.62 4.19 48.73 3.03 46.63C1.91 44.57 1.12 42.39 0.61 40.11C0.42 39.23 0.28 38.33 0.16 37.43C0.13 37.18 0.11 36.93 0.09 36.68C0 35.55 -0.02 34.66 0 33.68C0.02 32.81 0.08 31.93 0.19 31.07C0.37 29.62 0.66 28.2 1.09 26.81C1.87 24.22 3.03 21.81 4.62 19.62C5.94 17.81 7.51 16.24 9.38 14.97C11.17 13.74 13.11 12.88 15.23 12.43C15.82 12.3 16.41 12.22 17.01 12.16C17.82 12.08 18.64 12.08 19.45 12.12C20.09 12.15 20.72 12.24 21.35 12.36C22.94 12.67 24.45 13.21 25.89 13.97C27.31 14.73 28.6 15.67 29.78 16.77C31.55 18.43 32.96 20.35 34.08 22.49C35.14 24.5 35.89 26.63 36.36 28.85C36.54 29.72 36.68 30.59 36.78 31.47C36.88 32.4 36.93 33.36 36.93 34.46ZM15.38 17.44C15.24 17.44 15.12 17.43 15.01 17.44C14.48 17.49 13.96 17.59 13.45 17.74C12.45 18.04 11.55 18.53 10.72 19.16C9.67 19.94 8.81 20.9 8.07 21.96C7 23.51 6.22 25.2 5.66 26.99C5.37 27.94 5.14 28.9 4.97 29.88C4.87 30.5 4.79 31.12 4.73 31.75C4.69 32.25 4.67 32.75 4.66 33.25C4.59 34.45 4.66 35.65 4.79 36.84C4.89 37.74 5.06 38.63 5.25 39.5C5.66 41.24 6.25 42.9 7.09 44.47C7.79 45.77 8.63 46.96 9.69 47.99C10.55 48.82 11.51 49.5 12.6 49.98C13.33 50.3 14.08 50.5 14.87 50.59C14.94 50.6 15.01 50.62 15.07 50.54C15.09 50.43 15.03 50.32 14.99 50.21C14.37 48.15 13.84 46.07 13.52 43.93C13.39 43.07 13.29 42.21 13.26 41.35C13.22 40.36 13.23 39.37 13.36 38.38C13.47 37.54 13.65 36.72 13.94 35.91C14.33 34.84 14.91 33.91 15.74 33.11C15.97 32.89 16.2 32.66 16.44 32.43C17.08 31.84 17.56 31.13 17.86 30.3C18.14 29.54 18.28 28.75 18.32 27.94C18.36 27.18 18.29 26.43 18.19 25.68C18.06 24.76 17.84 23.85 17.58 22.95C17.04 21.1 16.29 19.32 15.47 17.58C15.44 17.54 15.41 17.5 15.38 17.44ZM21.11 17.45C21.15 17.56 21.17 17.62 21.2 17.7C21.31 17.94 21.42 18.18 21.53 18.43C22.14 19.83 22.69 21.24 23.11 22.71C23.52 24.16 23.82 25.63 23.86 27.14C23.88 28.12 23.81 29.08 23.55 30.03C23.27 31.06 22.8 31.99 22.07 32.78C21.81 33.06 21.53 33.32 21.25 33.58C20.32 34.43 19.68 35.46 19.29 36.66C18.94 37.8 18.81 38.96 18.78 40.15C18.76 41.07 18.84 41.98 18.94 42.88C19.04 43.81 19.2 44.73 19.4 45.64C19.65 46.87 19.96 48.09 20.33 49.29C20.44 49.67 20.56 50.04 20.68 50.42C20.73 50.57 20.77 50.61 20.91 50.59C21.24 50.55 21.58 50.52 21.9 50.46C23.13 50.22 24.23 49.69 25.23 48.96C26.28 48.19 27.15 47.25 27.91 46.2C28.91 44.81 29.64 43.28 30.2 41.66C30.68 40.25 31.01 38.81 31.21 37.34C31.31 36.58 31.38 35.82 31.41 35.05C31.44 34.2 31.44 33.34 31.38 32.49C31.33 31.74 31.25 31 31.14 30.26C30.93 28.88 30.6 27.53 30.13 26.21C29.59 24.68 28.88 23.24 27.95 21.91C27.23 20.88 26.39 19.95 25.39 19.19C24.31 18.36 23.11 17.77 21.76 17.51C21.56 17.48 21.36 17.42 21.11 17.45Z" fill="#444342" fill-opacity="1.000000" fill-rule="nonzero"/>
		<path id="Vector" d="M21.89 6.25C21.93 6.17 21.96 6.12 21.99 6.08C22.67 5.14 23.41 4.23 24.21 3.39C24.85 2.73 25.53 2.09 26.26 1.53C26.81 1.12 27.38 0.73 28 0.44C28.39 0.25 28.79 0.08 29.22 0.02C29.44 0 29.67 0 29.89 0.01C30.15 0.03 30.37 0.16 30.56 0.34C30.79 0.56 30.96 0.83 31.09 1.12C31.33 1.62 31.46 2.14 31.55 2.7C31.71 3.62 31.71 4.53 31.66 5.45C31.58 6.81 31.34 8.14 31 9.45C30.77 10.35 30.49 11.23 30.18 12.1C30.14 12.21 30.09 12.31 30.05 12.42C29.93 12.38 29.91 12.29 29.87 12.22C29.48 11.56 29.05 10.93 28.56 10.34C27.65 9.22 26.59 8.28 25.35 7.56C24.35 6.97 23.29 6.53 22.15 6.33C22.11 6.31 22.07 6.31 22.04 6.3C22.01 6.28 21.97 6.26 21.89 6.25Z" fill="#444342" fill-opacity="1.000000" fill-rule="nonzero"/>
		<path id="Vector" d="M7.68 11.05C7.64 10.97 7.6 10.91 7.58 10.84C7.05 9.6 6.65 8.32 6.4 6.99C6.2 5.9 6.13 4.81 6.19 3.7C6.23 2.95 6.36 2.2 6.66 1.5C6.8 1.16 6.97 0.86 7.21 0.6C7.41 0.38 7.63 0.22 7.92 0.15C8.01 0.13 8.1 0.12 8.19 0.11C8.8 0.05 9.38 0.19 9.94 0.43C10.5 0.66 11.02 0.96 11.51 1.3C12.39 1.91 13.18 2.64 13.9 3.44C14.57 4.18 15.16 4.96 15.7 5.81C15.74 5.87 15.77 5.94 15.81 6.03C15.74 6.06 15.69 6.09 15.63 6.09C13.61 6.3 11.83 7.1 10.24 8.35C9.35 9.06 8.58 9.88 7.9 10.79C7.85 10.88 7.81 10.98 7.68 11.05Z" fill="#444342" fill-opacity="1.000000" fill-rule="nonzero"/>
	</g>
</svg>
