<svg width="21.000000" height="32.000000" viewBox="0 0 21 32" fill="none" xmlns="http://www.w3.org/2000/svg" xmlns:xlink="http://www.w3.org/1999/xlink">
	<desc>
			Created with Pixso.
	</desc>
	<defs/>
	<path id="Vector" d="M20.45 19.63C20.48 19.32 20.49 18.99 20.49 18.67C20.49 11.67 15.76 5.96 9.96 5.96C4.16 5.96 -0.56 11.67 -0.56 18.67C-0.56 19.05 -0.55 19.41 -0.52 19.78C-0.53 19.8 -0.54 19.81 -0.54 19.83L-0.51 19.85C-0.01 26.31 4.5 31.38 9.96 31.38C15.46 31.38 19.99 26.26 20.44 19.76L20.5 19.71C20.5 19.69 20.48 19.66 20.45 19.63ZM9.47 16.68C9.23 17.16 8.96 17.42 8.65 17.71C8.38 17.97 8.1 18.23 7.82 18.66C6.63 20.5 6.7 23.61 8.05 27.9C4.76 27.65 2.13 23.54 2.12 18.5C2.12 18.29 2.12 18.1 2.13 17.9L2.27 17.79C2.25 17.75 2.21 17.67 2.15 17.57C2.28 15.39 2.92 13.37 3.96 11.8C5.1 10.07 6.62 9.1 8.22 9.04C9.87 12.46 10.29 15.03 9.47 16.68ZM11.86 27.83C11.66 27.86 11.46 27.88 11.27 27.89C9.93 23.7 9.81 20.71 10.91 18.99C11.16 18.62 11.41 18.38 11.65 18.14C11.98 17.84 12.3 17.53 12.59 16.96C13.47 15.17 13.09 12.52 11.47 9.05C14.73 9.36 17.32 13.45 17.33 18.45C17.33 23.21 14.99 27.25 11.86 27.83Z" fill="#333333" fill-opacity="1.000000" fill-rule="nonzero"/>
	<path id="Vector" d="M3.83 5.48C2.44 2.34 2.88 -0.3 3.82 -0.76C4.68 -1.18 6.84 -0.11 8.52 2.58C6.88 2.71 5.34 3.56 4.17 5.03C4.06 5.17 3.94 5.33 3.83 5.48Z" fill="#333333" fill-opacity="1.000000" fill-rule="nonzero"/>
	<path id="Vector" d="M11.86 2.69C13.76 0.01 15.82 -1.24 16.66 -0.84C17.57 -0.42 18.03 2.35 16.55 6.29C15.51 4.36 13.82 3 11.86 2.69Z" fill="#333333" fill-opacity="1.000000" fill-rule="nonzero"/>
</svg>
