<svg width="762.000000" height="262.000000" viewBox="0 0 762 262" fill="none" xmlns="http://www.w3.org/2000/svg" xmlns:xlink="http://www.w3.org/1999/xlink">
	<desc>
			Created with Pixso.
	</desc>
	<defs>
		<clipPath id="clip87_7">
			<rect id="Frame" width="762.000000" height="262.000000" fill="white" fill-opacity="0"/>
		</clipPath>
	</defs>
	<rect id="Frame" width="762.000000" height="262.000000" fill="#FFFFFF" fill-opacity="0"/>
	<g clip-path="url(#clip87_7)">
		<path id="Vector" d="M333.81 51.87C317.58 25.14 279.11 25.47 270.62 25.54C262 25.61 221.26 25.96 207.15 53.83C198.32 71.25 204.61 90.13 204.96 91.14C206.73 96.19 211.11 105.89 221.27 113.47C229.87 119.88 238.61 121.11 249.66 122.8C258.48 124.16 265.44 124.01 272.18 123.86C279.21 123.7 286.37 123.55 295.31 121.69C305.2 119.64 314.11 117.89 322.85 111.11C326.66 108.16 335.5 101.11 339.33 88.44C344.73 70.64 335.7 54.96 333.81 51.87ZM307.43 88.19C303.71 93.24 298.85 95.01 293.02 97.14C284.56 100.23 277.46 100.35 271.83 100.42C265.64 100.48 258.87 100.47 250.74 97.59C245.43 95.7 240.13 93.82 236.08 88.41C234.79 86.69 231.15 81.34 231.52 73.97C231.91 66.34 236.36 61.26 238.28 59.14C248.07 48.3 263.54 48.33 271.93 48.34C280.48 48.35 294.98 48.38 304.51 58.61C306.44 60.67 311 65.71 311.58 73.48C311.68 74.9 312.07 81.88 307.43 88.19Z" fill="#DE5922" fill-opacity="1.000000" fill-rule="nonzero"/>
		<path id="Vector" d="M532.51 123.18L510.57 123.18C507.5 123.18 505.01 120.69 505.03 117.63L505.16 65.15C505.18 62.09 507.65 59.61 510.71 59.61L531.97 59.61C535.02 59.61 537.49 62.07 537.52 65.11C537.69 82.61 537.88 100.1 538.06 117.59C538.1 120.67 535.59 123.18 532.51 123.18Z" fill="#DE5922" fill-opacity="1.000000" fill-rule="nonzero"/>
		<path id="Vector" d="M534 34.22C533.99 34.2 533.97 34.16 533.93 34.11C533.96 33.71 533.97 33.29 533.97 32.88C533.97 23.88 528.14 16.55 520.96 16.55C513.78 16.55 507.94 23.88 507.94 32.88C507.94 33.36 507.97 33.83 507.99 34.3C507.98 34.32 507.97 34.35 507.96 34.36L507.99 34.39C508.61 42.68 514.18 49.19 520.95 49.19C527.75 49.19 533.34 42.61 533.91 34.26L534 34.22Z" fill="#DE5922" fill-opacity="1.000000" fill-rule="nonzero"/>
		<path id="Vector" d="M735.89 123.76L713.95 123.76C710.88 123.76 708.39 121.27 708.41 118.2L708.54 65.72C708.56 62.67 711.03 60.19 714.09 60.19L735.35 60.19C738.4 60.19 740.87 62.64 740.9 65.69C741.07 83.18 741.26 100.68 741.44 118.17C741.48 121.25 738.99 123.76 735.89 123.76Z" fill="#DE5922" fill-opacity="1.000000" fill-rule="nonzero"/>
		<path id="Vector" d="M737.39 34.81C737.38 34.79 737.37 34.75 737.33 34.7C737.35 34.3 737.37 33.88 737.37 33.47C737.37 24.47 731.53 17.14 724.35 17.14C717.17 17.14 711.34 24.47 711.34 33.47C711.34 33.95 711.36 34.42 711.39 34.89C711.37 34.91 711.36 34.94 711.35 34.95L711.39 34.98C712 43.27 717.57 49.78 724.34 49.78C731.14 49.78 736.74 43.2 737.3 34.85L737.39 34.81Z" fill="#DE5922" fill-opacity="1.000000" fill-rule="nonzero"/>
		<path id="Vector" d="M568.07 118.91C567.71 112.71 575.49 88.6 575.17 73.2C574.89 60.04 568.25 32.77 568.07 30.55C568.06 30.45 568.06 30.34 568.06 30.34C568.05 29.77 568.11 28.37 569.24 27.32C570.02 26.61 571.41 26.24 573.39 26.24L591.73 26.24C593.24 26.24 594.51 26.44 595.56 26.86C596.62 27.26 597.34 27.64 597.73 27.98C598.12 28.32 598.62 28.92 599.22 29.81C599.83 30.69 600.15 31.18 600.21 31.28L624.52 66.06C625 66.74 625.99 66.74 626.47 66.06L651.04 31.28C651.32 30.83 651.72 30.2 652.27 29.5C652.98 28.6 653.39 28.06 654.11 27.55C654.98 26.93 655.78 26.69 656.32 26.54C657.45 26.22 658.51 26.19 659.35 26.25C665.28 26.25 671.21 26.25 677.13 26.25C679.12 26.25 680.5 26.62 681.28 27.33C681.94 27.94 682.4 28.96 682.45 30.57C682.64 36.56 677.13 61.4 677.03 73.98C676.93 87.41 682.8 112.82 682.45 118.92C682.41 119.57 682.41 121.32 681.14 122.23C680.26 122.86 678.93 123.16 677.12 123.16L659.34 123.16C657.53 123.16 656.2 122.84 655.33 122.23C654.13 121.37 654.06 119.61 654.02 118.92C653.87 116.26 656.01 97.85 659.35 72.96C658.95 68.69 656.86 65.38 654.05 64.62C651.18 63.85 648.05 65.57 646.97 67.14C644.2 71.15 641.08 76.55 638.62 83.32C637.1 87.51 636.13 91.39 635.51 94.8C635.16 95.33 634.34 96.32 632.96 97.11C632.07 97.63 631.15 97.88 630.18 97.88L620.88 97.88C619.06 97.88 617.35 96.85 615.73 94.79C615.07 91.37 611.33 73.13 603.52 67.56C602.16 66.59 599.69 64.91 597.16 65.62C594.32 66.43 592.31 70 591.85 74.72C595.24 98.15 597.28 115.41 597.06 118.91C597.02 119.52 597.03 121.3 595.75 122.21C594.88 122.84 593.54 123.14 591.74 123.14L573.41 123.14C571.59 123.14 570.26 122.83 569.38 122.21C568.09 121.28 568.11 119.49 568.07 118.91Z" fill="#EE820B" fill-opacity="1.000000" fill-rule="nonzero"/>
		<path id="Vector" d="M361.26 119.25C360.9 113.05 368.68 88.94 368.35 73.54C368.08 60.38 361.44 33.1 361.26 30.89C361.25 30.79 361.25 30.68 361.25 30.68C361.24 30.11 361.3 28.71 362.43 27.66C363.21 26.95 364.59 26.58 366.58 26.58L384.91 26.58C386.42 26.58 387.69 26.78 388.75 27.2C389.81 27.6 390.52 27.98 390.91 28.32C391.3 28.65 391.81 29.26 392.41 30.15C393.01 31.03 393.34 31.52 393.4 31.62L417.71 66.4C418.19 67.08 419.18 67.08 419.66 66.4L444.23 31.62C444.5 31.17 444.91 30.54 445.46 29.84C446.16 28.94 446.58 28.4 447.3 27.89C448.16 27.27 448.97 27.03 449.51 26.88C450.64 26.56 451.7 26.53 452.54 26.59C458.46 26.59 464.4 26.59 470.32 26.59C472.31 26.59 473.69 26.96 474.47 27.67C475.12 28.28 475.59 29.3 475.64 30.9C475.83 36.9 470.32 61.74 470.22 74.32C470.12 87.75 475.99 113.16 475.64 119.26C475.6 119.91 475.6 121.66 474.33 122.57C473.45 123.19 472.12 123.5 470.31 123.5L452.53 123.5C450.72 123.5 449.38 123.18 448.52 122.57C447.32 121.71 447.25 119.95 447.21 119.26C447.06 116.6 449.2 98.19 452.54 73.3C452.14 69.03 450.05 65.72 447.23 64.96C444.37 64.19 441.24 65.91 440.15 67.48C437.39 71.49 434.27 76.89 431.8 83.66C430.28 87.85 429.31 91.73 428.7 95.14C428.35 95.67 427.53 96.66 426.15 97.45C425.25 97.97 424.34 98.22 423.37 98.22L414.06 98.22C412.25 98.22 410.54 97.19 408.92 95.13C408.25 91.71 404.52 73.47 396.71 67.9C395.35 66.93 392.87 65.25 390.35 65.96C387.5 66.77 385.49 70.34 385.04 75.06C388.42 98.49 390.47 115.75 390.25 119.25C390.21 119.86 390.22 121.64 388.94 122.55C388.07 123.18 386.72 123.48 384.93 123.48L366.59 123.48C364.78 123.48 363.45 123.17 362.57 122.55C361.27 121.62 361.3 119.83 361.26 119.25Z" fill="#EE820B" fill-opacity="1.000000" fill-rule="nonzero"/>
		<path id="Vector" d="M417.8 189.04C404.73 165.07 373.23 164.99 366.28 164.98C359.21 164.96 325.85 164.89 314.06 189.6C306.69 205.05 311.67 221.93 311.94 222.84C313.35 227.36 316.85 236.04 325.11 242.89C332.09 248.68 339.24 249.86 348.28 251.48C355.49 252.78 361.2 252.7 366.72 252.63C372.48 252.55 378.34 252.48 385.68 250.91C393.8 249.17 401.11 247.7 408.33 241.74C411.47 239.14 418.78 232.94 422.02 221.69C426.57 205.85 419.31 191.8 417.8 189.04ZM395.87 221.15C392.77 225.62 388.79 227.15 384 229C377.04 231.67 371.23 231.72 366.62 231.71C361.55 231.71 356.01 231.64 349.37 229C345.03 227.26 340.7 225.54 337.45 220.69C336.4 219.14 333.47 214.33 333.84 207.78C334.23 200.99 337.91 196.5 339.5 194.63C347.61 185.06 360.27 185.23 367.15 185.32C374.15 185.4 386.02 185.57 393.74 194.77C395.3 196.62 399 201.17 399.4 208.09C399.48 209.35 399.73 215.57 395.87 221.15Z" fill="#DE5922" fill-opacity="1.000000" fill-rule="nonzero"/>
		<path id="Vector" d="M213.41 209.58C213.41 202.96 214.49 196.93 216.64 191.47C218.79 186.02 221.85 181.31 225.82 177.33C229.79 173.36 234.5 170.31 239.97 168.16C245.43 166.01 251.46 164.93 258.07 164.93C264.25 164.93 269.71 165.57 274.45 166.83C279.19 168.09 283.16 169.72 286.35 171.7C289.55 173.69 291.98 175.84 293.64 178.15C295.29 180.46 296.11 182.68 296.11 184.76C296.11 186.2 295.79 187.58 295.12 188.9C294.45 190.22 293.64 191.35 292.64 192.29C291.65 193.23 290.52 193.98 289.25 194.53C287.98 195.08 286.68 195.36 285.36 195.36C283.05 195.36 281.11 194.59 279.58 193.05C278.58 192.05 277.48 191.06 276.27 190.07C275.05 189.07 273.62 188.19 271.97 187.41C270.31 186.65 268.36 186.01 266.1 185.52C263.83 185.03 261.16 184.78 258.07 184.78C250.58 184.78 244.85 186.62 240.87 190.32C236.9 194.01 234.91 200.44 234.91 209.58C234.91 218.73 236.9 225.15 240.87 228.83C244.85 232.53 250.57 234.36 258.07 234.36C261.16 234.36 263.83 234.11 266.1 233.62C268.36 233.13 270.31 232.49 271.97 231.72C273.63 230.96 275.05 230.06 276.27 229.07C277.48 228.08 278.58 227.09 279.58 226.09C281.12 224.55 283.05 223.78 285.36 223.78C286.68 223.78 287.98 224.06 289.25 224.61C290.52 225.16 291.65 225.9 292.64 226.83C293.64 227.78 294.47 228.87 295.12 230.14C295.79 231.41 296.11 232.82 296.11 234.35C296.11 236.45 295.28 238.65 293.64 240.96C291.98 243.28 289.55 245.43 286.35 247.41C283.16 249.4 279.19 251.02 274.45 252.29C269.71 253.56 264.25 254.19 258.07 254.19C251.46 254.19 245.43 253.12 239.97 250.97C234.51 248.82 229.79 245.76 225.82 241.79C221.85 237.82 218.79 233.11 216.64 227.65C214.48 222.22 213.41 216.19 213.41 209.58Z" fill="#EE820B" fill-opacity="1.000000" fill-rule="nonzero"/>
		<path id="Vector" d="M442.79 177.23C444.18 177.23 445.3 177.31 446.14 177.46C446.98 177.61 447.85 177.74 448.74 177.84C450.62 178.04 451.66 177.09 451.86 175.01C452.16 170.75 453.14 166.86 454.83 163.34C456.51 159.82 458.89 156.78 461.96 154.2C465.03 151.63 468.87 149.63 473.48 148.18C478.08 146.75 483.46 146.03 489.6 146.03C490.49 146.03 491.28 146.44 491.97 147.23C492.67 148.02 493.21 149.01 493.61 150.19C494 151.38 494.3 152.62 494.5 153.9C494.7 155.2 494.8 156.28 494.8 157.17C494.8 158.06 494.7 159.08 494.5 160.21C494.3 161.36 494.01 162.41 493.61 163.41C493.21 164.4 492.67 165.22 491.97 165.86C491.28 166.5 490.49 166.83 489.6 166.83C483.85 166.83 479.76 167.72 477.34 169.5C474.91 171.29 473.45 173.12 472.95 175C472.75 175.79 472.9 176.48 473.39 177.07C473.88 177.66 474.58 177.91 475.46 177.81C476.95 177.61 478.46 177.46 480 177.36C481.54 177.26 483 177.21 484.39 177.21C485.28 177.21 486.08 177.61 486.77 178.4C487.46 179.19 488 180.19 488.4 181.37C488.8 182.55 489.09 183.79 489.3 185.08C489.5 186.37 489.6 187.45 489.6 188.34C489.6 189.24 489.5 190.33 489.3 191.61C489.09 192.91 488.8 194.14 488.4 195.32C488 196.5 487.46 197.51 486.77 198.29C486.08 199.08 485.28 199.47 484.39 199.47C483.01 199.47 481.54 199.42 480 199.32C478.47 199.22 476.96 199.08 475.46 198.88C474.57 198.78 473.85 199 473.31 199.54C472.77 200.09 472.5 200.8 472.5 201.69C472.5 205.36 472.55 209.35 472.65 213.66C472.75 217.97 472.85 222.21 472.95 226.37C473.05 230.53 473.12 234.49 473.17 238.25C473.22 242.02 473.25 245.19 473.25 247.75C473.25 248.74 472.85 249.56 472.06 250.2C471.26 250.84 470.27 251.37 469.09 251.76C467.89 252.16 466.66 252.45 465.37 252.65C464.08 252.85 462.99 252.95 462.1 252.95C461.2 252.95 460.11 252.85 458.83 252.65C457.54 252.45 456.3 252.16 455.12 251.76C453.92 251.37 452.93 250.84 452.15 250.2C451.36 249.56 450.96 248.74 450.96 247.75C450.96 245.17 450.98 242.01 451.03 238.25C451.08 234.49 451.16 230.53 451.26 226.37C451.36 222.21 451.46 217.97 451.56 213.66C451.66 209.35 451.71 205.36 451.71 201.69C451.71 200.8 451.43 200.09 450.89 199.54C450.35 199 449.64 198.78 448.74 198.88C447.75 198.98 446.83 199.1 445.99 199.24C445.15 199.39 444.08 199.47 442.79 199.47C441.9 199.47 441.11 199.08 440.42 198.29C439.73 197.5 439.17 196.5 438.78 195.32C438.38 194.13 438.09 192.9 437.89 191.61C437.69 190.33 437.59 189.24 437.59 188.34C437.59 187.45 437.69 186.37 437.89 185.08C438.09 183.79 438.38 182.55 438.78 181.37C439.19 180.17 439.73 179.19 440.42 178.4C441.11 177.64 441.9 177.23 442.79 177.23Z" fill="#EE820B" fill-opacity="1.000000" fill-rule="nonzero"/>
		<path id="Vector" d="M510.58 177.23C511.97 177.23 513.09 177.31 513.93 177.46C514.77 177.61 515.64 177.74 516.53 177.84C518.4 178.04 519.45 177.09 519.65 175.01C519.95 170.75 520.93 166.86 522.62 163.34C524.3 159.82 526.68 156.78 529.75 154.2C532.82 151.63 536.66 149.63 541.27 148.18C545.87 146.75 551.25 146.03 557.39 146.03C558.28 146.03 559.07 146.44 559.76 147.23C560.45 148.02 561 149.01 561.4 150.19C561.79 151.38 562.09 152.62 562.29 153.9C562.49 155.2 562.59 156.28 562.59 157.17C562.59 158.06 562.49 159.08 562.29 160.21C562.09 161.36 561.8 162.41 561.4 163.41C561 164.4 560.45 165.22 559.76 165.86C559.07 166.5 558.28 166.83 557.39 166.83C551.64 166.83 547.55 167.72 545.13 169.5C542.7 171.29 541.24 173.12 540.74 175C540.54 175.79 540.69 176.48 541.18 177.07C541.67 177.66 542.37 177.91 543.25 177.81C544.74 177.61 546.25 177.46 547.79 177.36C549.33 177.26 550.78 177.21 552.18 177.21C553.07 177.21 553.87 177.61 554.56 178.4C555.25 179.19 555.79 180.19 556.19 181.37C556.59 182.55 556.88 183.79 557.08 185.08C557.28 186.37 557.39 187.45 557.39 188.34C557.39 189.24 557.28 190.33 557.08 191.61C556.88 192.91 556.59 194.14 556.19 195.32C555.79 196.5 555.25 197.5 554.56 198.29C553.87 199.08 553.07 199.47 552.18 199.47C550.8 199.47 549.33 199.42 547.79 199.32C546.26 199.22 544.75 199.07 543.25 198.87C542.36 198.77 541.64 198.99 541.1 199.53C540.56 200.07 540.28 200.79 540.28 201.68C540.28 205.34 540.34 209.34 540.44 213.64C540.54 217.95 540.64 222.18 540.74 226.34C540.84 230.5 540.91 234.46 540.96 238.24C541.01 242.01 541.04 245.17 541.04 247.74C541.04 248.73 540.64 249.55 539.84 250.19C539.05 250.83 538.06 251.36 536.88 251.75C535.7 252.14 534.45 252.44 533.15 252.64C531.86 252.84 530.78 252.94 529.89 252.94C528.99 252.94 527.9 252.84 526.62 252.64C525.33 252.44 524.09 252.15 522.91 251.75C521.72 251.35 520.72 250.83 519.94 250.19C519.15 249.55 518.74 248.73 518.74 247.74C518.74 245.16 518.77 241.99 518.82 238.24C518.87 234.48 518.95 230.52 519.05 226.34C519.15 222.18 519.25 217.95 519.35 213.64C519.45 209.32 519.5 205.34 519.5 201.68C519.5 200.79 519.22 200.07 518.68 199.53C518.14 198.99 517.42 198.77 516.53 198.87C515.54 198.97 514.62 199.09 513.78 199.24C512.94 199.39 511.87 199.47 510.58 199.47C509.69 199.47 508.9 199.08 508.21 198.29C507.52 197.5 506.96 196.5 506.57 195.32C506.18 194.14 505.88 192.9 505.68 191.61C505.48 190.33 505.38 189.24 505.38 188.34C505.38 187.45 505.48 186.37 505.68 185.08C505.88 183.79 506.17 182.55 506.57 181.37C506.98 180.19 507.52 179.19 508.21 178.4C508.9 177.64 509.69 177.23 510.58 177.23Z" fill="#DE5922" fill-opacity="1.000000" fill-rule="nonzero"/>
		<path id="Vector" d="M721.99 164.95C727.54 164.95 732.74 165.67 737.59 167.11C742.43 168.55 746.66 170.5 750.25 172.95C753.85 175.4 756.7 178.33 758.83 181.73C760.96 185.14 762.01 188.87 762.01 192.92C762.01 197.94 760.96 202.11 758.83 205.47C756.7 208.82 753.85 211.54 750.25 213.62C746.66 215.7 742.43 217.17 737.59 218.02C732.74 218.88 727.54 219.3 721.99 219.3C717.95 219.3 714.28 219.04 710.96 218.5C707.64 217.97 705 217.43 703.04 216.9C701.94 216.69 701.16 216.83 700.67 217.31C700.18 217.78 700.04 218.45 700.27 219.3C700.6 220.59 701.2 221.97 702.07 223.47C702.94 224.96 704.19 226.34 705.83 227.63C707.46 228.91 709.59 229.98 712.2 230.82C714.82 231.67 718.09 232.1 722.01 232.1C725.07 232.1 727.71 231.86 729.93 231.38C732.16 230.91 734.1 230.29 735.73 229.55C737.37 228.81 738.77 227.95 739.98 226.99C741.18 226.03 742.27 225.06 743.25 224.11C744.77 222.61 746.68 221.87 748.97 221.87C750.28 221.87 751.56 222.13 752.81 222.67C754.06 223.2 755.18 223.93 756.16 224.84C757.15 225.74 757.96 226.81 758.62 228.03C759.27 229.26 759.6 230.62 759.6 232.1C759.6 234.13 758.78 236.26 757.15 238.5C755.51 240.74 753.11 242.81 749.95 244.73C746.8 246.66 742.87 248.23 738.18 249.45C733.49 250.67 728.11 251.28 722 251.28C715.25 251.28 709.15 250.24 703.7 248.17C698.26 246.09 693.63 243.13 689.82 239.29C686.01 235.46 683.07 230.89 680.99 225.63C678.92 220.35 677.89 214.52 677.89 208.13C677.89 201.73 678.92 195.9 680.99 190.62C683.06 185.34 686 180.79 689.82 176.96C693.63 173.12 698.26 170.17 703.7 168.08C709.14 166 715.23 164.95 721.99 164.95ZM703.04 199.32C705.11 199.75 707.88 200.25 711.37 200.84C714.86 201.43 718.4 201.72 722 201.72C727.34 201.72 731.81 200.95 735.4 199.41C739 197.86 740.8 195.71 740.8 192.93C740.8 190.17 739 188.01 735.4 186.46C731.81 184.91 727.34 184.15 722 184.15C718.29 184.15 715.13 184.52 712.52 185.27C709.9 186.01 707.75 186.94 706.07 188.07C704.38 189.19 703.1 190.38 702.23 191.66C701.36 192.95 700.76 194.16 700.43 195.33C700.21 196.19 700.35 197.02 700.84 197.81C701.33 198.6 702.06 199.1 703.04 199.32Z" fill="#DE5922" fill-opacity="1.000000" fill-rule="nonzero"/>
		<path id="Vector" d="M622.42 165.19C628 165.19 633.22 165.91 638.1 167.35C642.97 168.8 647.22 170.75 650.83 173.21C654.44 175.67 657.32 178.62 659.44 182.05C661.58 185.48 662.65 189.22 662.65 193.28C662.65 198.31 661.58 202.52 659.44 205.89C657.3 209.26 654.44 211.99 650.83 214.09C647.22 216.17 642.97 217.65 638.1 218.5C633.24 219.36 628 219.78 622.42 219.78C618.37 219.78 614.68 219.52 611.34 218.98C608 218.45 605.36 217.91 603.38 217.37C602.29 217.16 601.5 217.29 601.01 217.77C600.52 218.25 600.38 218.93 600.59 219.78C600.92 221.06 601.52 222.46 602.4 223.96C603.28 225.45 604.54 226.85 606.18 228.13C607.81 229.41 609.95 230.49 612.58 231.33C615.2 232.19 618.49 232.62 622.42 232.62C625.49 232.62 628.14 232.38 630.38 231.89C632.62 231.4 634.57 230.79 636.2 230.04C637.85 229.29 639.27 228.43 640.47 227.48C641.67 226.51 642.77 225.55 643.75 224.58C645.28 223.09 647.19 222.33 649.49 222.33C650.8 222.33 652.1 222.6 653.36 223.14C654.61 223.68 655.73 224.4 656.73 225.3C657.71 226.22 658.54 227.29 659.19 228.51C659.84 229.74 660.17 231.11 660.17 232.6C660.17 234.64 659.35 236.78 657.71 239.03C656.06 241.28 653.66 243.36 650.48 245.29C647.29 247.21 643.36 248.79 638.65 250.03C633.95 251.26 628.53 251.87 622.41 251.87C615.62 251.87 609.5 250.83 604.03 248.74C598.56 246.66 593.9 243.68 590.07 239.83C586.23 235.97 583.28 231.4 581.2 226.11C579.13 220.81 578.08 214.94 578.08 208.52C578.08 202.1 579.13 196.24 581.2 190.93C583.28 185.63 586.23 181.05 590.07 177.21C593.89 173.35 598.54 170.38 604.03 168.3C609.51 166.23 615.63 165.19 622.42 165.19ZM603.37 199.72C605.45 200.15 608.24 200.66 611.75 201.24C615.24 201.83 618.8 202.12 622.42 202.12C627.78 202.12 632.27 201.34 635.88 199.8C639.49 198.25 641.3 196.08 641.3 193.3C641.3 190.52 639.49 188.34 635.88 186.8C632.27 185.25 627.78 184.47 622.42 184.47C618.7 184.47 615.53 184.85 612.9 185.59C610.27 186.35 608.11 187.28 606.41 188.41C604.72 189.53 603.43 190.73 602.55 192.02C601.67 193.3 601.07 194.53 600.74 195.71C600.52 196.57 600.67 197.4 601.16 198.2C601.65 198.99 602.39 199.51 603.37 199.72Z" fill="#EE820B" fill-opacity="1.000000" fill-rule="nonzero"/>
		<path id="Vector" d="M170.81 159.28C170.62 162.78 170.63 166.86 170.23 170.94C168.88 184.51 165.46 197.55 159.62 209.9C154.98 219.71 149.04 228.64 141.58 236.54C135.26 243.23 128.12 248.84 119.99 253.22C112.9 257.04 105.38 259.68 97.44 261.04C93.85 261.65 90.23 262.03 86.58 261.99C85.26 261.98 83.94 262.01 82.63 261.97C74.61 261.72 66.88 260.06 59.4 257.18C50 253.55 41.67 248.22 34.22 241.47C26 234 19.36 225.3 14.04 215.56C8.85 206.04 5.18 195.97 2.84 185.4C1.93 181.32 1.29 177.2 0.76 173.05C0.61 171.88 0.54 170.7 0.44 169.52C-0.02 164.27 -0.06 160.21 0.03 155.65C0.11 151.6 0.42 147.58 0.93 143.56C1.76 136.87 3.11 130.31 5.05 123.86C8.65 111.88 14 100.76 21.4 90.65C27.53 82.25 34.8 74.99 43.4 69.09C51.66 63.42 60.67 59.44 70.46 57.33C73.17 56.75 75.91 56.36 78.67 56.08C82.45 55.71 86.21 55.73 89.98 55.91C92.93 56.04 95.86 56.45 98.76 57.01C106.12 58.43 113.12 60.92 119.73 64.45C126.31 67.96 132.28 72.31 137.7 77.41C145.86 85.08 152.41 93.97 157.6 103.86C162.48 113.16 165.95 122.98 168.13 133.26C168.97 137.26 169.61 141.3 170.05 145.36C170.56 149.79 170.81 154.23 170.81 159.28ZM71.12 80.61C70.48 80.61 69.93 80.56 69.39 80.62C66.95 80.87 64.54 81.3 62.19 82.03C57.57 83.43 53.4 85.69 49.55 88.59C44.76 92.21 40.77 96.61 37.34 101.52C32.36 108.66 28.78 116.48 26.2 124.78C24.83 129.17 23.77 133.63 23.03 138.15C22.57 141.02 22.2 143.91 21.91 146.8C21.69 149.1 21.66 151.43 21.55 153.74C21.28 159.3 21.57 164.83 22.19 170.34C22.65 174.49 23.37 178.62 24.33 182.68C26.21 190.67 28.95 198.35 32.85 205.59C36.08 211.59 39.99 217.09 44.89 221.86C48.83 225.69 53.24 228.86 58.29 231.07C61.65 232.54 65.14 233.46 68.78 233.91C69.08 233.95 69.42 234.04 69.68 233.66C69.76 233.14 69.48 232.64 69.33 232.14C66.45 222.61 64.02 212.98 62.55 203.13C61.96 199.17 61.51 195.2 61.35 191.21C61.16 186.62 61.2 182.03 61.79 177.47C62.29 173.59 63.11 169.78 64.48 166.1C66.3 161.17 68.98 156.78 72.78 153.12C73.86 152.08 74.93 151.02 76.02 150.01C78.99 147.22 81.18 143.93 82.6 140.1C83.9 136.57 84.52 132.91 84.71 129.18C84.89 125.67 84.62 122.18 84.12 118.72C83.49 114.45 82.52 110.25 81.3 106.1C78.79 97.54 75.35 89.33 71.52 81.29C71.42 81.06 71.28 80.88 71.12 80.61ZM97.61 80.66C97.79 81.16 97.89 81.5 98.03 81.83C98.53 82.94 99.04 84.05 99.55 85.18C102.38 91.63 104.9 98.19 106.84 104.98C108.75 111.68 110.12 118.48 110.3 125.48C110.41 130.01 110.07 134.47 108.87 138.84C107.56 143.61 105.41 147.92 102.01 151.55C100.81 152.85 99.52 154.07 98.21 155.27C93.93 159.21 90.96 163.95 89.2 169.49C87.54 174.73 86.92 180.14 86.82 185.6C86.75 189.84 87.09 194.04 87.58 198.25C88.07 202.54 88.81 206.79 89.68 211.01C90.85 216.7 92.33 222.32 93.96 227.9C94.47 229.65 95.02 231.37 95.57 233.11C95.79 233.8 96.01 233.96 96.66 233.89C98.19 233.71 99.74 233.57 101.25 233.28C106.92 232.18 112 229.74 116.65 226.34C121.5 222.8 125.55 218.45 129.03 213.59C133.64 207.14 137.06 200.09 139.64 192.62C141.87 186.12 143.41 179.45 144.33 172.63C144.8 169.11 145.13 165.59 145.27 162.05C145.42 158.1 145.41 154.14 145.13 150.19C144.89 146.75 144.54 143.32 144.02 139.9C143.06 133.5 141.52 127.25 139.36 121.16C136.86 114.09 133.59 107.43 129.26 101.3C125.92 96.55 122.06 92.28 117.44 88.74C112.42 84.89 106.9 82.15 100.65 80.98C99.71 80.8 98.78 80.53 97.61 80.66Z" fill="#DE5922" fill-opacity="1.000000" fill-rule="nonzero"/>
		<path id="Vector" d="M101.23 28.88C101.43 28.53 101.53 28.29 101.69 28.08C104.83 23.73 108.24 19.59 111.93 15.71C114.89 12.62 118.02 9.72 121.42 7.11C123.94 5.16 126.58 3.41 129.46 2.02C131.27 1.15 133.13 0.4 135.12 0.12C136.14 -0.03 137.21 -0.04 138.24 0.06C139.45 0.17 140.48 0.76 141.36 1.6C142.43 2.62 143.21 3.84 143.84 5.16C144.92 7.49 145.53 9.95 145.96 12.45C146.69 16.69 146.7 20.96 146.45 25.22C146.09 31.48 144.98 37.64 143.42 43.73C142.35 47.86 141.06 51.92 139.65 55.94C139.47 56.45 139.25 56.92 139.03 57.43C138.49 57.26 138.4 56.82 138.2 56.48C136.4 53.43 134.39 50.51 132.13 47.77C127.9 42.65 123 38.28 117.27 34.91C112.65 32.2 107.76 30.2 102.47 29.22C102.29 29.18 102.11 29.13 101.94 29.08C101.77 29.03 101.6 28.98 101.23 28.88Z" fill="#EE820B" fill-opacity="1.000000" fill-rule="nonzero"/>
		<path id="Vector" d="M35.49 51.07C35.29 50.68 35.13 50.4 35.02 50.11C32.6 44.35 30.76 38.43 29.61 32.3C28.66 27.27 28.34 22.21 28.61 17.12C28.8 13.62 29.43 10.18 30.79 6.91C31.43 5.39 32.22 3.97 33.36 2.76C34.27 1.78 35.32 1 36.65 0.7C37.04 0.61 37.45 0.55 37.86 0.5C40.7 0.23 43.35 0.91 45.94 1.99C48.51 3.06 50.92 4.43 53.2 6.02C57.28 8.86 60.93 12.19 64.26 15.88C67.34 19.3 70.1 22.96 72.6 26.83C72.79 27.12 72.93 27.45 73.13 27.85C72.8 27.98 72.56 28.11 72.31 28.14C62.96 29.11 54.73 32.79 47.4 38.59C43.28 41.85 39.72 45.66 36.6 49.89C36.32 50.28 36.1 50.74 35.49 51.07Z" fill="#EE820B" fill-opacity="1.000000" fill-rule="nonzero"/>
	</g>
</svg>
