<svg width="847.000000" height="87.000000" viewBox="0 0 847 87" fill="none" xmlns="http://www.w3.org/2000/svg" xmlns:xlink="http://www.w3.org/1999/xlink">
	<desc>
			Created with Pixso.
	</desc>
	<defs/>
	<path id="Vector" d="M89.64 36.56C78.44 18.1 51.89 18.33 46.04 18.38C40.09 18.44 11.97 18.67 2.23 37.91C-3.86 49.95 0.48 62.98 0.73 63.68C1.95 67.16 4.97 73.86 11.98 79.1C17.91 83.52 23.95 84.37 31.58 85.55C37.66 86.49 42.47 86.38 47.12 86.27C51.97 86.17 56.91 86.06 63.07 84.78C69.89 83.37 76.05 82.15 82.08 77.48C84.71 75.44 90.8 70.57 93.45 61.83C97.17 49.52 90.93 38.7 89.64 36.56ZM71.42 61.63C68.85 65.12 65.5 66.34 61.48 67.81C55.65 69.94 50.74 70.04 46.86 70.07C42.59 70.11 37.9 70.1 32.3 68.11C28.63 66.81 24.97 65.51 22.18 61.78C21.29 60.59 18.78 56.9 19.04 51.82C19.31 46.56 22.39 43.05 23.7 41.58C30.45 34.11 41.13 34.12 46.92 34.13C52.83 34.14 62.83 34.15 69.41 41.22C70.73 42.64 73.89 46.13 74.29 51.48C74.37 52.46 74.63 57.28 71.42 61.63Z" fill="#DE5922" fill-opacity="1.000000" fill-rule="nonzero"/>
	<path id="Vector" d="M226.75 85.79L211.6 85.79C209.48 85.79 207.77 84.07 207.77 81.95L207.86 45.72C207.88 43.61 209.59 41.9 211.69 41.9L226.37 41.9C228.47 41.9 230.18 43.59 230.2 45.68C230.33 57.76 230.45 69.84 230.58 81.92C230.6 84.05 228.88 85.79 226.75 85.79Z" fill="#DE5922" fill-opacity="1.000000" fill-rule="nonzero"/>
	<path id="Vector" d="M227.77 24.38C227.76 24.37 227.75 24.34 227.73 24.3C227.75 24.02 227.76 23.74 227.76 23.45C227.76 17.24 223.74 12.19 218.78 12.19C213.83 12.19 209.79 17.24 209.79 23.45C209.79 23.79 209.8 24.11 209.82 24.43C209.81 24.44 209.81 24.46 209.8 24.48L209.82 24.5C210.24 30.22 214.09 34.72 218.76 34.72C223.46 34.72 227.32 30.18 227.71 24.41L227.77 24.38Z" fill="#DE5922" fill-opacity="1.000000" fill-rule="nonzero"/>
	<path id="Vector" d="M372.97 85.54L357.82 85.54C355.7 85.54 353.99 83.82 353.99 81.7L354.09 45.47C354.1 43.36 355.81 41.65 357.92 41.65L372.59 41.65C374.69 41.65 376.4 43.34 376.42 45.44C376.55 57.51 376.67 69.59 376.8 81.67C376.82 83.8 375.1 85.54 372.97 85.54Z" fill="#DE5922" fill-opacity="1.000000" fill-rule="nonzero"/>
	<path id="Vector" d="M373.99 24.13C373.98 24.12 373.97 24.09 373.95 24.06C373.97 23.78 373.98 23.5 373.98 23.21C373.98 17 369.96 11.94 365 11.94C360.05 11.94 356.01 17 356.01 23.21C356.01 23.54 356.02 23.86 356.04 24.18C356.03 24.2 356.03 24.22 356.02 24.23L356.04 24.25C356.46 29.97 360.32 34.47 364.99 34.47C369.68 34.47 373.54 29.93 373.93 24.16L373.99 24.13Z" fill="#DE5922" fill-opacity="1.000000" fill-rule="nonzero"/>
	<path id="Vector" d="M251.29 82.84C251.05 78.56 256.41 61.92 256.19 51.29C256 42.2 251.42 23.37 251.29 21.85C251.28 21.77 251.28 21.7 251.28 21.7C251.27 21.31 251.31 20.33 252.1 19.61C252.64 19.12 253.6 18.87 254.96 18.87L267.6 18.87C268.64 18.87 269.52 19.01 270.25 19.29C270.97 19.57 271.48 19.83 271.75 20.05C272.02 20.29 272.36 20.71 272.78 21.31C273.2 21.92 273.43 22.26 273.47 22.32L290.25 46.33C290.57 46.79 291.27 46.8 291.59 46.33L308.55 22.31C308.73 22 309.02 21.57 309.4 21.07C309.88 20.45 310.17 20.08 310.67 19.73C311.26 19.31 311.82 19.14 312.2 19.04C312.98 18.81 313.7 18.79 314.28 18.85C318.37 18.85 322.46 18.85 326.56 18.85C327.93 18.85 328.89 19.09 329.42 19.59C329.88 20.01 330.2 20.71 330.23 21.82C330.36 25.96 326.56 43.1 326.5 51.79C326.42 61.05 330.48 78.59 330.23 82.81C330.21 83.26 330.21 84.47 329.33 85.09C328.72 85.52 327.8 85.74 326.55 85.74L314.27 85.74C313.02 85.74 312.1 85.52 311.5 85.09C310.67 84.5 310.63 83.28 310.59 82.81C310.49 80.97 311.97 68.26 314.27 51.09C313.99 48.14 312.55 45.86 310.61 45.33C308.63 44.79 306.48 45.99 305.73 47.07C303.82 49.84 301.67 53.56 299.97 58.24C298.93 61.14 298.26 63.82 297.83 66.16C297.58 66.53 297.02 67.21 296.07 67.76C295.45 68.12 294.82 68.3 294.15 68.3L287.74 68.3C286.49 68.3 285.31 67.59 284.19 66.17C283.72 63.82 281.15 51.22 275.76 47.38C274.82 46.72 273.11 45.56 271.37 46.05C269.4 46.6 268.03 49.07 267.71 52.33C270.05 68.51 271.46 80.42 271.31 82.83C271.27 83.26 271.29 84.48 270.4 85.11C269.8 85.54 268.88 85.76 267.63 85.76L254.98 85.76C253.74 85.76 252.81 85.54 252.21 85.11C251.3 84.48 251.31 83.24 251.29 82.84Z" fill="#EE820B" fill-opacity="1.000000" fill-rule="nonzero"/>
	<path id="Vector" d="M108.58 83.07C108.33 78.78 113.7 62.15 113.47 51.52C113.28 42.42 108.71 23.59 108.58 22.08C108.57 22 108.57 21.92 108.57 21.92C108.56 21.54 108.6 20.56 109.39 19.84C109.92 19.34 110.88 19.09 112.25 19.09L124.89 19.09C125.92 19.09 126.81 19.23 127.54 19.51C128.26 19.79 128.77 20.05 129.03 20.28C129.3 20.52 129.65 20.93 130.07 21.54C130.49 22.15 130.71 22.48 130.75 22.55L147.53 46.56C147.85 47.02 148.55 47.03 148.88 46.56L165.83 22.54C166.02 22.23 166.31 21.8 166.68 21.3C167.17 20.68 167.46 20.31 167.95 19.96C168.55 19.54 169.11 19.36 169.48 19.27C170.27 19.04 170.99 19.02 171.57 19.07C175.66 19.07 179.75 19.07 183.85 19.07C185.21 19.07 186.17 19.32 186.71 19.82C187.16 20.24 187.48 20.93 187.52 22.04C187.65 26.19 183.85 43.33 183.78 52.01C183.71 61.28 187.76 78.82 187.52 83.03C187.49 83.49 187.49 84.69 186.61 85.32C186.01 85.75 185.08 85.96 183.84 85.96L171.56 85.96C170.31 85.96 169.39 85.75 168.78 85.32C167.95 84.72 167.91 83.51 167.88 83.03C167.77 81.19 169.26 68.49 171.56 51.31C171.28 48.36 169.84 46.08 167.9 45.56C165.92 45.02 163.77 46.21 163.02 47.3C161.11 50.06 158.96 53.79 157.26 58.47C156.21 61.36 155.55 64.04 155.12 66.39C154.87 66.75 154.31 67.43 153.35 67.99C152.74 68.35 152.1 68.53 151.44 68.53L145.02 68.53C143.78 68.53 142.59 67.82 141.47 66.4C141.01 64.04 138.44 51.44 133.05 47.61C132.11 46.94 130.4 45.78 128.66 46.28C126.69 46.82 125.31 49.3 125 52.56C127.33 68.73 128.74 80.65 128.59 83.06C128.56 83.49 128.57 84.7 127.69 85.34C127.09 85.77 126.16 85.98 124.91 85.98L112.27 85.98C111.02 85.98 110.1 85.77 109.49 85.34C108.59 84.71 108.6 83.48 108.58 83.07Z" fill="#EE820B" fill-opacity="1.000000" fill-rule="nonzero"/>
	<path id="Vector" d="M575.21 33.92C564.89 14.98 540.02 14.93 534.54 14.92C528.96 14.91 502.62 14.85 493.3 34.37C487.48 46.58 491.42 59.91 491.64 60.62C492.75 64.19 495.51 71.05 502.03 76.46C507.54 81.03 513.19 81.97 520.32 83.25C526.01 84.27 530.51 84.21 534.87 84.15C539.42 84.1 544.04 84.04 549.84 82.8C556.25 81.43 562.02 80.26 567.72 75.56C570.21 73.5 575.96 68.6 578.54 59.72C582.14 47.21 576.4 36.11 575.21 33.92ZM557.9 59.29C555.46 62.82 552.3 64.02 548.53 65.48C543.04 67.59 538.44 67.64 534.81 67.64C530.8 67.64 526.42 67.58 521.18 65.48C517.76 64.12 514.34 62.75 511.77 58.92C510.95 57.69 508.63 53.89 508.92 48.72C509.22 43.35 512.13 39.81 513.38 38.33C519.78 30.78 529.78 30.91 535.21 30.99C540.75 31.06 550.12 31.18 556.21 38.45C557.44 39.92 560.35 43.5 560.67 48.98C560.75 49.97 560.94 54.88 557.9 59.29Z" fill="#DE5922" fill-opacity="1.000000" fill-rule="nonzero"/>
	<path id="Vector" d="M413.84 50.14C413.84 44.92 414.69 40.15 416.39 35.84C418.09 31.53 420.5 27.81 423.64 24.67C426.77 21.54 430.5 19.12 434.81 17.42C439.11 15.72 443.88 14.87 449.11 14.87C453.99 14.87 458.3 15.37 462.03 16.37C465.78 17.37 468.91 18.65 471.44 20.22C473.96 21.8 475.88 23.48 477.18 25.31C478.49 27.14 479.14 28.89 479.14 30.53C479.14 31.66 478.88 32.75 478.36 33.79C477.83 34.84 477.18 35.73 476.4 36.47C475.61 37.22 474.72 37.8 473.72 38.24C472.72 38.68 471.7 38.89 470.65 38.89C468.82 38.89 467.3 38.29 466.08 37.06C465.29 36.28 464.42 35.49 463.47 34.72C462.51 33.93 461.38 33.23 460.06 32.63C458.76 32.03 457.21 31.52 455.43 31.12C453.64 30.74 451.53 30.53 449.09 30.53C443.17 30.53 438.64 32 435.51 34.9C432.38 37.82 430.81 42.9 430.81 50.12C430.81 57.35 432.38 62.42 435.51 65.33C438.64 68.25 443.17 69.7 449.09 69.7C451.52 69.7 453.64 69.51 455.43 69.11C457.21 68.72 458.75 68.22 460.06 67.61C461.37 67 462.5 66.31 463.47 65.53C464.42 64.74 465.29 63.96 466.08 63.18C467.3 61.97 468.82 61.35 470.65 61.35C471.7 61.35 472.72 61.57 473.72 62.01C474.72 62.45 475.61 63.03 476.4 63.77C477.18 64.52 477.83 65.39 478.36 66.39C478.87 67.39 479.14 68.5 479.14 69.71C479.14 71.37 478.49 73.11 477.18 74.94C475.88 76.77 473.97 78.47 471.44 80.03C468.91 81.6 465.78 82.88 462.03 83.88C458.29 84.89 453.99 85.38 449.11 85.38C443.89 85.38 439.13 84.53 434.81 82.83C430.51 81.13 426.78 78.72 423.64 75.58C420.51 72.45 418.09 68.72 416.39 64.41C414.69 60.14 413.84 55.37 413.84 50.14Z" fill="#EE820B" fill-opacity="1.000000" fill-rule="nonzero"/>
	<path id="Vector" d="M594.95 24.6C596.04 24.6 596.91 24.66 597.58 24.78C598.25 24.89 598.93 24.99 599.64 25.07C601.12 25.23 601.94 24.47 602.1 22.84C602.34 19.48 603.11 16.4 604.45 13.63C605.77 10.85 607.65 8.44 610.07 6.41C612.5 4.37 615.53 2.79 619.17 1.65C622.8 0.52 627.04 -0.05 631.9 -0.05C632.61 -0.05 633.23 0.26 633.77 0.89C634.32 1.51 634.75 2.3 635.06 3.23C635.37 4.17 635.61 5.15 635.76 6.17C635.92 7.19 636 8.04 636 8.75C636 9.45 635.92 10.26 635.76 11.16C635.6 12.07 635.37 12.91 635.06 13.68C634.75 14.47 634.32 15.11 633.77 15.62C633.22 16.12 632.59 16.38 631.9 16.38C627.36 16.38 624.14 17.08 622.22 18.49C620.31 19.9 619.16 21.34 618.76 22.83C618.6 23.45 618.71 24 619.11 24.47C619.5 24.95 620.05 25.14 620.76 25.07C621.93 24.91 623.13 24.8 624.34 24.71C625.56 24.64 626.71 24.59 627.81 24.59C628.52 24.59 629.13 24.91 629.68 25.53C630.23 26.15 630.66 26.94 630.97 27.87C631.28 28.81 631.52 29.79 631.68 30.81C631.84 31.83 631.92 32.68 631.92 33.4C631.92 34.09 631.84 34.96 631.68 35.98C631.52 37 631.29 37.97 630.97 38.92C630.66 39.85 630.23 40.64 629.68 41.26C629.13 41.89 628.51 42.2 627.81 42.2C626.71 42.2 625.56 42.15 624.34 42.08C623.13 42 621.94 41.89 620.76 41.72C620.06 41.65 619.49 41.82 619.06 42.25C618.63 42.68 618.41 43.25 618.41 43.95C618.41 46.85 618.46 50 618.53 53.4C618.61 56.8 618.69 60.15 618.77 63.43C618.84 66.71 618.91 69.84 618.94 72.81C618.98 75.78 618.99 78.29 618.99 80.32C618.99 81.11 618.68 81.75 618.06 82.26C617.43 82.77 616.65 83.17 615.71 83.49C614.78 83.8 613.8 84.04 612.78 84.2C611.76 84.36 610.9 84.43 610.19 84.43C609.48 84.43 608.62 84.36 607.61 84.2C606.6 84.04 605.62 83.81 604.68 83.49C603.75 83.17 602.96 82.77 602.34 82.26C601.71 81.75 601.4 81.11 601.4 80.32C601.4 78.29 601.42 75.79 601.46 72.81C601.5 69.84 601.55 66.71 601.63 63.43C601.7 60.15 601.79 56.8 601.86 53.4C601.94 50 601.98 46.85 601.98 43.95C601.98 43.25 601.77 42.68 601.34 42.25C600.91 41.82 600.34 41.65 599.64 41.72C598.85 41.8 598.13 41.9 597.46 42.01C596.8 42.13 595.96 42.19 594.95 42.19C594.24 42.19 593.61 41.87 593.07 41.25C592.52 40.63 592.09 39.84 591.78 38.9C591.47 37.97 591.23 36.99 591.08 35.97C590.92 34.96 590.84 34.09 590.84 33.38C590.84 32.68 590.92 31.82 591.08 30.8C591.24 29.79 591.47 28.81 591.78 27.86C592.09 26.93 592.52 26.14 593.07 25.52C593.61 24.92 594.24 24.6 594.95 24.6Z" fill="#EE820B" fill-opacity="1.000000" fill-rule="nonzero"/>
	<path id="Vector" d="M648.47 24.6C649.57 24.6 650.44 24.66 651.1 24.78C651.77 24.89 652.45 24.99 653.16 25.07C654.64 25.23 655.46 24.47 655.62 22.84C655.86 19.48 656.63 16.4 657.97 13.63C659.29 10.85 661.18 8.44 663.6 6.41C666.02 4.37 669.05 2.79 672.69 1.65C676.33 0.52 680.57 -0.05 685.42 -0.05C686.13 -0.05 686.75 0.26 687.29 0.89C687.84 1.51 688.27 2.3 688.58 3.23C688.89 4.17 689.13 5.15 689.28 6.17C689.44 7.19 689.52 8.04 689.52 8.75C689.52 9.45 689.44 10.26 689.28 11.16C689.12 12.07 688.89 12.91 688.58 13.68C688.27 14.47 687.84 15.11 687.29 15.62C686.74 16.12 686.12 16.38 685.42 16.38C680.88 16.38 677.66 17.08 675.74 18.49C673.83 19.9 672.68 21.34 672.28 22.83C672.12 23.45 672.24 24 672.64 24.47C673.02 24.95 673.57 25.14 674.28 25.07C675.45 24.91 676.65 24.8 677.86 24.71C679.08 24.64 680.23 24.59 681.33 24.59C682.04 24.59 682.65 24.91 683.2 25.53C683.75 26.15 684.18 26.94 684.49 27.87C684.81 28.81 685.04 29.79 685.2 30.81C685.36 31.83 685.44 32.68 685.44 33.4C685.44 34.09 685.36 34.96 685.2 35.98C685.04 37 684.82 37.97 684.49 38.92C684.18 39.85 683.75 40.64 683.2 41.26C682.65 41.89 682.03 42.2 681.33 42.2C680.23 42.2 679.08 42.15 677.86 42.08C676.65 42 675.47 41.89 674.28 41.72C673.58 41.65 673.01 41.82 672.58 42.25C672.15 42.68 671.94 43.25 671.94 43.95C671.94 46.85 671.98 49.99 672.05 53.4C672.13 56.8 672.22 60.15 672.29 63.43C672.37 66.72 672.43 69.84 672.46 72.81C672.51 75.78 672.52 78.29 672.52 80.32C672.52 81.11 672.2 81.75 671.58 82.26C670.96 82.77 670.17 83.17 669.23 83.5C668.3 83.82 667.32 84.05 666.3 84.2C665.29 84.36 664.43 84.43 663.71 84.43C663 84.43 662.14 84.36 661.13 84.2C660.12 84.04 659.14 83.81 658.21 83.5C657.27 83.18 656.48 82.78 655.86 82.26C655.24 81.75 654.92 81.11 654.92 80.32C654.92 78.29 654.95 75.79 654.98 72.81C655.02 69.84 655.07 66.71 655.15 63.43C655.22 60.15 655.31 56.8 655.39 53.4C655.46 50 655.5 46.85 655.5 43.95C655.5 43.25 655.29 42.68 654.86 42.25C654.43 41.82 653.86 41.65 653.16 41.72C652.37 41.8 651.65 41.9 650.99 42.01C650.32 42.13 649.48 42.19 648.47 42.19C647.76 42.19 647.13 41.87 646.59 41.25C646.05 40.63 645.62 39.84 645.3 38.9C644.99 37.97 644.76 36.99 644.6 35.97C644.44 34.96 644.37 34.09 644.37 33.38C644.37 32.68 644.44 31.82 644.6 30.8C644.77 29.79 644.99 28.81 645.3 27.86C645.62 26.93 646.05 26.14 646.59 25.52C647.13 24.92 647.77 24.6 648.47 24.6Z" fill="#DE5922" fill-opacity="1.000000" fill-rule="nonzero"/>
	<path id="Vector" d="M815.38 14.9C819.77 14.9 823.87 15.47 827.7 16.6C831.53 17.74 834.86 19.27 837.7 21.2C840.54 23.14 842.8 25.45 844.48 28.14C846.16 30.83 847 33.78 847 36.98C847 40.94 846.16 44.24 844.48 46.89C842.8 49.54 840.54 51.69 837.7 53.32C834.86 54.96 831.52 56.12 827.7 56.8C823.87 57.48 819.77 57.81 815.38 57.81C812.2 57.81 809.3 57.61 806.68 57.18C804.05 56.76 801.96 56.34 800.41 55.92C799.55 55.75 798.93 55.85 798.54 56.23C798.15 56.61 798.05 57.13 798.22 57.81C798.48 58.82 798.95 59.92 799.64 61.09C800.33 62.28 801.32 63.36 802.61 64.38C803.9 65.39 805.58 66.23 807.64 66.9C809.71 67.58 812.29 67.92 815.38 67.92C817.79 67.92 819.88 67.72 821.64 67.35C823.41 66.97 824.94 66.48 826.23 65.89C827.52 65.3 828.64 64.63 829.59 63.87C830.53 63.12 831.39 62.35 832.17 61.6C833.37 60.43 834.88 59.83 836.69 59.83C837.72 59.83 838.73 60.05 839.72 60.47C840.71 60.89 841.59 61.46 842.37 62.17C843.14 62.89 843.79 63.73 844.31 64.7C844.82 65.67 845.08 66.74 845.08 67.92C845.08 69.52 844.43 71.2 843.14 72.96C841.85 74.73 839.96 76.37 837.46 77.89C834.97 79.41 831.87 80.65 828.18 81.61C824.47 82.58 820.22 83.07 815.4 83.07C810.07 83.07 805.26 82.25 800.95 80.6C796.65 78.96 793 76.62 789.99 73.6C786.97 70.56 784.65 66.97 783.03 62.8C781.39 58.64 780.57 54.03 780.57 48.98C780.57 43.93 781.39 39.31 783.03 35.15C784.66 30.99 786.99 27.38 789.99 24.36C793 21.32 796.65 18.99 800.95 17.35C805.23 15.72 810.06 14.9 815.38 14.9ZM800.42 42.05C802.06 42.38 804.26 42.79 807.01 43.24C809.76 43.7 812.56 43.93 815.39 43.93C819.61 43.93 823.13 43.32 825.97 42.1C828.81 40.89 830.23 39.17 830.23 36.99C830.23 34.81 828.81 33.09 825.97 31.88C823.13 30.66 819.6 30.05 815.39 30.05C812.47 30.05 809.97 30.34 807.91 30.93C805.85 31.52 804.15 32.25 802.81 33.14C801.48 34.02 800.47 34.97 799.78 35.98C799.09 36.99 798.62 37.96 798.36 38.88C798.19 39.56 798.29 40.21 798.68 40.84C799.07 41.48 799.65 41.87 800.42 42.05Z" fill="#DE5922" fill-opacity="1.000000" fill-rule="nonzero"/>
	<path id="Vector" d="M736.77 15.09C741.17 15.09 745.3 15.66 749.14 16.8C752.98 17.94 756.33 19.49 759.19 21.43C762.04 23.38 764.31 25.7 765.99 28.4C767.68 31.11 768.52 34.06 768.52 37.28C768.52 41.25 767.68 44.58 765.99 47.23C764.3 49.9 762.04 52.05 759.19 53.7C756.34 55.35 752.99 56.51 749.14 57.19C745.3 57.87 741.17 58.2 736.77 58.2C733.57 58.2 730.65 57.98 728.02 57.56C725.38 57.14 723.28 56.73 721.73 56.29C720.87 56.12 720.24 56.23 719.85 56.61C719.46 56.98 719.36 57.52 719.53 58.19C719.79 59.2 720.26 60.3 720.95 61.48C721.64 62.66 722.64 63.76 723.93 64.77C725.22 65.79 726.91 66.64 728.99 67.31C731.06 67.99 733.66 68.33 736.77 68.33C739.19 68.33 741.29 68.13 743.05 67.75C744.82 67.38 746.35 66.89 747.66 66.29C748.95 65.7 750.08 65.02 751.02 64.27C751.97 63.5 752.84 62.75 753.62 61.99C754.82 60.8 756.34 60.21 758.16 60.21C759.19 60.21 760.21 60.43 761.2 60.85C762.19 61.27 763.09 61.84 763.86 62.56C764.64 63.28 765.28 64.13 765.81 65.1C766.33 66.07 766.58 67.15 766.58 68.34C766.58 69.94 765.94 71.63 764.64 73.4C763.34 75.18 761.44 76.83 758.93 78.35C756.43 79.87 753.32 81.12 749.6 82.1C745.89 83.07 741.61 83.56 736.78 83.56C731.42 83.56 726.58 82.73 722.26 81.09C717.94 79.44 714.27 77.1 711.24 74.05C708.22 71 705.88 67.39 704.24 63.2C702.59 59.02 701.77 54.39 701.77 49.31C701.77 44.24 702.59 39.6 704.24 35.42C705.87 31.23 708.21 27.62 711.24 24.57C714.27 21.53 717.94 19.18 722.26 17.53C726.58 15.92 731.41 15.09 736.77 15.09ZM721.73 42.36C723.37 42.69 725.58 43.1 728.34 43.56C731.11 44.03 733.92 44.26 736.77 44.26C741 44.26 744.55 43.65 747.4 42.42C750.25 41.2 751.68 39.49 751.68 37.29C751.68 35.1 750.25 33.38 747.4 32.16C744.55 30.93 741.01 30.32 736.77 30.32C733.83 30.32 731.32 30.62 729.25 31.2C727.17 31.79 725.47 32.53 724.12 33.42C722.78 34.31 721.77 35.26 721.08 36.27C720.39 37.28 719.92 38.26 719.66 39.18C719.49 39.86 719.59 40.52 719.98 41.15C720.37 41.79 720.96 42.19 721.73 42.36Z" fill="#EE820B" fill-opacity="1.000000" fill-rule="nonzero"/>
</svg>
