<svg width="225.000000" height="463.000000" viewBox="0 0 225 463" fill="none" xmlns="http://www.w3.org/2000/svg" xmlns:xlink="http://www.w3.org/1999/xlink">
	<desc>
			Created with Pixso.
	</desc>
	<defs/>
	<path id="Vector" d="M23.47 306.14C20.63 305.62 6.23 302.51 0.84 288.89C-3.72 277.36 1.53 266.79 2.49 264.89C9.51 250.79 24.38 248.28 25.95 248.04C28.77 247.62 38.53 246.15 46.53 252.26C58.82 261.63 57.67 281.79 52.29 293.09C50.11 297.69 47.55 300.1 46.94 300.67C38.05 308.86 25.39 306.51 23.47 306.14Z" fill="#E8E3E3" fill-opacity="1.000000" fill-rule="nonzero"/>
	<path id="Vector" d="M7.41 238.36C3.32 236.69 2.59 227.84 4.11 221.94C6.3 213.54 14.03 207.45 19.75 207.63C20.41 207.64 22.2 207.7 23.87 208.89C26.43 210.71 26.96 213.96 27.15 215.2C28.65 224.39 14.09 241.09 7.41 238.36Z" fill="#E8E3E3" fill-opacity="1.000000" fill-rule="nonzero"/>
	<path id="Vector" d="M41.6 232.46C37.51 230.79 36.77 221.94 38.3 216.05C40.48 207.64 48.21 201.55 53.93 201.73C54.59 201.74 56.38 201.8 58.05 202.99C60.62 204.81 61.15 208.07 61.34 209.3C62.84 218.48 48.27 235.19 41.6 232.46Z" fill="#E8E3E3" fill-opacity="1.000000" fill-rule="nonzero"/>
	<path id="Vector" d="M69.17 253.52C65.08 251.84 64.35 243 65.87 237.1C68.06 228.69 75.79 222.6 81.5 222.78C82.16 222.8 83.95 222.85 85.63 224.04C88.19 225.86 88.72 229.12 88.91 230.35C90.41 239.54 75.84 256.25 69.17 253.52Z" fill="#E8E3E3" fill-opacity="1.000000" fill-rule="nonzero"/>
	<path id="Vector" d="M69.89 286.43C66.31 283.77 67.73 275.01 70.62 269.68C74.76 262.09 83.72 258.11 89.22 259.72C89.86 259.91 91.58 260.41 92.9 261.98C94.95 264.39 94.67 267.69 94.59 268.94C93.82 278.19 75.7 290.75 69.89 286.43Z" fill="#E8E3E3" fill-opacity="1.000000" fill-rule="nonzero"/>
	<path id="Vector" d="M153.81 462.41C150.96 461.88 136.56 458.77 131.18 445.16C126.62 433.62 131.87 423.06 132.82 421.15C139.85 407.05 154.72 404.54 156.29 404.31C159.1 403.88 168.87 402.42 176.86 408.52C189.15 417.9 188.01 438.05 182.63 449.35C180.44 453.96 177.89 456.36 177.27 456.94C168.39 465.12 155.73 462.76 153.81 462.41Z" fill="#E8E3E3" fill-opacity="1.000000" fill-rule="nonzero"/>
	<path id="Vector" d="M137.75 394.63C133.66 392.95 132.92 384.11 134.45 378.21C136.63 369.8 144.36 363.71 150.08 363.89C150.74 363.91 152.53 363.96 154.2 365.15C156.77 366.97 157.3 370.23 157.49 371.46C158.98 380.64 144.42 397.36 137.75 394.63Z" fill="#E8E3E3" fill-opacity="1.000000" fill-rule="nonzero"/>
	<path id="Vector" d="M171.93 388.73C167.84 387.06 167.11 378.21 168.63 372.31C170.82 363.91 178.55 357.82 184.27 357.99C184.93 358.01 186.72 358.07 188.39 359.25C190.96 361.07 191.48 364.33 191.67 365.56C193.17 374.75 178.61 391.46 171.93 388.73Z" fill="#E8E3E3" fill-opacity="1.000000" fill-rule="nonzero"/>
	<path id="Vector" d="M199.51 409.78C195.41 408.11 194.68 399.26 196.21 393.37C198.39 384.96 206.12 378.87 211.84 379.05C212.5 379.06 214.29 379.12 215.96 380.31C218.53 382.13 219.06 385.38 219.25 386.62C220.74 395.8 206.18 412.5 199.51 409.78Z" fill="#E8E3E3" fill-opacity="1.000000" fill-rule="nonzero"/>
	<path id="Vector" d="M200.22 442.69C196.65 440.03 198.07 431.28 200.96 425.95C205.09 418.35 214.05 414.37 219.55 415.99C220.2 416.18 221.92 416.68 223.24 418.25C225.29 420.65 225.01 423.95 224.92 425.2C224.16 434.46 206.03 447 200.22 442.69Z" fill="#E8E3E3" fill-opacity="1.000000" fill-rule="nonzero"/>
	<path id="Vector" d="M54.81 104.41C51.97 103.88 37.57 100.77 32.18 87.16C27.62 75.63 32.87 65.06 33.83 63.16C40.85 49.06 55.72 46.55 57.29 46.31C60.11 45.89 69.87 44.42 77.87 50.52C90.16 59.9 89.01 80.06 83.63 91.35C81.45 95.96 78.89 98.37 78.28 98.94C69.41 107.13 56.75 104.78 54.81 104.41Z" fill="#E8E3E3" fill-opacity="1.000000" fill-rule="nonzero"/>
	<path id="Vector" d="M38.77 36.63C34.68 34.96 33.94 26.11 35.47 20.21C37.65 11.81 45.38 5.72 51.1 5.89C51.76 5.91 53.55 5.97 55.22 7.15C57.79 8.97 58.32 12.23 58.51 13.46C60 22.66 45.44 39.36 38.77 36.63Z" fill="#E8E3E3" fill-opacity="1.000000" fill-rule="nonzero"/>
	<path id="Vector" d="M72.95 30.73C68.86 29.06 68.13 20.21 69.65 14.31C71.85 5.91 79.58 -0.18 85.3 0C85.96 0.01 87.75 0.07 89.42 1.26C91.99 3.08 92.52 6.33 92.71 7.57C94.19 16.75 79.63 33.46 72.95 30.73Z" fill="#E8E3E3" fill-opacity="1.000000" fill-rule="nonzero"/>
	<path id="Vector" d="M100.53 51.79C96.43 50.11 95.7 41.27 97.23 35.37C99.41 26.96 107.14 20.87 112.86 21.05C113.52 21.06 115.31 21.12 116.98 22.31C119.55 24.13 120.08 27.39 120.27 28.62C121.76 37.8 107.2 54.51 100.53 51.79Z" fill="#E8E3E3" fill-opacity="1.000000" fill-rule="nonzero"/>
	<path id="Vector" d="M101.25 84.69C97.67 82.04 99.09 73.28 101.98 67.95C106.11 60.35 115.08 56.38 120.57 57.99C121.22 58.18 122.94 58.68 124.26 60.25C126.31 62.66 126.03 65.96 125.94 67.21C125.18 76.46 107.05 89.02 101.25 84.69Z" fill="#E8E3E3" fill-opacity="1.000000" fill-rule="nonzero"/>
</svg>
