<svg width="387.000000" height="289.000000" viewBox="0 0 387 289" fill="none" xmlns="http://www.w3.org/2000/svg" xmlns:xlink="http://www.w3.org/1999/xlink">
	<desc>
			Created with Pixso.
	</desc>
	<defs/>
	<path id="Vector" d="M89.47 89.52C89.07 88.58 88.66 87.63 88.26 86.69C87.21 84.23 83.42 83.47 81.29 84.83C78.74 86.46 78.3 89.16 79.43 91.8C82.3 98.5 85.19 105.19 88.06 111.89C88.46 112.84 88.87 113.78 89.27 114.72C90.32 117.18 94.11 117.94 96.24 116.59C98.79 114.95 99.23 112.25 98.1 109.62C95.23 102.91 92.35 96.21 89.47 89.52Z" fill="#000000" fill-opacity="1.000000" fill-rule="nonzero"/>
	<path id="Vector" d="M132.93 71.32C130.16 71.42 127.82 73.54 127.81 76.4C127.77 84.78 127.73 93.15 127.69 101.53C127.69 102.7 127.67 103.87 127.67 105.06C127.66 107.73 130 110.3 132.75 110.18C135.52 110.07 137.86 107.95 137.87 105.1C137.91 96.72 137.95 88.34 137.99 79.96C137.99 78.79 138.01 77.62 138.01 76.44C138.01 73.78 135.68 71.21 132.93 71.32Z" fill="#000000" fill-opacity="1.000000" fill-rule="nonzero"/>
	<path id="Vector" d="M176.24 107.85C180.07 101.33 183.9 94.82 187.71 88.3C188.26 87.37 188.81 86.44 189.36 85.51C190.72 83.21 190 79.82 187.57 78.53C185.14 77.22 182.02 77.86 180.59 80.32C176.76 86.84 172.93 93.35 169.11 99.87C168.57 100.8 168.02 101.73 167.46 102.66C166.11 104.96 166.82 108.35 169.26 109.64C171.68 110.95 174.79 110.31 176.24 107.85Z" fill="#000000" fill-opacity="1.000000" fill-rule="nonzero"/>
	<path id="Vector" d="M386.76 153.71C385.96 146.81 382.92 140.79 377.33 136.56C373.15 133.39 368.06 131.96 362.93 131.36C360.15 131.04 357.32 131.09 354.58 131.75C350.53 132.7 346.78 134.91 343.35 137.18C338.18 140.62 333.25 144.43 328.33 148.2C327.14 149.1 325.96 150.02 324.79 150.93C332.26 137.66 339.92 124.5 347.92 111.53C350.96 106.57 353.81 101.56 356.33 96.31C359.3 90.14 362.01 83.85 365.15 77.77C367.96 72.36 371.29 67.26 373.42 61.52C375.51 55.87 375.84 49.93 374.71 44.04C373.55 38.02 370.1 32.13 364.38 29.46C359.38 27.13 353.86 27.09 348.74 28.67C349.06 25.84 349.05 22.97 348.55 20.11C347.5 13.99 343.41 8.82 338.3 5.49C331.65 1.16 323.35 0.83 316.25 4.18C313.98 5.24 311.89 6.74 310.06 8.48C309.95 8.27 309.84 8.06 309.72 7.86C306.33 2.26 299.71 -0.19 293.43 -0.46C289.78 -0.64 286.23 0.13 282.93 1.7C279.75 3.22 277 5.67 274.51 8.11C270.15 12.42 266.11 17.04 262.73 22.14C260.19 18.05 256.07 15.11 251.56 13.47C247.18 11.88 241.78 11.61 237.36 13.18C232.36 14.95 229.14 18.7 226.23 22.97C222.41 28.56 218.91 34.39 215.31 40.12C212.54 44.54 209.86 47.87 206.77 53.84C205.69 55.95 204.87 57.71 204.32 58.92C203.81 58.43 203.07 57.85 202.09 57.37C200.19 56.44 198.41 56.4 197.48 56.44C194.32 45.84 188.18 35.76 178.82 29.66C179.35 27.83 178.74 25.29 178.21 23.18C177.3 19.56 175.51 17.01 174.35 15.63C172.2 16.33 169.18 17.55 166 19.76C162.97 21.86 161.04 23.19 160.67 24.63C160.57 24.63 160.49 24.63 160.4 24.63C153.99 24.93 147.93 26.81 142.08 29.36C137.37 31.42 132.98 34.07 128.98 37.25C126.81 35.95 123.59 34.36 119.46 33.43C116.57 32.78 114 32.63 111.97 32.66C110.75 30.08 108.92 26.86 106.2 23.56C104.19 21.13 102.16 19.22 100.37 17.74C98.9 19.62 97.18 22.16 95.69 25.37C93.98 29.08 93.13 32.47 92.7 35.04C89.46 36.66 84.38 39.71 79.63 45.05C74.4 50.93 71.96 56.93 70.8 60.49C67.04 60.15 63.26 60.32 59.52 61.12C57.34 61.58 55.25 62.29 53.25 63.18C51.65 61.78 49.48 60.12 46.68 58.62C43.78 57.06 41.09 56.17 39 55.63C38.5 57.86 37.97 60.89 37.78 64.5C37.49 70.39 37.33 73.54 38.91 74.55C36.2 78.07 34.02 82.02 32.33 86.13C26.2 100.95 30.91 117.69 40.04 130.16C45.37 137.44 52.1 143.49 60.07 147.65C59.18 152.26 58.86 157.01 59.19 161.67C59.92 171.8 63.47 181.24 69.67 189.29C71.06 191.11 72.61 192.8 74.24 194.38C64.51 205.78 54.79 217.17 45.05 228.56C44.68 228.81 44.32 229.09 44 229.43C39.26 234.38 34.5 239.34 29.75 244.29C22.16 252.2 14.58 260.1 6.98 268.01C5.23 269.85 3.46 271.68 1.7 273.52C-0.7 276.03 -0.98 280.46 1.7 282.92C4.31 285.31 8.54 285.6 11.1 282.92C15.85 277.97 20.61 273.01 25.36 268.06C32.95 260.15 40.53 252.25 48.13 244.34C49.88 242.51 51.65 240.67 53.41 238.83C53.7 238.53 53.96 238.2 54.19 237.84C54.95 237.81 55.72 237.81 56.48 237.82C57.31 237.84 58.15 237.88 59 237.94C59.42 237.97 59.81 238.01 60.23 238.05C60.44 238.08 60.64 238.09 60.85 238.12C60.91 238.12 61.12 238.16 61.28 238.17C61.42 238.2 61.58 238.22 61.64 238.22C61.86 238.26 62.08 238.3 62.3 238.34C62.75 238.42 63.21 238.52 63.64 238.61C64.74 238.85 65.83 239.11 66.89 239.43C67.86 239.73 68.82 240.05 69.78 240.4C70.17 240.55 70.57 240.72 70.97 240.87C71.14 240.95 71.32 241.03 71.49 241.11C73.1 241.85 74.67 242.69 76.17 243.62C76.85 244.03 77.5 244.47 78.15 244.93C78.45 245.12 78.72 245.32 79 245.54C79.19 245.67 80.21 246.34 79.58 245.95C78.95 245.58 79.88 246.2 80.08 246.36C80.32 246.56 80.56 246.76 80.8 246.97C81.33 247.43 81.84 247.89 82.34 248.37C83.95 249.89 85.45 251.52 86.82 253.26C88.49 255.36 92.3 255.16 94.03 253.29C96.08 251.07 95.84 248.32 94.06 246.08C85.6 235.38 72.62 228.77 59.06 227.76C60.63 225.92 62.18 224.1 63.75 222.27C64.43 222.37 65.13 222.36 65.87 222.17C67.01 221.88 68.19 221.76 69.34 221.48C69.14 221.53 68.98 221.57 68.86 221.6C69.07 221.55 69.36 221.49 69.52 221.48C69.85 221.45 70.2 221.43 70.53 221.4C71.52 221.33 72.51 221.32 73.5 221.35C74.46 221.37 75.41 221.45 76.37 221.55C76.38 221.55 76.38 221.55 76.4 221.55C76.66 221.59 76.94 221.64 77.21 221.69C77.66 221.77 78.11 221.88 78.56 221.97C79.79 222.25 81.01 222.61 82.2 223.05C82.59 223.2 82.98 223.36 83.38 223.5C82.2 223.05 83.82 223.72 84.03 223.82C85.72 224.65 87.33 225.6 88.84 226.71C88.94 226.77 89.03 226.84 89.12 226.91C89.56 227.24 89.5 227.19 88.91 226.72C89.26 226.87 89.63 227.31 89.92 227.54C90.47 228.01 90.99 228.49 91.5 228.98C92.42 229.87 93.29 230.82 94.1 231.81C94.18 231.91 94.26 232.01 94.32 232.11C94.54 232.4 94.74 232.68 94.93 232.97C96.44 235.16 99.46 236.39 101.9 234.83C104.08 233.44 105.37 230.22 103.77 227.86C100 222.37 94.89 217.69 88.84 214.85C83.9 212.52 78.56 211.28 73.19 211.18C74.18 210.02 75.17 208.86 76.16 207.7C78.46 207.04 80.8 206.53 83.18 206.16C83.25 206.15 83.3 206.15 83.35 206.14C83.35 206.14 83.35 206.14 83.37 206.14C83.84 206.08 84.32 206.03 84.8 205.99C85.89 205.9 86.98 205.83 88.07 205.79C90.43 205.72 92.78 205.8 95.13 206.06C95.36 206.08 95.59 206.11 95.81 206.14C95.88 206.15 96.12 206.17 96.29 206.2C96.48 206.23 96.72 206.27 96.77 206.28C97.09 206.33 97.41 206.39 97.71 206.44C99.07 206.68 100.4 206.99 101.73 207.33C103.94 207.92 106.08 208.66 108.19 209.49C108.23 209.5 108.26 209.51 108.3 209.53C108.47 209.61 108.65 209.67 108.82 209.75C109.28 209.96 109.75 210.18 110.21 210.4C111.11 210.83 111.97 211.29 112.83 211.77C114.43 212.66 115.99 213.65 117.49 214.7C117.86 214.96 118.22 215.22 118.59 215.5C118.67 215.55 118.9 215.72 119.1 215.88C119.28 216.04 119.63 216.31 119.74 216.39C120.03 216.63 120.31 216.87 120.59 217.11C121.53 217.92 122.44 218.75 123.33 219.63C125.23 221.51 128.66 221.71 130.53 219.66C132.39 217.65 132.59 214.45 130.56 212.45C118.94 200.95 102.5 194.62 86.17 195.7C86.26 195.6 86.36 195.52 86.44 195.42C87.31 194.38 88.26 193.41 89.27 192.49C89.62 192.19 89.97 191.89 90.32 191.59C90.35 191.56 90.37 191.53 90.4 191.52C90.41 191.51 90.43 191.51 90.45 191.49C91.21 190.96 91.97 190.44 92.77 189.98C93.54 189.53 94.32 189.14 95.13 188.77C95.17 188.77 95.96 188.43 96.01 188.42C96.61 188.21 97.22 188.02 97.83 187.85C98.79 187.58 99.78 187.42 100.75 187.22C100.95 187.2 101.16 187.18 101.36 187.16C101.85 187.12 102.36 187.09 102.85 187.08C103.74 187.05 104.63 187.07 105.52 187.12C106.05 187.15 106.57 187.21 107.09 187.25C107.13 187.25 107.16 187.25 107.18 187.27C107.21 187.27 107.22 187.27 107.24 187.28C108.8 187.56 110.36 187.9 111.89 188.37C112.53 188.57 113.17 188.78 113.79 189.02C114.28 189.21 116.08 190.11 114.34 189.21C114.95 189.53 115.59 189.78 116.2 190.1C118.57 191.33 121.84 190.82 123.18 188.3C124.43 185.97 123.91 182.62 121.38 181.32C115.63 178.33 108.95 176.6 102.45 176.89C94.24 177.26 86.44 180.71 80.72 186.56C79.87 185.71 79.04 184.83 78.27 183.91C77.94 183.53 77.62 183.12 77.3 182.72C77.26 182.66 77.25 182.65 77.22 182.62C77.2 182.58 77.17 182.56 77.13 182.49C76.48 181.57 75.83 180.66 75.24 179.7C74.68 178.81 74.16 177.9 73.67 176.99C73.41 176.49 73.15 175.99 72.91 175.48C72.81 175.26 72.7 175.03 72.59 174.8C72.57 174.74 72.34 174.25 72.25 174.03C72.2 173.91 72.16 173.79 72.14 173.78C72.02 173.49 71.92 173.18 71.8 172.89C71.61 172.37 71.42 171.85 71.25 171.33C70.89 170.26 70.59 169.15 70.31 168.05C70.07 167.07 69.85 166.07 69.68 165.06C69.6 164.6 69.54 164.15 69.47 163.7C69.44 163.43 69.42 163.17 69.39 162.92C69.04 159.41 69.1 155.87 69.51 152.37C69.52 152.26 69.54 152.16 69.55 152.06C69.54 152.13 69.52 152.21 69.51 152.26C69.52 152.17 69.54 152.06 69.55 151.97C69.55 151.96 69.55 151.95 69.55 151.92C69.62 151.33 69.6 151.55 69.56 151.84C69.6 151.61 69.63 151.39 69.67 151.16C69.78 150.51 69.89 149.86 70.03 149.21C70.24 148.2 70.48 147.2 70.75 146.21C71.28 144.26 70.47 141.33 68.43 140.44C65.28 139.06 62.25 137.4 59.42 135.44C58.98 135.14 58.54 134.83 58.11 134.51C57.99 134.43 57.87 134.35 57.75 134.26C57.7 134.22 57.63 134.17 57.51 134.07C56.49 133.25 55.49 132.4 54.52 131.49C52.67 129.78 50.99 127.9 49.42 125.93C49.34 125.81 48.94 125.31 48.84 125.18C48.51 124.72 48.19 124.29 47.87 123.82C47.06 122.65 46.28 121.45 45.55 120.23C44.63 118.69 43.79 117.12 43.03 115.5C42.87 115.15 42.73 114.8 42.57 114.46C42.53 114.31 42.3 113.81 42.26 113.73C41.86 112.72 41.52 111.69 41.2 110.65C40.88 109.63 40.6 108.59 40.37 107.54C40.27 107.06 40.16 106.59 40.08 106.11C40.03 105.8 39.97 105.5 39.92 105.19C39.91 105.07 39.81 104.36 39.8 104.3C39.79 104.19 39.79 104.11 39.79 104.1C39.76 103.85 39.75 103.59 39.72 103.33C39.68 102.81 39.66 102.29 39.64 101.77C39.6 100.43 39.63 99.1 39.75 97.75C39.77 97.48 39.8 97.21 39.83 96.93C39.83 96.9 39.91 96.36 39.93 96.17C39.95 96.09 39.96 96.04 39.96 96C40.03 95.65 40.09 95.29 40.16 94.95C40.35 94.04 40.57 93.14 40.84 92.25C41 91.69 41.18 91.15 41.38 90.6C41.53 90.19 41.69 89.76 41.86 89.35C41.92 89.23 41.96 89.11 42.01 88.98C42.02 88.95 42.04 88.92 42.05 88.9C42.62 87.62 43.25 86.39 43.94 85.16C44.71 83.81 45.55 82.49 46.46 81.23C46.72 80.88 47.79 79.78 46.68 80.92C46.94 80.65 47.16 80.32 47.41 80.03C48.05 79.27 48.71 78.55 49.42 77.86C50.15 77.14 50.91 76.45 51.69 75.8C51.84 75.68 51.98 75.57 52.13 75.45C52.14 75.44 52.14 75.44 52.16 75.43C52.65 75.09 53.13 74.75 53.62 74.42C54.6 73.79 55.63 73.21 56.68 72.7C56.88 72.61 57.09 72.5 57.3 72.41C57.34 72.4 57.38 72.37 57.43 72.36C57.41 72.36 57.39 72.37 57.37 72.37C57.41 72.37 57.45 72.34 57.47 72.34C57.58 72.3 57.69 72.28 57.78 72.26C58.21 72.12 58.63 71.89 59.04 71.76C60.59 71.25 62.14 70.96 63.74 70.63C63.78 70.61 63.79 70.61 63.82 70.61C63.86 70.61 63.9 70.61 63.95 70.6C64.39 70.56 64.81 70.52 65.25 70.49C65.95 70.45 66.64 70.43 67.33 70.44C68.56 70.44 69.78 70.55 71 70.67C71.18 70.69 71.38 70.73 71.57 70.76C72.1 70.85 72.65 70.96 73.18 71.08C75.68 71.64 78.95 70.37 79.47 67.54C79.92 65.07 80.64 62.67 81.56 60.32C81.73 59.93 81.92 59.55 82.1 59.16C82.43 58.49 82.79 57.82 83.18 57.17C83.62 56.4 84.1 55.65 84.6 54.92C84.8 54.62 85.03 54.34 85.23 54.03C85.31 53.92 85.36 53.86 85.4 53.8C85.49 53.68 85.6 53.57 85.69 53.45C86.53 52.45 87.41 51.49 88.35 50.6C88.88 50.09 89.44 49.59 90 49.12C90.19 48.96 90.37 48.82 90.56 48.67C90.63 48.62 90.67 48.59 90.72 48.55C90.79 48.5 90.85 48.45 90.92 48.41C92.79 47.05 94.8 45.87 96.89 44.88C97.3 44.68 97.74 44.52 98.15 44.31C96.58 45.11 98.17 44.31 98.59 44.15C99.35 43.87 100.11 43.6 100.88 43.38C101.88 43.07 102.9 42.81 103.92 42.61C104.3 42.54 104.68 42.47 105.05 42.41C105.11 42.39 105.15 42.39 105.2 42.38C105.21 42.38 105.23 42.38 105.25 42.38C105.61 42.35 105.97 42.3 106.34 42.28C107.99 42.14 109.66 42.14 111.3 42.25C111.9 42.29 112.63 42.25 113.21 42.43C113.27 42.45 113.33 42.46 113.37 42.47C113.61 42.51 113.84 42.55 114.08 42.61C115.44 42.86 116.78 43.21 118.11 43.62C118.71 43.8 119.32 44.02 119.91 44.23C120.32 44.38 122.16 45.23 120.6 44.47C121.58 44.95 122.58 45.37 123.54 45.89C124.66 46.49 125.73 47.16 126.77 47.89C128.66 49.22 131.37 48.57 132.95 47.12C133.78 46.36 134.63 45.61 135.51 44.91C135.68 44.76 135.87 44.63 136.04 44.48C136.07 44.47 136.08 44.46 136.11 44.43C136.12 44.42 136.13 44.4 136.16 44.39C136.78 43.94 137.41 43.49 138.05 43.05C140.45 41.41 143.01 40.01 145.65 38.8C146.38 38.46 147.14 38.17 147.87 37.82C146.35 38.54 147.94 37.81 148.33 37.65C149.02 37.38 149.7 37.13 150.4 36.89C152.97 36.01 155.69 35.23 158.41 34.91C158.63 34.89 158.91 34.87 158.99 34.85C159.28 34.83 159.56 34.8 159.86 34.79C160.65 34.74 161.45 34.72 162.26 34.74C163.07 34.75 163.88 34.81 164.7 34.88C164.72 34.88 164.74 34.88 164.76 34.88C165.24 34.96 165.71 35.05 166.17 35.16C167.21 35.4 168.23 35.69 169.23 36.06C169.3 36.09 169.43 36.16 169.56 36.22C169.62 36.21 169.72 36.24 169.94 36.34C169.98 36.36 170.02 36.38 170.04 36.4C170.07 36.4 170.1 36.41 170.11 36.41C170.1 36.41 170.08 36.41 170.07 36.41C170.6 36.68 171.13 36.93 171.66 37.22C172.68 37.78 173.65 38.39 174.58 39.07C174.76 39.2 174.94 39.34 175.12 39.47C175.14 39.47 175.14 39.48 175.14 39.48C175.65 39.92 176.17 40.36 176.68 40.83C177.61 41.69 178.5 42.61 179.34 43.56C179.72 44 180.1 44.47 180.48 44.92C180.51 44.95 180.52 44.96 180.53 44.99C180.76 45.29 180.99 45.6 181.2 45.91C182.93 48.37 184.4 51 185.64 53.74C185.77 54.03 185.89 54.31 186.01 54.6C186.08 54.78 186.16 54.98 186.17 55.03C186.45 55.76 186.73 56.5 186.98 57.26C187.54 58.92 188.01 60.6 188.42 62.3C188.96 64.62 191.12 65.88 193.33 66.07C193.93 66.12 194.52 66.17 195.12 66.25C195.16 66.25 195.22 66.26 195.25 66.26C195.61 66.33 195.96 66.37 196.32 66.44C198.05 66.74 199.76 67.16 201.45 67.65C202.38 67.93 203.29 68.23 204.2 68.57C204.67 68.74 205.12 68.92 205.57 69.1C205.88 69.23 206.19 69.38 206.48 69.51C208.01 70.23 209.5 71.04 210.93 71.94C211.49 72.29 212.04 72.65 212.58 73.02C212.93 73.26 213.29 73.51 213.63 73.76C213.81 73.9 213.99 74.03 214.16 74.16C216.09 75.77 217.95 77.41 219.66 79.26C220.14 79.79 220.61 80.32 221.07 80.87C221.31 81.15 221.53 81.44 221.76 81.73C221.76 81.73 221.77 81.74 221.77 81.76C221.76 81.74 221.76 81.74 221.76 81.72C221.37 81.01 221.82 81.82 221.94 81.98C222.91 83.3 223.81 84.68 224.6 86.12C224.98 86.78 225.33 87.48 225.67 88.17C225.8 88.45 226.03 89.24 226.25 89.47C226.32 89.64 226.39 89.82 226.45 89.99C227.08 91.66 227.57 93.39 227.94 95.14C228.02 95.55 228.1 95.97 228.18 96.39C228.22 96.62 228.25 96.86 228.3 97.1C228.41 97.69 228.25 96.64 228.25 96.65C228.49 97.48 228.43 98.51 228.47 99.36C228.55 101.12 228.51 102.87 228.34 104.62C228.31 104.92 228.27 105.24 228.23 105.55C228.18 105.73 228.17 105.99 228.14 106.16C227.98 107.06 227.79 107.95 227.58 108.85C227.16 110.59 226.62 112.3 225.97 113.97C225.91 114.14 225.84 114.31 225.77 114.48C225.56 115.03 225.53 114.95 225.59 114.79C225.41 115.16 225.23 115.73 225.18 115.84C224.74 116.76 224.27 117.65 223.78 118.53C222.77 120.32 221.62 122.02 220.4 123.67C220.28 123.83 220.23 123.91 220.19 123.95C220.12 124.03 220.04 124.1 219.99 124.18C219.66 124.58 219.32 124.98 218.98 125.38C218.23 126.23 217.46 127.04 216.66 127.84C215.91 128.59 215.12 129.33 214.31 130.03C213.9 130.39 213.49 130.73 213.07 131.08C212.91 131.21 212.75 131.33 212.6 131.47C212.53 131.52 212.48 131.56 212.44 131.6C212.41 131.63 212.38 131.64 212.34 131.67C210.47 133.08 209.38 135.02 209.98 137.41C210.56 139.79 211.31 142.37 211.43 144.83C211.43 144.72 211.41 144.64 211.41 144.58C211.43 144.76 211.44 144.96 211.44 145.04C211.47 145.31 211.49 145.58 211.52 145.84C211.58 146.52 211.64 147.21 211.69 147.89C211.8 149.46 211.84 151.04 211.81 152.61C211.78 154.13 211.7 155.63 211.57 157.13C211.53 157.6 211.48 158.06 211.43 158.53C211.41 158.59 211.41 158.62 211.41 158.67C211.28 159.6 211.12 160.52 210.93 161.44C210.51 163.55 209.95 165.64 209.26 167.69C209 168.45 208.71 169.18 208.42 169.92C208.41 169.96 208.39 169.99 208.38 170.02C208.18 170.44 207.99 170.88 207.78 171.31C207.04 172.86 206.2 174.38 205.32 175.86C203.15 179.49 200.73 182.96 198.33 186.44C194.86 191.47 191.36 196.48 188.01 201.6C185.87 204.87 183.79 208.18 181.73 211.51C176.53 207.57 171.33 203.64 166.13 199.7C165.15 198.95 163.34 198.86 162.21 199.17C161.03 199.49 159.74 200.39 159.15 201.49C158.53 202.68 158.19 204.11 158.62 205.42C159.04 206.76 159.83 207.62 160.95 208.48C166.09 212.37 171.24 216.27 176.39 220.16C171.19 228.54 165.84 236.83 160.57 245.16C153.15 256.93 145.79 268.74 138.47 280.58C137.06 282.85 137.87 286.28 140.27 287.56C142.74 288.89 145.76 288.18 147.25 285.76C157.05 269.89 167.08 254.17 177.01 238.38C180.35 241.4 183.94 244.09 187.75 246.41C186.68 259.81 189.15 273.22 194.71 285.47C195.81 287.91 199.51 288.72 201.68 287.33C204.19 285.72 204.72 282.97 203.54 280.37C203.38 280.01 203.22 279.65 203.06 279.29C203.02 279.19 202.85 278.77 202.78 278.61C202.54 278.02 202.32 277.44 202.09 276.85C201.48 275.23 200.93 273.6 200.45 271.93C199.44 268.48 198.69 264.95 198.19 261.38C198.17 261.2 198.13 260.86 198.11 260.67C198.07 260.3 198.03 259.94 198.01 259.57C197.94 258.78 197.87 258 197.82 257.2C197.73 255.58 197.68 253.95 197.69 252.35C197.69 252.05 197.71 251.76 197.71 251.47C198.47 251.79 199.23 252.11 199.99 252.4C202.49 253.34 205.69 251.39 206.28 248.86C206.96 245.96 205.41 243.58 202.74 242.57C202.3 242.4 201.85 242.23 201.41 242.05C201.32 242.01 201.08 241.92 200.85 241.83C200.71 241.76 200.31 241.59 200.28 241.57C200.07 241.48 199.84 241.37 199.63 241.28C199.18 241.07 198.74 240.86 198.29 240.64C196.15 239.59 194.06 238.42 192.05 237.15C191.04 236.51 190.04 235.84 189.07 235.14C188.63 234.83 188.21 234.51 187.78 234.19C187.62 234.07 187.42 233.94 187.26 233.81C187.22 233.77 187.18 233.73 187.14 233.7C185.59 232.45 184.1 231.12 182.65 229.74C182.61 229.7 182.54 229.66 182.5 229.62C182.9 228.97 183.31 228.33 183.73 227.68C187.46 221.68 191.11 215.63 194.92 209.69C198.38 204.3 202 199.02 205.64 193.77C210.4 186.89 215.33 180.08 218.42 172.24C222.66 161.43 222.85 149.31 220.56 138C226.2 133.19 230.97 127.44 234.14 120.68C237.6 113.29 239.46 105.03 238.5 96.86C238.42 96.15 238.29 95.45 238.17 94.75C238.39 94.51 238.61 94.24 238.79 93.95C249.1 78.02 258.14 60.87 263.71 42.65C264.32 40.67 264.82 38.66 265.12 36.64C265.99 36.24 266.73 35.6 267.18 34.68C268.82 31.38 270.69 28.22 272.82 25.21C273.26 24.6 273.71 23.99 274.18 23.38C274.19 23.37 274.19 23.37 274.19 23.35C274.22 23.33 274.22 23.31 274.26 23.27C274.55 22.91 274.83 22.57 275.12 22.22C275.93 21.25 276.77 20.31 277.64 19.38C279.92 16.93 282.26 14.58 284.79 12.39C284.91 12.31 285.06 12.18 285.11 12.14C285.4 11.93 285.69 11.73 286 11.54C286.64 11.13 287.3 10.79 287.98 10.44C288.01 10.43 288.02 10.41 288.05 10.4C288.37 10.29 288.7 10.17 289.03 10.07C289.38 9.96 289.71 9.88 290.06 9.8C290.23 9.76 290.39 9.73 290.56 9.69C290.56 9.68 290.61 9.67 290.75 9.67C290.76 9.67 290.79 9.65 290.8 9.65C290.8 9.65 290.8 9.65 290.79 9.65C290.92 9.65 291.05 9.63 291.19 9.63C291.48 9.62 291.77 9.6 292.06 9.6C292.81 9.59 293.54 9.64 294.27 9.69C294.31 9.69 294.56 9.75 294.68 9.75C294.87 9.77 295.06 9.81 295.24 9.85C295.97 10.01 296.7 10.2 297.42 10.45C297.53 10.49 297.64 10.53 297.74 10.57C297.97 10.69 298.23 10.79 298.45 10.9C298.75 11.06 299.06 11.25 299.35 11.44C299.44 11.5 299.54 11.57 299.63 11.64C299.99 12 300.35 12.45 300.72 12.79C300.84 13.01 300.96 13.22 301.08 13.43C301.12 13.55 301.16 13.67 301.2 13.79C301.27 14.02 301.32 14.24 301.36 14.47C301.39 14.95 301.43 15.43 301.41 15.92C301.4 16.62 301.36 17.31 301.28 18.01C301.28 18.03 301.28 18.06 301.27 18.09C301.2 18.5 301.13 18.9 301.05 19.31C300.64 21.38 300.08 23.43 299.47 25.45C298.62 28.22 297.64 30.96 296.6 33.67C295.97 35.29 295.34 36.92 294.67 38.53C294.32 39.38 293.97 40.21 293.62 41.06C293.53 41.28 293.43 41.5 293.34 41.72C293.34 41.73 293.27 41.88 293.22 42C293.17 42.13 293.1 42.29 293.09 42.3C292.95 42.61 292.82 42.91 292.69 43.22C286.89 56.57 280.18 69.46 273.19 82.22C266.85 93.82 260.61 105.47 254.54 117.21C253.58 119.06 252.64 120.89 251.69 122.74C250.48 125.11 250.96 128.38 253.49 129.72C255.8 130.96 259.18 130.46 260.47 127.93C266.97 115.26 273.63 102.66 280.47 90.17C287.7 76.93 294.79 63.63 300.87 49.8C303.85 43.02 306.77 36.16 309.03 29.08C309.95 26.2 310.79 23.21 311.25 20.17C312.74 20.01 314.1 19.18 315.1 17.82C315.53 17.31 315.99 16.81 316.47 16.33C317.02 15.77 317.61 15.27 318.21 14.76C318.34 14.67 318.47 14.58 318.62 14.48C319.11 14.15 319.63 13.83 320.16 13.54C320.6 13.29 321.07 13.07 321.52 12.86C321.54 12.85 321.56 12.85 321.59 12.83C321.8 12.77 322.01 12.69 322.22 12.62C322.84 12.42 323.46 12.26 324.09 12.14C324.31 12.1 324.56 12.04 324.82 12.01C325 12.01 325.22 12.02 325.31 12.01C326.07 11.98 326.81 12.04 327.57 12.08C327.64 12.08 327.7 12.08 327.76 12.08C328.05 12.13 328.38 12.23 328.62 12.3C329.26 12.46 329.88 12.69 330.51 12.87C330.55 12.89 330.57 12.9 330.61 12.9C330.99 13.09 331.37 13.26 331.75 13.46C332.29 13.75 332.82 14.08 333.34 14.43C333.51 14.55 333.7 14.67 333.87 14.79C333.91 14.83 333.97 14.88 334.05 14.95C334.26 15.13 335.81 16.82 336.41 17.42C336.27 17.21 336.19 17.01 336.59 17.59C336.61 17.62 336.64 17.65 336.65 17.63C336.64 17.63 336.63 17.62 336.61 17.62C336.76 17.82 336.89 18.03 337.01 18.25C337.2 18.54 338 19.6 337.92 19.93C337.93 19.91 337.49 18.75 337.81 19.68C337.93 20.01 338.05 20.33 338.14 20.68C338.34 21.36 338.47 22.04 338.62 22.73C338.65 22.89 338.67 22.97 338.69 23.02C338.69 23.21 338.69 23.38 338.69 23.47C338.73 24.07 338.74 24.67 338.73 25.27C338.71 25.88 338.69 26.48 338.63 27.09C338.61 27.41 338.63 27.89 338.51 28.19C338.54 27.99 338.57 27.78 338.61 27.58C338.57 27.83 338.53 28.07 338.49 28.33C338.02 31.02 337.22 33.67 336.28 36.25C336.04 36.92 335.77 37.57 335.52 38.22C335.43 38.46 335.32 38.68 335.23 38.92C335.22 38.94 335.22 38.95 335.22 38.96C335.2 39 335.18 39.04 335.15 39.1C334.59 40.33 334.03 41.56 333.43 42.77C332.38 44.91 331.27 47.02 330.15 49.14C327.42 54.28 324.7 59.42 321.96 64.55C316.05 75.64 310.11 86.7 304.13 97.75C296.76 111.37 289.32 124.96 281.84 138.51C280.55 140.85 281.16 144.18 283.63 145.5C286.01 146.77 289.24 146.19 290.61 143.7C304.11 119.27 317.41 94.72 330.53 70.09C333.39 64.72 336.25 59.35 339.11 53.96C341.32 49.8 343.47 45.59 345.24 41.21C345.88 41.13 346.51 40.92 347.09 40.55C347.72 40.15 348.35 39.76 349.02 39.42C349.4 39.22 349.8 39.03 350.19 38.84C350.2 38.83 350.22 38.83 350.23 38.83C351.4 38.39 352.76 37.86 354.03 37.73C354.18 37.73 354.4 37.73 354.54 37.73C354.86 37.7 355.19 37.69 355.51 37.69C355.92 37.69 357.05 37.55 357.41 37.78C357.21 37.75 357 37.71 356.8 37.69C356.98 37.71 357.17 37.75 357.34 37.78C357.65 37.83 357.94 37.91 358.25 37.99C358.54 38.07 358.83 38.17 359.13 38.26C359.25 38.3 359.34 38.33 359.4 38.35C359.42 38.35 359.42 38.37 359.43 38.37C359.96 38.66 360.48 38.96 361.01 39.28C361.07 39.32 361.12 39.35 361.17 39.36C361.36 39.52 361.53 39.74 361.67 39.85C361.82 40.01 362 40.19 362.14 40.36C362.22 40.44 362.29 40.53 362.37 40.61C362.72 41.04 362.66 40.96 362.21 40.37C362.54 40.47 363.02 41.61 363.19 41.9C363.42 42.3 363.61 42.73 363.81 43.14C363.86 43.31 363.93 43.47 363.98 43.64C364.29 44.56 364.54 45.51 364.72 46.46C364.86 47.09 364.95 47.73 365.04 48.37C365.04 48.42 365.04 48.49 365.06 48.57C365.07 48.86 365.1 49.16 365.11 49.46C365.15 50.32 365.15 51.2 365.1 52.08C365.08 52.35 365.04 52.65 365.03 52.93C365.03 53.01 365.02 53.07 365.02 53.13C365 53.17 365 53.19 364.99 53.23C364.87 53.91 364.74 54.59 364.58 55.25C364.23 56.69 363.77 58.1 363.22 59.48C363.14 59.67 363.07 59.89 362.98 60.08C362.94 60.15 362.92 60.21 362.89 60.27C362.62 60.85 362.33 61.44 362.05 62.02C361.45 63.21 360.81 64.38 360.16 65.53C358.7 68.14 357.21 70.72 355.85 73.38C352.93 79.14 350.35 85.06 347.56 90.88C345.08 96.04 342.33 100.99 339.32 105.85C334.68 113.37 330.16 120.96 325.72 128.59C319.48 139.31 313.41 150.11 307.44 160.97C294.07 157.57 279.59 159.09 267.38 165.56C256.51 171.33 247.9 181.11 242.89 192.31C241.47 195.47 240.18 198.71 239.35 202.09C238.71 204.67 240.15 207.74 242.89 208.38C245.51 208.99 248.5 207.62 249.18 204.85C249.76 202.49 250.56 200.19 251.48 197.94C251.49 197.9 251.52 197.86 251.53 197.81C251.56 197.76 251.57 197.72 251.58 197.69C251.8 197.2 252.02 196.72 252.25 196.24C252.73 195.23 253.23 194.25 253.78 193.26C255.02 191.02 256.4 188.83 257.93 186.77C258.07 186.57 258.25 186.39 258.38 186.17C258.43 186.12 258.47 186.06 258.53 186C258.99 185.43 259.46 184.87 259.95 184.33C260.92 183.24 261.94 182.17 263.01 181.16C264.07 180.15 265.19 179.22 266.33 178.29C266.47 178.18 266.61 178.08 266.73 177.98C267.02 177.77 267.32 177.57 267.61 177.36C268.3 176.87 269.02 176.4 269.74 175.96C271.24 175.03 272.81 174.18 274.4 173.42C274.79 173.24 275.19 173.06 275.57 172.88C275.57 172.88 275.72 172.81 275.85 172.76C276.03 172.69 276.37 172.54 276.44 172.52C277.49 172.1 278.55 171.73 279.63 171.4C281.59 170.79 283.58 170.31 285.59 169.95C286.01 169.87 286.44 169.8 286.86 169.74C286.94 169.72 287 169.71 287.06 169.71C287.17 169.7 287.29 169.68 287.4 169.67C288.34 169.57 289.28 169.49 290.23 169.43C292.14 169.33 294.07 169.33 295.99 169.42C296.82 169.46 297.65 169.53 298.49 169.6C298.85 169.64 299.22 169.68 299.58 169.72C299.64 169.74 299.72 169.74 299.79 169.75C300.07 169.79 300.34 169.84 300.6 169.88C300.08 170.28 299.56 170.68 299.04 171.07C297.18 172.48 295.29 173.87 293.42 175.27C291.28 176.85 289.96 179.74 291.56 182.24C292.91 184.35 296.24 185.8 298.53 184.1C308.22 176.93 317.7 169.5 327.09 161.93C329.1 160.31 331.11 158.7 333.14 157.13C333.37 156.96 333.59 156.77 333.83 156.6C333.95 156.51 334.15 156.36 334.24 156.28C334.94 155.75 335.63 155.23 336.33 154.71C337.69 153.69 339.05 152.66 340.42 151.65C344.38 148.7 348.37 145.68 352.72 143.31C353.38 142.96 354.05 142.64 354.72 142.32C354.68 142.33 354.66 142.33 354.62 142.34C354.68 142.33 354.75 142.3 354.82 142.28C354.87 142.25 354.92 142.22 354.98 142.2C355.07 142.16 355.16 142.12 355.24 142.1L355.26 142.1C355.67 141.96 356.08 141.83 356.51 141.71C357.17 141.52 357.86 141.44 358.51 141.27C358.34 141.31 358.21 141.35 358.09 141.37C358.26 141.35 358.43 141.32 358.58 141.31C359.78 141.25 360.97 141.31 362.16 141.41C362.54 141.45 362.94 141.55 363.33 141.55C363.18 141.55 363.06 141.55 362.96 141.55C363.14 141.56 363.34 141.57 363.49 141.6C364.51 141.78 365.52 142.02 366.51 142.33C367 142.48 367.48 142.66 367.97 142.84C367.94 142.81 367.92 142.8 367.88 142.77C367.92 142.8 367.96 142.82 368.01 142.85C368.09 142.88 368.15 142.9 368.23 142.93C368.37 142.98 368.45 143.02 368.47 143.06C368.58 143.1 368.67 143.14 368.75 143.18C369.23 143.42 369.71 143.67 370.18 143.95C370.4 144.09 371.05 144.41 371.48 144.7C371.49 144.75 371.56 144.84 371.75 145C371.97 145.19 372.18 145.39 372.4 145.59C372.82 146 373.23 146.43 373.63 146.88C373.67 146.92 373.74 147 373.82 147.06C373.81 147.05 373.81 147.05 373.78 147.04C374.01 147.25 374.19 147.62 374.35 147.89C374.79 148.57 375.11 149.28 375.5 149.99C375.51 150 375.51 150 375.51 150.02C375.63 150.38 375.76 150.72 375.88 151.08C376.07 151.67 376.23 152.26 376.35 152.86C376.41 153.16 376.47 153.45 376.52 153.74C376.59 154.11 376.63 154.21 376.65 154.17C376.69 154.7 376.68 155.43 376.68 155.6C376.72 156.65 376.69 157.72 376.61 158.77C376.59 159.17 376.44 159.68 376.47 160.1C376.45 160.18 376.44 160.27 376.43 160.35C376.19 161.63 375.87 162.89 375.42 164.13C375.36 164.29 375.3 164.45 375.23 164.62C375.04 164.98 374.88 165.35 374.68 165.71C374.26 166.51 373.75 167.25 373.23 167.98C373.22 168 373.22 168 373.22 168.01C373.19 168.04 373.17 168.06 373.13 168.1C372.85 168.41 372.58 168.73 372.3 169.02C371.64 169.72 370.93 170.39 370.19 171.03C369.83 171.35 369.46 171.65 369.07 171.95C368.94 172.05 368.78 172.16 368.65 172.28C368.71 172.22 368.74 172.2 368.79 172.16C367.96 172.77 367.1 173.37 366.23 173.94C362.13 176.65 357.85 179.09 353.69 181.71C348.1 185.22 342.69 189.01 337.52 193.12C334.15 195.79 330.92 198.63 328.01 201.79C325.87 204.1 323.91 206.57 321.89 208.99C315.38 216.8 307.69 223.32 299.8 229.69C298.61 230.66 297.4 231.61 296.19 232.57C295.57 233.05 294.95 233.53 294.34 234.01C294.3 234.03 294.24 234.09 294.18 234.13C293.81 234.41 293.43 234.7 293.05 234.98C290.81 236.65 288.53 238.29 286.17 239.82C283.81 241.36 281.36 242.81 278.85 244.11C277.7 244.7 276.54 245.27 275.38 245.79C275.01 245.95 274.66 246.11 274.31 246.26C274.26 246.28 274.23 246.3 274.19 246.31C273.49 246.61 272.77 246.87 272.06 247.13C269.16 248.2 266.19 249.07 263.18 249.78C261.6 250.14 260.01 250.46 258.41 250.72C257.94 250.8 257.48 250.87 257.01 250.94C257.04 250.94 256.44 251.02 256.2 251.04C255.93 251.07 255.6 251.11 255.61 251.11C255.02 251.18 254.42 251.23 253.82 251.28C248.13 251.77 242.4 251.64 236.73 250.95C236.51 250.92 236.28 250.9 236.05 250.87C236.04 250.87 236.04 250.87 236.03 250.87C235.52 250.79 235.02 250.72 234.52 250.63C233.46 250.46 232.4 250.26 231.35 250.05C228.74 249.53 225.71 250.75 225.06 253.58C224.47 256.11 225.79 259.31 228.59 259.87C240.92 262.32 253.58 262.45 265.87 259.62C270.06 258.65 274.09 257.31 277.98 255.66C278.05 255.83 278.1 256.02 278.19 256.19C282.82 265.82 288.18 275.07 294.22 283.88C295.72 286.07 298.74 287.29 301.19 285.74C303.37 284.34 304.66 281.12 303.05 278.77C297.02 269.98 291.68 260.75 287.06 251.15C291.03 248.89 294.84 246.32 298.53 243.54C304.14 239.31 309.64 234.91 314.98 230.35C318.81 227.07 322.52 223.62 325.92 219.89C330.72 214.62 334.87 208.89 340.22 204.13C342.13 202.42 344.11 200.82 346.13 199.25C346.25 199.15 346.39 199.05 346.47 198.99C346.8 198.74 347.13 198.49 347.46 198.25C348.18 197.72 348.89 197.2 349.62 196.68C351.04 195.66 352.48 194.67 353.93 193.7C358.61 190.56 363.47 187.72 368.26 184.75C372.02 182.42 375.84 179.95 378.98 176.8C382.17 173.61 384.51 169.68 385.73 165.34C386.84 161.68 387.21 157.58 386.76 153.71ZM42.59 114.4C42.57 114.35 42.54 114.3 42.51 114.25C42.22 113.57 42.47 114.11 42.59 114.4ZM249.38 23.55C249.38 23.56 249.28 23.52 249.16 23.47C249.3 23.52 249.38 23.55 249.38 23.55ZM238.57 23.91C239.18 23.38 238.9 23.75 238.51 23.96C238.54 23.94 238.55 23.92 238.57 23.91ZM236.49 26.06C236.47 26.09 236.31 26.26 236.2 26.41C236.28 26.26 236.39 26.13 236.49 26.06ZM248.38 55.08C248.07 55.8 248.39 55.03 248.5 54.8C248.46 54.89 248.42 54.99 248.38 55.08ZM255.35 34.35C255.32 34.42 255.28 34.52 255.24 34.66C254.47 36.96 254.22 38.78 254.14 39.28C253.93 40.71 252.99 43.19 251.13 48.18C250.52 49.83 249.88 51.46 249.22 53.09C249.02 53.57 248.83 54.03 248.63 54.51C248.59 54.6 248.55 54.7 248.51 54.79C247.99 55.73 247.64 56.8 247.2 57.78C243.37 66.26 238.94 74.47 234.08 82.42C233.19 80.68 232.17 79 231.05 77.37C231.07 77.37 231.07 77.36 231.08 77.36C233.01 76.12 233.13 72.67 233.22 69.95C233.35 66.21 232.32 63.27 231.6 61.62C229.34 61.7 226.09 62.06 222.44 63.3C220.8 63.86 219.47 64.31 218.42 64.78C217.95 64.44 217.48 64.12 217 63.8C215.59 62.87 214.12 62.06 212.62 61.3C214.55 57.7 216.28 54.89 217.44 53.09C222.72 44.81 227.94 38.83 231.53 33.52C233.78 30.21 235.96 26.8 235.96 26.8C236.01 26.72 236.08 26.62 236.15 26.52C236.19 26.48 236.24 26.41 236.31 26.32C236.61 25.96 236.9 25.59 237.22 25.24C237.52 24.92 237.82 24.6 238.15 24.3C238.27 24.19 238.39 24.08 238.51 23.98C238.95 23.78 239.43 23.48 239.88 23.21C240.02 23.14 240.49 22.9 240.79 22.81C241.25 22.67 241.72 22.57 242.2 22.49C242.38 22.46 242.6 22.45 242.78 22.39C242.69 22.42 242.62 22.43 242.54 22.46C242.98 22.43 243.41 22.41 243.85 22.41C244.26 22.41 244.68 22.42 245.1 22.45C245.31 22.46 245.53 22.5 245.75 22.51C245.76 22.51 245.77 22.51 245.8 22.53C246.76 22.74 247.7 22.95 248.62 23.29C248.66 23.3 248.93 23.41 249.12 23.47C249.6 23.71 250.08 23.95 250.55 24.23C250.75 24.35 251.9 24.93 251.94 25.16C251.94 25.15 250.99 24.34 251.7 24.99C251.88 25.13 252.05 25.28 252.21 25.44C252.61 25.81 252.97 26.22 253.34 26.61C253.31 26.56 253.3 26.52 253.27 26.46C253.3 26.52 253.34 26.58 253.38 26.64C253.39 26.65 253.41 26.66 253.41 26.68C253.5 26.78 253.57 26.88 253.58 26.93C253.69 27.08 253.81 27.21 253.89 27.34C254.2 27.85 254.47 28.38 254.75 28.9C254.75 28.91 254.75 28.91 254.75 28.94C254.83 29.28 254.98 29.62 255.06 29.96C255.11 30.15 255.2 30.55 255.28 30.81C255.41 31.48 255.36 32.29 255.35 32.95C255.35 33.23 255.4 33.87 255.35 34.35ZM338.66 22.5C338.71 22.58 338.74 22.77 338.74 22.97C338.71 22.75 338.67 22.51 338.66 22.5ZM299.72 169.83C299.74 169.83 299.74 169.83 299.75 169.83C299.5 169.8 299.32 169.78 299.72 169.83ZM299.91 169.87C300.02 169.88 300.11 169.91 300.22 169.91C300.16 169.9 300.04 169.88 299.91 169.87Z" fill="#000000" fill-opacity="1.000000" fill-rule="nonzero"/>
</svg>
