<svg width="220.000000" height="453.000000" viewBox="0 0 220 453" fill="none" xmlns="http://www.w3.org/2000/svg" xmlns:xlink="http://www.w3.org/1999/xlink">
	<desc>
			Created with Pixso.
	</desc>
	<defs/>
	<path id="Vector" d="M196.06 299.53C198.84 299.01 212.93 295.97 218.19 282.65C222.65 271.37 217.51 261.03 216.58 259.17C209.71 245.37 195.17 242.92 193.64 242.69C190.88 242.27 181.33 240.84 173.52 246.81C161.5 255.98 162.62 275.7 167.88 286.76C170.02 291.26 172.51 293.62 173.11 294.18C181.8 302.19 194.17 299.89 196.06 299.53Z" fill="#E8E3E3" fill-opacity="1.000000" fill-rule="nonzero"/>
	<path id="Vector" d="M211.75 233.21C215.75 231.58 216.47 222.92 214.98 217.15C212.84 208.93 205.28 202.97 199.69 203.14C199.04 203.16 197.29 203.21 195.66 204.38C193.15 206.16 192.63 209.34 192.45 210.55C190.98 219.55 205.22 235.88 211.75 233.21Z" fill="#E8E3E3" fill-opacity="1.000000" fill-rule="nonzero"/>
	<path id="Vector" d="M178.32 227.44C182.32 225.81 183.04 217.15 181.55 211.38C179.41 203.16 171.85 197.2 166.26 197.37C165.61 197.38 163.86 197.44 162.23 198.6C159.72 200.38 159.2 203.57 159.02 204.78C157.55 213.76 171.79 230.11 178.32 227.44Z" fill="#E8E3E3" fill-opacity="1.000000" fill-rule="nonzero"/>
	<path id="Vector" d="M151.36 248.04C155.36 246.41 156.08 237.75 154.58 231.98C152.45 223.75 144.89 217.8 139.3 217.97C138.65 217.98 136.9 218.04 135.27 219.2C132.76 220.98 132.24 224.17 132.05 225.38C130.59 234.36 144.83 250.71 151.36 248.04Z" fill="#E8E3E3" fill-opacity="1.000000" fill-rule="nonzero"/>
	<path id="Vector" d="M150.67 280.24C154.17 277.64 152.78 269.07 149.95 263.86C145.91 256.42 137.14 252.53 131.77 254.11C131.14 254.3 129.46 254.79 128.17 256.32C126.16 258.68 126.43 261.91 126.52 263.13C127.25 272.19 144.98 284.47 150.67 280.24Z" fill="#E8E3E3" fill-opacity="1.000000" fill-rule="nonzero"/>
	<path id="Vector" d="M68.61 452.42C71.39 451.9 85.47 448.86 90.74 435.54C95.2 424.26 90.06 413.92 89.13 412.06C82.26 398.26 67.72 395.81 66.18 395.58C63.43 395.16 53.88 393.73 46.06 399.7C34.05 408.87 35.16 428.59 40.43 439.65C42.56 444.15 45.06 446.51 45.66 447.07C54.35 455.08 66.71 452.77 68.61 452.42Z" fill="#E8E3E3" fill-opacity="1.000000" fill-rule="nonzero"/>
	<path id="Vector" d="M84.3 386.1C88.3 384.47 89.02 375.81 87.52 370.04C85.39 361.82 77.83 355.86 72.24 356.03C71.59 356.05 69.84 356.1 68.21 357.27C65.7 359.05 65.18 362.23 64.99 363.44C63.53 372.42 77.77 388.77 84.3 386.1Z" fill="#E8E3E3" fill-opacity="1.000000" fill-rule="nonzero"/>
	<path id="Vector" d="M50.88 380.33C54.88 378.7 55.6 370.04 54.11 364.27C51.97 356.05 44.41 350.09 38.82 350.26C38.18 350.27 36.43 350.33 34.79 351.5C32.28 353.27 31.76 356.46 31.58 357.67C30.1 366.65 44.34 383 50.88 380.33Z" fill="#E8E3E3" fill-opacity="1.000000" fill-rule="nonzero"/>
	<path id="Vector" d="M23.91 400.93C27.91 399.3 28.62 390.64 27.13 384.87C25 376.64 17.44 370.69 11.84 370.86C11.2 370.87 9.45 370.93 7.81 372.09C5.31 373.87 4.79 377.06 4.6 378.27C3.14 387.25 17.38 403.59 23.91 400.93Z" fill="#E8E3E3" fill-opacity="1.000000" fill-rule="nonzero"/>
	<path id="Vector" d="M23.22 433.13C26.72 430.53 25.33 421.96 22.5 416.75C18.46 409.31 9.69 405.42 4.32 407C3.68 407.19 2.01 407.68 0.72 409.21C-1.29 411.57 -1.02 414.8 -0.93 416.02C-0.19 425.08 17.52 437.35 23.22 433.13Z" fill="#E8E3E3" fill-opacity="1.000000" fill-rule="nonzero"/>
	<path id="Vector" d="M165.4 102.16C168.18 101.64 182.26 98.6 187.53 85.28C191.99 73.99 186.85 63.66 185.92 61.79C179.05 48 164.51 45.54 162.97 45.31C160.22 44.9 150.67 43.46 142.85 49.43C130.84 58.6 131.95 78.33 137.22 89.38C139.35 93.89 141.85 96.24 142.45 96.8C151.14 104.81 163.5 102.52 165.4 102.16Z" fill="#E8E3E3" fill-opacity="1.000000" fill-rule="nonzero"/>
	<path id="Vector" d="M181.09 35.84C185.09 34.2 185.81 25.55 184.31 19.78C182.18 11.55 174.62 5.59 169.03 5.77C168.38 5.78 166.63 5.84 165 7C162.49 8.78 161.97 11.97 161.78 13.17C160.32 22.17 174.56 38.51 181.09 35.84Z" fill="#E8E3E3" fill-opacity="1.000000" fill-rule="nonzero"/>
	<path id="Vector" d="M147.67 30.07C151.67 28.43 152.39 19.78 150.9 14.01C148.75 5.78 141.19 -0.18 135.6 0C134.95 0.01 133.2 0.07 131.57 1.23C129.06 3.01 128.54 6.2 128.35 7.4C126.89 16.39 141.15 32.74 147.67 30.07Z" fill="#E8E3E3" fill-opacity="1.000000" fill-rule="nonzero"/>
	<path id="Vector" d="M120.71 50.67C124.71 49.03 125.43 40.37 123.94 34.6C121.8 26.38 114.24 20.42 108.65 20.59C108 20.61 106.25 20.67 104.62 21.83C102.11 23.61 101.59 26.79 101.41 28C99.93 36.99 114.17 53.34 120.71 50.67Z" fill="#E8E3E3" fill-opacity="1.000000" fill-rule="nonzero"/>
	<path id="Vector" d="M120.01 82.86C123.51 80.27 122.12 71.7 119.29 66.49C115.25 59.05 106.48 55.16 101.11 56.74C100.47 56.93 98.8 57.41 97.51 58.95C95.5 61.3 95.77 64.53 95.86 65.75C96.6 74.81 114.31 87.1 120.01 82.86Z" fill="#E8E3E3" fill-opacity="1.000000" fill-rule="nonzero"/>
</svg>
