<svg width="35.000000" height="35.000000" viewBox="0 0 35 35" fill="none" xmlns="http://www.w3.org/2000/svg" xmlns:xlink="http://www.w3.org/1999/xlink">
	<desc>
			Created with Pixso.
	</desc>
	<defs>
		<clipPath id="clip1_172">
			<rect id="Frame" width="35.000000" height="35.000000" fill="white" fill-opacity="0"/>
		</clipPath>
	</defs>
	<rect id="Frame" width="35.000000" height="35.000000" fill="#FFFFFF" fill-opacity="0"/>
	<g clip-path="url(#clip1_172)">
		<path id="Vector" d="M17.46 35C16.37 35 15.47 34.64 14.76 33.92C14.04 33.2 13.68 32.3 13.68 31.22L13.68 21.3L3.76 21.3C2.68 21.3 1.78 20.93 1.06 20.19C0.35 19.45 0 18.54 0 17.46C0 16.37 0.35 15.47 1.07 14.76C1.79 14.04 2.69 13.68 3.77 13.68L13.69 13.68L13.69 3.76C13.69 2.73 14.07 1.84 14.84 1.1C15.59 0.36 16.47 0 17.46 0C18.6 0 19.51 0.35 20.19 1.07C20.88 1.79 21.23 2.69 21.23 3.77L21.23 13.69L31.14 13.69C32.18 13.69 33.07 14.06 33.84 14.8C34.6 15.54 35 16.46 35 17.53C35 18.57 34.62 19.45 33.84 20.19C33.07 20.93 32.18 21.3 31.14 21.3L21.23 21.3L21.23 31.22C21.23 32.3 20.88 33.2 20.19 33.92C19.51 34.64 18.59 35 17.46 35Z" fill="#DE5922" fill-opacity="1.000000" fill-rule="nonzero"/>
	</g>
</svg>
