<svg width="106.000000" height="106.000000" viewBox="0 0 106 106" fill="none" xmlns="http://www.w3.org/2000/svg" xmlns:xlink="http://www.w3.org/1999/xlink">
	<desc>
			Created with Pixso.
	</desc>
	<defs>
		<clipPath id="clip155_168">
			<rect id="Frame" width="106.000000" height="106.000000" fill="white" fill-opacity="0"/>
		</clipPath>
	</defs>
	<rect id="Frame" width="106.000000" height="106.000000" fill="#FFFFFF" fill-opacity="0"/>
	<g clip-path="url(#clip155_168)">
		<path id="Vector" d="M52.88 106C49.59 106 46.87 104.92 44.71 102.74C42.53 100.58 41.45 97.85 41.45 94.57L41.45 64.54L11.42 64.54C8.13 64.54 5.41 63.42 3.25 61.18C1.08 58.94 0 56.16 0 52.88C0 49.6 1.08 46.87 3.25 44.71C5.41 42.55 8.14 41.45 11.42 41.45L41.45 41.45L41.45 11.42C41.45 8.29 42.61 5.6 44.92 3.36C47.24 1.12 49.89 0 52.88 0C56.32 0 59.08 1.08 61.18 3.25C63.27 5.42 64.31 8.14 64.31 11.42L64.31 41.45L94.34 41.45C97.47 41.45 100.21 42.57 102.52 44.81C104.84 47.05 106 49.81 106 53.11C106 56.24 104.84 58.94 102.52 61.18C100.19 63.42 97.47 64.54 94.34 64.54L64.31 64.54L64.31 94.57C64.31 97.86 63.26 100.58 61.18 102.74C59.08 104.9 56.31 106 52.88 106Z" fill="#000000" fill-opacity="1.000000" fill-rule="nonzero"/>
	</g>
</svg>
