<svg width="167.000000" height="208.000000" viewBox="0 0 167 208" fill="none" xmlns="http://www.w3.org/2000/svg" xmlns:xlink="http://www.w3.org/1999/xlink">
	<desc>
			Created with Pixso.
	</desc>
	<defs/>
	<path id="Vector" d="M120.79 50.97C115.12 50.97 109.45 50.98 103.78 50.97C98.57 50.95 95.77 48.07 95.76 42.72C95.75 34.48 95.75 26.22 95.76 17.98C95.77 12.79 98.6 9.86 103.69 9.85C115.1 9.83 126.51 9.83 137.91 9.85C142.93 9.86 145.84 12.83 145.85 18C145.87 26.32 145.88 34.63 145.85 42.95C145.83 47.98 142.91 50.93 138 50.97C132.26 50.99 126.53 50.97 120.79 50.97ZM120.64 16.42C115.18 16.42 109.72 16.48 104.27 16.38C102.57 16.35 102.09 16.92 102.12 18.64C102.2 26.52 102.19 34.41 102.12 42.28C102.1 43.91 102.57 44.42 104.17 44.42C115.3 44.37 126.43 44.37 137.54 44.42C139.02 44.44 139.53 43.92 139.51 42.4C139.47 34.44 139.46 26.49 139.51 18.53C139.53 16.92 139.02 16.36 137.44 16.38C131.84 16.46 126.24 16.42 120.64 16.42Z" fill="#000000" fill-opacity="1.000000" fill-rule="nonzero"/>
	<path id="Vector" d="M59.29 9.67C65.15 9.67 71 9.66 76.86 9.67C82.21 9.7 85.17 12.62 85.18 17.93C85.2 26.17 85.2 34.42 85.18 42.66C85.17 47.83 82.18 50.77 76.95 50.78C65.17 50.81 53.39 50.81 41.59 50.78C36.37 50.77 33.41 47.83 33.39 42.65C33.37 34.32 33.37 26.01 33.39 17.69C33.41 12.67 36.42 9.7 41.5 9.67C47.44 9.65 53.37 9.67 59.29 9.67ZM59.09 44.23C64.88 44.23 70.67 44.18 76.45 44.26C78.06 44.28 78.63 43.8 78.62 42.16C78.55 34.27 78.55 26.39 78.62 18.5C78.63 16.8 78.17 16.21 76.39 16.21C64.97 16.28 53.54 16.27 42.12 16.22C40.52 16.21 39.94 16.69 39.96 18.33C40.03 26.22 40.03 34.1 39.96 41.99C39.95 43.69 40.41 44.3 42.19 44.27C47.81 44.15 53.46 44.23 59.09 44.23Z" fill="#000000" fill-opacity="1.000000" fill-rule="nonzero"/>
	<path id="Vector" d="M24.55 208C24.3 207.87 24.06 207.69 23.79 207.61C17.53 205.81 14.12 201.79 14.1 195.97C14.06 185.2 14.09 174.44 14.09 163.67C14.09 141.66 14.09 119.66 14.09 97.65C14.09 96.85 14.09 96.05 14.09 95.16C11.98 94.84 10.03 94.63 8.12 94.24C0.91 92.79 -2.86 85.42 1.1 79.88C4.78 74.74 8.93 69.87 13.01 64.97C14.85 62.77 17.67 62.07 20.88 62.02C20.88 61.17 20.88 60.45 20.88 59.71C20.88 43.73 20.88 27.76 20.88 11.78C20.88 4.26 25.73 -0.03 34.25 -0.03C71.41 -0.03 108.58 -0.03 145.75 -0.03C154.34 -0.03 159.17 4.28 159.17 11.96C159.17 22.87 159.17 33.76 159.17 44.67C159.17 45.35 159.23 46.05 159.04 46.69C158.59 48.26 157.36 49.16 155.54 49.06C153.74 48.97 152.62 48 152.36 46.38C152.27 45.78 152.31 45.16 152.31 44.55C152.31 33.65 152.31 22.75 152.31 11.85C152.31 7.71 150.46 6.07 145.79 6.07C108.62 6.07 71.46 6.07 34.28 6.07C29.57 6.07 27.76 7.66 27.75 11.8C27.75 28.12 27.79 44.44 27.69 60.75C27.68 62.89 28.19 64.06 30.73 64.17C31.48 64.2 32.2 64.43 33.31 64.66C33.31 63.34 33.28 62.16 33.31 60.97C33.44 56.93 36.6 54.07 41.16 54.04C53.91 54 66.65 54 79.4 54.04C84.06 54.06 87.2 56.95 87.24 61.19C87.3 66.26 87.25 71.33 87.25 76.56C89.1 76.97 90.83 77.35 92.81 77.78C92.81 72.44 92.81 67.31 92.81 62.18C92.81 56.51 95.61 54.02 102.02 54.02C114 54.02 125.98 54.02 137.98 54.02C143.7 54.02 146.72 56.7 146.74 61.79C146.76 68.77 146.79 75.74 146.7 82.72C146.68 84.89 146.23 87.06 145.95 89.5C147.7 89.88 149.9 90.36 152.3 90.89C152.3 89.42 152.3 88.15 152.3 86.88C152.3 78.27 152.29 69.68 152.3 61.08C152.3 58.64 153.48 57.29 155.61 57.25C157.84 57.19 159.16 58.59 159.16 61.1C159.17 70.78 159.17 80.47 159.17 90.15C159.17 90.89 159.17 91.61 159.17 92.11C159.44 92.38 159.47 92.46 159.53 92.48C165.89 93.83 165.94 93.73 165.93 100.03C165.89 131.11 165.79 162.19 166.01 193.26C166.05 200.46 163.58 205.62 155.53 207.97C111.87 208 68.2 208 24.55 208ZM20.96 96.03C20.96 97.08 20.96 97.81 20.96 98.54C20.96 130.64 20.96 162.73 20.96 194.82C20.96 200.08 23.01 201.91 28.91 201.91C69.59 201.91 110.27 201.91 150.95 201.91C157.04 201.91 159.04 200.14 159.04 194.74C159.04 165.96 159.04 137.2 159.04 108.42C159.04 107.71 159.04 106.99 159.04 106.28C158.87 106.18 158.7 106.08 158.53 105.98C156.07 109.72 152.39 111.75 147.6 112.19C145.27 111.9 142.92 111.62 140.59 111.33C100.7 106.22 60.83 101.13 20.96 96.03ZM156.55 98.24C155.47 97.96 154.77 97.75 154.05 97.58C141.85 94.91 129.65 92.23 117.46 89.55C85.6 82.55 53.73 75.55 21.88 68.49C19.76 68.02 18.44 68.47 17.24 70.02C14.17 73.97 10.96 77.85 7.84 81.77C5.16 85.12 6.59 87.99 11.14 88.56C34.75 91.55 58.36 94.57 81.97 97.6C103.39 100.34 124.8 103.14 146.22 105.91C148.36 106.19 150.19 105.65 151.53 104.15C153.17 102.31 154.74 100.38 156.55 98.24ZM119.85 60.16C113.82 60.16 107.78 60.19 101.77 60.13C100.2 60.12 99.62 60.52 99.63 61.97C99.71 67.25 99.71 72.53 99.63 77.81C99.61 79.12 100.16 79.49 101.51 79.77C108.54 81.25 115.58 82.79 122.57 84.45C127.53 85.63 132.52 86.34 137.68 86.11C139.41 86.04 139.9 85.54 139.89 84.07C139.83 76.75 139.81 69.45 139.9 62.13C139.92 60.46 139.21 60.09 137.47 60.11C131.59 60.2 125.71 60.16 119.85 60.16ZM80.37 75.07C80.37 70.66 80.29 66.48 80.41 62.31C80.45 60.64 79.88 60.1 77.96 60.11C66.91 60.18 55.86 60.14 44.81 60.14C40.13 60.14 40.21 60.14 40.11 64.35C40.08 65.87 40.64 66.39 42.29 66.74C49.33 68.19 56.32 69.81 63.33 71.35C68.93 72.59 74.53 73.81 80.37 75.07Z" fill="#000000" fill-opacity="1.000000" fill-rule="nonzero"/>
</svg>
