<svg width="136.000000" height="170.000000" viewBox="0 0 136 170" fill="none" xmlns="http://www.w3.org/2000/svg" xmlns:xlink="http://www.w3.org/1999/xlink">
	<desc>
			Created with Pixso.
	</desc>
	<defs/>
	<path id="Vector" d="M99.47 41.99C94.83 41.99 90.2 42 85.56 41.99C81.3 41.97 79 39.59 79 35.17C78.99 28.36 78.99 21.54 79 14.73C79.01 10.44 81.33 8.02 85.49 8.01C94.82 7.99 104.16 7.99 113.48 8.01C117.6 8.02 119.97 10.47 119.98 14.74C120 21.62 120.01 28.5 119.98 35.36C119.95 39.52 117.56 41.96 113.55 41.99C108.86 42.01 104.17 41.99 99.47 41.99ZM99.35 13.43C94.89 13.43 90.42 13.48 85.97 13.4C84.57 13.37 84.19 13.84 84.2 15.26C84.26 21.78 84.26 28.29 84.2 34.81C84.19 36.14 84.57 36.58 85.87 36.57C94.97 36.52 104.07 36.53 113.17 36.57C114.38 36.58 114.79 36.15 114.78 34.9C114.74 28.33 114.74 21.76 114.78 15.18C114.79 13.84 114.38 13.39 113.08 13.41C108.51 13.47 103.92 13.43 99.35 13.43Z" fill="#000000" fill-opacity="1.000000" fill-rule="nonzero"/>
	<path id="Vector" d="M49 8C53.75 8 58.49 7.99 63.24 8C67.58 8.02 69.97 10.45 69.98 14.83C69.99 21.64 70 28.45 69.98 35.26C69.97 39.53 67.55 41.97 63.31 41.98C53.76 42 44.21 42 34.66 41.98C30.42 41.97 28.02 39.54 28.01 35.25C28 28.38 27.99 21.5 28.01 14.64C28.02 10.49 30.45 8.04 34.57 8C39.39 7.98 44.19 8 49 8ZM48.84 36.55C53.53 36.55 58.23 36.51 62.92 36.57C64.22 36.6 64.69 36.2 64.67 34.84C64.62 28.32 64.61 21.81 64.67 15.3C64.68 13.9 64.3 13.4 62.86 13.41C53.6 13.46 44.34 13.46 35.08 13.42C33.78 13.41 33.32 13.8 33.33 15.17C33.38 21.68 33.39 28.2 33.33 34.71C33.32 36.12 33.69 36.62 35.14 36.58C39.7 36.5 44.27 36.55 48.84 36.55Z" fill="#000000" fill-opacity="1.000000" fill-rule="nonzero"/>
	<path id="Vector" d="M20.46 170C20.25 169.89 20.06 169.75 19.84 169.69C14.71 168.21 11.94 164.92 11.93 160.18C11.9 151.38 11.92 142.58 11.92 133.78C11.92 115.8 11.92 97.81 11.92 79.83C11.92 79.18 11.92 78.53 11.92 77.8C10.19 77.53 8.59 77.36 7.04 77.04C1.14 75.85 -1.93 69.83 1.3 65.3C4.3 61.1 7.7 57.13 11.03 53.12C12.53 51.33 14.84 50.75 17.45 50.71C17.45 50.02 17.45 49.42 17.45 48.83C17.45 35.78 17.45 22.71 17.45 9.65C17.45 3.5 21.42 0 28.37 0C58.73 0 89.1 0 119.46 0C126.47 0 130.42 3.53 130.42 9.79C130.42 18.7 130.42 27.61 130.42 36.52C130.42 37.07 130.46 37.65 130.31 38.17C129.95 39.44 128.95 40.18 127.45 40.11C125.98 40.04 125.05 39.24 124.84 37.92C124.77 37.43 124.81 36.92 124.81 36.43C124.81 27.52 124.81 18.61 124.81 9.7C124.81 6.32 123.3 4.98 119.49 4.98C89.13 4.98 58.76 4.98 28.4 4.98C24.55 4.98 23.07 6.28 23.07 9.66C23.07 23 23.11 36.33 23.01 49.67C23 51.42 23.42 52.38 25.5 52.47C26.11 52.49 26.7 52.69 27.6 52.87C27.6 51.79 27.58 50.82 27.6 49.86C27.71 46.55 30.28 44.21 34.01 44.2C44.42 44.17 54.84 44.16 65.24 44.2C69.04 44.21 71.6 46.58 71.65 50.03C71.69 54.18 71.66 58.32 71.66 62.59C73.16 62.93 74.58 63.23 76.19 63.59C76.19 59.23 76.19 55.03 76.19 50.84C76.19 46.2 78.48 44.18 83.72 44.18C93.52 44.18 103.3 44.18 113.09 44.18C117.76 44.18 120.25 46.37 120.26 50.53C120.27 56.22 120.31 61.93 120.24 67.62C120.22 69.4 119.86 71.18 119.63 73.16C121.06 73.47 122.85 73.86 124.81 74.3C124.81 73.11 124.81 72.06 124.81 71.02C124.81 63.99 124.81 56.96 124.81 49.94C124.81 47.93 125.78 46.85 127.52 46.81C129.34 46.75 130.41 47.9 130.42 49.96C130.43 57.87 130.42 65.79 130.42 73.7C130.42 74.3 130.42 74.9 130.42 75.3C130.64 75.52 130.67 75.58 130.71 75.59C135.9 76.7 135.94 76.62 135.93 81.76C135.91 107.17 135.83 132.56 135.99 157.96C136.04 163.85 134.02 168.07 127.43 169.98C91.78 170 56.12 170 20.46 170ZM17.52 78.48C17.52 79.34 17.52 79.94 17.52 80.54C17.52 106.77 17.52 132.99 17.52 159.23C17.52 163.52 19.21 165.02 24.02 165.02C57.26 165.02 90.49 165.02 123.72 165.02C128.69 165.02 130.32 163.57 130.32 159.15C130.32 135.64 130.32 112.12 130.32 88.61C130.32 88.03 130.32 87.44 130.32 86.86C130.19 86.77 130.04 86.7 129.9 86.61C127.89 89.67 124.9 91.34 120.97 91.7C119.06 91.46 117.15 91.22 115.24 90.99C82.67 86.81 50.09 82.65 17.52 78.48ZM128.28 80.29C127.41 80.05 126.83 79.89 126.24 79.75C116.28 77.56 106.31 75.37 96.35 73.18C70.32 67.45 44.29 61.74 18.27 55.97C16.53 55.59 15.46 55.95 14.47 57.22C11.96 60.45 9.35 63.63 6.79 66.82C4.61 69.56 5.77 71.9 9.49 72.38C28.78 74.82 48.07 77.28 67.35 79.76C84.86 82.01 102.35 84.28 119.85 86.55C121.59 86.77 123.09 86.34 124.18 85.12C125.54 83.61 126.81 82.04 128.28 80.29ZM98.3 49.16C93.38 49.16 88.46 49.19 83.52 49.14C82.25 49.13 81.77 49.45 81.79 50.63C81.85 54.95 81.85 59.27 81.79 63.58C81.77 64.65 82.22 64.95 83.32 65.19C89.08 66.4 94.82 67.65 100.52 69.01C104.58 69.98 108.65 70.56 112.87 70.37C114.28 70.31 114.68 69.91 114.67 68.71C114.62 62.73 114.61 56.76 114.68 50.78C114.7 49.41 114.12 49.1 112.7 49.13C107.91 49.2 103.1 49.16 98.3 49.16ZM66.05 61.36C66.05 57.76 65.99 54.35 66.08 50.93C66.12 49.57 65.65 49.13 64.08 49.14C55.06 49.2 46.03 49.17 37.01 49.17C33.18 49.17 33.24 49.17 33.17 52.61C33.13 53.85 33.59 54.27 34.94 54.55C40.69 55.73 46.4 57.07 52.13 58.32C56.71 59.33 61.28 60.31 66.05 61.36Z" fill="#000000" fill-opacity="1.000000" fill-rule="nonzero"/>
</svg>
