<svg width="35.000000" height="34.000000" viewBox="0 0 35 34" fill="none" xmlns="http://www.w3.org/2000/svg" xmlns:xlink="http://www.w3.org/1999/xlink">
	<desc>
			Created with Pixso.
	</desc>
	<defs/>
	<path id="Vector" d="M8.73 33.96C5.8 34.01 3.96 31.85 4.37 29.31C4.68 27.37 5 25.42 5.4 23.5C5.63 22.39 5.51 21.56 4.58 20.77C3.12 19.54 1.8 18.13 0.43 16.78C-0.76 15.61 -1.34 14.25 -0.79 12.57C-0.25 10.9 0.96 10.06 2.63 9.8C4.58 9.51 6.53 9.24 8.48 9C9.47 8.87 10.15 8.53 10.58 7.51C11.29 5.79 12.22 4.17 13.01 2.49C13.78 0.87 14.9 -0.25 16.78 -0.26C18.75 -0.27 19.89 0.87 20.68 2.54C21.52 4.32 22.37 6.1 23.31 7.82C23.55 8.26 24.15 8.72 24.65 8.81C26.57 9.19 28.53 9.45 30.47 9.7C32.28 9.94 33.8 10.61 34.41 12.48C35.03 14.33 34.31 15.79 32.94 17.05C31.54 18.36 30.14 19.68 28.85 21.09C28.44 21.54 28.16 22.34 28.23 22.92C28.47 25.08 28.9 27.22 29.25 29.36C29.5 30.92 29.02 32.24 27.74 33.18C26.42 34.16 24.97 34.22 23.5 33.47C21.7 32.56 19.89 31.66 18.15 30.64C17.17 30.07 16.4 30.12 15.45 30.68C13.8 31.65 12.08 32.5 10.36 33.35C9.72 33.68 9.02 33.85 8.73 33.96ZM7.58 30.78C8.46 30.45 8.99 30.31 9.46 30.07C11.43 29.06 13.43 28.06 15.36 26.96C16.38 26.39 17.26 26.38 18.26 26.94C20.2 28.02 22.17 29.05 24.16 30.05C24.63 30.28 25.21 30.31 25.73 30.43C25.76 29.94 25.84 29.45 25.78 28.98C25.55 27.38 25.46 25.75 24.98 24.24C24.15 21.66 24.85 19.84 26.93 18.19C28.55 16.89 29.91 15.24 31.59 13.52C30.9 13.31 30.5 13.13 30.09 13.06C27.88 12.73 25.69 12.38 23.49 12.12C22.14 11.96 21.22 11.45 20.66 10.12C19.78 8.08 18.72 6.12 17.71 4.15C17.52 3.76 17.15 3.47 16.87 3.14C16.58 3.46 16.19 3.73 15.99 4.11C14.97 6.08 13.94 8.06 13.05 10.08C12.48 11.38 11.62 11.98 10.25 12.13C8.04 12.39 5.84 12.73 3.65 13.09C3.24 13.15 2.86 13.43 2.46 13.61C2.69 13.99 2.87 14.43 3.16 14.73C3.99 15.59 4.88 16.38 5.71 17.23C9.95 21.56 9.39 19.51 8.41 25.6C8.13 27.21 7.89 28.81 7.58 30.78Z" fill="#EE820B" fill-opacity="1.000000" fill-rule="nonzero"/>
</svg>
