<svg width="195.000000" height="156.000000" viewBox="0 0 195 156" fill="none" xmlns="http://www.w3.org/2000/svg" xmlns:xlink="http://www.w3.org/1999/xlink">
	<desc>
			Created with Pixso.
	</desc>
	<defs/>
	<path id="Vector" d="M194.89 47.39C193.91 29.96 182.79 17.37 167.87 17.02C164.61 16.95 161.36 17.34 157.97 17.53C157.46 13.21 156.96 8.84 156.4 4.47C155.92 0.78 155.09 -0.04 151.91 -0.04C141.41 -0.05 130.9 -0.04 120.4 -0.04C119.9 -0.04 119.39 -0.09 118.9 0C117.12 0.33 116.03 1.52 116.01 3.68C115.99 5.84 117.06 7.08 118.83 7.43C119.46 7.55 120.11 7.48 120.76 7.48C129.83 7.48 138.91 7.48 147.98 7.48C148.73 7.48 149.5 7.48 150.37 7.48C150.85 12.46 151.29 17.15 151.75 21.93C120.92 21.95 90.1 21.98 59.28 22C56.86 21.98 54.44 21.97 52.03 21.94C39.52 21.94 27.13 21.94 14.47 21.94C14.93 17.17 15.37 12.49 15.85 7.66C27.94 7.66 39.89 7.66 52.03 7.66C54.62 7.68 57.22 7.71 59.82 7.72C84.26 7.4 101.33 7.22 102.87 7.32C102.96 7.33 103.67 7.38 104.58 7.16C105.37 6.96 106.13 6.77 106.68 6C107.31 5.14 107.29 4.05 107.28 3.63C107.25 1.66 106.23 0.38 104.54 0.03C103.89 -0.11 103.44 -0.1 102.63 -0.04C101.52 0.04 100.4 0.03 99.3 0.13C99.3 0.13 98.17 0.25 93.87 0.25C17.86 0.26 14.15 -0.04 14.15 -0.04C13.66 -0.08 12.12 -0.23 11.01 0.89C10.34 1.58 9.99 2.69 9.78 4.42C9.39 7.55 9.04 10.7 8.73 13.87C6.52 36.29 5.75 58.74 8.91 81.12C11.23 97.6 15.29 113.24 27.07 125.22C25.68 125.22 24.91 125.22 24.14 125.22C17.21 125.22 10.28 125.2 3.36 125.23C0.3 125.24 -0.73 126.57 -0.63 130.16C-0.37 140.74 5.16 149.88 13.8 153C17.42 154.31 21.36 154.94 25.16 154.96C55.65 155.11 86.17 155.04 116.67 155.04C117.24 155.04 117.82 155.1 118.38 155C120.14 154.64 121.22 153.43 121.21 151.26C121.2 149.09 120.12 147.89 118.35 147.56C117.65 147.44 116.92 147.52 116.21 147.52C85.92 147.52 55.63 147.58 25.34 147.42C21.84 147.4 18.2 146.69 14.88 145.39C10.01 143.49 7.31 138.98 6.14 132.75C7.27 132.75 8.1 132.75 8.94 132.75C23.59 132.75 38.23 132.76 52.87 132.73C55.61 132.73 57.03 131.38 57.02 128.94C57 126.5 55.62 125.27 52.84 125.21C50.34 125.16 47.84 125.2 45.34 125.06C37.28 124.61 30.84 120.48 25.92 113.06C20.54 104.93 17.89 95.44 16.13 85.56C13.05 68.22 13.02 50.68 13.76 33.11C13.8 31.98 13.95 30.86 14.05 29.76C60.07 29.75 106.11 29.75 152.14 29.74C152.24 30.24 152.34 30.62 152.36 31.03C153.14 46 153.21 60.96 151.51 75.86C150.34 86.16 148.42 96.26 144.34 105.62C138.66 118.65 129.9 125.52 117.08 125.29C101.66 125 86.22 125.22 70.79 125.23C69.93 125.23 69.07 125.21 68.23 125.36C66.48 125.67 65.58 127.06 65.59 129.01C65.59 130.86 66.46 132.21 68.09 132.56C69 132.76 69.94 132.75 70.86 132.75C99.79 132.76 128.73 132.76 157.66 132.76C158.56 132.76 159.47 132.76 160.42 132.76C159.39 140.5 154.46 146 147.28 146.96C142.75 147.56 138.16 147.37 133.6 147.53C131.31 147.61 129.86 149.12 129.9 151.36C129.94 153.52 131.34 155.02 133.51 155.03C137.22 155.07 140.94 155.16 144.65 154.95C157.53 154.24 165.78 145.57 167.3 131.28C167.78 126.82 166.61 125.22 162.8 125.22C155.73 125.21 148.65 125.22 141.58 125.22C140.93 125.22 140.28 125.22 139.63 125.22C145.38 119.08 149.25 111.87 152.14 103.83C152.39 103.15 153.36 102.64 154.09 102.44C158.49 101.17 163.05 100.42 167.33 98.72C173.08 96.43 178 92.3 182.1 87.04C182.84 86.08 183.19 84.08 182.9 82.82C182.65 81.81 181.18 80.66 180.21 80.6C179.2 80.54 177.95 81.5 177.14 82.42C173.17 86.91 168.7 90.42 163.46 92.45C160.75 93.5 157.92 94.15 154.76 95.09C155.35 92.28 155.7 90.14 156.27 88.09C156.44 87.51 157.16 86.9 157.73 86.73C171.44 82.34 179.43 71.64 181.77 55.55C183.67 42.45 178.66 30.58 163.86 32.08C162.25 32.24 160.67 32.56 158.97 32.82C158.81 30.32 158.67 28.01 158.5 25.51C159.67 25.26 160.7 24.91 161.74 24.82C163.95 24.65 166.16 24.45 168.37 24.54C177.88 24.94 185.21 31.81 187.63 42.59C189.57 51.29 188.4 59.65 185.52 67.82C184.57 70.48 185.24 72.58 187.14 73.43C188.92 74.23 190.52 73.21 191.46 70.63C194.2 63.21 195.34 55.47 194.89 47.39ZM159.7 40.63C162.7 39.49 166.08 39.07 169.49 39.85C173.02 40.66 174.99 43.48 175.57 48.15C177.13 60.7 168.59 75.58 158.2 78.6C158.7 65.98 159.19 53.42 159.7 40.63Z" fill="#000000" fill-opacity="1.000000" fill-rule="nonzero"/>
</svg>
