<svg width="167.000000" height="119.000000" viewBox="0 0 167 119" fill="none" xmlns="http://www.w3.org/2000/svg" xmlns:xlink="http://www.w3.org/1999/xlink">
	<desc>
			Created with Pixso.
	</desc>
	<defs/>
	<path id="Vector" d="M166.11 36.4C165.27 23.03 155.77 13.37 143.04 13.11C140.26 13.05 137.48 13.35 134.58 13.5C134.14 10.18 133.71 6.83 133.24 3.48C132.83 0.64 132.11 0.01 129.4 0.01C120.43 0.01 111.46 0.01 102.51 0.01C102.08 0.01 101.65 -0.03 101.22 0.05C99.71 0.3 98.78 1.21 98.75 2.86C98.73 4.53 99.65 5.46 101.16 5.75C101.69 5.84 102.25 5.79 102.8 5.79C110.55 5.79 118.29 5.79 126.04 5.79C126.68 5.79 127.34 5.79 128.08 5.79C128.49 9.6 128.87 13.2 129.26 16.87C102.95 16.89 76.63 16.91 50.32 16.92C48.26 16.91 46.19 16.89 44.13 16.88C33.46 16.88 22.88 16.88 12.07 16.88C12.46 13.22 12.84 9.63 13.25 5.93C23.57 5.93 33.78 5.93 44.13 5.93C46.35 5.95 48.56 5.96 50.79 5.98C71.66 5.73 86.24 5.6 87.54 5.68C87.61 5.68 88.23 5.72 89 5.55C89.67 5.41 90.33 5.26 90.79 4.66C91.32 4 91.31 3.17 91.3 2.84C91.28 1.33 90.41 0.34 88.96 0.08C88.4 -0.03 88.02 -0.02 87.32 0.03C86.37 0.09 85.42 0.08 84.48 0.16C84.48 0.16 83.51 0.25 79.84 0.25C14.96 0.26 11.79 0.03 11.79 0.03C11.39 -0.02 10.07 -0.12 9.13 0.74C8.56 1.26 8.25 2.11 8.07 3.44C7.74 5.85 7.45 8.27 7.18 10.68C5.3 27.88 4.64 45.1 7.33 62.27C9.31 74.91 12.78 86.9 22.85 96.08C21.66 96.08 21 96.08 20.35 96.08C14.43 96.08 8.52 96.06 2.6 96.09C-0.02 96.1 -0.89 97.12 -0.82 99.87C-0.59 107.99 4.13 115 11.5 117.39C14.58 118.4 17.95 118.89 21.18 118.9C47.23 119.02 73.26 118.96 99.31 118.96C99.79 118.96 100.29 119.02 100.77 118.92C102.28 118.64 103.2 117.72 103.2 116.06C103.19 114.4 102.26 113.48 100.75 113.22C100.15 113.13 99.53 113.18 98.92 113.18C73.06 113.18 47.21 113.23 21.34 113.12C18.35 113.1 15.25 112.55 12.42 111.56C8.26 110.1 5.95 106.64 4.95 101.85C5.91 101.85 6.62 101.85 7.34 101.85C19.85 101.85 32.35 101.87 44.85 101.84C47.19 101.84 48.4 100.81 48.39 98.94C48.38 97.07 47.21 96.12 44.83 96.08C42.7 96.05 40.56 96.07 38.43 95.96C31.55 95.63 26.06 92.46 21.86 86.77C17.26 80.54 15 73.26 13.5 65.67C10.87 52.38 10.84 38.92 11.48 25.44C11.52 24.57 11.64 23.71 11.73 22.86C51.02 22.86 90.33 22.85 129.62 22.85C129.7 23.23 129.79 23.54 129.81 23.84C130.48 35.32 130.53 46.79 129.08 58.22C128.07 66.12 126.44 73.87 122.95 81.05C118.11 91.05 110.63 96.32 99.69 96.13C86.52 95.91 73.34 96.08 60.17 96.08C59.44 96.08 58.7 96.06 57.98 96.18C56.49 96.42 55.72 97.48 55.72 98.98C55.72 100.39 56.47 101.43 57.86 101.71C58.63 101.85 59.44 101.85 60.22 101.85C84.92 101.87 109.63 101.87 134.33 101.87C135.1 101.87 135.89 101.87 136.69 101.87C135.8 107.81 131.6 112.02 125.48 112.75C121.62 113.22 117.7 113.07 113.8 113.19C111.83 113.25 110.6 114.41 110.64 116.12C110.67 117.78 111.87 118.93 113.72 118.94C116.89 118.96 120.07 119.04 123.23 118.88C134.22 118.34 141.26 111.68 142.56 100.72C142.97 97.3 141.97 96.08 138.73 96.07C132.68 96.06 126.65 96.07 120.61 96.07C120.06 96.07 119.5 96.07 118.95 96.07C123.87 91.37 127.16 85.83 129.63 79.66C129.84 79.14 130.68 78.75 131.3 78.59C135.07 77.62 138.95 77.05 142.61 75.74C147.51 73.98 151.71 70.82 155.21 66.78C155.84 66.05 156.14 64.5 155.89 63.54C155.69 62.77 154.41 61.88 153.59 61.85C152.73 61.8 151.66 62.53 150.96 63.24C147.58 66.69 143.75 69.38 139.29 70.94C136.98 71.75 134.56 72.25 131.87 72.97C132.37 70.81 132.67 69.18 133.16 67.6C133.3 67.14 133.91 66.69 134.4 66.55C146.1 63.18 152.93 54.98 154.92 42.64C156.54 32.6 152.27 23.49 139.64 24.64C138.27 24.77 136.91 25 135.46 25.2C135.32 23.29 135.2 21.52 135.07 19.6C136.07 19.4 136.95 19.13 137.84 19.07C139.72 18.93 141.61 18.79 143.5 18.86C151.62 19.16 157.88 24.43 159.94 32.7C161.59 39.37 160.59 45.79 158.13 52.05C157.33 54.08 157.89 55.69 159.53 56.36C161.06 56.97 162.41 56.19 163.21 54.21C165.51 48.53 166.49 42.6 166.11 36.4ZM136.06 31.21C138.62 30.33 141.5 30.01 144.41 30.61C147.43 31.22 149.1 33.39 149.6 36.97C150.94 46.6 143.64 58.01 134.78 60.33C135.21 50.65 135.63 41.03 136.06 31.21Z" fill="#000000" fill-opacity="1.000000" fill-rule="nonzero"/>
</svg>
