<svg width="199.000000" height="53.000000" viewBox="0 0 199 53" fill="none" xmlns="http://www.w3.org/2000/svg" xmlns:xlink="http://www.w3.org/1999/xlink">
	<desc>
			Created with Pixso.
	</desc>
	<defs>
		<clipPath id="clip155_459">
			<rect id="Frame" width="199.000000" height="53.000000" fill="white" fill-opacity="0"/>
		</clipPath>
	</defs>
	<rect id="Frame" width="199.000000" height="53.000000" fill="#FFFFFF" fill-opacity="0"/>
	<g clip-path="url(#clip155_459)">
		<path id="Vector" d="M28.22 36.68C28.22 37.04 28.22 37.42 28.22 37.88C27.96 37.93 27.73 37.99 27.5 37.99C21.84 38 16.17 37.98 10.5 38.01C9.45 38.02 9.19 37.62 9.52 36.63C10.4 36.53 11.29 36.45 12.18 36.33C14.3 36.02 15.23 35.07 15.42 32.96C15.5 32.19 15.5 31.4 15.5 30.62C15.51 21.42 15.5 12.24 15.5 3.05C15.5 2.56 15.5 2.08 15.5 1.47C11.14 1.49 7.26 2.36 4.26 5.64C3.57 6.4 2.87 7.17 2.27 7.99C1.71 8.75 1.08 9.07 0 8.74C0.09 8.22 0.18 7.69 0.3 7.15C0.72 5.11 1.19 3.07 1.56 1.02C1.71 0.27 2.01 0 2.78 0C13.57 0.01 24.38 0.01 35.17 0C35.91 0 36.25 0.21 36.4 0.98C36.89 3.55 37.48 6.1 38.04 8.7C36.9 9.05 36.2 8.86 35.49 7.86C34.52 6.46 33.37 5.13 32.09 4C29.34 1.55 25.9 1.47 22.32 1.49C22.3 1.96 22.26 2.39 22.26 2.83C22.26 12.47 22.25 22.11 22.26 31.76C22.26 32.45 22.31 33.16 22.45 33.84C22.68 35.04 23.44 35.82 24.64 36.08C25.79 36.33 26.96 36.48 28.22 36.68Z" fill="#000000" fill-opacity="1.000000" fill-rule="nonzero"/>
		<path id="Vector" d="M182.97 51.03C182.97 51.75 182.97 52.27 182.97 52.92C182.49 52.94 182.05 52.98 181.62 52.98C124.24 52.98 66.86 52.98 9.49 53C8.56 53 7.9 52.87 8.16 51.76C8.22 51.48 8.6 51.19 8.9 51.06C9.18 50.94 9.55 51.03 9.88 51.03C67.01 51.03 124.13 51.03 181.26 51.03C181.78 51.03 182.31 51.03 182.97 51.03Z" fill="#000000" fill-opacity="1.000000" fill-rule="nonzero"/>
		<path id="Vector" d="M155.79 36.64C155.79 37.1 155.79 37.48 155.79 37.93C151.5 37.93 147.28 37.93 142.95 37.93C142.91 37.54 142.87 37.16 142.84 36.83C142.97 36.72 143.02 36.63 143.09 36.62C145.98 36.12 146.22 35.81 146.22 32.84C146.22 29.02 146.22 25.2 146.22 21.38C146.22 20.93 146.23 20.48 146.19 20.03C145.91 17.07 143.91 15.48 141.09 16.4C139.39 16.95 137.91 18.16 136.39 19.18C136.13 19.35 136.1 19.99 136.1 20.41C136.08 24.52 136.09 28.62 136.09 32.72C136.09 35.86 136.29 36.1 139.41 36.63C139.75 37.56 139.58 38.02 138.42 38.01C134.85 37.97 131.27 37.97 127.7 38.01C126.69 38.02 126.32 37.71 126.64 36.73C126.72 36.68 126.78 36.61 126.85 36.59C129.73 36.19 129.97 35.92 129.97 33C129.97 29.55 129.94 26.1 129.98 22.66C130.01 20.4 129.36 18.63 127.1 17.73C126.87 17.64 126.61 17.36 126.59 17.14C126.58 16.96 126.84 16.62 127.04 16.56C129.73 15.68 132.44 14.84 135.15 14.02C135.39 13.94 135.69 14.05 136.11 14.09C136.11 15.18 136.11 16.22 136.11 17.51C136.86 17 137.39 16.64 137.92 16.27C140.45 14.51 143.21 13.71 146.3 14.08C150.19 14.55 152.34 16.71 152.44 20.64C152.55 24.74 152.48 28.85 152.5 32.95C152.49 35.97 152.72 36.21 155.79 36.64Z" fill="#000000" fill-opacity="1.000000" fill-rule="nonzero"/>
		<path id="Vector" d="M99.16 26.44C99.14 19.48 104.47 14.05 111.38 13.99C118.21 13.93 123.53 19.24 123.56 26.13C123.58 33.18 118.32 38.63 111.44 38.67C104.34 38.71 99.18 33.57 99.16 26.44ZM117.21 27.05C117.13 27.03 117.06 27.01 116.98 26.99C116.87 25.68 116.82 24.37 116.65 23.07C116.38 21.02 115.91 19.03 114.66 17.32C112.82 14.79 109.39 14.81 107.59 17.38C107.17 17.97 106.77 18.64 106.6 19.34C105.35 24.28 105.45 29.18 107.53 33.9C108.36 35.78 109.7 37.31 111.97 37.21C114.22 37.1 115.38 35.41 115.93 33.51C116.54 31.41 116.8 29.21 117.21 27.05Z" fill="#000000" fill-opacity="1.000000" fill-rule="nonzero"/>
		<path id="Vector" d="M77.72 35.13C78 35.44 78.26 35.73 78.51 36.01C75.81 39.79 71.29 39.64 69.27 35.66C68.91 35.91 68.57 36.16 68.22 36.41C65.91 38.07 63.42 39.11 60.51 38.57C56.61 37.86 54.98 33.84 57.41 30.69C58.21 29.65 59.32 28.75 60.45 28.06C62.87 26.6 65.39 25.29 67.89 23.98C68.79 23.51 69.26 22.98 69.14 21.89C69.03 20.84 69.15 19.77 69.09 18.7C69.02 17.46 68.65 16.31 67.39 15.78C65.99 15.2 64.54 15.23 63.3 16.15C62.95 16.4 62.74 17.27 62.9 17.69C63.41 18.96 63.46 20.08 62.47 21.1C61.44 22.15 60.16 22.3 58.82 21.94C57.36 21.56 56.57 20.12 57.27 18.78C57.77 17.8 58.54 16.81 59.45 16.22C62.85 14.02 66.61 13.43 70.54 14.46C73.7 15.28 75.31 17.5 75.33 20.77C75.34 24.95 75.33 29.13 75.33 33.33C75.33 33.69 75.33 34.06 75.36 34.43C75.49 35.86 76.06 36.15 77.26 35.4C77.37 35.32 77.51 35.24 77.72 35.13ZM69.12 25.1C66.95 26.33 64.98 27.42 63.7 29.36C62.89 30.58 62.7 31.96 63 33.38C63.28 34.76 64.48 35.59 65.91 35.47C67.42 35.35 69.1 34.15 69.11 33.12C69.14 30.53 69.12 27.95 69.12 25.1Z" fill="#000000" fill-opacity="1.000000" fill-rule="nonzero"/>
		<path id="Vector" d="M41.28 1.93C41.28 1.33 41.28 0.77 41.28 0.15C86.7 0.15 132.05 0.15 177.5 0.15C177.5 0.73 177.5 1.29 177.5 1.93C132.11 1.93 86.72 1.93 41.28 1.93Z" fill="#000000" fill-opacity="1.000000" fill-rule="nonzero"/>
		<path id="Vector" d="M51.94 23.73C46.54 23.73 41.21 23.73 35.74 23.73C35.88 27.4 36.84 30.53 40.02 32.47C43.85 34.8 47.55 34.21 50.98 31.44C51.24 31.62 51.47 31.78 51.7 31.96C51.79 32.03 51.83 32.16 51.89 32.25C50.2 36.31 45.25 39.11 40.51 38.71C33.95 38.15 29.7 32.88 30.23 25.94C30.67 20.31 34.39 15.56 39.35 14.32C45.83 12.7 51.53 16.87 51.94 23.73ZM45.27 21.98C45.43 19.74 45.1 17.79 43.22 16.45C41.77 15.43 40.18 15.43 38.72 16.4C36.79 17.7 36.03 19.64 35.89 21.97C39.07 21.98 42.08 21.98 45.27 21.98Z" fill="#000000" fill-opacity="1.000000" fill-rule="nonzero"/>
		<path id="Vector" d="M180.76 23.69C175.07 23.69 169.75 23.69 164.46 23.69C163.78 26.44 165.58 30.43 168.25 32.31C171.58 34.63 175.23 34.37 179.5 31.45C179.8 31.67 180.11 31.91 180.51 32.21C178.34 36.23 175.04 38.38 170.55 38.7C164.36 39.13 159.25 34.65 158.8 28.46C158.47 23.86 159.77 19.85 163.27 16.72C168.15 12.37 176.07 13.35 179.09 18.78C179.87 20.19 180.16 21.89 180.76 23.69ZM173.85 21.96C173.91 19.67 173.57 17.65 171.58 16.36C170.19 15.46 168.67 15.47 167.29 16.38C165.33 17.66 164.54 19.61 164.4 21.97C167.58 21.96 170.63 21.96 173.85 21.96Z" fill="#000000" fill-opacity="1.000000" fill-rule="nonzero"/>
		<path id="Vector" d="M95.81 33.68C96.14 34.05 96.39 34.32 96.68 34.66C94.69 36.74 92.63 38.53 89.6 38.72C86.62 38.91 84.68 37.48 84.17 34.56C83.98 33.43 83.91 32.28 83.91 31.13C83.88 26.61 83.9 22.1 83.9 17.59C83.9 17.14 83.9 16.7 83.9 16.1C82.88 16.1 82.01 16.1 81.13 16.1C81.03 15.99 80.92 15.88 80.82 15.77C81.12 15.25 81.3 14.57 81.74 14.23C84.18 12.34 86.65 10.51 88.4 7.89C88.64 7.55 89.34 7.52 90.05 7.27C90.05 9.81 90.05 12.05 90.05 14.4C92.31 14.4 94.42 14.4 96.64 14.4C96.64 14.99 96.64 15.45 96.64 16.09C94.8 16.09 92.97 16.13 91.14 16.07C90.26 16.04 90.03 16.35 90.04 17.19C90.07 22.28 90.03 27.37 90.08 32.45C90.09 33.65 89.95 35.09 91.35 35.66C92.71 36.23 93.79 35.35 94.78 34.52C95.07 34.26 95.39 34.01 95.81 33.68Z" fill="#000000" fill-opacity="1.000000" fill-rule="nonzero"/>
		<path id="Vector" d="M190.99 16.67C186.51 16.71 182.89 13.16 182.85 8.7C182.82 4.25 186.41 0.62 190.87 0.61C195.36 0.59 198.97 4.14 199 8.59C199.02 13.06 195.47 16.65 190.99 16.67ZM184.38 8.59C184.38 12.48 187.18 15.47 190.88 15.48C194.57 15.5 197.49 12.52 197.49 8.69C197.51 4.86 194.64 1.83 190.97 1.8C187.27 1.77 184.4 4.73 184.38 8.59Z" fill="#000000" fill-opacity="1.000000" fill-rule="nonzero"/>
		<path id="Vector" d="M193.42 8.43C193.72 9.88 193.97 11.11 194.23 12.37C193.17 12.74 192.59 12.68 192.52 11.52C192.39 9.33 191.94 9.02 189.46 9.38C189.46 10.16 189.53 10.97 189.43 11.76C189.38 12.06 188.96 12.31 188.7 12.59C188.45 12.35 188.01 12.11 188.01 11.85C187.96 9.49 187.97 7.12 187.97 4.7C189.58 4.7 191.1 4.5 192.55 4.75C194.43 5.07 194.68 7.07 193.42 8.43ZM190.83 5.61C190.04 5.53 189.32 5.52 189.44 6.67C189.52 7.4 189.2 8.26 190.51 8.21C192.04 8.15 192.71 7.83 192.67 6.87C192.61 5.66 191.7 5.64 190.83 5.61Z" fill="#000000" fill-opacity="1.000000" fill-rule="nonzero"/>
	</g>
</svg>
