<svg width="49.000000" height="49.000000" viewBox="0 0 49 49" fill="none" xmlns="http://www.w3.org/2000/svg" xmlns:xlink="http://www.w3.org/1999/xlink">
	<desc>
			Created with Pixso.
	</desc>
	<defs/>
	<path id="Vector" d="M24.04 48.35C10.6 48.35 -0.34 37.41 -0.34 23.97C-0.34 10.53 10.6 -0.41 24.04 -0.41C37.48 -0.41 48.42 10.53 48.42 23.97C48.42 37.42 37.48 48.35 24.04 48.35ZM24.04 0.73C11.22 0.73 0.79 11.16 0.79 23.97C0.79 36.78 11.23 47.21 24.04 47.21C36.86 47.21 47.28 36.78 47.28 23.97C47.28 11.16 36.84 0.73 24.04 0.73Z" fill="#EF5924" fill-opacity="1.000000" fill-rule="nonzero"/>
	<path id="Vector" d="M22.98 29.5C21.41 30.94 19.95 32.29 18.27 33.83C17.46 31.48 16.56 29.4 16.07 27.23C15.66 25.38 14.79 24.41 12.99 24.02C11.7 23.73 10.44 23.29 9.2 22.81C8.81 22.66 8.35 22.15 8.34 21.79C8.33 21.44 8.8 20.9 9.17 20.75C17.37 17.54 25.59 14.37 33.8 11.21C35.15 10.69 35.72 11.23 35.43 12.69C34.11 19.43 32.8 26.18 31.46 32.92C31.07 34.9 30.6 35.05 28.96 33.86C27 32.43 25.03 31 22.98 29.5ZM18.2 31.38C18.46 29.35 18.29 27.57 18.99 26.25C19.7 24.88 21.27 23.96 22.46 22.85C24.06 21.37 25.65 19.89 27.25 18.41C23.6 20.32 20.15 22.48 16.74 24.68C16.49 24.84 16.26 25.4 16.34 25.68C16.87 27.46 17.48 29.23 18.2 31.38Z" fill="#EF5924" fill-opacity="1.000000" fill-rule="nonzero"/>
</svg>
