<svg width="53.000000" height="52.000000" viewBox="0 0 53 52" fill="none" xmlns="http://www.w3.org/2000/svg" xmlns:xlink="http://www.w3.org/1999/xlink">
	<desc>
			Created with Pixso.
	</desc>
	<defs/>
	<path id="Vector" d="M25.94 51.58C11.55 51.58 -0.15 39.88 -0.15 25.49C-0.15 11.1 11.55 -0.6 25.94 -0.6C40.33 -0.6 52.03 11.1 52.03 25.49C52.03 39.88 40.33 51.58 25.94 51.58ZM25.94 0.41C12.11 0.41 0.85 11.66 0.85 25.5C0.85 39.34 12.1 50.59 25.94 50.59C39.77 50.59 51.03 39.34 51.03 25.5C51.03 11.66 39.78 0.41 25.94 0.41ZM25.94 50.39C12.21 50.39 1.03 39.22 1.03 25.49C1.03 11.76 12.21 0.59 25.94 0.59C39.66 0.59 50.84 11.76 50.84 25.49C50.84 39.22 39.66 50.39 25.94 50.39ZM25.94 1.6C12.76 1.6 2.03 12.32 2.03 25.5C2.03 38.68 12.76 49.4 25.94 49.4C39.12 49.4 49.84 38.68 49.84 25.5C49.84 12.32 39.12 1.6 25.94 1.6Z" fill="#EF5924" fill-opacity="1.000000" fill-rule="nonzero"/>
	<path id="Vector" d="M12.63 38.38C13.36 36.23 14.06 34.46 14.53 32.63C14.74 31.83 14.71 30.81 14.4 30.05C12.26 25.02 12.69 20.25 16.12 16.02C19.54 11.77 24.16 10.19 29.48 11.36C34.88 12.54 38.39 16 39.65 21.36C40.87 26.55 39.33 31.09 35.25 34.5C31.07 38 26.31 38.54 21.22 36.61C20.48 36.33 19.54 36.27 18.78 36.48C16.79 36.98 14.87 37.67 12.63 38.38ZM15.95 34.75C16.1 34.81 16.25 34.87 16.39 34.93C17.21 34.68 18.08 34.5 18.86 34.16C19.84 33.73 20.65 33.89 21.59 34.37C26.38 36.8 32.25 35.39 35.55 31.1C38.74 26.94 38.59 21.1 35.21 17.16C31.6 12.98 25.73 11.91 20.95 14.59C16.34 17.17 13.98 22.86 15.91 27.84C16.85 30.25 17.68 32.35 15.95 34.75Z" fill="#EF5924" fill-opacity="1.000000" fill-rule="nonzero"/>
	<path id="Vector" d="M19.87 21.16C20.19 20.49 20.42 19.63 20.92 18.98C21.84 17.78 23.04 17.95 23.61 19.34C24.1 20.52 25.06 21.7 23.68 22.97C23.52 23.12 23.59 23.8 23.78 24.02C24.62 24.97 25.49 25.92 26.47 26.72C27.5 27.56 28.6 27.97 29.55 26.45C29.72 26.19 30.38 26.18 30.82 26.16C31.04 26.15 31.3 26.33 31.51 26.47C32.24 26.96 33.59 26.86 33.32 28.32C33.05 29.74 31.98 30.57 30.72 30.49C29.24 30.4 27.7 29.98 26.33 29.36C23.61 28.13 21.83 25.86 20.46 23.27C20.18 22.71 20.12 22.02 19.87 21.16Z" fill="#EF5924" fill-opacity="1.000000" fill-rule="nonzero"/>
</svg>
