<svg width="1364.000000" height="95.000000" viewBox="0 0 1364 95" fill="none" xmlns="http://www.w3.org/2000/svg" xmlns:xlink="http://www.w3.org/1999/xlink">
	<desc>
			Created with Pixso.
	</desc>
	<defs/>
	<path id="Vector" d="M0 26.61L48.87 26.61L48.87 86.54L35.95 86.54L35.95 38.26L12.93 38.26L12.93 86.54L0 86.54L0 26.61Z" fill="#232326" fill-opacity="1.000000" fill-rule="nonzero"/>
	<path id="Vector" d="M121.11 56.58C121.11 65.71 118.24 73.16 112.49 78.92C106.74 84.68 99.3 87.56 90.16 87.56C81.6 87.56 74.34 84.82 68.4 79.3C62.45 73.79 59.47 66.22 59.47 56.57C59.47 50.12 60.94 44.5 63.92 39.71C66.88 34.92 70.66 31.38 75.29 29.09C79.92 26.81 84.96 25.67 90.42 25.67C94.44 25.67 98.26 26.35 101.88 27.72C105.5 29.09 108.76 31.03 111.66 33.54C114.56 36.06 116.86 39.3 118.56 43.3C120.27 47.3 121.11 51.73 121.11 56.58ZM72.5 56.58C72.5 62.8 74.2 67.57 77.59 70.87C80.98 74.18 85.23 75.83 90.36 75.83C95.41 75.83 99.66 74.18 103.12 70.87C106.57 67.57 108.3 62.8 108.3 56.58C108.3 50.52 106.57 45.83 103.12 42.5C99.68 39.16 95.45 37.49 90.46 37.49C85.4 37.49 81.15 39.16 77.69 42.5C74.22 45.83 72.5 50.54 72.5 56.58Z" fill="#232326" fill-opacity="1.000000" fill-rule="nonzero"/>
	<path id="Vector" d="M173.45 86.54L160.69 86.54L160.69 65.15C149.19 66.57 140.82 65.04 135.56 60.53C130.3 56.02 127.67 47.78 127.67 35.79L127.67 26.72L140.69 26.72L140.69 35.79C140.69 43.61 142.06 48.75 144.83 51.21C147.58 53.66 152.88 54.34 160.69 53.26L160.69 26.7L173.45 26.7L173.45 86.54Z" fill="#232326" fill-opacity="1.000000" fill-rule="nonzero"/>
	<path id="Vector" d="M224.49 26.61L224.49 37.83L200.52 37.83L200.52 49.99L222.93 49.99L222.93 61.21L200.52 61.21L200.52 74.91L225.17 74.91L225.17 86.56L187.5 86.56L187.5 26.63L224.49 26.63L224.49 26.61Z" fill="#232326" fill-opacity="1.000000" fill-rule="nonzero"/>
	<path id="Vector" d="M265.78 54.96L290 26.46L294.66 26.46L294.66 86.56L281.72 86.56L281.72 54.1L266.54 72.93L264.91 72.93L249.74 54.1L249.74 86.54L236.8 86.54L236.8 26.44L241.54 26.44L265.78 54.96Z" fill="#232326" fill-opacity="1.000000" fill-rule="nonzero"/>
	<path id="Vector" d="M320.87 71.48L323.45 66.08L302.16 28.24L302.16 26.61L316.39 26.61L330.09 53.07L330.51 53.07L342.76 26.61L356.46 26.61L356.46 27.9L333.69 73.62C332.2 76.88 330.71 79.53 329.21 81.58C327.71 83.64 325.92 85.34 323.83 86.68C321.73 88.01 319.26 88.66 316.41 88.6C313.56 88.54 310.31 87.83 306.63 86.46L308.36 76.02C311.29 77.33 313.75 77.64 315.78 76.95C317.79 76.27 319.49 74.45 320.87 71.48Z" fill="#232326" fill-opacity="1.000000" fill-rule="nonzero"/>
	<path id="Vector" d="M486.52 41.52C474.7 22.09 446.71 22.33 440.54 22.38C434.26 22.43 404.62 22.69 394.35 42.94C387.93 55.59 392.51 69.32 392.77 70.05C394.06 73.72 397.24 80.76 404.64 86.28C410.9 90.93 417.26 91.83 425.3 93.07C431.72 94.06 436.77 93.95 441.68 93.84C446.8 93.73 452 93.61 458.52 92.26C465.71 90.77 472.19 89.5 478.55 84.57C481.33 82.42 487.76 77.3 490.55 68.1C494.46 55.14 487.88 43.77 486.52 41.52ZM467.31 67.9C464.61 71.57 461.07 72.86 456.82 74.4C450.67 76.64 445.51 76.73 441.4 76.78C436.9 76.83 431.96 76.82 426.06 74.73C422.18 73.35 418.33 71.99 415.39 68.07C414.45 66.81 411.79 62.92 412.07 57.58C412.35 52.03 415.59 48.34 416.99 46.81C424.12 38.93 435.37 38.95 441.48 38.96C447.7 38.98 458.25 38.99 465.19 46.43C466.59 47.92 469.92 51.59 470.33 57.23C470.42 58.24 470.7 63.31 467.31 67.9Z" fill="#DE5922" fill-opacity="1.000000" fill-rule="nonzero"/>
	<path id="Vector" d="M631.09 93.33L615.13 93.33C612.9 93.33 611.08 91.52 611.09 89.29L611.19 51.16C611.19 48.93 613.01 47.13 615.22 47.13L630.71 47.13C632.92 47.13 634.72 48.91 634.74 51.12C634.87 63.84 635 76.54 635.14 89.25C635.16 91.49 633.35 93.33 631.09 93.33Z" fill="#DE5922" fill-opacity="1.000000" fill-rule="nonzero"/>
	<path id="Vector" d="M632.18 28.7C632.17 28.69 632.15 28.66 632.14 28.62C632.15 28.33 632.17 28.02 632.17 27.73C632.17 21.19 627.92 15.87 622.7 15.87C617.48 15.87 613.24 21.19 613.24 27.73C613.24 28.08 613.25 28.42 613.28 28.77C613.26 28.78 613.26 28.8 613.25 28.81L613.28 28.84C613.73 34.87 617.78 39.6 622.7 39.6C627.65 39.6 631.73 34.82 632.13 28.74L632.18 28.7Z" fill="#DE5922" fill-opacity="1.000000" fill-rule="nonzero"/>
	<path id="Vector" d="M785.29 93.06L769.33 93.06C767.1 93.06 765.28 91.25 765.3 89.02L765.39 50.89C765.39 48.66 767.21 46.87 769.42 46.87L784.91 46.87C787.12 46.87 788.92 48.64 788.94 50.85C789.07 63.57 789.2 76.27 789.34 88.99C789.35 91.24 787.54 93.06 785.29 93.06Z" fill="#DE5922" fill-opacity="1.000000" fill-rule="nonzero"/>
	<path id="Vector" d="M786.37 28.44C786.35 28.42 786.34 28.39 786.33 28.35C786.34 28.06 786.35 27.76 786.35 27.46C786.35 20.92 782.1 15.6 776.89 15.6C771.67 15.6 767.43 20.92 767.43 27.46C767.43 27.82 767.44 28.16 767.46 28.5C767.45 28.51 767.45 28.53 767.44 28.55L767.46 28.57C767.91 34.6 771.97 39.33 776.89 39.33C781.84 39.33 785.92 34.55 786.32 28.47L786.37 28.44Z" fill="#DE5922" fill-opacity="1.000000" fill-rule="nonzero"/>
	<path id="Vector" d="M656.98 90.21C656.71 85.7 662.37 68.2 662.14 57.02C661.93 47.45 657.11 27.63 656.98 26.03C656.98 25.96 656.97 25.87 656.97 25.87C656.95 25.46 657 24.44 657.83 23.68C658.4 23.16 659.4 22.91 660.85 22.91L674.19 22.91C675.28 22.91 676.21 23.05 676.98 23.34C677.74 23.64 678.27 23.92 678.55 24.15C678.83 24.39 679.19 24.84 679.63 25.47C680.07 26.12 680.31 26.47 680.35 26.54L698.04 51.81C698.38 52.3 699.11 52.31 699.46 51.81L717.34 26.54C717.54 26.21 717.84 25.76 718.24 25.24C718.76 24.58 719.06 24.19 719.58 23.83C720.22 23.38 720.8 23.21 721.19 23.1C722.02 22.87 722.77 22.85 723.4 22.89C727.71 22.89 732.02 22.89 736.34 22.89C737.79 22.89 738.79 23.15 739.36 23.67C739.84 24.11 740.18 24.85 740.22 26.02C740.35 30.38 736.34 48.42 736.27 57.55C736.2 67.3 740.47 85.77 740.22 90.2C740.19 90.68 740.19 91.94 739.27 92.6C738.63 93.05 737.66 93.28 736.34 93.28L723.4 93.28C722.08 93.28 721.11 93.05 720.47 92.6C719.61 91.98 719.55 90.7 719.52 90.2C719.41 88.27 720.97 74.9 723.4 56.82C723.1 53.72 721.58 51.31 719.53 50.77C717.45 50.21 715.17 51.46 714.38 52.6C712.37 55.51 710.09 59.44 708.32 64.36C707.21 67.4 706.51 70.23 706.05 72.7C705.8 73.09 705.2 73.8 704.2 74.37C703.55 74.75 702.88 74.93 702.18 74.93L695.41 74.93C694.09 74.93 692.85 74.19 691.67 72.69C691.18 70.21 688.46 56.94 682.78 52.91C681.79 52.2 679.99 50.97 678.15 51.5C676.08 52.08 674.61 54.68 674.29 58.11C676.75 75.13 678.23 87.67 678.07 90.21C678.05 90.66 678.05 91.95 677.12 92.61C676.49 93.06 675.52 93.29 674.2 93.29L660.86 93.29C659.55 93.29 658.57 93.06 657.94 92.61C656.99 91.94 657 90.64 656.98 90.21Z" fill="#EE820B" fill-opacity="1.000000" fill-rule="nonzero"/>
	<path id="Vector" d="M506.49 90.46C506.22 85.95 511.89 68.44 511.66 57.26C511.45 47.69 506.63 27.88 506.49 26.27C506.49 26.2 506.48 26.12 506.48 26.12C506.47 25.7 506.52 24.68 507.35 23.93C507.92 23.4 508.92 23.15 510.37 23.15L523.7 23.15C524.8 23.15 525.72 23.3 526.49 23.59C527.26 23.88 527.78 24.16 528.06 24.39C528.34 24.63 528.71 25.08 529.15 25.71C529.59 26.36 529.83 26.71 529.87 26.78L547.55 52.06C547.89 52.54 548.62 52.56 548.98 52.06L566.86 26.78C567.05 26.46 567.36 26.01 567.76 25.48C568.27 24.83 568.57 24.44 569.1 24.07C569.73 23.62 570.32 23.45 570.71 23.34C571.53 23.11 572.29 23.09 572.91 23.14C577.22 23.14 581.53 23.14 585.86 23.14C587.31 23.14 588.31 23.39 588.88 23.92C589.35 24.35 589.69 25.09 589.73 26.26C589.87 30.63 585.86 48.66 585.78 57.79C585.71 67.54 589.99 86.01 589.73 90.45C589.71 90.92 589.71 92.18 588.78 92.84C588.15 93.29 587.17 93.52 585.86 93.52L572.91 93.52C571.59 93.52 570.62 93.29 569.99 92.84C569.12 92.22 569.06 90.94 569.04 90.45C568.93 88.51 570.49 75.14 572.91 57.06C572.62 53.97 571.09 51.56 569.05 51.01C566.97 50.45 564.69 51.7 563.9 52.85C561.89 55.75 559.61 59.68 557.83 64.6C556.72 67.64 556.03 70.47 555.57 72.94C555.31 73.33 554.71 74.05 553.71 74.62C553.07 75 552.4 75.18 551.69 75.18L544.92 75.18C543.61 75.18 542.36 74.44 541.18 72.93C540.69 70.45 537.98 57.19 532.29 53.15C531.3 52.45 529.5 51.22 527.66 51.74C525.59 52.32 524.13 54.93 523.8 58.35C526.26 75.37 527.75 87.92 527.59 90.46C527.56 90.91 527.56 92.2 526.64 92.85C526.01 93.3 525.03 93.53 523.71 93.53L510.38 93.53C509.06 93.53 508.09 93.3 507.45 92.85C506.5 92.18 506.52 90.88 506.49 90.46Z" fill="#EE820B" fill-opacity="1.000000" fill-rule="nonzero"/>
	<path id="Vector" d="M999.48 39.82C988.6 19.89 962.37 19.83 956.58 19.82C950.7 19.81 922.93 19.75 913.1 40.29C906.96 53.13 911.12 67.17 911.35 67.91C912.52 71.66 915.43 78.89 922.31 84.57C928.12 89.39 934.07 90.37 941.6 91.72C947.61 92.79 952.34 92.73 956.95 92.67C961.75 92.61 966.62 92.55 972.73 91.24C979.49 89.79 985.58 88.56 991.59 83.61C994.21 81.45 1000.29 76.3 1002.99 66.95C1006.79 53.81 1000.75 42.12 999.48 39.82ZM981.24 66.52C978.67 70.23 975.34 71.51 971.35 73.04C965.56 75.26 960.71 75.3 956.88 75.3C952.65 75.3 948.03 75.24 942.52 73.04C938.9 71.6 935.3 70.16 932.59 66.13C931.72 64.84 929.28 60.85 929.58 55.4C929.9 49.75 932.98 46.03 934.29 44.47C941.04 36.52 951.59 36.65 957.31 36.73C963.15 36.8 973.03 36.93 979.46 44.58C980.75 46.12 983.83 49.89 984.17 55.65C984.23 56.71 984.44 61.89 981.24 66.52Z" fill="#DE5922" fill-opacity="1.000000" fill-rule="nonzero"/>
	<path id="Vector" d="M829.33 56.89C829.33 51.4 830.23 46.38 832.02 41.85C833.81 37.31 836.35 33.4 839.65 30.09C842.96 26.8 846.88 24.26 851.43 22.47C855.98 20.68 861.01 19.79 866.51 19.79C871.65 19.79 876.19 20.32 880.14 21.37C884.09 22.43 887.39 23.78 890.06 25.43C892.71 27.09 894.73 28.87 896.11 30.8C897.49 32.72 898.18 34.55 898.18 36.29C898.18 37.48 897.9 38.62 897.35 39.73C896.8 40.82 896.11 41.77 895.28 42.55C894.45 43.33 893.51 43.95 892.46 44.41C891.4 44.87 890.32 45.1 889.22 45.1C887.29 45.1 885.68 44.46 884.39 43.18C883.56 42.36 882.65 41.53 881.64 40.71C880.63 39.89 879.43 39.16 878.06 38.51C876.68 37.87 875.05 37.35 873.17 36.93C871.29 36.52 869.07 36.31 866.5 36.31C860.25 36.31 855.48 37.85 852.18 40.92C848.88 44 847.22 49.33 847.22 56.93C847.22 64.54 848.88 69.88 852.18 72.94C855.48 76.02 860.25 77.55 866.5 77.55C869.07 77.55 871.3 77.34 873.17 76.93C875.05 76.51 876.68 75.99 878.06 75.35C879.43 74.7 880.63 73.97 881.64 73.15C882.65 72.32 883.56 71.49 884.39 70.67C885.67 69.38 887.28 68.75 889.22 68.75C890.31 68.75 891.4 68.98 892.46 69.44C893.5 69.9 894.45 70.52 895.28 71.3C896.11 72.08 896.79 73 897.35 74.05C897.9 75.1 898.18 76.27 898.18 77.55C898.18 79.29 897.49 81.12 896.11 83.04C894.73 84.96 892.71 86.75 890.06 88.4C887.39 90.06 884.09 91.41 880.14 92.46C876.19 93.51 871.65 94.04 866.51 94.04C861.01 94.04 855.98 93.16 851.43 91.37C846.89 89.58 842.97 87.04 839.65 83.75C836.35 80.45 833.8 76.53 832.02 71.99C830.22 67.41 829.33 62.39 829.33 56.89Z" fill="#EE820B" fill-opacity="1.000000" fill-rule="nonzero"/>
	<path id="Vector" d="M1020.3 30.02C1021.46 30.02 1022.38 30.08 1023.09 30.2C1023.79 30.32 1024.52 30.43 1025.26 30.5C1026.81 30.67 1027.69 29.88 1027.85 28.16C1028.1 24.62 1028.93 21.39 1030.32 18.47C1031.73 15.55 1033.71 13.01 1036.27 10.87C1038.82 8.73 1042.02 7.07 1045.86 5.88C1049.68 4.68 1054.16 4.09 1059.28 4.09C1060.02 4.09 1060.68 4.42 1061.26 5.07C1061.84 5.73 1062.3 6.56 1062.63 7.54C1062.96 8.53 1063.19 9.56 1063.37 10.63C1063.54 11.7 1063.61 12.61 1063.61 13.34C1063.61 14.07 1063.53 14.92 1063.37 15.87C1063.19 16.82 1062.96 17.7 1062.63 18.52C1062.3 19.34 1061.84 20.03 1061.26 20.56C1060.68 21.09 1060.02 21.36 1059.28 21.36C1054.49 21.36 1051.09 22.1 1049.06 23.59C1047.05 25.07 1045.82 26.59 1045.42 28.16C1045.25 28.81 1045.37 29.4 1045.78 29.88C1046.19 30.38 1046.77 30.59 1047.51 30.5C1048.75 30.33 1050.01 30.21 1051.29 30.13C1052.56 30.04 1053.79 30.01 1054.93 30.01C1055.68 30.01 1056.34 30.33 1056.93 30.99C1057.5 31.65 1057.96 32.47 1058.29 33.46C1058.62 34.44 1058.86 35.48 1059.03 36.55C1059.21 37.62 1059.28 38.53 1059.28 39.26C1059.28 39.99 1059.18 40.91 1059.03 41.97C1058.86 43.04 1058.62 44.07 1058.29 45.05C1057.96 46.04 1057.51 46.87 1056.93 47.52C1056.36 48.18 1055.68 48.51 1054.93 48.51C1053.79 48.51 1052.56 48.47 1051.29 48.39C1050.01 48.3 1048.75 48.18 1047.51 48.02C1046.77 47.94 1046.17 48.13 1045.72 48.58C1045.27 49.03 1045.04 49.63 1045.04 50.37C1045.04 53.42 1045.07 56.72 1045.16 60.31C1045.25 63.88 1045.32 67.41 1045.41 70.87C1045.49 74.33 1045.55 77.62 1045.59 80.76C1045.62 83.89 1045.65 86.52 1045.65 88.66C1045.65 89.49 1045.31 90.17 1044.66 90.7C1044 91.24 1043.18 91.67 1042.18 92C1041.19 92.33 1040.17 92.57 1039.1 92.74C1038.02 92.91 1037.11 92.99 1036.38 92.99C1035.64 92.99 1034.72 92.9 1033.65 92.74C1032.57 92.57 1031.54 92.33 1030.56 92C1029.56 91.67 1028.74 91.25 1028.09 90.7C1027.43 90.17 1027.1 89.49 1027.1 88.66C1027.1 86.52 1027.12 83.88 1027.16 80.76C1027.19 77.63 1027.26 74.34 1027.34 70.87C1027.43 67.42 1027.51 63.9 1027.59 60.31C1027.67 56.72 1027.71 53.42 1027.71 50.37C1027.71 49.63 1027.48 49.03 1027.03 48.58C1026.56 48.13 1025.98 47.95 1025.24 48.02C1024.41 48.11 1023.64 48.2 1022.95 48.32C1022.24 48.45 1021.36 48.51 1020.29 48.51C1019.55 48.51 1018.89 48.18 1018.3 47.52C1017.73 46.87 1017.27 46.04 1016.94 45.05C1016.61 44.07 1016.37 43.04 1016.2 41.97C1016.03 40.9 1015.95 39.99 1015.95 39.26C1015.95 38.53 1016.04 37.62 1016.2 36.55C1016.37 35.48 1016.61 34.44 1016.94 33.46C1017.27 32.47 1017.72 31.65 1018.3 30.99C1018.9 30.35 1019.56 30.02 1020.3 30.02Z" fill="#EE820B" fill-opacity="1.000000" fill-rule="nonzero"/>
	<path id="Vector" d="M1076.74 30.02C1077.9 30.02 1078.82 30.08 1079.53 30.2C1080.23 30.32 1080.96 30.43 1081.69 30.5C1083.26 30.67 1084.14 29.88 1084.3 28.16C1084.54 24.62 1085.37 21.39 1086.77 18.47C1088.17 15.55 1090.15 13.01 1092.71 10.87C1095.27 8.73 1098.46 7.07 1102.3 5.88C1106.14 4.68 1110.61 4.09 1115.72 4.09C1116.46 4.09 1117.12 4.42 1117.71 5.07C1118.28 5.73 1118.74 6.56 1119.06 7.54C1119.4 8.53 1119.64 9.56 1119.81 10.63C1119.98 11.7 1120.06 12.61 1120.06 13.34C1120.06 14.07 1119.97 14.92 1119.81 15.87C1119.64 16.82 1119.4 17.7 1119.06 18.52C1118.74 19.34 1118.28 20.03 1117.71 20.56C1117.13 21.09 1116.46 21.36 1115.72 21.36C1110.93 21.36 1107.54 22.1 1105.51 23.59C1103.49 25.07 1102.27 26.59 1101.86 28.16C1101.68 28.81 1101.81 29.4 1102.23 29.88C1102.64 30.38 1103.21 30.59 1103.94 30.5C1105.19 30.33 1106.44 30.21 1107.73 30.13C1109.01 30.04 1110.23 30.01 1111.38 30.01C1112.13 30.01 1112.79 30.33 1113.37 30.99C1113.93 31.65 1114.41 32.47 1114.73 33.46C1115.06 34.44 1115.31 35.48 1115.48 36.55C1115.65 37.62 1115.72 38.53 1115.72 39.26C1115.72 39.99 1115.64 40.91 1115.48 41.97C1115.31 43.04 1115.06 44.07 1114.73 45.05C1114.41 46.04 1113.94 46.87 1113.37 47.52C1112.8 48.18 1112.13 48.51 1111.38 48.51C1110.23 48.51 1109.01 48.47 1107.73 48.39C1106.44 48.3 1105.19 48.18 1103.94 48.01C1103.21 47.92 1102.62 48.12 1102.16 48.57C1101.71 49.02 1101.48 49.61 1101.48 50.35C1101.48 53.41 1101.52 56.71 1101.6 60.3C1101.68 63.88 1101.77 67.4 1101.85 70.86C1101.93 74.33 1101.99 77.62 1102.03 80.75C1102.06 83.88 1102.09 86.51 1102.09 88.65C1102.09 89.47 1101.76 90.15 1101.1 90.69C1100.44 91.22 1099.62 91.66 1098.63 91.99C1097.65 92.32 1096.61 92.56 1095.54 92.73C1094.47 92.9 1093.55 92.97 1092.81 92.97C1092.07 92.97 1091.17 92.89 1090.09 92.73C1089.02 92.56 1087.99 92.32 1087 91.99C1086.01 91.66 1085.18 91.22 1084.53 90.69C1083.87 90.15 1083.54 89.47 1083.54 88.65C1083.54 86.51 1083.56 83.87 1083.6 80.75C1083.64 77.62 1083.69 74.33 1083.78 70.86C1083.87 67.41 1083.96 63.88 1084.03 60.3C1084.11 56.71 1084.15 53.41 1084.15 50.35C1084.15 49.61 1083.92 49.02 1083.47 48.57C1083.02 48.12 1082.42 47.92 1081.68 48.01C1080.85 48.09 1080.07 48.19 1079.39 48.32C1078.68 48.45 1077.8 48.51 1076.73 48.51C1075.99 48.51 1075.32 48.18 1074.75 47.52C1074.17 46.87 1073.71 46.04 1073.38 45.05C1073.05 44.07 1072.81 43.04 1072.64 41.97C1072.47 40.9 1072.4 39.99 1072.4 39.26C1072.4 38.53 1072.48 37.62 1072.64 36.55C1072.81 35.48 1073.05 34.44 1073.38 33.46C1073.71 32.47 1074.16 31.65 1074.75 30.99C1075.34 30.35 1076 30.02 1076.74 30.02Z" fill="#DE5922" fill-opacity="1.000000" fill-rule="nonzero"/>
	<path id="Vector" d="M1252.76 19.81C1257.39 19.81 1261.71 20.4 1265.76 21.61C1269.79 22.8 1273.31 24.41 1276.3 26.46C1279.3 28.5 1281.67 30.93 1283.43 33.76C1285.21 36.59 1286.1 39.69 1286.1 43.06C1286.1 47.23 1285.21 50.71 1283.43 53.49C1281.67 56.29 1279.29 58.54 1276.3 60.27C1273.31 62 1269.8 63.22 1265.76 63.92C1261.72 64.63 1257.39 64.98 1252.76 64.98C1249.4 64.98 1246.34 64.76 1243.57 64.31C1240.81 63.87 1238.61 63.42 1236.97 62.98C1236.06 62.8 1235.41 62.91 1235 63.31C1234.59 63.71 1234.48 64.26 1234.66 64.98C1234.93 66.04 1235.43 67.19 1236.16 68.43C1236.89 69.67 1237.92 70.83 1239.29 71.88C1240.65 72.94 1242.42 73.83 1244.6 74.55C1246.78 75.25 1249.49 75.6 1252.76 75.6C1255.3 75.6 1257.5 75.41 1259.36 75.01C1261.22 74.61 1262.82 74.1 1264.18 73.48C1265.55 72.86 1266.72 72.15 1267.72 71.35C1268.72 70.55 1269.62 69.76 1270.43 68.95C1271.69 67.71 1273.28 67.09 1275.18 67.09C1276.28 67.09 1277.35 67.31 1278.39 67.76C1279.43 68.2 1280.36 68.81 1281.18 69.55C1281.99 70.3 1282.67 71.19 1283.21 72.21C1283.76 73.23 1284.03 74.36 1284.03 75.6C1284.03 77.28 1283.34 79.06 1281.98 80.91C1280.62 82.77 1278.62 84.5 1276 86.09C1273.37 87.69 1270.1 89 1266.21 90.02C1262.31 91.04 1257.81 91.55 1252.73 91.55C1247.11 91.55 1242.03 90.69 1237.5 88.96C1232.97 87.24 1229.11 84.78 1225.93 81.58C1222.76 78.4 1220.31 74.61 1218.59 70.23C1216.88 65.84 1216.01 60.99 1216.01 55.68C1216.01 50.37 1216.88 45.52 1218.59 41.13C1220.31 36.74 1222.76 32.96 1225.93 29.76C1229.12 26.58 1232.97 24.12 1237.5 22.38C1242.05 20.67 1247.13 19.81 1252.76 19.81ZM1236.97 48.37C1238.68 48.73 1241.01 49.15 1243.92 49.64C1246.81 50.12 1249.76 50.37 1252.76 50.37C1257.19 50.37 1260.92 49.72 1263.92 48.43C1266.91 47.15 1268.41 45.36 1268.41 43.05C1268.41 40.75 1266.91 38.95 1263.92 37.66C1260.92 36.38 1257.19 35.74 1252.76 35.74C1249.68 35.74 1247.05 36.06 1244.87 36.68C1242.68 37.3 1240.9 38.08 1239.5 39C1238.07 39.94 1237.02 40.92 1236.29 41.99C1235.56 43.05 1235.06 44.07 1234.79 45.04C1234.61 45.75 1234.72 46.44 1235.13 47.1C1235.55 47.78 1236.16 48.19 1236.97 48.37Z" fill="#DE5922" fill-opacity="1.000000" fill-rule="nonzero"/>
	<path id="Vector" d="M1169.86 20C1174.5 20 1178.86 20.6 1182.92 21.8C1186.97 23 1190.51 24.62 1193.52 26.67C1196.52 28.72 1198.91 31.17 1200.68 34.02C1202.47 36.86 1203.36 39.97 1203.36 43.36C1203.36 47.55 1202.47 51.04 1200.68 53.84C1198.91 56.65 1196.52 58.91 1193.52 60.65C1190.51 62.39 1186.97 63.6 1182.92 64.32C1178.86 65.04 1174.51 65.39 1169.86 65.39C1166.49 65.39 1163.42 65.17 1160.63 64.72C1157.85 64.29 1155.64 63.84 1154 63.39C1153.09 63.2 1152.43 63.31 1152.02 63.71C1151.6 64.12 1151.49 64.67 1151.68 65.38C1151.93 66.45 1152.46 67.6 1153.17 68.84C1153.89 70.08 1154.94 71.25 1156.31 72.31C1157.68 73.37 1159.46 74.27 1161.65 74.98C1163.82 75.7 1166.56 76.05 1169.85 76.05C1172.4 76.05 1174.61 75.85 1176.48 75.46C1178.34 75.06 1179.96 74.55 1181.31 73.93C1182.68 73.31 1183.87 72.59 1184.88 71.79C1185.88 70.98 1186.79 70.18 1187.61 69.38C1188.89 68.13 1190.48 67.51 1192.39 67.51C1193.49 67.51 1194.56 67.73 1195.61 68.18C1196.66 68.63 1197.6 69.22 1198.41 69.97C1199.23 70.73 1199.91 71.63 1200.46 72.65C1201.01 73.67 1201.27 74.81 1201.27 76.05C1201.27 77.74 1200.59 79.52 1199.23 81.39C1197.86 83.26 1195.85 84.99 1193.21 86.59C1190.56 88.2 1187.29 89.51 1183.37 90.53C1179.44 91.55 1174.93 92.06 1169.84 92.06C1164.18 92.06 1159.07 91.2 1154.53 89.46C1149.97 87.72 1146.1 85.25 1142.91 82.06C1139.72 78.85 1137.26 75.04 1135.53 70.64C1133.8 66.24 1132.93 61.37 1132.93 56.03C1132.93 50.7 1133.8 45.82 1135.53 41.42C1137.26 37.02 1139.72 33.21 1142.91 30.01C1146.1 26.8 1149.97 24.33 1154.53 22.6C1159.11 20.88 1164.21 20 1169.86 20ZM1154 48.7C1155.73 49.05 1158.06 49.48 1160.97 49.97C1163.88 50.45 1166.85 50.7 1169.85 50.7C1174.31 50.7 1178.05 50.05 1181.05 48.76C1184.06 47.47 1185.56 45.67 1185.56 43.35C1185.56 41.04 1184.05 39.23 1181.05 37.94C1178.05 36.65 1174.31 36.01 1169.85 36.01C1166.74 36.01 1164.11 36.33 1161.92 36.95C1159.73 37.57 1157.93 38.34 1156.52 39.28C1155.11 40.22 1154.04 41.21 1153.31 42.28C1152.57 43.35 1152.07 44.37 1151.81 45.36C1151.63 46.08 1151.74 46.76 1152.15 47.42C1152.56 48.11 1153.17 48.53 1154 48.7Z" fill="#EE820B" fill-opacity="1.000000" fill-rule="nonzero"/>
	<path id="Vector" d="M1335.62 71.42C1333.89 71.42 1332.45 70.85 1331.31 69.72C1330.16 68.59 1329.59 67.15 1329.59 65.44C1329.59 62.39 1330.38 59.05 1331.95 55.41C1333.53 51.78 1335.97 48.54 1339.29 45.74C1341.49 43.86 1343.53 42 1345.38 40.16C1347.23 38.32 1348.73 36.21 1349.87 33.82C1351.02 31.44 1351.59 28.52 1351.59 25.08C1351.59 22.58 1350.99 20.23 1349.81 18.04C1348.63 15.86 1346.95 14.07 1344.79 12.71C1342.62 11.35 1339.97 10.65 1336.81 10.65C1332.95 10.65 1329.76 11.36 1327.24 12.77C1324.72 14.18 1322.84 16.14 1321.63 18.64C1320.41 21.14 1319.8 24.07 1319.8 27.44C1319.8 29.17 1319.25 30.59 1318.14 31.72C1317.03 32.85 1315.58 33.42 1313.77 33.42C1312.04 33.42 1310.6 32.85 1309.46 31.72C1308.31 30.59 1307.74 29.15 1307.74 27.44C1307.74 21.97 1308.94 17.16 1311.35 13.01C1313.74 8.87 1317.13 5.6 1321.5 3.21C1325.88 0.83 1330.98 -0.36 1336.8 -0.36C1341.92 -0.36 1346.47 0.72 1350.46 2.87C1354.44 5.02 1357.58 8 1359.91 11.8C1362.23 15.59 1363.39 20.03 1363.39 25.12C1363.39 29.51 1362.68 33.3 1361.26 36.5C1359.85 39.71 1357.91 42.57 1355.47 45.12C1353.03 47.66 1350.24 50.18 1347.08 52.69C1345.04 54.33 1343.61 56.47 1342.83 59.08C1342.04 61.71 1341.65 63.84 1341.65 65.48C1341.65 67.2 1341.1 68.63 1339.99 69.76C1338.9 70.85 1337.44 71.42 1335.62 71.42ZM1335.62 93.13C1333.42 93.13 1331.5 92.33 1329.88 90.73C1328.26 89.12 1327.46 87.22 1327.46 85.04C1327.46 82.76 1328.26 80.83 1329.88 79.23C1331.5 77.62 1333.4 76.82 1335.62 76.82C1337.91 76.82 1339.86 77.62 1341.47 79.23C1343.07 80.83 1343.89 82.76 1343.89 85.04C1343.89 87.22 1343.09 89.12 1341.47 90.73C1339.86 92.33 1337.91 93.13 1335.62 93.13Z" fill="#EE820B" fill-opacity="1.000000" fill-rule="nonzero"/>
	<path id="Vector" d="M1331.31 69.72C1330.16 68.59 1329.59 67.15 1329.59 65.44C1329.59 62.39 1330.38 59.05 1331.95 55.41C1333.53 51.78 1335.97 48.54 1339.29 45.74C1341.49 43.86 1343.53 42 1345.38 40.16C1347.23 38.32 1348.73 36.21 1349.87 33.82C1351.02 31.44 1351.59 28.52 1351.59 25.08C1351.59 22.58 1350.99 20.23 1349.81 18.04C1348.63 15.86 1346.95 14.07 1344.79 12.71C1342.62 11.35 1339.97 10.65 1336.81 10.65C1332.95 10.65 1329.76 11.36 1327.24 12.77C1324.72 14.18 1322.84 16.14 1321.63 18.64C1320.41 21.14 1319.8 24.07 1319.8 27.44C1319.8 29.17 1319.25 30.59 1318.14 31.72C1317.03 32.85 1315.58 33.42 1313.77 33.42C1312.04 33.42 1310.6 32.85 1309.46 31.72C1308.31 30.59 1307.74 29.15 1307.74 27.44C1307.74 21.97 1308.94 17.16 1311.35 13.01C1313.74 8.87 1317.13 5.6 1321.5 3.21C1325.88 0.83 1330.98 -0.36 1336.8 -0.36C1341.92 -0.36 1346.47 0.72 1350.46 2.87C1354.44 5.02 1357.58 8 1359.91 11.8C1362.23 15.59 1363.39 20.03 1363.39 25.12C1363.39 29.51 1362.68 33.3 1361.26 36.5C1359.85 39.71 1357.91 42.57 1355.47 45.12C1353.03 47.66 1350.24 50.18 1347.08 52.69C1345.04 54.33 1343.61 56.47 1342.83 59.08C1342.04 61.71 1341.65 63.84 1341.65 65.48C1341.65 67.2 1341.1 68.63 1339.99 69.76C1338.9 70.85 1337.44 71.42 1335.62 71.42C1333.89 71.42 1332.45 70.85 1331.31 69.72ZM1329.88 90.73C1328.26 89.12 1327.46 87.22 1327.46 85.04C1327.46 82.76 1328.26 80.83 1329.88 79.23C1331.5 77.62 1333.4 76.82 1335.62 76.82C1337.91 76.82 1339.86 77.62 1341.47 79.23C1343.07 80.83 1343.89 82.76 1343.89 85.04C1343.89 87.22 1343.09 89.12 1341.47 90.73C1339.86 92.33 1337.91 93.13 1335.62 93.13C1333.42 93.13 1331.5 92.33 1329.88 90.73Z" stroke="#EE820B" stroke-opacity="1.000000" stroke-width="1.000000"/>
</svg>
